<svg xmlns="http://www.w3.org/2000/svg" width="634" height="356.772" viewBox="0 0 634 356.772">
  <g id="Finance-pana" transform="translate(-7.406 -80.884)">
    <g id="Company-rafiki" transform="translate(7.406 25.884)">
      <g id="freepik--background-complete--inject-188">
        <rect id="Rectangle_17564" data-name="Rectangle 17564" width="33.12" height="0.25" transform="translate(416.78 398.49)" fill="#ebebeb"/>
        <rect id="Rectangle_17565" data-name="Rectangle 17565" width="8.69" height="0.25" transform="translate(322.53 401.21)" fill="#ebebeb"/>
        <rect id="Rectangle_17566" data-name="Rectangle 17566" width="19.19" height="0.25" transform="translate(396.59 389.21)" fill="#ebebeb"/>
        <rect id="Rectangle_17567" data-name="Rectangle 17567" width="43.19" height="0.25" transform="translate(52.46 390.89)" fill="#ebebeb"/>
        <rect id="Rectangle_17568" data-name="Rectangle 17568" width="6.33" height="0.25" transform="translate(104.56 390.89)" fill="#ebebeb"/>
        <rect id="Rectangle_17569" data-name="Rectangle 17569" width="93.68" height="0.25" transform="translate(131.47 395.11)" fill="#ebebeb"/>
        <path id="Path_28172" data-name="Path 28172" d="M237,337.8H43.91a5.71,5.71,0,0,1-5.7-5.71V60.66A5.71,5.71,0,0,1,43.91,55H237a5.71,5.71,0,0,1,5.71,5.71V332.09A5.71,5.71,0,0,1,237,337.8ZM43.91,55.2a5.46,5.46,0,0,0-5.45,5.46V332.09a5.46,5.46,0,0,0,5.45,5.46H237a5.47,5.47,0,0,0,5.46-5.46V60.66A5.47,5.47,0,0,0,237,55.2Z" fill="#ebebeb"/>
        <path id="Path_28173" data-name="Path 28173" d="M453.31,338.06H260.21a5.72,5.72,0,0,1-5.71-5.71V60.92a5.72,5.72,0,0,1,5.71-5.71h193.1A5.71,5.71,0,0,1,459,60.92V332.35a5.71,5.71,0,0,1-5.69,5.71ZM260.21,55.46a5.47,5.47,0,0,0-5.46,5.46V332.35a5.47,5.47,0,0,0,5.46,5.46h193.1a5.47,5.47,0,0,0,5.46-5.46V60.92a5.47,5.47,0,0,0-5.46-5.46Z" fill="#ebebeb"/>
        <rect id="Rectangle_17570" data-name="Rectangle 17570" width="500" height="0.25" transform="translate(0 382.4)" fill="#ebebeb"/>
        <path id="Path_28174" data-name="Path 28174" d="M75.66,148h90.69c11.62,0,14.42-16.26,3.45-20.08l-.43-.14c12.14-10.12-14.49-31.44-43.42-1.92,2.26-9.84-23.46-6.28-31.32,7.15C91.83,124.19,67.31,139.51,75.66,148Z" fill="#e6e6e6"/>
        <path id="Path_28175" data-name="Path 28175" d="M318.23,107.45h54.38s12.75-4.8,11.1-17.52-20.9-2.12-20.9-2.12S368.64,70.06,350,75.1s-20.46,22.63-20.46,22.63S305.05,93.45,318.23,107.45Z" fill="#ebebeb"/>
        <path id="Path_28176" data-name="Path 28176" d="M368.19,143.23h35.9s8.42-3.17,7.33-11.57-13.8-1.4-13.8-1.4,3.85-11.71-8.46-8.39a18.21,18.21,0,0,0-13.5,14.94S359.49,134,368.19,143.23Z" fill="#ebebeb"/>
        <path id="Path_28177" data-name="Path 28177" d="M361.29,325.21l-.1-10.62V314l-.09-9.47v-.6l-.09-9v-.59l-.08-8.57v-.56l-.08-8.18v-.52l-.08-7.82v-.49l-.07-7.47v-.48l-.06-6.18a4.5,4.5,0,0,1-1,.47v5.22h-6.62l5.34-4.89a10.749,10.749,0,0,1-1.67.2l-4.4,4,.08-4.72a3.68,3.68,0,0,1-1-.6l-.12,6.48v.48l-.12,7.47v.51l-.15,7.79V277l-.14,8.16v.56l-.15,8.57v.59l-.16,9v.61l-.17,9.46v.64l-.18,10.61L349.16,371l12.76.15Zm-1.33-2-7.69-8.31h7.64Zm-.12-9.3h-7.61l7.55-7.94Zm.08-11.67-7.32-7.5h7.28Zm-.09-8.53h-7.24l7.2-7.21Zm-.05-9.93-7-6.81h6.94Zm0-7.87h-6.92l6.86-6.58Zm-.12-15.15v6.23l-6.67-6.2Zm-7.52,1.42,6.67,6.22h-6.76Zm-.1,7.3h6.76L351.89,276Zm-.14,9.11,7,6.82h-7.06Zm-.1,7.86h7.09l-7.19,7.18Zm-.14,9.93,7.33,7.53h-7.43Zm-.07,8.54H359l-7.56,7.9Zm-.05,10.46,7.69,8.34h-7.81Z" fill="#ebebeb"/>
        <path id="Path_28178" data-name="Path 28178" d="M360.53,252.94h-.51l-.37-.34-3,2.8a11.791,11.791,0,0,0,1.66-.2l1.25-1.14v.77a4.879,4.879,0,0,0,1-.47Zm-9.26.06v1.12a4.429,4.429,0,0,0,1,.6V253Z" fill="#ebebeb"/>
        <path id="Path_28179" data-name="Path 28179" d="M362,252.11a1.8,1.8,0,0,1-.53,1.52l-.36.34a5.729,5.729,0,0,1-1.6.88,6.745,6.745,0,0,1-1.25.37,11.788,11.788,0,0,1-1.66.2h-.75a9.13,9.13,0,0,1-3.57-.72,4.431,4.431,0,0,1-1-.6l-.09-.07-.33-.32a1.66,1.66,0,0,1-.48-1.47l.76-4.26h-2l7-3.55,7.29,3.32h-2.05Z" fill="#ebebeb"/>
        <path id="Path_28180" data-name="Path 28180" d="M394.12,257.45l.27,113.57h64.38l.36-113.57Z" fill="#ebebeb"/>
        <path id="Path_28181" data-name="Path 28181" d="M406.69,243l.03,25.32h39.85l.05-25.32Z" fill="#ebebeb"/>
        <path id="Path_28182" data-name="Path 28182" d="M406.64,268.32h-8.42l-.01-7.58h8.42Z" fill="#fafafa"/>
        <rect id="Rectangle_17571" data-name="Rectangle 17571" width="8.42" height="7.59" transform="translate(414.37 260.73)" fill="#fafafa"/>
        <rect id="Rectangle_17572" data-name="Rectangle 17572" width="8.42" height="7.59" transform="translate(430.53 260.73)" fill="#fafafa"/>
        <path id="Path_28183" data-name="Path 28183" d="M455.1,268.32h-8.42l.02-7.58h8.42Z" fill="#f0f0f0"/>
        <path id="Path_28184" data-name="Path 28184" d="M406.53,282.15h-8.22l-.02-7.4h8.23Z" fill="#f0f0f0"/>
        <rect id="Rectangle_17573" data-name="Rectangle 17573" width="8.23" height="7.4" transform="translate(414.43 274.75)" fill="#f0f0f0"/>
        <rect id="Rectangle_17574" data-name="Rectangle 17574" width="8.23" height="7.4" transform="translate(430.57 274.75)" fill="#fafafa"/>
        <path id="Path_28185" data-name="Path 28185" d="M454.92,282.15h-8.23l.02-7.4h8.23Z" fill="#fafafa"/>
        <path id="Path_28186" data-name="Path 28186" d="M406.46,295.63h-8.03l-.02-7.22h8.04Z" fill="#f0f0f0"/>
        <rect id="Rectangle_17575" data-name="Rectangle 17575" width="8.04" height="7.22" transform="translate(414.54 288.41)" fill="#fafafa"/>
        <rect id="Rectangle_17576" data-name="Rectangle 17576" width="8.04" height="7.22" transform="translate(430.65 288.41)" fill="#fafafa"/>
        <rect id="Rectangle_17577" data-name="Rectangle 17577" width="8.58" height="7.74" transform="translate(414.16 249.72)" fill="#fafafa"/>
        <rect id="Rectangle_17578" data-name="Rectangle 17578" width="8.59" height="7.74" transform="translate(430.33 249.72)" fill="#f0f0f0"/>
        <path id="Path_28187" data-name="Path 28187" d="M454.79,295.63h-8.03l.01-7.22h8.04Z" fill="#f0f0f0"/>
        <path id="Path_28188" data-name="Path 28188" d="M406.44,308.8h-7.85l-.02-7.05h7.86Z" fill="#fafafa"/>
        <rect id="Rectangle_17579" data-name="Rectangle 17579" width="7.85" height="7.05" transform="translate(414.68 301.75)" fill="#f0f0f0"/>
        <path id="Path_28189" data-name="Path 28189" d="M438.63,308.8h-7.85l.01-7.05h7.85Z" fill="#f0f0f0"/>
        <path id="Path_28190" data-name="Path 28190" d="M454.72,308.8h-7.85l.02-7.05h7.85Z" fill="#fafafa"/>
        <path id="Path_28191" data-name="Path 28191" d="M406.79,323.6h-8.75l-.02-7.85h8.76Z" fill="#f0f0f0"/>
        <path id="Path_28192" data-name="Path 28192" d="M422.85,323.6h-8.74l-.01-7.85h8.76Z" fill="#fafafa"/>
        <path id="Path_28193" data-name="Path 28193" d="M438.92,323.6h-8.75v-7.85h8.76Z" fill="#fafafa"/>
        <path id="Path_28194" data-name="Path 28194" d="M454.98,323.6h-8.75l.02-7.85H455Z" fill="#f0f0f0"/>
        <path id="Path_28195" data-name="Path 28195" d="M406.84,336.1h-8.55l-.02-7.66h8.56Z" fill="#f0f0f0"/>
        <rect id="Rectangle_17580" data-name="Rectangle 17580" width="8.55" height="7.66" transform="translate(414.34 328.44)" fill="#fafafa"/>
        <rect id="Rectangle_17581" data-name="Rectangle 17581" width="8.55" height="7.66" transform="translate(430.41 328.44)" fill="#f0f0f0"/>
        <path id="Path_28196" data-name="Path 28196" d="M455.01,336.1h-8.55l.02-7.66h8.56Z" fill="#fafafa"/>
        <path id="Path_28197" data-name="Path 28197" d="M406.66,350.17h-8.34l-.01-7.46h8.34Z" fill="#fafafa"/>
        <rect id="Rectangle_17582" data-name="Rectangle 17582" width="8.34" height="7.46" transform="translate(414.35 342.71)" fill="#fafafa"/>
        <rect id="Rectangle_17583" data-name="Rectangle 17583" width="8.34" height="7.46" transform="translate(430.38 342.71)" fill="#f0f0f0"/>
        <path id="Path_28198" data-name="Path 28198" d="M454.74,350.17h-8.33l.01-7.46h8.34Z" fill="#f0f0f0"/>
        <path id="Path_28199" data-name="Path 28199" d="M406.66,362.96h-8.14l-.01-7.27h8.14Z" fill="#f0f0f0"/>
        <path id="Path_28200" data-name="Path 28200" d="M454.71,362.96h-8.13l.01-7.27h8.14Z" fill="#fafafa"/>
        <path id="Path_28201" data-name="Path 28201" d="M438.76,355.69h-24.3l.05,1.83h.67l.01,13.5h2.43l-.01-13.5h18.04l-.02,13.5h2.43l.02-13.5h.73Z" fill="#f5f5f5"/>
        <path id="Path_28202" data-name="Path 28202" d="M426.73,371.02h-9v-13.5h9.01Z" fill="#e6e6e6"/>
        <path id="Path_28203" data-name="Path 28203" d="M435.52,371.02h-9.01l.01-13.5h9.02Z" fill="#ebebeb"/>
        <path id="Path_28204" data-name="Path 28204" d="M394.21,293.58l.18,77.44H313.66l-.74-77.44Z" fill="#f5f5f5"/>
        <path id="Path_28205" data-name="Path 28205" d="M378.76,310.79h10.08l-.03-9.04H378.73Z" fill="#e6e6e6"/>
        <path id="Path_28206" data-name="Path 28206" d="M358.65,310.79h10.08l-.04-9.04H358.6Z" fill="#e6e6e6"/>
        <path id="Path_28207" data-name="Path 28207" d="M338.54,310.79h10.08l-.06-9.04H338.48Z" fill="#e6e6e6"/>
        <path id="Path_28208" data-name="Path 28208" d="M318.43,310.79h10.08l-.08-9.04H318.35Z" fill="#e6e6e6"/>
        <path id="Path_28209" data-name="Path 28209" d="M378.38,328.44h10.86l-.03-9.73H378.34Z" fill="#e6e6e6"/>
        <path id="Path_28210" data-name="Path 28210" d="M358.31,328.44h10.86l-.05-9.73H358.25Z" fill="#e6e6e6"/>
        <path id="Path_28211" data-name="Path 28211" d="M338.23,328.44h10.86l-.06-9.73H338.16Z" fill="#e6e6e6"/>
        <path id="Path_28212" data-name="Path 28212" d="M318.16,328.44h10.86l-.08-9.73H318.07Z" fill="#e6e6e6"/>
        <path id="Path_28213" data-name="Path 28213" d="M378.66,344.58H389.2l-.02-9.43H378.63Z" fill="#e6e6e6"/>
        <path id="Path_28214" data-name="Path 28214" d="M358.61,344.58h10.54l-.04-9.43H358.56Z" fill="#e6e6e6"/>
        <path id="Path_28215" data-name="Path 28215" d="M338.56,344.58H349.1l-.06-9.43H338.49Z" fill="#e6e6e6"/>
        <path id="Path_28216" data-name="Path 28216" d="M318.5,344.58h10.54l-.07-9.43H318.42Z" fill="#e6e6e6"/>
        <path id="Path_28217" data-name="Path 28217" d="M378.89,361.15h10.22l-.02-9.14H378.85Z" fill="#e6e6e6"/>
        <path id="Path_28218" data-name="Path 28218" d="M318.81,361.15h10.23l-.08-9.14H318.73Z" fill="#e6e6e6"/>
        <path id="Path_28219" data-name="Path 28219" d="M338.08,352.01h31.63l.01,2.76H367.7l.08,16.25h-2.93l-.08-16.25h-21.7l.11,16.25h-2.92l-.12-16.25h-2.03Z" fill="#f5f5f5"/>
        <path id="Path_28220" data-name="Path 28220" d="M354.09,371.02h10.83l-.08-16.25H353.99Z" fill="#e6e6e6"/>
        <path id="Path_28221" data-name="Path 28221" d="M343.11,371.02h10.83l-.09-16.25H343Z" fill="#ebebeb"/>
        <path id="Path_28222" data-name="Path 28222" d="M152.1,227.29v-3.64a.44.44,0,0,0-.87,0v4a.46.46,0,0,0,.43.44,1.75,1.75,0,1,1-1.75,1.74c0-.55-.92-.55-.87,0,.22,2.17,2.75,3.6,4.47,1.86a2.62,2.62,0,0,0-1.41-4.4Z" fill="#ebebeb"/>
        <path id="Path_28223" data-name="Path 28223" d="M88,201.12V209l-8.31-8.31-.41.41H78.7v75H89.16v-75Zm-8.14,57.22,7.32,7.32H79.86Zm0-18.61,7.32,7.32H79.86Zm0-18.6,7.32,7.32H79.86Zm0-18.61,7.32,7.33H79.86ZM87.18,211l-7.32,7.33V211Zm.82.82v7.33H80.68Zm-.82,17.79-7.32,7.32v-7.32Zm.82.82v7.32H80.68Zm-.82,17.78-7.32,7.33v-7.33ZM88,249v7.33H80.68Zm-.82,17.79-7.32,7.32v-7.32ZM80.68,275,88,267.64V275ZM88,264.84l-7.32-7.32H88Zm0-18.61-7.32-7.32H88Zm0-18.6-7.32-7.32H88Z" fill="#f0f0f0"/>
        <path id="Path_28224" data-name="Path 28224" d="M79.86,176.42V191H81v-5.57l6,6,.41-.41H88v-14.6ZM86,177.58l-5,5v-5Zm.82,12-5-5h5Zm-5-6.15,5-5v5Z" fill="#f0f0f0"/>
        <rect id="Rectangle_17584" data-name="Rectangle 17584" width="13.95" height="13.95" transform="translate(46.81 201.12)" fill="#e6e6e6"/>
        <path id="Path_28225" data-name="Path 28225" d="M151.85,221.25h-.78V194.43L86.1,172.88H81.81L47.02,194.47l-.41-.65,34.97-21.71h4.65l.06.02,65.56,21.74Z" fill="#e6e6e6"/>
        <path id="Path_28226" data-name="Path 28226" d="M143.9,201.73h.8l8.16-8.16H46.23v8.13H143.9Zm1.16-7h5l-5,5Zm-97.67,5.81v-5l5,5Zm5.82-.82-5-5h5Zm1.16-5h5l-5,5Zm5.82,5.81h-5l5-5Zm1.16,0v-5l5,5Zm5.81-.82-5-5h5Zm1.16-5h5l-5,5Zm5.82,5.81h-5l5-5Zm1.16,0v-5l5,5Zm5.82-.82-5-5h5Zm1.16-5h5l-5,5Zm5.81,5.81h-5l5-5Zm1.16,0v-5l5,5Zm5.82-.82-5-5h5Zm1.16-5h5l-5,5Zm5.81,5.81h-5l5-5Zm1.16,0v-5l5,5Zm5.82-.82-5-5h5Zm1.16-5h5l-5,5Zm5.82,5.81h-5l5-5Zm1.16,0v-5l5,5Zm5.81-.82-5-5h5Zm1.16-5h5l-5,5Zm5.82,5.81h-5l5-5Zm1.16-5.81h5l-5,5Zm5.82,5.81h-5l5-5Zm1.16,0v-5l5,5Zm.82-5.81h5v5Z" fill="#f0f0f0"/>
        <path id="Path_28227" data-name="Path 28227" d="M94.32,204.29H72.86l.79-9a4.71,4.71,0,0,1,4.7-4.31H88.57a4.73,4.73,0,0,1,4.69,4.18Z" fill="#f0f0f0"/>
        <rect id="Rectangle_17585" data-name="Rectangle 17585" width="4.12" height="4.12" transform="translate(76.32 194.7)" fill="#fafafa"/>
        <rect id="Rectangle_17586" data-name="Rectangle 17586" width="4.12" height="4.12" transform="translate(81.53 194.7)" fill="#fafafa"/>
        <rect id="Rectangle_17587" data-name="Rectangle 17587" width="4.12" height="4.12" transform="translate(86.74 194.7)" fill="#fafafa"/>
        <path id="Path_28228" data-name="Path 28228" d="M86.74,174.19a2.81,2.81,0,1,1-2.81-2.81A2.81,2.81,0,0,1,86.74,174.19Z" fill="#e6e6e6"/>
        <path id="Path_28229" data-name="Path 28229" d="M151.66,226.05h0a2.4,2.4,0,0,1-2.4-2.4v-2.4h4.8v2.4A2.4,2.4,0,0,1,151.66,226.05Z" fill="#e6e6e6"/>
        <path id="Path_28230" data-name="Path 28230" d="M38.04,257.45,39.9,371.02h64.39l-1.23-113.57Z" fill="#f5f5f5"/>
        <path id="Path_28231" data-name="Path 28231" d="M42.1,260.74l.23,13.82.06,3.79.06,3.8h8.43l-.06-3.8-.05-3.79-.22-13.82Z" fill="#e6e6e6"/>
        <path id="Path_28232" data-name="Path 28232" d="M58.26,260.74l.21,13.82.05,3.79.06,3.8h8.43l-.05-3.8-.05-3.79-.19-13.82Z" fill="#e6e6e6"/>
        <path id="Path_28233" data-name="Path 28233" d="M74.42,260.74l.19,13.82.05,3.79.05,3.8h8.43l-.04-3.8-.05-3.79-.17-13.82Z" fill="#e6e6e6"/>
        <path id="Path_28234" data-name="Path 28234" d="M90.59,260.74l.16,13.82.07,5.86.02,1.73h8.44l-.02-1.73-.07-5.86-.15-13.82Z" fill="#e6e6e6"/>
        <path id="Path_28235" data-name="Path 28235" d="M42.61,288.41l.23,13.81.06,3.79.06,3.79H51.4l-.05-3.79-.06-3.79-.21-13.81Z" fill="#e6e6e6"/>
        <path id="Path_28236" data-name="Path 28236" d="M58.73,288.41l.2,13.81.08,5.34.03,2.24h8.45l-.03-2.24-.07-5.34-.2-13.81Z" fill="#e6e6e6"/>
        <path id="Path_28237" data-name="Path 28237" d="M74.84,288.41l.19,13.81.05,3.79.05,3.79h8.45l-.05-3.79-.05-3.79-.17-13.81Z" fill="#e6e6e6"/>
        <path id="Path_28238" data-name="Path 28238" d="M90.96,288.41l.17,13.81.04,3.79.05,3.79h8.44l-.04-3.79-.04-3.79-.15-13.81Z" fill="#e6e6e6"/>
        <path id="Path_28239" data-name="Path 28239" d="M43.09,315.75l.22,13.75.07,3.78.06,3.77h8.43l-.06-3.77-.06-3.78-.2-13.75Z" fill="#e6e6e6"/>
        <path id="Path_28240" data-name="Path 28240" d="M59.17,315.75l.2,13.75.05,3.78.06,3.77h8.43l-.05-3.77-.05-3.78-.19-13.75Z" fill="#e6e6e6"/>
        <path id="Path_28241" data-name="Path 28241" d="M75.24,315.75l.18,13.75.05,3.78.05,3.77h8.44l-.05-3.77-.05-3.78-.17-13.75Z" fill="#e6e6e6"/>
        <path id="Path_28242" data-name="Path 28242" d="M91.32,315.75l.16,13.75.06,5.22.03,2.33H100l-.02-2.33-.06-5.22-.15-13.75Z" fill="#e6e6e6"/>
        <path id="Path_28243" data-name="Path 28243" d="M96,342.71H43.36l.12,7.46h56.78l-.08-7.46Z" fill="#e6e6e6"/>
        <path id="Path_28244" data-name="Path 28244" d="M84.01,355.69H59.71l-.02,1.83h.73l.2,13.5h2.43l-.2-13.5H80.89l.17,13.5h2.42l-.16-13.5h.67Z" fill="#fafafa"/>
        <path id="Path_28245" data-name="Path 28245" d="M72.16,371.02h-9l-.2-13.5h9.02Z" fill="#e6e6e6"/>
        <path id="Path_28246" data-name="Path 28246" d="M80.94,371.02h-9l-.18-13.5h9.01Z" fill="#e6e6e6"/>
        <path id="Path_28247" data-name="Path 28247" d="M164.38,264l.73,107.02H104.44L103.11,264Z" fill="#e6e6e6"/>
        <path id="Path_28248" data-name="Path 28248" d="M142.74,344.58H160.9l.02,3.43.02,3.43.1,12.42h-7.69l-.1-12.77H138.47l-.06-6.51Z" fill="#f0f0f0"/>
        <path id="Path_28249" data-name="Path 28249" d="M113.44,344.58H130.5l.07,6.51H115.98l.15,12.77h-7.69l-.14-12.42-.06-4.96-.03-1.9Z" fill="#f0f0f0"/>
        <path id="Path_28250" data-name="Path 28250" d="M124.18,356.6h20.91l.02,1.83h.23l.1,12.59h-2.26l-.11-12.59H126.25l.13,12.59h-2.26l-.14-12.59h.22Z" fill="#f5f5f5"/>
        <path id="Path_28251" data-name="Path 28251" d="M134.69,371.02h8.4l-.11-12.59h-8.41Z" fill="#ebebeb"/>
        <path id="Path_28252" data-name="Path 28252" d="M126.47,371.02h8.4l-.12-12.59h-8.41Z" fill="#e0e0e0"/>
        <path id="Path_28253" data-name="Path 28253" d="M137.31,268.32h23.31l.14,20.09H137.5Z" fill="#f0f0f0"/>
        <path id="Path_28254" data-name="Path 28254" d="M107.09,268.32H130.4l.19,20.09H107.33Z" fill="#f0f0f0"/>
        <path id="Path_28255" data-name="Path 28255" d="M137.96,293.58h22.31l.15,19.2H138.13Z" fill="#f0f0f0"/>
        <path id="Path_28256" data-name="Path 28256" d="M107.79,293.58H130.1l.2,19.2H108.01Z" fill="#f0f0f0"/>
        <path id="Path_28257" data-name="Path 28257" d="M138.19,319.69h22.44l.14,19.25H138.36Z" fill="#f0f0f0"/>
        <path id="Path_28258" data-name="Path 28258" d="M108.11,319.69h22.44l.19,19.25H108.33Z" fill="#f0f0f0"/>
      </g>
      <g id="freepik--Company--inject-188" transform="translate(15.858 58.129)" opacity="0.498">
        <path id="Path_28259" data-name="Path 28259" d="M160.83,84.62l3.067,3.963H304.385l3.092-3.963Z" transform="translate(-0.007 -5.269)" fill="#ca5135"/>
        <g id="Group_42518" data-name="Group 42518" transform="translate(160.823 79.351)" opacity="0.4">
          <path id="Path_28260" data-name="Path 28260" d="M160.83,84.62l3.067,3.963H304.385l3.092-3.963Z" transform="translate(-160.83 -84.62)"/>
        </g>
        <rect id="Rectangle_17588" data-name="Rectangle 17588" width="140.809" height="249.616" transform="translate(163.602 74.245)" fill="#ca5135"/>
        <g id="Group_42519" data-name="Group 42519" transform="translate(163.602 74.245)" opacity="0.4">
          <rect id="Rectangle_17589" data-name="Rectangle 17589" width="140.809" height="249.616" fill="#fff"/>
        </g>
        <g id="Group_42520" data-name="Group 42520" transform="translate(163.621 77.427)" opacity="0.8">
          <path id="Path_28261" data-name="Path 28261" d="M169.92,85.24a2.557,2.557,0,0,1-2.516,2.935,3.289,3.289,0,0,1-3.141-2.935,2.565,2.565,0,0,1,2.524-2.96A3.289,3.289,0,0,1,169.92,85.24Z" transform="translate(-164.233 -82.28)" fill="#f0f0f0"/>
          <path id="Path_28262" data-name="Path 28262" d="M176.231,85.24a2.582,2.582,0,0,1-2.549,2.935,3.289,3.289,0,0,1-3.108-2.935,2.582,2.582,0,0,1,2.541-2.96,3.289,3.289,0,0,1,3.116,2.96Z" transform="translate(-165.355 -82.28)" fill="#f0f0f0"/>
          <path id="Path_28263" data-name="Path 28263" d="M182.532,85.24a2.6,2.6,0,0,1-2.565,2.935,3.223,3.223,0,0,1-3.092-2.935,2.606,2.606,0,0,1,2.565-2.96,3.223,3.223,0,0,1,3.092,2.96Z" transform="translate(-166.476 -82.28)" fill="#f0f0f0"/>
          <path id="Path_28264" data-name="Path 28264" d="M188.833,85.24a2.631,2.631,0,0,1-2.59,2.935,3.2,3.2,0,0,1-3.067-2.935,2.639,2.639,0,0,1,2.6-2.96,3.19,3.19,0,0,1,3.059,2.96Z" transform="translate(-167.597 -82.28)" fill="#f0f0f0"/>
          <path id="Path_28265" data-name="Path 28265" d="M195.143,85.24a2.656,2.656,0,0,1-2.615,2.935,3.166,3.166,0,0,1-3.042-2.935,2.656,2.656,0,0,1,2.615-2.96,3.157,3.157,0,0,1,3.042,2.96Z" transform="translate(-168.719 -82.28)" fill="#f0f0f0"/>
          <path id="Path_28266" data-name="Path 28266" d="M201.444,85.24a2.681,2.681,0,0,1-2.639,2.935,3.133,3.133,0,0,1-3.018-2.935,2.681,2.681,0,0,1,2.639-2.96,3.125,3.125,0,0,1,3.018,2.96Z" transform="translate(-169.839 -82.28)" fill="#f0f0f0"/>
          <path id="Path_28267" data-name="Path 28267" d="M207.774,85.24a2.705,2.705,0,0,1-2.664,2.935,3.1,3.1,0,0,1-2.993-2.935,2.7,2.7,0,0,1,2.656-2.96,3.108,3.108,0,0,1,3,2.96Z" transform="translate(-170.965 -82.28)" fill="#f0f0f0"/>
          <path id="Path_28268" data-name="Path 28268" d="M214.053,85.24a2.73,2.73,0,0,1-2.7,2.935,3.067,3.067,0,0,1-2.968-2.935,2.73,2.73,0,0,1,2.68-2.96,3.075,3.075,0,0,1,2.985,2.96Z" transform="translate(-172.08 -82.28)" fill="#f0f0f0"/>
          <path id="Path_28269" data-name="Path 28269" d="M220.355,85.24a2.754,2.754,0,0,1-2.705,2.935A3.042,3.042,0,0,1,214.7,85.24a2.754,2.754,0,0,1,2.713-2.96A3.034,3.034,0,0,1,220.355,85.24Z" transform="translate(-173.202 -82.28)" fill="#f0f0f0"/>
          <path id="Path_28270" data-name="Path 28270" d="M226.664,85.24a2.787,2.787,0,0,1-2.738,2.935A3,3,0,0,1,221,85.24a2.779,2.779,0,0,1,2.73-2.96A3.009,3.009,0,0,1,226.664,85.24Z" transform="translate(-174.322 -82.28)" fill="#f0f0f0"/>
          <path id="Path_28271" data-name="Path 28271" d="M232.966,85.24a2.812,2.812,0,0,1-2.755,2.935,2.985,2.985,0,0,1-2.9-2.935,2.8,2.8,0,0,1,2.755-2.96,2.976,2.976,0,0,1,2.9,2.96Z" transform="translate(-175.444 -82.28)" fill="#f0f0f0"/>
          <path id="Path_28272" data-name="Path 28272" d="M239.266,85.24a2.837,2.837,0,0,1-2.779,2.935,2.96,2.96,0,0,1-2.878-2.935,2.837,2.837,0,0,1,2.779-2.96,2.944,2.944,0,0,1,2.878,2.96Z" transform="translate(-176.565 -82.28)" fill="#f0f0f0"/>
          <path id="Path_28273" data-name="Path 28273" d="M245.577,85.24a2.861,2.861,0,0,1-2.8,2.935,2.919,2.919,0,0,1-2.853-2.935,2.861,2.861,0,0,1,2.8-2.96,2.927,2.927,0,0,1,2.853,2.96Z" transform="translate(-177.687 -82.28)" fill="#f0f0f0"/>
          <path id="Path_28274" data-name="Path 28274" d="M251.878,85.24a2.829,2.829,0,1,1-2.829-2.96,2.886,2.886,0,0,1,2.828,2.96Z" transform="translate(-178.808 -82.28)" fill="#f0f0f0"/>
          <path id="Path_28275" data-name="Path 28275" d="M258.179,85.24a2.911,2.911,0,0,1-2.845,2.935,2.861,2.861,0,0,1-2.8-2.935,2.911,2.911,0,0,1,2.845-2.96,2.861,2.861,0,0,1,2.8,2.96Z" transform="translate(-179.928 -82.28)" fill="#f0f0f0"/>
          <path id="Path_28276" data-name="Path 28276" d="M264.487,85.24a2.944,2.944,0,0,1-2.878,2.935,2.837,2.837,0,0,1-2.779-2.935,2.944,2.944,0,0,1,2.87-2.96,2.845,2.845,0,0,1,2.787,2.96Z" transform="translate(-181.048 -82.28)" fill="#f0f0f0"/>
          <path id="Path_28277" data-name="Path 28277" d="M270.776,85.24a2.977,2.977,0,0,1-2.894,2.935,2.82,2.82,0,0,1-2.763-2.935,2.977,2.977,0,0,1,2.9-2.96,2.812,2.812,0,0,1,2.754,2.96Z" transform="translate(-182.166 -82.28)" fill="#f0f0f0"/>
          <path id="Path_28278" data-name="Path 28278" d="M277.1,85.24a3.009,3.009,0,0,1-2.927,2.935,2.779,2.779,0,0,1-2.73-2.935,3,3,0,0,1,2.919-2.96,2.787,2.787,0,0,1,2.738,2.96Z" transform="translate(-183.289 -82.28)" fill="#f0f0f0"/>
          <path id="Path_28279" data-name="Path 28279" d="M283.389,85.24a3.042,3.042,0,0,1-2.977,2.935A2.763,2.763,0,0,1,277.7,85.24a3.034,3.034,0,0,1,2.944-2.96,2.755,2.755,0,0,1,2.746,2.96Z" transform="translate(-184.402 -82.28)" fill="#f0f0f0"/>
          <path id="Path_28280" data-name="Path 28280" d="M289.688,85.24a3.059,3.059,0,0,1-2.96,2.935A2.738,2.738,0,0,1,284,85.24a3.067,3.067,0,0,1,2.968-2.96,2.73,2.73,0,0,1,2.722,2.96Z" transform="translate(-185.521 -82.28)" fill="#f0f0f0"/>
          <path id="Path_28281" data-name="Path 28281" d="M296,85.24a3.1,3.1,0,0,1-2.993,2.935,2.705,2.705,0,0,1-2.664-2.935,3.092,3.092,0,0,1,2.993-2.96A2.713,2.713,0,0,1,296,85.24Z" transform="translate(-186.649 -82.28)" fill="#f0f0f0"/>
          <path id="Path_28282" data-name="Path 28282" d="M302.3,85.24a3.124,3.124,0,0,1-3.009,2.935,2.689,2.689,0,0,1-2.648-2.935,3.125,3.125,0,0,1,3.018-2.96,2.68,2.68,0,0,1,2.639,2.96Z" transform="translate(-187.769 -82.28)" fill="#f0f0f0"/>
          <path id="Path_28283" data-name="Path 28283" d="M308.613,85.24a3.149,3.149,0,0,1-3.034,2.935A2.664,2.664,0,0,1,303,85.24a3.157,3.157,0,0,1,3.042-2.96,2.656,2.656,0,0,1,2.574,2.96Z" transform="translate(-188.897 -82.28)" fill="#f0f0f0"/>
          <path id="Path_28284" data-name="Path 28284" d="M314.913,85.24a3.19,3.19,0,0,1-3.059,2.935,2.631,2.631,0,0,1-2.6-2.935,3.182,3.182,0,0,1,3.059-2.96,2.639,2.639,0,0,1,2.6,2.96Z" transform="translate(-190.009 -82.28)" fill="#f0f0f0"/>
          <path id="Path_28285" data-name="Path 28285" d="M321.213,85.24a3.223,3.223,0,0,1-3.083,2.935,2.615,2.615,0,0,1-2.574-2.935,3.223,3.223,0,0,1,3.083-2.96,2.615,2.615,0,0,1,2.574,2.96Z" transform="translate(-191.128 -82.28)" fill="#f0f0f0"/>
          <path id="Path_28286" data-name="Path 28286" d="M327.527,85.24a3.289,3.289,0,0,1-3.083,2.935,2.582,2.582,0,0,1-2.549-2.935A3.289,3.289,0,0,1,325,82.28a2.59,2.59,0,0,1,2.524,2.96Z" transform="translate(-192.254 -82.28)" fill="#f0f0f0"/>
          <path id="Path_28287" data-name="Path 28287" d="M333.821,85.24a3.289,3.289,0,0,1-3.133,2.935,2.565,2.565,0,0,1-2.524-2.935,3.289,3.289,0,0,1,3.133-2.96,2.565,2.565,0,0,1,2.524,2.96Z" transform="translate(-193.369 -82.28)" fill="#f0f0f0"/>
        </g>
        <path id="Path_28288" data-name="Path 28288" d="M160.82,79.74H307.483l-.008,4.013H160.828Z" transform="translate(-0.005 -4.401)" fill="#ca5135"/>
        <path id="Path_28289" data-name="Path 28289" d="M160.81,74.86l3.059,4.013H304.4l3.092-4.013Z" transform="translate(-0.004 -3.534)" fill="#ca5135"/>
        <g id="Group_42521" data-name="Group 42521" transform="translate(160.806 71.326)" opacity="0.4">
          <path id="Path_28290" data-name="Path 28290" d="M160.81,74.86l3.059,4.013H304.4l3.092-4.013Z" transform="translate(-160.81 -74.86)"/>
        </g>
        <path id="Path_28291" data-name="Path 28291" d="M160.79,69.96h146.7l-.008,4.029H160.806Z" transform="translate(0 -2.663)" fill="#ca5135"/>
        <g id="Group_42522" data-name="Group 42522" transform="translate(163.857 71.326)" opacity="0.8">
          <path id="Path_28292" data-name="Path 28292" d="M164.52,74.86H305.065l-.008,4.013H164.528Z" transform="translate(-164.52 -74.86)" fill="#fff"/>
        </g>
        <g id="Group_42523" data-name="Group 42523" transform="translate(163.643 154.331)" opacity="0.7">
          <rect id="Rectangle_17590" data-name="Rectangle 17590" width="140.8" height="1.768" transform="translate(0 0)" fill="#fff"/>
        </g>
        <g id="Group_42524" data-name="Group 42524" transform="translate(163.931 242.073)" opacity="0.8">
          <rect id="Rectangle_17591" data-name="Rectangle 17591" width="140.504" height="1.76" fill="#fff"/>
        </g>
        <rect id="Rectangle_17592" data-name="Rectangle 17592" width="17.407" height="18.805" transform="translate(192.824 91.003)" fill="#ca5135"/>
        <rect id="Rectangle_17593" data-name="Rectangle 17593" width="17.407" height="18.805" transform="translate(226.257 91.003)" fill="#ca5135"/>
        <rect id="Rectangle_17594" data-name="Rectangle 17594" width="17.407" height="18.805" transform="translate(259.689 91.003)" fill="#ca5135"/>
        <rect id="Rectangle_17595" data-name="Rectangle 17595" width="17.407" height="18.805" transform="translate(192.824 119.156)" fill="#ca5135"/>
        <rect id="Rectangle_17596" data-name="Rectangle 17596" width="17.407" height="18.805" transform="translate(226.257 119.156)" fill="#ca5135"/>
        <rect id="Rectangle_17597" data-name="Rectangle 17597" width="17.407" height="18.805" transform="translate(259.689 119.156)" fill="#ca5135"/>
        <rect id="Rectangle_17598" data-name="Rectangle 17598" width="17.407" height="18.805" transform="translate(192.824 255.615)" fill="#ca5135"/>
        <rect id="Rectangle_17599" data-name="Rectangle 17599" width="17.407" height="18.805" transform="translate(226.257 255.615)" fill="#ca5135"/>
        <rect id="Rectangle_17600" data-name="Rectangle 17600" width="17.407" height="18.805" transform="translate(259.689 255.615)" fill="#ca5135"/>
        <rect id="Rectangle_17601" data-name="Rectangle 17601" width="17.407" height="18.805" transform="translate(174.176 295.206)" fill="#ca5135"/>
        <rect id="Rectangle_17602" data-name="Rectangle 17602" width="17.407" height="18.805" transform="translate(276.446 295.206)" fill="#ca5135"/>
        <rect id="Rectangle_17603" data-name="Rectangle 17603" width="17.407" height="18.805" transform="translate(192.824 170.916)" fill="#ca5135"/>
        <rect id="Rectangle_17604" data-name="Rectangle 17604" width="17.407" height="18.805" transform="translate(226.257 170.916)" fill="#ca5135"/>
        <rect id="Rectangle_17605" data-name="Rectangle 17605" width="17.407" height="18.805" transform="translate(259.689 170.916)" fill="#ca5135"/>
        <rect id="Rectangle_17606" data-name="Rectangle 17606" width="17.407" height="18.805" transform="translate(192.824 199.07)" fill="#ca5135"/>
        <rect id="Rectangle_17607" data-name="Rectangle 17607" width="17.407" height="18.805" transform="translate(226.257 199.07)" fill="#ca5135"/>
        <rect id="Rectangle_17608" data-name="Rectangle 17608" width="17.407" height="18.805" transform="translate(259.689 199.07)" fill="#ca5135"/>
        <g id="Group_42525" data-name="Group 42525" transform="translate(213.75 297.409)" opacity="0.8" style="mix-blend-mode: normal;isolation: isolate">
          <path id="Path_28293" data-name="Path 28293" d="M225.323,349.82h18.015l-.074,18.706H225.2Z" transform="translate(-225.2 -349.82)" fill="#fff"/>
        </g>
        <g id="Group_42526" data-name="Group 42526" transform="translate(235.17 297.409)" opacity="0.8" style="mix-blend-mode: normal;isolation: isolate">
          <path id="Path_28294" data-name="Path 28294" d="M251.447,349.82H270.2l-.888,18.706H251.25Z" transform="translate(-251.25 -349.82)" fill="#fff"/>
        </g>
        <path id="Path_28295" data-name="Path 28295" d="M267.473,376.336H219.939l-.189-3.766h47.9Z" transform="translate(-10.481 -56.455)" fill="#ca5135"/>
        <g id="Group_42527" data-name="Group 42527" transform="translate(209.269 316.115)" opacity="0.1">
          <path id="Path_28296" data-name="Path 28296" d="M267.473,376.336H219.939l-.189-3.766h47.9Z" transform="translate(-219.75 -372.57)" fill="#fff"/>
        </g>
        <path id="Path_28297" data-name="Path 28297" d="M269.022,381.188H217.9l-.206-3.708h51.522Z" transform="translate(-10.115 -57.327)" fill="#ca5135"/>
        <g id="Group_42528" data-name="Group 42528" transform="translate(205.717 286.548)" opacity="0.4">
          <path id="Path_28298" data-name="Path 28298" d="M270.315,340.845H215.668l-.238-4.235h55.1Z" transform="translate(-215.43 -336.61)" fill="#fff"/>
        </g>
        <path id="Path_28299" data-name="Path 28299" d="M215.72,341.76l7.918,6.627h40.249l6.479-6.627Z" transform="translate(-9.764 -50.978)" fill="#263238"/>
        <path id="Path_28300" data-name="Path 28300" d="M220.22,345.423l2.8,22.2h2.22l-.9-22.2h0a4.5,4.5,0,0,0-4.111,0Z" transform="translate(-10.564 -51.541)" fill="#ca5135"/>
        <path id="Path_28301" data-name="Path 28301" d="M277.548,345.4l-2.738,22.2h-2.22l.822-22.2h0a3.749,3.749,0,0,1,4.111,0Z" transform="translate(-19.874 -51.515)" fill="#ca5135"/>
        <path id="Path_28302" data-name="Path 28302" d="M193.44,61.2c0-3.634,2.787-6.208,6.578-6.208a6.307,6.307,0,0,1,5.139,2.253l-2.146,1.94a3.569,3.569,0,0,0-2.82-1.4,3.412,3.412,0,1,0,0,6.825,3.544,3.544,0,0,0,2.82-1.4l2.146,1.949a6.331,6.331,0,0,1-5.139,2.253C196.227,67.412,193.44,64.864,193.44,61.2Z" transform="translate(-5.804 0)" fill="#263238"/>
        <path id="Path_28303" data-name="Path 28303" d="M208.44,61.2c0-3.577,2.82-6.208,6.644-6.208s6.635,2.631,6.635,6.208-2.812,6.216-6.635,6.216S208.44,64.783,208.44,61.2Zm9.867,0a3.231,3.231,0,1,0-3.223,3.412,3.2,3.2,0,0,0,3.223-3.412Z" transform="translate(-8.47 -0.002)" fill="#263238"/>
        <path id="Path_28304" data-name="Path 28304" d="M237.535,67.227V60.9l-3.075,5.155h-1.5L229.9,61.069v6.159H226.78V55.28h2.787l4.193,6.89,4.111-6.89h2.779V67.227Z" transform="translate(-11.73 -0.053)" fill="#263238"/>
        <path id="Path_28305" data-name="Path 28305" d="M257.3,59.7c0,2.705-2.047,4.4-5.3,4.4h-2.088v3.125H246.54V55.28H252C255.256,55.28,257.3,56.966,257.3,59.7Zm-3.412,0c0-1.11-.7-1.76-2.1-1.76h-1.883v3.495h1.883c1.4,0,2.1-.633,2.1-1.735Z" transform="translate(-15.243 -0.053)" fill="#263238"/>
        <path id="Path_28306" data-name="Path 28306" d="M268.589,64.92h-5.057l-.937,2.327H259.15L264.421,55.3h3.33L273,67.231h-3.511Zm-.995-2.467-1.538-3.815-1.529,3.815Z" transform="translate(-17.484 -0.057)" fill="#263238"/>
        <path id="Path_28307" data-name="Path 28307" d="M288.549,55.28V67.227H285.77L280.5,60.863v6.364H277.21V55.28h2.779l5.271,6.348V55.28Z" transform="translate(-20.695 -0.053)" fill="#263238"/>
        <path id="Path_28308" data-name="Path 28308" d="M299.985,62.943v4.284h-3.379V62.894L292.05,55.28h3.569l2.837,4.744,2.829-4.744h3.289Z" transform="translate(-23.333 -0.053)" fill="#263238"/>
        <path id="Path_28309" data-name="Path 28309" d="M164.52,74.86H305.065l-.008,4.013H164.528Z" transform="translate(-0.663 -3.534)" fill="#ca5135"/>
      </g>
      <g id="freepik--Birds--inject-188">
        <path id="Path_28310" data-name="Path 28310" d="M380.85,83.45a13,13,0,0,1-2.09-.68c-1.26-.49-2.87-1.32-4.56-2.13a13.85,13.85,0,0,0-4.46-1.34c-1.19-.13-2,0-2.11-.31s.59-.89,2-1.16a9.19,9.19,0,0,1,5.43.93,16.77,16.77,0,0,1,4.23,3.14C380.27,82.83,380.85,83.45,380.85,83.45Z" fill="#ca5135"/>
        <path id="Path_28311" data-name="Path 28311" d="M388.19,77.54l-1.51.59c-.9.37-2,.89-3.3,1.44-2.53,1.12-4.69,2.28-5,1.77-.16-.23.17-.8.9-1.5a11.269,11.269,0,0,1,3.32-2.18,7.58,7.58,0,0,1,4-.56,6,6,0,0,1,1.21.29Z" fill="#ca5135"/>
        <path id="Path_28312" data-name="Path 28312" d="M367.23,87.86l-.41-.25c-.26-.17-.65-.39-1.12-.64a24,24,0,0,0-3.7-1.61c-2.94-1.06-5.57-.82-5.65-1.27,0-.2.6-.54,1.74-.7a9.91,9.91,0,0,1,4.42.49,8.81,8.81,0,0,1,3.68,2.48,6.76,6.76,0,0,1,.8,1.08Z" fill="#ca5135"/>
        <path id="Path_28313" data-name="Path 28313" d="M370.12,81.78l-1.06.61-2.35,1.31c-1.77,1-3.14,2.11-3.48,1.81-.15-.15,0-.62.45-1.23a7.25,7.25,0,0,1,2.28-2,6,6,0,0,1,2.92-.7,5,5,0,0,1,1.24.2Z" fill="#ca5135"/>
        <path id="Path_28314" data-name="Path 28314" d="M364.79,78.32s-1-.35-2.52-1-3.57-1.55-5.82-2.29a16,16,0,0,0-5.89-.82c-1.54.09-2.52.39-2.66.11s.67-1,2.39-1.55a11.75,11.75,0,0,1,6.81.28,17.11,17.11,0,0,1,5.72,3.39A24,24,0,0,1,364.79,78.32Z" fill="#ca5135"/>
        <path id="Path_28315" data-name="Path 28315" d="M371.55,69.73l-.56.16c-.37.09-.88.25-1.49.44a42.292,42.292,0,0,0-4.5,1.78c-3.42,1.53-5.62,3.8-6.09,3.44-.22-.17.06-1,.93-2.08a12.13,12.13,0,0,1,4.29-3.25,10.77,10.77,0,0,1,5.28-.92,8.41,8.41,0,0,1,1.6.27Z" fill="#ca5135"/>
        <path id="Path_28316" data-name="Path 28316" d="M139.93,108.71a14.359,14.359,0,0,1-2.09-.68c-1.26-.49-2.88-1.32-4.56-2.14a14.15,14.15,0,0,0-4.47-1.34c-1.19-.13-2,0-2.11-.31s.59-.89,2-1.15a9.1,9.1,0,0,1,5.43.93,16.35,16.35,0,0,1,4.23,3.13C139.35,108.08,139.93,108.71,139.93,108.71Z" fill="#ca5135"/>
        <path id="Path_28317" data-name="Path 28317" d="M147.27,102.8l-1.52.59c-.9.36-2,.88-3.3,1.44-2.53,1.11-4.68,2.27-5,1.77-.17-.24.17-.8.89-1.51a11.41,11.41,0,0,1,3.32-2.18,7.73,7.73,0,0,1,4-.56,6.38,6.38,0,0,1,1.2.29,4.059,4.059,0,0,1,.41.16Z" fill="#ca5135"/>
        <path id="Path_28318" data-name="Path 28318" d="M126.31,113.11l-.42-.25c-.26-.17-.64-.39-1.11-.64a24.9,24.9,0,0,0-3.7-1.61c-2.94-1-5.58-.82-5.66-1.27,0-.2.61-.54,1.74-.7a9.84,9.84,0,0,1,4.43.5,8.77,8.77,0,0,1,3.68,2.47,6.59,6.59,0,0,1,.79,1.08Z" fill="#ca5135"/>
        <path id="Path_28319" data-name="Path 28319" d="M129.19,107l-1.05.61L125.79,109c-1.78,1-3.14,2.11-3.48,1.8-.16-.14,0-.61.45-1.23a7.12,7.12,0,0,1,2.28-1.94,5.94,5.94,0,0,1,2.91-.71,5,5,0,0,1,1.24.08Z" fill="#ca5135"/>
      </g>
    </g>
    <g id="freepik--Floor--inject-63" transform="translate(39.74 424.943)">
      <path id="Path_27829" data-name="Path 27829" d="M641.406,470.333Z" transform="translate(-39.74 -470.1)" fill="#263238"/>
    </g>
    <g id="freepik--Character--inject-63" transform="translate(212.545 136.975)">
      <path id="Path_27830" data-name="Path 27830" d="M250.414,462.37l-1.543,6.5s-10.633,13.81-13.908,13.128c-2.154-.44.494-4.038,4.487-14.527l.9-4.325Z" transform="translate(-232.512 -181.338)" fill="#455a64"/>
      <path id="Path_27831" data-name="Path 27831" d="M234.57,480.552a1.31,1.31,0,0,0,.565.547,1.974,1.974,0,0,0,2.037-.287,60.891,60.891,0,0,0,5.285-5.007c1.965-2.064,3.589-4.056,4.783-5.518l1.355-1.75c.135-.171.26-.323.368-.476a1.1,1.1,0,0,1,.144-.162,1.095,1.095,0,0,1-.144.162l-.341.5c-.3.431-.745,1.041-1.31,1.795a67.724,67.724,0,0,1-4.756,5.563,52.389,52.389,0,0,1-5.384,5,2.467,2.467,0,0,1-1.2.44,1.8,1.8,0,0,1-.942-.206,1.131,1.131,0,0,1-.449-.413.6.6,0,0,1-.009-.188Z" transform="translate(-232.551 -181.906)" fill="#263238"/>
      <path id="Path_27832" data-name="Path 27832" d="M236.24,476.986a1.687,1.687,0,0,1,.9-.1,4.558,4.558,0,0,1,2,.691,3.652,3.652,0,0,1,1.454,1.543,1.867,1.867,0,0,1,.233.852,4.841,4.841,0,0,0-.35-.79,3.894,3.894,0,0,0-1.436-1.436,4.953,4.953,0,0,0-1.92-.727,8.434,8.434,0,0,0-.879-.036Z" transform="translate(-232.723 -182.827)" fill="#263238"/>
      <path id="Path_27833" data-name="Path 27833" d="M247.415,472.672a.969.969,0,0,1-.135-.314,7.066,7.066,0,0,1-.206-.9,4.89,4.89,0,0,1,.494-2.961,4.6,4.6,0,0,1,2.154-2.082,3.115,3.115,0,0,1,.9-.269,1.033,1.033,0,0,1,.332,0,7.181,7.181,0,0,0-1.158.413,4.71,4.71,0,0,0-2.037,2.055,5.087,5.087,0,0,0-.529,2.853C247.3,472.205,247.442,472.663,247.415,472.672Z" transform="translate(-233.83 -181.725)" fill="#263238"/>
      <path id="Path_27834" data-name="Path 27834" d="M251.411,463.6s-.2.9-.395,2.073a7.116,7.116,0,0,1-.556,2.046s.171-.9.368-2.082a6.73,6.73,0,0,1,.583-2.037Z" transform="translate(-234.183 -181.465)" fill="#263238"/>
      <path id="Path_27835" data-name="Path 27835" d="M239.89,469.059a2.548,2.548,0,0,1,1.364,0,2.387,2.387,0,0,1,1.229.583c0,.054-.556-.233-1.274-.395S239.9,469.122,239.89,469.059Z" transform="translate(-233.097 -182.016)" fill="#263238"/>
      <path id="Path_27836" data-name="Path 27836" d="M239.65,470.3a1.714,1.714,0,0,1,1.149,0,1.624,1.624,0,0,1,1,.556c0,.045-.458-.233-1.05-.368S239.659,470.361,239.65,470.3Z" transform="translate(-233.073 -182.142)" fill="#263238"/>
      <path id="Path_27837" data-name="Path 27837" d="M238.7,471.845a1.463,1.463,0,0,1,1.193-.153,1.427,1.427,0,0,1,1,.655,4.614,4.614,0,0,0-1.05-.467,4.678,4.678,0,0,0-1.149-.036Z" transform="translate(-232.975 -182.289)" fill="#263238"/>
      <path id="Path_27838" data-name="Path 27838" d="M240.71,468.244a12.516,12.516,0,0,0,1.247-.422,10.194,10.194,0,0,0,1.283-.619c.224-.135.467-.287.7-.449a.868.868,0,0,0,.449-.646c-.009-.251-.323-.395-.565-.332a1.543,1.543,0,0,0-.655.44c-.395.368-.727.718-1,1.023a8.948,8.948,0,0,1-.9,1,1.3,1.3,0,0,1,.179-.305c.126-.188.323-.458.583-.781a13.89,13.89,0,0,1,.978-1.059,1.669,1.669,0,0,1,.736-.493.619.619,0,0,1,.8.5,1.068,1.068,0,0,1-.52.808,7.358,7.358,0,0,1-.736.449,8.075,8.075,0,0,1-1.319.592,7.183,7.183,0,0,1-.942.26C240.836,468.253,240.71,468.262,240.71,468.244Z" transform="translate(-233.182 -181.667)" fill="#263238"/>
      <path id="Path_27839" data-name="Path 27839" d="M241.109,468a11.661,11.661,0,0,1-.2-1.184,5.123,5.123,0,0,0-.359-1.229,2.691,2.691,0,0,0-.395-.628c-.162-.179-.413-.341-.61-.224s-.224.413-.2.655a3.076,3.076,0,0,0,.206.709,4.307,4.307,0,0,0,.691,1.068,9,9,0,0,0,.9.835c0,.027-.108,0-.278-.162a4.887,4.887,0,0,1-.682-.574,4.1,4.1,0,0,1-.754-1.095,3.294,3.294,0,0,1-.233-.763.808.808,0,0,1,.3-.835.7.7,0,0,1,.834.26,2.755,2.755,0,0,1,.422.682,4.757,4.757,0,0,1,.332,1.283c.045.368.063.673.072.9a1.141,1.141,0,0,1-.045.305Z" transform="translate(-233.024 -181.56)" fill="#263238"/>
      <path id="Path_27840" data-name="Path 27840" d="M307.126,464.715l.045-8.668-16.2-.2-.224,12.7,1,.081c4.487.305,22.783,1.22,25.789.35C320.9,467.991,307.126,464.715,307.126,464.715Z" transform="translate(-238.32 -180.669)" fill="#455a64"/>
      <path id="Path_27841" data-name="Path 27841" d="M290.5,469.57h.278l.808.063,2.943.161c2.495.126,5.94.242,9.745.3s7.25,0,9.745,0l2.952-.081H304.283c-3.8,0-7.241-.153-9.736-.233l-2.952-.108h-.8Z" transform="translate(-238.294 -182.078)" fill="#263238"/>
      <path id="Path_27842" data-name="Path 27842" d="M314.869,470.082a7.177,7.177,0,0,1,.565-1.4,6.892,6.892,0,0,1,1.023-1.113,2.136,2.136,0,0,0-1.184,1.005,2.171,2.171,0,0,0-.4,1.507Z" transform="translate(-240.795 -181.872)" fill="#263238"/>
      <path id="Path_27843" data-name="Path 27843" d="M309.569,467.446a2.093,2.093,0,0,0,.511-.619c.233-.368.4-.691.359-.727s-.278.251-.52.619S309.515,467.41,309.569,467.446Z" transform="translate(-240.251 -181.721)" fill="#263238"/>
      <path id="Path_27844" data-name="Path 27844" d="M308.109,466.7c0,.045.3-.126.574-.368s.485-.485.449-.529-.3.135-.574.377S308.074,466.661,308.109,466.7Z" transform="translate(-240.102 -181.69)" fill="#263238"/>
      <path id="Path_27845" data-name="Path 27845" d="M307.21,465.07a1.938,1.938,0,0,0,.843.126,1.983,1.983,0,0,0,.9-.081,1.92,1.92,0,0,0-.9-.117A1.974,1.974,0,0,0,307.21,465.07Z" transform="translate(-240.01 -181.606)" fill="#263238"/>
      <path id="Path_27846" data-name="Path 27846" d="M306.9,463.88a1.8,1.8,0,0,0,.942.287,1.625,1.625,0,0,0,.978-.126,5.546,5.546,0,0,0-.933-.054A5.085,5.085,0,0,0,306.9,463.88Z" transform="translate(-239.978 -181.493)" fill="#263238"/>
      <path id="Path_27847" data-name="Path 27847" d="M310.2,465.837a3.176,3.176,0,0,0,1.041,0,5.378,5.378,0,0,0,1.113-.224,2.887,2.887,0,0,0,.637-.26.556.556,0,0,0,.269-.314.413.413,0,0,0-.153-.422,1.92,1.92,0,0,0-2.378.529,1.84,1.84,0,0,0-.35.691.556.556,0,0,0,0,.278,2.915,2.915,0,0,1,.485-.9,1.884,1.884,0,0,1,.9-.565,1.588,1.588,0,0,1,1.247.1c.162.126.1.314-.09.422a2.689,2.689,0,0,1-.592.242,6.978,6.978,0,0,1-1.077.269A5.139,5.139,0,0,1,310.2,465.837Z" transform="translate(-240.317 -181.548)" fill="#263238"/>
      <path id="Path_27848" data-name="Path 27848" d="M310.342,465.857a1.014,1.014,0,0,0,.126-.727,1.668,1.668,0,0,0-.269-.763,1.059,1.059,0,0,0-.9-.547.431.431,0,0,0-.332.485,1.2,1.2,0,0,0,.17.467,3.193,3.193,0,0,0,.485.637,1.562,1.562,0,0,0,.592.431,5.429,5.429,0,0,1-.485-.529,3.322,3.322,0,0,1-.431-.628c-.144-.224-.233-.619,0-.664s.529.242.682.449a1.74,1.74,0,0,1,.287.682A4.392,4.392,0,0,1,310.342,465.857Z" transform="translate(-240.19 -181.487)" fill="#263238"/>
      <path id="Path_27849" data-name="Path 27849" d="M290.94,464.606s.458,0,1.193.054a5.088,5.088,0,0,1,4.208,3.446c.242.7.26,1.167.3,1.167a1.051,1.051,0,0,0,0-.332,3.849,3.849,0,0,0-.161-.9,4.926,4.926,0,0,0-4.325-3.535,4.767,4.767,0,0,0-.9,0A.9.9,0,0,0,290.94,464.606Z" transform="translate(-238.34 -181.556)" fill="#263238"/>
      <path id="Path_27850" data-name="Path 27850" d="M292.883,457.12a27.083,27.083,0,0,0-.188,3.329,28.407,28.407,0,0,0,0,3.338,28.541,28.541,0,0,0,.179-3.338,29.556,29.556,0,0,0,.009-3.329Z" transform="translate(-238.515 -180.799)" fill="#263238"/>
      <path id="Path_27851" data-name="Path 27851" d="M299.61,468.188a9.663,9.663,0,0,0,2.369.26,8.776,8.776,0,0,0,2.378-.162c0-.054-1.068,0-2.369,0S299.619,468.126,299.61,468.188Z" transform="translate(-239.23 -181.934)" fill="#263238"/>
      <path id="Path_27852" data-name="Path 27852" d="M296.069,468.139c-.045,0,.081.224.188.467s.162.458.215.458.09-.251,0-.538S296.1,468.094,296.069,468.139Z" transform="translate(-238.865 -181.93)" fill="#263238"/>
      <path id="Path_27853" data-name="Path 27853" d="M294.75,466.459a1.013,1.013,0,0,0,.233.377c.17.171.332.278.368.242s-.063-.206-.224-.377S294.795,466.414,294.75,466.459Z" transform="translate(-238.731 -181.757)" fill="#263238"/>
      <path id="Path_27854" data-name="Path 27854" d="M292.85,465.66c0,.054.224.054.467.144s.4.215.449.179-.09-.26-.386-.368S292.832,465.615,292.85,465.66Z" transform="translate(-238.536 -181.667)" fill="#263238"/>
      <path id="Path_27855" data-name="Path 27855" d="M291.49,465.3c0,.045.072.135.206.188s.26.054.278,0-.072-.135-.2-.188S291.517,465.242,291.49,465.3Z" transform="translate(-238.396 -181.634)" fill="#263238"/>
      <path id="Path_27856" data-name="Path 27856" d="M312.1,280.76l-6.227,162.692-25.286.529,4.2-140.959L256.359,445.058H232.32l30.966-163.966Z" transform="translate(-232.32 -162.689)" fill="#263238"/>
      <path id="Path_27857" data-name="Path 27857" d="M296.565,287.36a15.97,15.97,0,0,1-.287,2.692c-.233,1.642-.592,3.921-1.014,6.416a27.627,27.627,0,0,1-.718,3.535,5.043,5.043,0,0,1-1.651,2.486,3.876,3.876,0,0,1-1.839.817,1.48,1.48,0,0,1-.736,0,4.818,4.818,0,0,0,2.369-1.05,4.9,4.9,0,0,0,1.463-2.369,31.626,31.626,0,0,0,.673-3.482c.422-2.5.826-4.765,1.14-6.4a17.047,17.047,0,0,1,.6-2.647Z" transform="translate(-238.276 -163.367)" fill="#455a64"/>
      <path id="Path_27858" data-name="Path 27858" d="M291.383,288.179a1.473,1.473,0,0,0,0,.727.9.9,0,0,0,.422.547.763.763,0,0,0,1-.9.835.835,0,0,0-.485-.485c-.413-.179-.7,0-.727-.063s.233-.368.826-.242a1.14,1.14,0,0,1,.772.646,1.151,1.151,0,0,1-1.579,1.391,1.131,1.131,0,0,1-.538-.852C291.006,288.359,291.365,288.125,291.383,288.179Z" transform="translate(-238.352 -163.406)" fill="#455a64"/>
      <path id="Path_27859" data-name="Path 27859" d="M276.25,290.307a4.765,4.765,0,0,1,.485-4.487c.117.054-.251,1.014-.368,2.243A19.98,19.98,0,0,1,276.25,290.307Z" transform="translate(-236.795 -163.209)" fill="#455a64"/>
      <path id="Path_27860" data-name="Path 27860" d="M279.632,290.061a3.921,3.921,0,0,1-.368-2.387,4.02,4.02,0,0,1,.7-2.324c.117,0-.171,1.068-.251,2.351A22.435,22.435,0,0,1,279.632,290.061Z" transform="translate(-237.135 -163.161)" fill="#455a64"/>
      <path id="Path_27861" data-name="Path 27861" d="M308.8,290.78a13.854,13.854,0,0,1,.144-2.441,15.069,15.069,0,0,1,.108-2.45,4.567,4.567,0,0,1,.332,2.468,4.639,4.639,0,0,1-.583,2.423Z" transform="translate(-240.173 -163.216)" fill="#455a64"/>
      <path id="Path_27862" data-name="Path 27862" d="M312.477,290.569c-.126-.054.269-1.122.359-2.486s-.144-2.468,0-2.5a5.276,5.276,0,0,1-.341,4.989Z" transform="translate(-240.549 -163.184)" fill="#455a64"/>
      <path id="Path_27863" data-name="Path 27863" d="M281.707,200.652l15.613-1.247c.1-1.795,0-8.865,0-8.865s6.5-1.014,6.577-7.5-1.05-21.4-1.05-21.4h0a22.567,22.567,0,0,0-22.738,2.827l-.96.745Z" transform="translate(-237.129 -150.266)" fill="#ffbe9d"/>
      <path id="Path_27864" data-name="Path 27864" d="M298.372,193.725a15.021,15.021,0,0,1-8.462-2.4s2,4.675,8.48,4.092Z" transform="translate(-238.234 -153.505)" fill="#eb996e"/>
      <path id="Path_27865" data-name="Path 27865" d="M302.457,173.094a.9.9,0,1,1-.307-.617.9.9,0,0,1,.307.617Z" transform="translate(-239.331 -151.547)" fill="#263238"/>
      <path id="Path_27866" data-name="Path 27866" d="M303.7,171.888c-.117.117-.817-.4-1.795-.4s-1.732.5-1.839.386.063-.278.386-.511a2.6,2.6,0,0,1,1.472-.449,2.441,2.441,0,0,1,1.445.467C303.656,171.637,303.754,171.888,303.7,171.888Z" transform="translate(-239.273 -151.409)" fill="#263238"/>
      <path id="Path_27867" data-name="Path 27867" d="M291.227,173.354a.9.9,0,1,1-.307-.617A.9.9,0,0,1,291.227,173.354Z" transform="translate(-238.178 -151.574)" fill="#263238"/>
      <path id="Path_27868" data-name="Path 27868" d="M292.77,172.119c-.117.126-.817-.395-1.795-.395s-1.732.5-1.839.377.063-.269.386-.5a2.468,2.468,0,0,1,1.472-.449,2.441,2.441,0,0,1,1.445.467C292.726,171.85,292.833,172.065,292.77,172.119Z" transform="translate(-238.151 -151.434)" fill="#263238"/>
      <path id="Path_27869" data-name="Path 27869" d="M297.178,179.529a6.865,6.865,0,0,1,1.615-.3c.26,0,.5-.072.538-.251a1.265,1.265,0,0,0-.17-.754q-.35-.9-.754-1.938a33.3,33.3,0,0,1-1.687-5.07,33.845,33.845,0,0,1,2.1,4.926c.251.673.485,1.328.718,1.947a1.481,1.481,0,0,1,.126,1,.646.646,0,0,1-.422.377,1.605,1.605,0,0,1-.431.063A6.586,6.586,0,0,1,297.178,179.529Z" transform="translate(-238.933 -151.441)" fill="#263238"/>
      <path id="Path_27870" data-name="Path 27870" d="M293.976,181.25c.161,0,.161,1.068,1.086,1.839s2.082.655,2.091.8-.26.215-.745.224a2.692,2.692,0,0,1-1.741-.6,2.414,2.414,0,0,1-.9-1.552C293.743,181.51,293.859,181.241,293.976,181.25Z" transform="translate(-238.63 -152.471)" fill="#263238"/>
      <path id="Path_27871" data-name="Path 27871" d="M292.959,167.794c-.1.269-1.095.135-2.261.278s-2.118.467-2.279.215c-.063-.117.1-.368.476-.628a3.975,3.975,0,0,1,3.464-.386C292.788,167.444,293,167.659,292.959,167.794Z" transform="translate(-238.079 -151.012)" fill="#263238"/>
      <path id="Path_27872" data-name="Path 27872" d="M303.317,168.694c-.17.224-.9,0-1.687,0s-1.525.153-1.687-.09,0-.341.35-.556a2.3,2.3,0,0,1,1.373-.368,2.4,2.4,0,0,1,1.346.449C303.3,168.344,303.4,168.577,303.317,168.694Z" transform="translate(-239.258 -151.077)" fill="#263238"/>
      <path id="Path_27873" data-name="Path 27873" d="M279.506,173.317c-.108-.045-4.487-1.319-4.316,3.123s4.567,3.383,4.576,3.257S279.506,173.317,279.506,173.317Z" transform="translate(-236.722 -151.635)" fill="#ffbe9d"/>
      <path id="Path_27874" data-name="Path 27874" d="M278.521,178.217a1.412,1.412,0,0,1-.2.117.772.772,0,0,1-.583,0,1.911,1.911,0,0,1-.9-1.687,2.53,2.53,0,0,1,.179-1.122.9.9,0,0,1,.556-.61.4.4,0,0,1,.467.2c.063.126,0,.215.063.224s.09-.081.054-.26a.529.529,0,0,0-.188-.278.619.619,0,0,0-.431-.1,1.077,1.077,0,0,0-.781.718,2.566,2.566,0,0,0-.233,1.247,1.992,1.992,0,0,0,1.193,1.875.826.826,0,0,0,.7-.135C278.521,178.324,278.539,178.226,278.521,178.217Z" transform="translate(-236.859 -151.798)" fill="#eb996e"/>
      <path id="Path_27875" data-name="Path 27875" d="M304.7,154.94a6.864,6.864,0,0,0-10.66-2.055,6.721,6.721,0,0,0-11.046-1.436c-1.247,1.418-1.893,3.329-3.347,4.487-1.265,1.032-2.97,1.373-4.244,2.387a4.9,4.9,0,0,0,1.75,8.542,5.267,5.267,0,0,0,2.593,7.178l.646-.269a9.242,9.242,0,0,0,1.346-10.193,2.024,2.024,0,0,0,.233,0,5.169,5.169,0,0,0,6.748-1.543,5.752,5.752,0,0,0,6.191.26,2.369,2.369,0,0,1,.9-.422,2.207,2.207,0,0,1,1.158.35,5.456,5.456,0,0,0,3.15.628,3.015,3.015,0,0,0,2.351-1.687h.081a3.482,3.482,0,0,0,2.593-2.512A5.16,5.16,0,0,0,304.7,154.94Z" transform="translate(-236.555 -149.177)" fill="#263238"/>
      <path id="Path_27876" data-name="Path 27876" d="M311.91,237.544l.574-29.252c-5.2-5.106-7.968-6.631-15.2-7.484l-1.965-.224-.619-4.819-17.731-1,.9,5.725h0c-2.566.108-4.7.9-6.882,1.319-6.891,1.319-11.853,6.335-13.226,10.974-1.14,3.814-8.417,32.088-8.417,32.088L247.86,253.4l16.277-5.9v28.723h49.352C313.66,270.834,311.91,237.544,311.91,237.544Z" transform="translate(-233.916 -153.858)" fill="#57b8ce"/>
      <g id="Group_42502" data-name="Group 42502" transform="translate(13.944 40.902)" opacity="0.2">
        <path id="Path_27877" data-name="Path 27877" d="M311.91,237.544l.574-29.252c-5.2-5.106-7.968-6.631-15.2-7.484l-1.965-.224-.619-4.819-17.731-1,.9,5.725h0c-2.566.108-4.7.9-6.882,1.319-6.891,1.319-11.853,6.335-13.226,10.974-1.14,3.814-8.417,32.088-8.417,32.088L247.86,253.4l16.277-5.9v28.723h49.352C313.66,270.834,311.91,237.544,311.91,237.544Z" transform="translate(-247.86 -194.76)"/>
      </g>
      <path id="Path_27878" data-name="Path 27878" d="M255.268,250.655l24.344-3.455,4.63,8.291-22.63,10.2a9.87,9.87,0,0,1-4.02.9h0a9.772,9.772,0,0,1-9.036-6.111l-.736-1.795Z" transform="translate(-233.912 -159.243)" fill="#57b8ce"/>
      <g id="Group_42503" data-name="Group 42503" transform="translate(13.908 87.957)" opacity="0.2">
        <path id="Path_27879" data-name="Path 27879" d="M255.268,250.655l24.344-3.455,4.63,8.291-22.63,10.2a9.87,9.87,0,0,1-4.02.9h0a9.772,9.772,0,0,1-9.036-6.111l-.736-1.795Z" transform="translate(-247.82 -247.2)"/>
      </g>
      <path id="Path_27880" data-name="Path 27880" d="M311.132,203.49s6.882,2.342,9.772,8.973c1.884,4.325,4.657,25.125,4.657,25.125l3.491,6.739a11.315,11.315,0,0,1,1.274,5.231v1.032a11.351,11.351,0,0,1-2.548,7.178h0a11.351,11.351,0,0,1-7.807,4.146c-3.491.314-7.708.449-8.605-.574-1.588-1.795-3.975-6.7-3.975-6.7l10.167-5.384-4.379-8.076Z" transform="translate(-240.029 -154.755)" fill="#57b8ce"/>
      <g id="Group_42504" data-name="Group 42504" transform="translate(67.361 48.735)" opacity="0.2">
        <path id="Path_27881" data-name="Path 27881" d="M311.132,203.49s6.882,2.342,9.772,8.973c1.884,4.325,4.657,25.125,4.657,25.125l3.491,6.739a11.315,11.315,0,0,1,1.274,5.231v1.032a11.351,11.351,0,0,1-2.548,7.178h0a11.351,11.351,0,0,1-7.807,4.146c-3.491.314-7.708.449-8.605-.574-1.588-1.795-3.975-6.7-3.975-6.7l10.167-5.384-4.379-8.076Z" transform="translate(-307.39 -203.49)"/>
      </g>
      <path id="Path_27882" data-name="Path 27882" d="M264.078,264.946a3.25,3.25,0,0,1,.395-.224l1.167-.565,4.37-2.046,14.913-6.811-.1.314L281.97,250.5l-1.795-3.176.215.108-17.839,1.75-5.294.476-1.436.108a1.643,1.643,0,0,1-.5,0,2.864,2.864,0,0,1,.494-.09l1.427-.18,5.285-.61L280.364,247h.144l.072.126,1.795,3.176,2.845,5.115.117.206-.215.1-14.976,6.667-4.424,1.92-1.2.5A2.458,2.458,0,0,1,264.078,264.946Z" transform="translate(-234.682 -159.222)" fill="#263238"/>
      <path id="Path_27883" data-name="Path 27883" d="M269.874,246.146c-.126,0-.224-4.352-.224-9.718s.1-9.718.224-9.718.224,4.352.224,9.718S269.964,246.146,269.874,246.146Z" transform="translate(-236.153 -157.139)" fill="#263238"/>
      <path id="Path_27884" data-name="Path 27884" d="M315.921,255.6a3.669,3.669,0,0,1,.736-.117,6.892,6.892,0,0,1,2.055.117,2.423,2.423,0,0,1,1.283.736,3.257,3.257,0,0,1,.673,1.543,3.589,3.589,0,0,1-.161,1.857,3.463,3.463,0,0,1-1.229,1.579,9.152,9.152,0,0,1-3.526,1.256,16.238,16.238,0,0,1-3.024.3,5.456,5.456,0,0,1-2.737-.476,14.648,14.648,0,0,0,2.737.161,17.947,17.947,0,0,0,2.943-.386,9.1,9.1,0,0,0,3.347-1.211,3.078,3.078,0,0,0,1.247-3.006,3.033,3.033,0,0,0-.547-1.382,2.2,2.2,0,0,0-1.086-.664,8.4,8.4,0,0,0-1.974-.251A3.2,3.2,0,0,1,315.921,255.6Z" transform="translate(-240.296 -160.091)" fill="#263238"/>
      <path id="Path_27885" data-name="Path 27885" d="M319.954,268.19a5.07,5.07,0,0,1-1.795.206,11.038,11.038,0,0,1-4.208-.691,9.066,9.066,0,0,1-2.091-1.122,4.9,4.9,0,0,1-1.292-1.454,3.85,3.85,0,0,1-.628-1.66c.072,0,.305.61.9,1.49a5.249,5.249,0,0,0,1.274,1.3,9.564,9.564,0,0,0,2.01,1.023,12.814,12.814,0,0,0,4.047.8,12.566,12.566,0,0,1,1.786.108Z" transform="translate(-240.291 -160.914)" fill="#263238"/>
      <path id="Path_27886" data-name="Path 27886" d="M325.5,245.23a9.182,9.182,0,0,1-1.2,1.445c-.781.852-1.884,2.019-3.123,3.284s-2.369,2.4-3.212,3.2a7.987,7.987,0,0,1-1.418,1.238,7.778,7.778,0,0,1,1.193-1.454c.781-.9,1.884-2.028,3.114-3.293a41.832,41.832,0,0,1,4.648-4.424Z" transform="translate(-240.968 -159.041)" fill="#263238"/>
      <path id="Path_27887" data-name="Path 27887" d="M314.131,238.9a34.326,34.326,0,0,1-.224-5.554,34.482,34.482,0,0,1,.224-5.563,34.486,34.486,0,0,1,.224,5.563,34.323,34.323,0,0,1-.224,5.554Z" transform="translate(-240.695 -157.249)" fill="#263238"/>
      <path id="Path_27888" data-name="Path 27888" d="M312.6,207.663c0,.126-10.956.233-24.47.233s-24.47-.108-24.47-.233,10.956-.233,24.47-.233S312.6,207.529,312.6,207.663Z" transform="translate(-235.538 -155.159)" fill="#fafafa"/>
      <path id="Path_27889" data-name="Path 27889" d="M298.278,201.4a76.983,76.983,0,0,1-8.444.188,74.067,74.067,0,0,1-8.435-.287,78.234,78.234,0,0,1,8.435-.18,78.228,78.228,0,0,1,8.444.278Z" transform="translate(-237.36 -154.507)" fill="#263238"/>
      <path id="Path_27890" data-name="Path 27890" d="M317.329,218.682c0,.126-13.3.233-29.71.233s-29.719-.108-29.719-.233,13.307-.242,29.719-.242S317.329,218.548,317.329,218.682Z" transform="translate(-234.947 -156.29)" fill="#fafafa"/>
      <path id="Path_27891" data-name="Path 27891" d="M318.83,229.973c0,.135-14.357.233-32.115.233s-32.115-.1-32.115-.233,14.357-.233,32.115-.233S318.83,229.875,318.83,229.973Z" transform="translate(-234.608 -157.45)" fill="#fafafa"/>
      <path id="Path_27892" data-name="Path 27892" d="M319.7,241.023c0,.126-15.174.233-33.891.233s-33.892-.108-33.892-.233,15.174-.233,33.892-.233S319.7,240.889,319.7,241.023Z" transform="translate(-234.333 -158.585)" fill="#fafafa"/>
      <path id="Path_27893" data-name="Path 27893" d="M323.944,258.973c0,.126-16.861.233-37.687.233s-37.687-.108-37.687-.233,16.861-.233,37.687-.233S323.944,258.83,323.944,258.973Z" transform="translate(-233.989 -160.428)" fill="#fafafa"/>
      <path id="Path_27894" data-name="Path 27894" d="M314.833,271.543c0,.126-11.127.233-24.847.233s-24.847-.108-24.847-.233,11.118-.233,24.847-.233S314.833,271.409,314.833,271.543Z" transform="translate(-235.69 -161.719)" fill="#fafafa"/>
      <path id="Path_27895" data-name="Path 27895" d="M305.212,242.436l-.529-.395a12.15,12.15,0,0,0-9.583-2.216h0a16.681,16.681,0,0,0-7.457,3.5l-4.172,3.437,4.433,7.95,3.024-4.226s2.818,3.823,3.32,3.419a6.479,6.479,0,0,0,1.1-1.606l-2.01-2.818,4.828,1,7.044-3.221-3.024-3.823,3.024,1.005Z" transform="translate(-237.572 -158.463)" fill="#ffbe9d"/>
      <path id="Path_27896" data-name="Path 27896" d="M297.637,241.539,282.14,260.3l1.193,1.283,25.143-3.832,12.473-18.763-1.158-1.041Z" transform="translate(-237.436 -158.293)" fill="#263238"/>
      <path id="Path_27897" data-name="Path 27897" d="M314.98,247.47h0A2.387,2.387,0,0,0,312.746,249a5.231,5.231,0,0,1-1.525,2.432c-1.122.61-3.051,1.095-4.065.6s-5.079-4.155-5.788-3.751-1.319,1.319-.61,2.136,4.487,3.248,3.76,4.065-8.641-2.764-9.87-2.45-1.929,1.059-1.22,1.552,6.093,2.521,6.4,3.23c0,0-8.13-2.136-8.435-1.624s-.808,1.319,0,1.624,7.825,2.136,8.435,2.441a14.781,14.781,0,0,0,3.132.9,33.6,33.6,0,0,1,3.275,1.032,7.107,7.107,0,0,0,5.052-.135l.826-.332a3.23,3.23,0,0,0,2-3.185l-.162-2.764.9-2.288Z" transform="translate(-238.341 -159.271)" fill="#ffbe9d"/>
      <path id="Path_27898" data-name="Path 27898" d="M321.139,239.3a1.956,1.956,0,0,1-.467.117l-1.346.233-4.953.8-7.358,1.122-4.343.655a8.345,8.345,0,0,0-4.208,1.7,27.619,27.619,0,0,0-3.06,3.526c-.96,1.184-1.875,2.333-2.755,3.428l-4.675,5.788-3.185,3.894-.9,1.041a2.09,2.09,0,0,1-.332.341,2.948,2.948,0,0,1,.26-.395l.817-1.095,3.069-3.966,4.6-5.859L295,247.186a27.926,27.926,0,0,1,3.123-3.589,8.766,8.766,0,0,1,4.424-1.795l4.352-.628,7.376-1.032,4.98-.655,1.355-.153a1.6,1.6,0,0,1,.529-.036Z" transform="translate(-237.582 -158.431)" fill="#455a64"/>
      <path id="Path_27899" data-name="Path 27899" d="M312.234,243.88a2.261,2.261,0,0,0-.7.565.727.727,0,0,0,0,.843.79.79,0,0,0,1.041,0,.987.987,0,0,0,.395-.6.718.718,0,0,0-.206-.673.556.556,0,0,0-.682,0" transform="translate(-240.44 -158.902)" fill="#fafafa"/>
    </g>
  </g>
</svg>
