<svg xmlns="http://www.w3.org/2000/svg" width="292.385" height="178.166" viewBox="0 0 292.385 178.166">
  <g id="Free_shipping-pana" data-name="Free shipping-pana" transform="translate(-33.97 -38.52)">
    <g id="freepik--background-complete--inject-56" transform="translate(33.97 38.52)">
      <path id="Path_29111" data-name="Path 29111" d="M624.946,51.4c.247-1.776-2.262-3.237-4.142-3.388a10.775,10.775,0,0,1-2.684-.235c-1.843-.641-2.58-3.024-4.377-3.769a5.108,5.108,0,0,0-4.188.595,10.847,10.847,0,0,1-4.05,1.575c-1.256.08-2.643-.389-3.769.23-.838.461-1.256,1.411-2.019,1.973a4.763,4.763,0,0,1-2.643.716,7.432,7.432,0,0,0-2.722.444,2.135,2.135,0,0,0-1.361,2.186Z" transform="translate(-358.857 -41.566)" fill="#f5f5f5"/>
      <rect id="Rectangle_17687" data-name="Rectangle 17687" width="35.397" height="112.18" transform="translate(28.96 41.457)" fill="#f5f5f5"/>
      <rect id="Rectangle_17688" data-name="Rectangle 17688" width="17.699" height="111.87" transform="translate(46.659 41.457)" fill="#ebebeb"/>
      <rect id="Rectangle_17689" data-name="Rectangle 17689" width="12.501" height="11.014" transform="translate(33.001 30.447)" fill="#f5f5f5"/>
      <rect id="Rectangle_17690" data-name="Rectangle 17690" width="2.978" height="11.014" transform="translate(42.521 30.447)" fill="#ebebeb"/>
      <path id="Path_29112" data-name="Path 29112" d="M96.08,136.621v-.641h39.38v.641" transform="translate(-70.068 -95.164)" fill="#e0e0e0"/>
      <rect id="Rectangle_17691" data-name="Rectangle 17691" width="2.994" height="6.316" transform="translate(35.946 46.261)" fill="#fafafa"/>
      <path id="Path_29113" data-name="Path 29113" d="M120.819,169.831c0,.063-3.962.117-8.849.117s-8.849-.054-8.849-.117,3.962-.121,8.849-.121S120.819,169.76,120.819,169.831Z" transform="translate(-74.16 -114.768)" fill="#e0e0e0"/>
      <rect id="Rectangle_17692" data-name="Rectangle 17692" width="2.994" height="6.316" transform="translate(53.799 46.261)" fill="#e0e0e0"/>
      <path id="Path_29114" data-name="Path 29114" d="M163.438,169.831c0,.063-3.962.117-8.849.117s-8.849-.054-8.849-.117,3.962-.121,8.849-.121S163.438,169.76,163.438,169.831Z" transform="translate(-98.931 -114.768)" fill="#e0e0e0"/>
      <rect id="Rectangle_17693" data-name="Rectangle 17693" width="2.994" height="6.32" transform="translate(53.799 58.804)" fill="#e0e0e0"/>
      <path id="Path_29115" data-name="Path 29115" d="M163.438,199.771c0,.063-3.962.117-8.849.117s-8.849-.054-8.849-.117,3.962-.121,8.849-.121S163.438,199.7,163.438,199.771Z" transform="translate(-98.931 -132.169)" fill="#e0e0e0"/>
      <rect id="Rectangle_17694" data-name="Rectangle 17694" width="2.994" height="6.316" transform="translate(53.799 71.724)" fill="#e0e0e0"/>
      <path id="Path_29116" data-name="Path 29116" d="M163.438,230.621c0,.067-3.962.121-8.849.121s-8.849-.054-8.849-.121,3.962-.121,8.849-.121S163.438,230.554,163.438,230.621Z" transform="translate(-98.931 -150.099)" fill="#e0e0e0"/>
      <rect id="Rectangle_17695" data-name="Rectangle 17695" width="2.994" height="6.316" transform="translate(53.799 84.648)" fill="#e0e0e0"/>
      <path id="Path_29117" data-name="Path 29117" d="M163.438,261.471c0,.067-3.962.121-8.849.121s-8.849-.054-8.849-.121,3.962-.122,8.849-.122S163.438,261.4,163.438,261.471Z" transform="translate(-98.931 -168.029)" fill="#e0e0e0"/>
      <rect id="Rectangle_17696" data-name="Rectangle 17696" width="2.994" height="6.316" transform="translate(53.799 97.199)" fill="#e0e0e0"/>
      <path id="Path_29118" data-name="Path 29118" d="M163.438,291.441c0,.067-3.962.121-8.849.121s-8.849-.054-8.849-.121,3.962-.121,8.849-.121S163.438,291.374,163.438,291.441Z" transform="translate(-98.931 -185.447)" fill="#e0e0e0"/>
      <rect id="Rectangle_17697" data-name="Rectangle 17697" width="2.994" height="6.316" transform="translate(53.799 109.801)" fill="#e0e0e0"/>
      <rect id="Rectangle_17698" data-name="Rectangle 17698" width="2.994" height="6.316" transform="translate(53.799 122.566)" fill="#e0e0e0"/>
      <path id="Path_29119" data-name="Path 29119" d="M163.438,321.537c0,.067-3.962.121-8.849.121s-8.849-.054-8.849-.121,3.962-.117,8.849-.117S163.438,321.474,163.438,321.537Z" transform="translate(-98.931 -202.941)" fill="#e0e0e0"/>
      <rect id="Rectangle_17699" data-name="Rectangle 17699" width="2.994" height="6.316" transform="translate(35.946 58.996)" fill="#fafafa"/>
      <path id="Path_29120" data-name="Path 29120" d="M120.819,200.221c0,.067-3.962.121-8.849.121s-8.849-.054-8.849-.121,3.962-.121,8.849-.121S120.819,200.154,120.819,200.221Z" transform="translate(-74.16 -132.43)" fill="#e0e0e0"/>
      <rect id="Rectangle_17700" data-name="Rectangle 17700" width="2.994" height="6.316" transform="translate(35.946 71.728)" fill="#fafafa"/>
      <path id="Path_29121" data-name="Path 29121" d="M120.819,230.631c0,.067-3.962.121-8.849.121s-8.849-.054-8.849-.121,3.962-.121,8.849-.121S120.819,230.564,120.819,230.631Z" transform="translate(-74.16 -150.105)" fill="#e0e0e0"/>
      <rect id="Rectangle_17701" data-name="Rectangle 17701" width="2.994" height="6.316" transform="translate(35.946 84.464)" fill="#fafafa"/>
      <path id="Path_29122" data-name="Path 29122" d="M120.819,261.041c0,.063-3.962.117-8.849.117s-8.849-.054-8.849-.117,3.962-.121,8.849-.121S120.819,260.974,120.819,261.041Z" transform="translate(-74.16 -167.779)" fill="#e0e0e0"/>
      <rect id="Rectangle_17702" data-name="Rectangle 17702" width="2.994" height="6.316" transform="translate(35.946 97.199)" fill="#fafafa"/>
      <path id="Path_29123" data-name="Path 29123" d="M120.819,291.441c0,.067-3.962.121-8.849.121s-8.849-.054-8.849-.121,3.962-.121,8.849-.121S120.819,291.374,120.819,291.441Z" transform="translate(-74.16 -185.447)" fill="#e0e0e0"/>
      <rect id="Rectangle_17703" data-name="Rectangle 17703" width="2.994" height="6.316" transform="translate(35.946 109.931)" fill="#fafafa"/>
      <path id="Path_29124" data-name="Path 29124" d="M120.819,321.831c0,.067-3.962.121-8.849.121s-8.849-.054-8.849-.121,3.962-.121,8.849-.121S120.819,321.773,120.819,321.831Z" transform="translate(-74.16 -203.11)" fill="#e0e0e0"/>
      <rect id="Rectangle_17704" data-name="Rectangle 17704" width="2.994" height="6.316" transform="translate(35.946 122.667)" fill="#fafafa"/>
      <rect id="Rectangle_17705" data-name="Rectangle 17705" width="51.022" height="161.699" transform="translate(153.005 15.873)" fill="#f5f5f5"/>
      <rect id="Rectangle_17706" data-name="Rectangle 17706" width="25.509" height="161.255" transform="translate(178.514 15.873)" fill="#ebebeb"/>
      <rect id="Rectangle_17707" data-name="Rectangle 17707" width="18.017" height="15.877" transform="translate(158.83)" fill="#f5f5f5"/>
      <rect id="Rectangle_17708" data-name="Rectangle 17708" width="4.293" height="15.877" transform="translate(172.554)" fill="#ebebeb"/>
      <path id="Path_29125" data-name="Path 29125" d="M389.16,75.136V74.21h56.764v.926" transform="translate(-240.406 -59.263)" fill="#e0e0e0"/>
      <rect id="Rectangle_17709" data-name="Rectangle 17709" width="4.318" height="9.105" transform="translate(163.077 22.799)" fill="#fafafa"/>
      <path id="Path_29126" data-name="Path 29126" d="M424.819,122.992c0,.1-5.708.176-12.752.176s-12.757-.08-12.757-.176,5.708-.172,12.757-.172S424.819,122.9,424.819,122.992Z" transform="translate(-246.306 -87.515)" fill="#e0e0e0"/>
      <rect id="Rectangle_17710" data-name="Rectangle 17710" width="4.318" height="9.105" transform="translate(188.808 22.799)" fill="#e0e0e0"/>
      <path id="Path_29127" data-name="Path 29127" d="M486.263,122.992c0,.1-5.712.176-12.757.176s-12.757-.08-12.757-.176,5.712-.172,12.757-.172S486.263,122.9,486.263,122.992Z" transform="translate(-282.014 -87.515)" fill="#e0e0e0"/>
      <rect id="Rectangle_17711" data-name="Rectangle 17711" width="4.318" height="9.105" transform="translate(188.808 40.879)" fill="#e0e0e0"/>
      <path id="Path_29128" data-name="Path 29128" d="M486.263,166.166c0,.1-5.712.172-12.757.172s-12.757-.075-12.757-.172,5.712-.176,12.757-.176S486.263,166.07,486.263,166.166Z" transform="translate(-282.014 -112.606)" fill="#e0e0e0"/>
      <rect id="Rectangle_17712" data-name="Rectangle 17712" width="4.318" height="9.105" transform="translate(188.808 59.503)" fill="#e0e0e0"/>
      <path id="Path_29129" data-name="Path 29129" d="M486.263,210.636c0,.1-5.712.176-12.757.176s-12.757-.08-12.757-.176,5.712-.176,12.757-.176S486.263,210.54,486.263,210.636Z" transform="translate(-282.014 -138.451)" fill="#e0e0e0"/>
      <rect id="Rectangle_17713" data-name="Rectangle 17713" width="4.318" height="9.105" transform="translate(188.808 78.131)" fill="#e0e0e0"/>
      <path id="Path_29130" data-name="Path 29130" d="M486.263,255.112c0,.1-5.712.176-12.757.176s-12.757-.08-12.757-.176,5.712-.172,12.757-.172S486.263,255.015,486.263,255.112Z" transform="translate(-282.014 -164.303)" fill="#e0e0e0"/>
      <rect id="Rectangle_17714" data-name="Rectangle 17714" width="4.318" height="9.105" transform="translate(188.808 96.224)" fill="#e0e0e0"/>
      <path id="Path_29131" data-name="Path 29131" d="M486.263,298.316c0,.092-5.712.172-12.757.172s-12.757-.08-12.757-.172,5.712-.176,12.757-.176S486.263,298.22,486.263,298.316Z" transform="translate(-282.014 -189.411)" fill="#e0e0e0"/>
      <rect id="Rectangle_17715" data-name="Rectangle 17715" width="4.318" height="9.105" transform="translate(188.808 114.387)" fill="#e0e0e0"/>
      <rect id="Rectangle_17716" data-name="Rectangle 17716" width="4.318" height="9.105" transform="translate(188.808 132.793)" fill="#e0e0e0"/>
      <path id="Path_29132" data-name="Path 29132" d="M486.263,341.692c0,.1-5.712.176-12.757.176s-12.757-.08-12.757-.176,5.712-.172,12.757-.172S486.263,341.6,486.263,341.692Z" transform="translate(-282.014 -214.623)" fill="#e0e0e0"/>
      <rect id="Rectangle_17717" data-name="Rectangle 17717" width="4.318" height="9.105" transform="translate(163.077 41.156)" fill="#fafafa"/>
      <path id="Path_29133" data-name="Path 29133" d="M424.819,166.826c0,.092-5.708.172-12.752.172s-12.757-.08-12.757-.172,5.708-.176,12.757-.176S424.819,166.73,424.819,166.826Z" transform="translate(-246.306 -112.989)" fill="#e0e0e0"/>
      <rect id="Rectangle_17718" data-name="Rectangle 17718" width="4.318" height="9.105" transform="translate(163.077 59.512)" fill="#fafafa"/>
      <path id="Path_29134" data-name="Path 29134" d="M424.819,210.656c0,.092-5.708.172-12.752.172s-12.757-.08-12.757-.172,5.708-.176,12.757-.176S424.819,210.56,424.819,210.656Z" transform="translate(-246.306 -138.463)" fill="#e0e0e0"/>
      <rect id="Rectangle_17719" data-name="Rectangle 17719" width="4.318" height="9.105" transform="translate(163.077 77.868)" fill="#fafafa"/>
      <path id="Path_29135" data-name="Path 29135" d="M424.819,254.486c0,.092-5.708.172-12.752.172s-12.757-.08-12.757-.172,5.708-.176,12.757-.176S424.819,254.39,424.819,254.486Z" transform="translate(-246.306 -163.937)" fill="#e0e0e0"/>
      <rect id="Rectangle_17720" data-name="Rectangle 17720" width="4.318" height="9.105" transform="translate(163.077 96.224)" fill="#fafafa"/>
      <path id="Path_29136" data-name="Path 29136" d="M424.819,298.316c0,.092-5.708.172-12.752.172s-12.757-.08-12.757-.172,5.708-.176,12.757-.176S424.819,298.22,424.819,298.316Z" transform="translate(-246.306 -189.411)" fill="#e0e0e0"/>
      <rect id="Rectangle_17721" data-name="Rectangle 17721" width="4.318" height="9.105" transform="translate(163.077 114.58)" fill="#fafafa"/>
      <path id="Path_29137" data-name="Path 29137" d="M424.819,342.146c0,.1-5.708.172-12.752.172s-12.757-.075-12.757-.172,5.708-.176,12.757-.176S424.819,342.05,424.819,342.146Z" transform="translate(-246.306 -214.885)" fill="#e0e0e0"/>
      <rect id="Rectangle_17722" data-name="Rectangle 17722" width="4.318" height="9.105" transform="translate(163.077 132.936)" fill="#fafafa"/>
      <rect id="Rectangle_17723" data-name="Rectangle 17723" width="27.875" height="88.342" transform="translate(194.156 89.225)" fill="#f5f5f5"/>
      <rect id="Rectangle_17724" data-name="Rectangle 17724" width="13.938" height="88.099" transform="translate(208.093 89.225)" fill="#ebebeb"/>
      <rect id="Rectangle_17725" data-name="Rectangle 17725" width="9.842" height="8.673" transform="translate(197.339 80.552)" fill="#f5f5f5"/>
      <rect id="Rectangle_17726" data-name="Rectangle 17726" width="2.345" height="8.673" transform="translate(204.835 80.552)" fill="#ebebeb"/>
      <path id="Path_29138" data-name="Path 29138" d="M492.02,250.867v-.507h31.016v.507" transform="translate(-300.189 -161.641)" fill="#e0e0e0"/>
      <rect id="Rectangle_17727" data-name="Rectangle 17727" width="2.358" height="4.975" transform="translate(199.659 93.007)" fill="#fafafa"/>
      <path id="Path_29139" data-name="Path 29139" d="M511.508,277.016c0,.05-3.12.092-6.969.092s-6.969-.042-6.969-.092,3.12-.1,6.969-.1S511.508,276.953,511.508,277.016Z" transform="translate(-303.414 -177.078)" fill="#e0e0e0"/>
      <rect id="Rectangle_17728" data-name="Rectangle 17728" width="2.358" height="4.975" transform="translate(213.718 93.007)" fill="#e0e0e0"/>
      <path id="Path_29140" data-name="Path 29140" d="M545.078,277.016c0,.05-3.12.092-6.969.092s-6.969-.042-6.969-.092,3.12-.1,6.969-.1S545.078,276.953,545.078,277.016Z" transform="translate(-322.925 -177.078)" fill="#e0e0e0"/>
      <rect id="Rectangle_17729" data-name="Rectangle 17729" width="2.358" height="4.975" transform="translate(213.718 102.887)" fill="#e0e0e0"/>
      <path id="Path_29141" data-name="Path 29141" d="M545.078,300.6c0,.054-3.12.1-6.969.1s-6.969-.042-6.969-.1,3.12-.1,6.969-.1S545.078,300.546,545.078,300.6Z" transform="translate(-322.925 -190.783)" fill="#e0e0e0"/>
      <rect id="Rectangle_17730" data-name="Rectangle 17730" width="2.358" height="4.975" transform="translate(213.718 113.064)" fill="#e0e0e0"/>
      <path id="Path_29142" data-name="Path 29142" d="M545.078,324.866c0,.05-3.12.1-6.969.1s-6.969-.046-6.969-.1,3.12-.1,6.969-.1S545.078,324.824,545.078,324.866Z" transform="translate(-322.925 -204.888)" fill="#e0e0e0"/>
      <rect id="Rectangle_17731" data-name="Rectangle 17731" width="2.358" height="4.975" transform="translate(213.718 123.236)" fill="#e0e0e0"/>
      <path id="Path_29143" data-name="Path 29143" d="M545.078,349.2c0,.05-3.12.092-6.969.092s-6.969-.042-6.969-.092,3.12-.1,6.969-.1S545.078,349.142,545.078,349.2Z" transform="translate(-322.925 -219.029)" fill="#e0e0e0"/>
      <rect id="Rectangle_17732" data-name="Rectangle 17732" width="2.358" height="4.975" transform="translate(213.718 133.124)" fill="#e0e0e0"/>
      <path id="Path_29144" data-name="Path 29144" d="M545.078,372.8c0,.054-3.12.1-6.969.1s-6.969-.042-6.969-.1,3.12-.1,6.969-.1S545.078,372.742,545.078,372.8Z" transform="translate(-322.925 -232.745)" fill="#e0e0e0"/>
      <rect id="Rectangle_17733" data-name="Rectangle 17733" width="2.358" height="4.975" transform="translate(213.718 143.05)" fill="#e0e0e0"/>
      <rect id="Rectangle_17734" data-name="Rectangle 17734" width="2.358" height="4.975" transform="translate(213.718 153.101)" fill="#e0e0e0"/>
      <path id="Path_29145" data-name="Path 29145" d="M545.078,396.5c0,.05-3.12.092-6.969.092s-6.969-.042-6.969-.092,3.12-.1,6.969-.1S545.078,396.442,545.078,396.5Z" transform="translate(-322.925 -246.52)" fill="#e0e0e0"/>
      <rect id="Rectangle_17735" data-name="Rectangle 17735" width="2.358" height="4.975" transform="translate(199.659 103.037)" fill="#fafafa"/>
      <path id="Path_29146" data-name="Path 29146" d="M511.508,300.956c0,.054-3.12.1-6.969.1s-6.969-.042-6.969-.1,3.12-.1,6.969-.1S511.508,300.919,511.508,300.956Z" transform="translate(-303.414 -190.992)" fill="#e0e0e0"/>
      <rect id="Rectangle_17736" data-name="Rectangle 17736" width="2.358" height="4.975" transform="translate(199.659 113.068)" fill="#fafafa"/>
      <path id="Path_29147" data-name="Path 29147" d="M511.508,324.866c0,.05-3.12.092-6.969.092s-6.969-.042-6.969-.092,3.12-.1,6.969-.1S511.508,324.829,511.508,324.866Z" transform="translate(-303.414 -204.888)" fill="#e0e0e0"/>
      <rect id="Rectangle_17737" data-name="Rectangle 17737" width="2.358" height="4.975" transform="translate(199.659 123.094)" fill="#fafafa"/>
      <path id="Path_29148" data-name="Path 29148" d="M511.508,348.872c0,.054-3.12.1-6.969.1s-6.969-.042-6.969-.1,3.12-.092,6.969-.092S511.508,348.814,511.508,348.872Z" transform="translate(-303.414 -218.843)" fill="#e0e0e0"/>
      <rect id="Rectangle_17738" data-name="Rectangle 17738" width="2.358" height="4.975" transform="translate(199.659 133.124)" fill="#fafafa"/>
      <path id="Path_29149" data-name="Path 29149" d="M511.508,372.8c0,.054-3.12.1-6.969.1s-6.969-.042-6.969-.1,3.12-.1,6.969-.1S511.508,372.742,511.508,372.8Z" transform="translate(-303.414 -232.745)" fill="#e0e0e0"/>
      <rect id="Rectangle_17739" data-name="Rectangle 17739" width="2.358" height="4.975" transform="translate(199.659 143.15)" fill="#fafafa"/>
      <path id="Path_29150" data-name="Path 29150" d="M511.508,396.746c0,.05-3.12.092-6.969.092s-6.969-.042-6.969-.092,3.12-.1,6.969-.1S511.508,396.692,511.508,396.746Z" transform="translate(-303.414 -246.665)" fill="#e0e0e0"/>
      <rect id="Rectangle_17740" data-name="Rectangle 17740" width="2.358" height="4.975" transform="translate(199.659 153.18)" fill="#fafafa"/>
      <rect id="Rectangle_17741" data-name="Rectangle 17741" width="30.011" height="56.957" transform="translate(52.224 120.614)" fill="#e0e0e0"/>
      <rect id="Rectangle_17742" data-name="Rectangle 17742" width="14.072" height="56.957" transform="translate(68.164 120.614)" fill="#ebebeb"/>
      <rect id="Rectangle_17743" data-name="Rectangle 17743" width="2.697" height="6.554" transform="translate(58.519 125.971)" fill="#f5f5f5"/>
      <rect id="Rectangle_17744" data-name="Rectangle 17744" width="2.697" height="6.554" transform="translate(58.519 151.631)" fill="#f5f5f5"/>
      <path id="Path_29151" data-name="Path 29151" d="M174.644,360.97c0,.059-3.568.1-7.957.1s-7.957-.042-7.957-.1,3.568-.1,7.957-.1S174.644,360.924,174.644,360.97Z" transform="translate(-106.48 -225.87)" fill="#f5f5f5"/>
      <rect id="Rectangle_17745" data-name="Rectangle 17745" width="2.697" height="6.554" transform="translate(58.519 138.899)" fill="#f5f5f5"/>
      <path id="Path_29152" data-name="Path 29152" d="M174.644,391.855c0,.055-3.568.1-7.957.1s-7.957-.046-7.957-.1,3.568-.1,7.957-.1S174.644,391.788,174.644,391.855Z" transform="translate(-106.48 -243.817)" fill="#f5f5f5"/>
      <rect id="Rectangle_17746" data-name="Rectangle 17746" width="2.697" height="6.554" transform="translate(71.154 125.971)" fill="#e0e0e0"/>
      <rect id="Rectangle_17747" data-name="Rectangle 17747" width="2.697" height="6.554" transform="translate(77.009 125.971)" fill="#e0e0e0"/>
      <rect id="Rectangle_17748" data-name="Rectangle 17748" width="2.697" height="6.554" transform="translate(71.154 138.414)" fill="#e0e0e0"/>
      <rect id="Rectangle_17749" data-name="Rectangle 17749" width="2.697" height="6.554" transform="translate(77.009 138.414)" fill="#e0e0e0"/>
      <rect id="Rectangle_17750" data-name="Rectangle 17750" width="2.697" height="6.554" transform="translate(71.154 150.852)" fill="#e0e0e0"/>
      <rect id="Rectangle_17751" data-name="Rectangle 17751" width="2.697" height="6.554" transform="translate(77.009 150.852)" fill="#e0e0e0"/>
      <rect id="Rectangle_17752" data-name="Rectangle 17752" width="34.522" height="1.428" transform="translate(49.971 119.237)" fill="#e0e0e0"/>
      <path id="Path_29153" data-name="Path 29153" d="M189.251,326.855c0,.054-6.7.1-14.98.1s-14.98-.046-14.98-.1,6.7-.1,14.98-.1S189.251,326.779,189.251,326.855Z" transform="translate(-106.806 -206.039)" fill="#ebebeb"/>
      <path id="Path_29154" data-name="Path 29154" d="M92.123,356.415H43.794L43.58,280.03H91.914Z" transform="translate(-39.555 -178.886)" fill="#ebebeb"/>
      <rect id="Rectangle_17753" data-name="Rectangle 17753" width="24.165" height="76.385" transform="translate(28.194 101.144)" fill="#e0e0e0"/>
      <rect id="Rectangle_17754" data-name="Rectangle 17754" width="17.066" height="15.039" transform="translate(9.544 86.105)" fill="#ebebeb"/>
      <rect id="Rectangle_17755" data-name="Rectangle 17755" width="4.067" height="15.039" transform="translate(22.544 86.105)" fill="#e0e0e0"/>
      <rect id="Rectangle_17756" data-name="Rectangle 17756" width="53.774" height="0.875" transform="translate(0 100.265)" fill="#e0e0e0"/>
      <rect id="Rectangle_17757" data-name="Rectangle 17757" width="4.092" height="8.627" transform="translate(13.565 107.703)" fill="#fff"/>
      <path id="Path_29155" data-name="Path 29155" d="M67.749,324.155c0,.092-5.411.163-12.082.163s-12.087-.071-12.087-.163S48.991,324,55.667,324,67.749,324.063,67.749,324.155Z" transform="translate(-39.555 -204.441)" fill="#e0e0e0"/>
      <rect id="Rectangle_17758" data-name="Rectangle 17758" width="4.092" height="8.627" transform="translate(37.943 107.703)" fill="#f5f5f5"/>
      <path id="Path_29156" data-name="Path 29156" d="M125.955,324.143c0,.092-5.411.163-12.082.163s-12.082-.071-12.082-.163,5.407-.163,12.082-.163S125.955,324.051,125.955,324.143Z" transform="translate(-73.387 -204.429)" fill="#ebebeb"/>
      <rect id="Rectangle_17759" data-name="Rectangle 17759" width="4.092" height="8.627" transform="translate(37.943 124.828)" fill="#f5f5f5"/>
      <path id="Path_29157" data-name="Path 29157" d="M125.955,365.038c0,.088-5.411.163-12.082.163s-12.082-.075-12.082-.163,5.407-.168,12.082-.168S125.955,364.945,125.955,365.038Z" transform="translate(-73.387 -228.195)" fill="#ebebeb"/>
      <rect id="Rectangle_17760" data-name="Rectangle 17760" width="4.092" height="8.627" transform="translate(37.943 142.472)" fill="#f5f5f5"/>
      <path id="Path_29158" data-name="Path 29158" d="M125.955,407.168c0,.088-5.411.163-12.082.163s-12.082-.075-12.082-.163S107.2,407,113.872,407,125.955,407.075,125.955,407.168Z" transform="translate(-73.387 -252.68)" fill="#ebebeb"/>
      <rect id="Rectangle_17761" data-name="Rectangle 17761" width="4.092" height="8.627" transform="translate(37.943 160.116)" fill="#f5f5f5"/>
      <path id="Path_29159" data-name="Path 29159" d="M125.955,449.293c0,.092-5.411.167-12.082.167s-12.082-.075-12.082-.167,5.407-.163,12.082-.163S125.955,449.205,125.955,449.293Z" transform="translate(-73.387 -277.166)" fill="#ebebeb"/>
      <rect id="Rectangle_17762" data-name="Rectangle 17762" width="4.092" height="8.627" transform="translate(13.565 125.091)" fill="#fff"/>
      <path id="Path_29160" data-name="Path 29160" d="M67.749,365.663c0,.092-5.411.163-12.082.163s-12.087-.071-12.087-.163,5.411-.163,12.087-.163S67.749,365.571,67.749,365.663Z" transform="translate(-39.555 -228.561)" fill="#e0e0e0"/>
      <rect id="Rectangle_17763" data-name="Rectangle 17763" width="4.092" height="8.627" transform="translate(13.565 142.48)" fill="#fff"/>
      <path id="Path_29161" data-name="Path 29161" d="M67.749,407.172c0,.092-5.411.163-12.082.163s-12.087-.071-12.087-.163S48.991,407,55.667,407,67.749,407.08,67.749,407.172Z" transform="translate(-39.555 -252.68)" fill="#e0e0e0"/>
      <rect id="Rectangle_17764" data-name="Rectangle 17764" width="4.092" height="8.627" transform="translate(13.565 159.869)" fill="#fff"/>
      <path id="Path_29162" data-name="Path 29162" d="M67.749,448.7c0,.092-5.411.163-12.082.163S43.58,448.8,43.58,448.7s5.411-.163,12.087-.163S67.749,448.611,67.749,448.7Z" transform="translate(-39.555 -276.823)" fill="#e0e0e0"/>
      <path id="Path_29163" data-name="Path 29163" d="M643.133,164.83c.348-2.538-3.233-4.607-5.926-4.841a15.332,15.332,0,0,1-3.832-.331c-2.634-.917-3.685-4.322-6.257-5.407-1.922-.812-4.138-.088-6,.838s-3.706,2.115-5.788,2.249c-1.809.117-3.769-.557-5.361.331-1.181.658-1.8,2.019-2.89,2.823a6.767,6.767,0,0,1-3.769,1.022,10.574,10.574,0,0,0-3.891.637,3.074,3.074,0,0,0-1.947,3.12Z" transform="translate(-361.457 -105.578)" fill="#f5f5f5"/>
      <rect id="Rectangle_17765" data-name="Rectangle 17765" width="38.881" height="27.951" transform="translate(253.504 149.616)" fill="#ebebeb"/>
      <path id="Path_29164" data-name="Path 29164" d="M660.187,395.77c.059,0,0,5.9,0,5.9H657.31v-5.9Z" transform="translate(-396.255 -246.154)" fill="#f5f5f5"/>
      <rect id="Rectangle_17766" data-name="Rectangle 17766" width="19.441" height="27.951" transform="translate(292.385 177.567) rotate(180)" fill="#e0e0e0"/>
      <rect id="Rectangle_17767" data-name="Rectangle 17767" width="5.206" height="3.681" transform="translate(254.689 172.098)" fill="#fff"/>
      <rect id="Rectangle_17768" data-name="Rectangle 17768" width="2.601" height="3.681" transform="translate(260.858 172.098)" fill="#fff"/>
      <rect id="Rectangle_17769" data-name="Rectangle 17769" width="25.316" height="18.201" transform="translate(263.375 131.415)" fill="#ebebeb"/>
      <path id="Path_29165" data-name="Path 29165" d="M676.466,352.31c.033,0,0,3.845,0,3.845H674.59V352.31Z" transform="translate(-406.298 -220.895)" fill="#f5f5f5"/>
      <rect id="Rectangle_17770" data-name="Rectangle 17770" width="12.656" height="18.201" transform="translate(288.692 149.616) rotate(180)" fill="#e0e0e0"/>
      <rect id="Rectangle_17771" data-name="Rectangle 17771" width="3.388" height="2.4" transform="translate(264.15 146.052)" fill="#fff"/>
      <rect id="Rectangle_17772" data-name="Rectangle 17772" width="1.696" height="2.4" transform="translate(268.162 146.052)" fill="#fff"/>
      <path id="Path_29166" data-name="Path 29166" d="M69.487,54.906c.2-1.436-1.83-2.622-3.35-2.743a8.72,8.72,0,0,1-2.174-.188c-1.491-.519-2.094-2.446-3.543-3.061a4.156,4.156,0,0,0-3.4.482,8.515,8.515,0,0,1-3.275,1.256c-1.026.067-2.14-.314-3.036.188-.67.373-1.022,1.143-1.638,1.6a3.912,3.912,0,0,1-2.14.586,5.9,5.9,0,0,0-2.2.36,1.726,1.726,0,0,0-1.106,1.767Z" transform="translate(-39.568 -44.444)" fill="#ebebeb"/>
      <path id="Path_29167" data-name="Path 29167" d="M688.369,124.79c.193-1.4-1.784-2.555-3.271-2.676a8.5,8.5,0,0,1-2.119-.18c-1.453-.511-2.035-2.391-3.455-2.99a4.089,4.089,0,0,0-3.313.469,8.927,8.927,0,0,1-3.2,1.256c-1,.067-2.094-.306-2.961.184-.653.364-.992,1.114-1.6,1.558a3.845,3.845,0,0,1-2.094.565,5.8,5.8,0,0,0-2.148.352,1.692,1.692,0,0,0-1.076,1.721Z" transform="translate(-399.631 -85.151)" fill="#ebebeb"/>
      <path id="Path_29168" data-name="Path 29168" d="M146.118,69.036c.36-2.626-3.35-4.787-6.127-5.026a15.778,15.778,0,0,1-3.966-.339c-2.726-.951-3.815-4.473-6.475-5.6-1.989-.838-4.276-.092-6.2.879s-3.832,2.19-5.985,2.329c-1.876.121-3.907-.574-5.549.339-1.219.683-1.859,2.094-2.986,2.932a6.972,6.972,0,0,1-3.9,1.06,11.007,11.007,0,0,0-4.025.658A3.184,3.184,0,0,0,98.885,69.5Z" transform="translate(-71.676 -49.675)" fill="#f5f5f5"/>
    </g>
    <g id="freepik--Floor--inject-56" transform="translate(40.591 215.978)">
      <path id="Path_29169" data-name="Path 29169" d="M335.4,462.359c0,.063-63.951.109-142.811.109s-142.811-.046-142.811-.109,63.938-.109,142.832-.109S335.4,462.3,335.4,462.359Z" transform="translate(-49.78 -462.25)" fill="#263238"/>
    </g>
    <g id="freepik--Plants--inject-56" transform="translate(150.311 187.006)">
      <path id="Path_29170" data-name="Path 29170" d="M320.623,420.64a3.392,3.392,0,0,1,2.144,1.571,5.955,5.955,0,0,1,.808,2.584,10.652,10.652,0,0,1-1.156,5.294c-1.717-.942-2.513-3.061-2.877-4.163-.544-1.742-.473-5.222,1.08-5.285" transform="translate(-316.107 -409.094)" fill="#c8523b"/>
      <path id="Path_29171" data-name="Path 29171" d="M331.98,442.949a2.906,2.906,0,0,1,.322-2.894,3.853,3.853,0,0,1,2.584-1.474,1.608,1.608,0,0,1,1.336.281,1.256,1.256,0,0,1,.289,1.223,2.546,2.546,0,0,1-.712,1.093,4.991,4.991,0,0,1-3.819,1.772" transform="translate(-323.372 -419.496)" fill="#c8523b"/>
      <path id="Path_29172" data-name="Path 29172" d="M330.553,451.266a1.754,1.754,0,0,1-.029-.36c0-.26-.021-.59-.034-.988a10.19,10.19,0,0,1,.314-3.254,6.177,6.177,0,0,1,1.675-2.793,4.21,4.21,0,0,1,.8-.586,1.828,1.828,0,0,1,.243-.121c.054-.025.084-.038.088-.034a6.7,6.7,0,0,0-1.072.808,6.433,6.433,0,0,0-1.608,2.764,10.8,10.8,0,0,0-.343,3.216v.988A1.873,1.873,0,0,1,330.553,451.266Z" transform="translate(-322.637 -422.164)" fill="#263238"/>
      <path id="Path_29173" data-name="Path 29173" d="M323,427a.681.681,0,0,1,.05.147c.033.113.071.26.121.419.1.381.251.93.419,1.612.348,1.361.8,3.246,1.256,5.344s.817,4,1.064,5.386c.121.691.218,1.256.276,1.637.029.184.05.335.067.448a1.126,1.126,0,0,1,0,.159.664.664,0,0,1-.042-.155c-.025-.113-.054-.26-.092-.444-.075-.4-.184-.955-.314-1.629-.268-1.378-.649-3.283-1.1-5.377s-.892-3.983-1.215-5.348c-.159-.674-.289-1.223-.381-1.621l-.1-.419A.716.716,0,0,1,323,427Z" transform="translate(-318.295 -412.79)" fill="#263238"/>
      <path id="Path_29174" data-name="Path 29174" d="M318.113,447.129a6.785,6.785,0,0,0-4.682-4.054,1.424,1.424,0,0,0-1.512.31,1.4,1.4,0,0,0,.218,1.524,5.792,5.792,0,0,0,5.972,2.37" transform="translate(-311.767 -422.089)" fill="#c8523b"/>
      <path id="Path_29175" data-name="Path 29175" d="M317.15,446.94a1.58,1.58,0,0,1,.335.063,3.806,3.806,0,0,1,.385.109,5.326,5.326,0,0,1,.5.18,5.785,5.785,0,0,1,.586.268,6.388,6.388,0,0,1,.641.368,7.446,7.446,0,0,1,1.307,1.085,7.338,7.338,0,0,1,1.005,1.369,6.425,6.425,0,0,1,.322.666,6.12,6.12,0,0,1,.226.6,4.994,4.994,0,0,1,.134.515,2.549,2.549,0,0,1,.075.394,1.673,1.673,0,0,1,.038.339c-.029,0-.084-.482-.335-1.219a5.76,5.76,0,0,0-.235-.59,5.937,5.937,0,0,0-.331-.649,7.414,7.414,0,0,0-.993-1.34,7.712,7.712,0,0,0-1.256-1.072,6.913,6.913,0,0,0-.628-.377c-.2-.113-.394-.2-.57-.276C317.619,447.066,317.141,446.965,317.15,446.94Z" transform="translate(-314.895 -424.379)" fill="#263238"/>
      <path id="Path_29176" data-name="Path 29176" d="M632.087,434.872a1.864,1.864,0,0,0-.7-1.675,4.6,4.6,0,0,1-1.227-1.432c-.381-.955.13-2.19-.519-2.986-.381-.469-1.064-.628-1.4-1.127a2.552,2.552,0,0,1-.306-.9,9.083,9.083,0,0,0-2.262-4.226,7.923,7.923,0,0,0,.888,4.075,5.166,5.166,0,0,1,.666,1.566c.142.909-.364,1.843-.142,2.735.255,1.018,1.4,1.7,1.453,2.747.046.888-.729,1.675-.67,2.555a2.439,2.439,0,0,0,.394,1.051,3.526,3.526,0,0,0,3.221,1.9l1.872.067Z" transform="translate(-494.204 -410.192)" fill="#c8523b"/>
      <g id="Group_42570" data-name="Group 42570" transform="translate(131.46 12.338)" opacity="0.3">
        <path id="Path_29177" data-name="Path 29177" d="M632.087,434.872a1.864,1.864,0,0,0-.7-1.675,4.6,4.6,0,0,1-1.227-1.432c-.381-.955.13-2.19-.519-2.986-.381-.469-1.064-.628-1.4-1.127a2.552,2.552,0,0,1-.306-.9,9.083,9.083,0,0,0-2.262-4.226,7.923,7.923,0,0,0,.888,4.075,5.166,5.166,0,0,1,.666,1.566c.142.909-.364,1.843-.142,2.735.255,1.018,1.4,1.7,1.453,2.747.046.888-.729,1.675-.67,2.555a2.439,2.439,0,0,0,.394,1.051,3.526,3.526,0,0,0,3.221,1.9l1.872.067Z" transform="translate(-625.665 -422.53)"/>
      </g>
      <path id="Path_29178" data-name="Path 29178" d="M643.655,430.361a1.471,1.471,0,0,0,.515,0,3.179,3.179,0,0,0,.607-.151,2.6,2.6,0,0,0,.75-.419,1.034,1.034,0,0,0,.31-.419,2.011,2.011,0,0,0,.088-.557,5.079,5.079,0,0,1,.046-.607,1.593,1.593,0,0,1,.226-.6,4.524,4.524,0,0,0,.7-1.282,4.187,4.187,0,0,0-.05-1.637,3.488,3.488,0,0,1,.046-1.759c.2-.582.607-1.114.812-1.772a9.054,9.054,0,0,0,.155-2.094,2.75,2.75,0,0,1,.243-1.039c.151-.331.36-.641.523-.988a7.121,7.121,0,0,0,.482-2.287c.046-.394.092-.792.134-1.194a5.784,5.784,0,0,1,.209-1.2,9.562,9.562,0,0,1,.448-1.156,4.5,4.5,0,0,0,.218-.607c.034-.218.046-.419.059-.641a7.438,7.438,0,0,0-.05-1.294c-.05-.419-.13-.863-.176-1.294v-.159l-.075.038a2.878,2.878,0,0,0-1.009.838,4.552,4.552,0,0,0-.616,1.139,13.683,13.683,0,0,0-.582,2.45,6.727,6.727,0,0,1-.771,2.262c-.205.331-.452.637-.67.959a2.649,2.649,0,0,0-.465,1.068c-.109.792.327,1.487.234,2.186a2.365,2.365,0,0,1-.339.972,9.411,9.411,0,0,1-.561.838,5.233,5.233,0,0,0-.5.863,2.657,2.657,0,0,0-.23.938c-.046.628.042,1.227,0,1.792a4.114,4.114,0,0,1-.461,1.537c-.226.461-.477.875-.687,1.256a6.407,6.407,0,0,0-.285.6,2.9,2.9,0,0,0-.163.591,3.683,3.683,0,0,0,0,1.068,2.722,2.722,0,0,0,.536,1.361,2.018,2.018,0,0,0,.151.163.842.842,0,0,0,.126.1l.1.075a2.511,2.511,0,0,1-.36-.36,2.68,2.68,0,0,1-.511-1.353,3.729,3.729,0,0,1,.025-1.051,3.086,3.086,0,0,1,.168-.578,6.236,6.236,0,0,1,.285-.586c.209-.419.465-.812.7-1.277a4.189,4.189,0,0,0,.477-1.562c.05-.578-.038-1.181,0-1.8a2.6,2.6,0,0,1,.226-.9,5.122,5.122,0,0,1,.494-.838c.189-.276.389-.553.565-.859a2.469,2.469,0,0,0,.356-1.009c.092-.75-.339-1.449-.23-2.182a2.566,2.566,0,0,1,.452-1.022c.209-.318.461-.62.67-.963a6.7,6.7,0,0,0,.787-2.3,14.123,14.123,0,0,1,.578-2.429,4.53,4.53,0,0,1,.6-1.11,2.735,2.735,0,0,1,.963-.812l-.084-.05v.075c.046.44.126.867.176,1.294a7.634,7.634,0,0,1,.046,1.256,5,5,0,0,1-.055.624,3.924,3.924,0,0,1-.209.586,9.653,9.653,0,0,0-.452,1.168,5.859,5.859,0,0,0-.209,1.215c-.046.419-.092.8-.134,1.2a7.056,7.056,0,0,1-.469,2.249c-.155.339-.364.653-.523,1a2.858,2.858,0,0,0-.247,1.076,9.162,9.162,0,0,1-.142,2.065c-.193.637-.6,1.168-.808,1.772a3.56,3.56,0,0,0-.042,1.8,4.21,4.21,0,0,1,.063,1.608,4.545,4.545,0,0,1-.691,1.256,1.676,1.676,0,0,0-.23.624,5.28,5.28,0,0,0-.042.611,1.88,1.88,0,0,1-.08.544,1.013,1.013,0,0,1-.289.394,2.57,2.57,0,0,1-.733.419,3.143,3.143,0,0,1-.6.159,1.843,1.843,0,0,1-.381.038Z" transform="translate(-504.127 -401.288)" fill="#263238"/>
      <path id="Path_29179" data-name="Path 29179" d="M650.786,409.88a.47.47,0,0,0,0,.059l-.042.168c-.038.147-.08.369-.151.649s-.243.586-.389.976a13.16,13.16,0,0,0-.444,1.323c-.142.5-.268,1.055-.419,1.646a6.829,6.829,0,0,1-.6,1.83c-.151.3-.327.611-.461.946a4.388,4.388,0,0,0-.272,1.072,21.374,21.374,0,0,1-.419,2.262c-.373,1.533-.733,2.994-1.055,4.322s-.637,2.513-.888,3.526-.448,1.805-.586,2.379c-.067.272-.117.49-.155.645l-.038.172a.3.3,0,0,0,0,.059.137.137,0,0,1,.021-.059l.05-.163c.042-.159.1-.373.176-.645.147-.57.36-1.374.624-2.366s.565-2.2.909-3.518.691-2.789,1.068-4.322a21.987,21.987,0,0,0,.419-2.274,4.509,4.509,0,0,1,.26-1.047c.134-.327.3-.632.456-.942a6.992,6.992,0,0,0,.595-1.851c.13-.595.251-1.147.385-1.646s.285-.942.419-1.328.3-.7.369-.988.1-.5.13-.653l.038-.18Z" transform="translate(-505.364 -402.84)" fill="#263238"/>
      <path id="Path_29180" data-name="Path 29180" d="M636.362,422.147c1.223-.725,1.571-2.932,1.064-4.255s-1.4-2.538-1.541-3.953c-.1-1.089.251-2.2,0-3.267-.339-1.432-1.738-2.542-1.725-4.016,0-.838.482-1.608.444-2.433-.046-1.014-.838-1.818-1.307-2.71A14.235,14.235,0,0,1,632.258,397c-.255-1.533-.838-3.175-2.194-3.928a14.425,14.425,0,0,0-.419,3.953c.042.637.775,1.847.875,3.233.059.838.1,1.675.151,2.488a8.054,8.054,0,0,0,.394,2.387c.222.578.578,1.106.741,1.7.31,1.127-.1,2.345.155,3.484.209.963.879,1.792,1.013,2.772.193,1.374-.7,2.8-.243,4.113a18.878,18.878,0,0,1,.913,1.847c.121.524,0,1.072.1,1.6.172.838,1.784,1.5,2.643,1.449" transform="translate(-496.503 -393.07)" fill="#c8523b"/>
      <path id="Path_29181" data-name="Path 29181" d="M631.48,396.16v.071l.029.214c.025.188.059.465.121.838a9.536,9.536,0,0,0,.419,1.256,15.909,15.909,0,0,1,.448,1.675c.138.628.256,1.319.377,2.065a8.524,8.524,0,0,0,.628,2.337c.167.394.36.783.507,1.2a5.443,5.443,0,0,1,.255,1.323,26.788,26.788,0,0,0,.36,2.844c.373,1.927.729,3.769,1.055,5.444s.649,3.162.909,4.427.473,2.27.624,2.982c.071.343.13.616.172.808l.05.209.021.071a.434.434,0,0,0,0-.071l-.038-.214c-.038-.193-.088-.469-.151-.817-.142-.712-.343-1.73-.586-2.986s-.574-2.8-.9-4.477-.674-3.505-1.047-5.444a27.678,27.678,0,0,1-.36-2.835,5.575,5.575,0,0,0-.264-1.349c-.151-.419-.343-.817-.515-1.2a8.71,8.71,0,0,1-.633-2.312c-.126-.745-.247-1.441-.394-2.069a17.236,17.236,0,0,0-.465-1.675c-.155-.486-.348-.888-.419-1.256s-.109-.632-.147-.817a1.05,1.05,0,0,0-.038-.209A.257.257,0,0,0,631.48,396.16Z" transform="translate(-497.584 -394.866)" fill="#263238"/>
    </g>
    <g id="freepik--Vehicle--inject-56" transform="translate(39.033 63.983)">
      <rect id="Rectangle_17773" data-name="Rectangle 17773" width="185.977" height="18.586" transform="translate(29.496 96.831)" fill="#c8523b"/>
      <g id="Group_42571" data-name="Group 42571" transform="translate(29.496 96.831)" opacity="0.4">
        <rect id="Rectangle_17774" data-name="Rectangle 17774" width="185.977" height="18.586"/>
      </g>
      <rect id="Rectangle_17775" data-name="Rectangle 17775" width="54.896" height="17.213" transform="translate(120.284 117.762)" fill="#455a64"/>
      <path id="Path_29182" data-name="Path 29182" d="M241.67,361.92v22.753h18.745l7.513-10.889H404.8V361.92Z" transform="translate(-159.748 -251.943)" fill="#263238"/>
      <path id="Path_29183" data-name="Path 29183" d="M127.676,188.048a1.4,1.4,0,0,0-1.449-1.319c-7.409.306-42.579,1.918-49.812,5.394-5.537,2.664-11.6,12.606-15.877,19.3-3.066,4.8-9.838,15.454-11.207,20.9-1.16,4.607-1.859,14.189-1.78,18.942l1.935,25.153H81.361l3.191-8.309a14.03,14.03,0,0,1,13.1-8.992h31.674V217.381Z" transform="translate(-46.923 -150.121)" fill="#c8523b"/>
      <path id="Path_29184" data-name="Path 29184" d="M75.517,206.26c-4.389,4.188-8.795,11.308-12.1,16.517-2.839,4.444-8.853,13.9-10.818,19.608-.038.1-.067.205-.1.31.972-.268,2.467-.817,2.932-1.738.7-1.395,1.6-6.173,12.677-24.211C71.476,211.248,74.759,208.032,75.517,206.26Z" transform="translate(-49.803 -161.473)" fill="#455a64"/>
      <path id="Path_29185" data-name="Path 29185" d="M126.15,201.8c-8.15.465-25.819,1.675-31.464,3.593-7.354,2.513-15.609,21.983-16,22.837l-5.562,14.239a.62.62,0,0,0,.586.817H88.089a4.608,4.608,0,0,0,1.6-.285l37.813-14.1a4.372,4.372,0,0,0,2.844-4.1V205.767a3.97,3.97,0,0,0-4.192-3.966Z" transform="translate(-61.771 -158.879)" fill="#263238"/>
      <path id="Path_29186" data-name="Path 29186" d="M77,243.833s5.327-11.948,7.12-15.864c2.705-5.913,9.025-18.008,13.293-19.311,3.924-1.177,15.207-2.609,31.088-3.518h.151a2.58,2.58,0,0,1,2.571,2.576V227.19a2.366,2.366,0,0,1-1.533,2.207l-27.938,3.447a7.777,7.777,0,0,0-5.549,3.451l-4.841,7.383a2.559,2.559,0,0,1-.888.159Z" transform="translate(-64.042 -160.823)" fill="#455a64"/>
      <path id="Path_29187" data-name="Path 29187" d="M120.5,237.108,111,247.687l5.256-35.125,1.315-.452-2.588,26.02a.766.766,0,0,0,1.047.783Z" transform="translate(-83.803 -164.874)" fill="#263238"/>
      <path id="Path_29188" data-name="Path 29188" d="M46.064,344.854c-.034-.457.121-.838.356-.838l5.093-.469c.419-.042.808.75.859,1.675l.23,3.907c.038.628-.151,1.16-.419,1.206l-5.193.9c-.235.042-.461-.306-.494-.766Z" transform="translate(-46.059 -241.264)" fill="#ebebeb"/>
      <rect id="Rectangle_17776" data-name="Rectangle 17776" width="36.695" height="14.712" transform="translate(0 121.846)" fill="#263238"/>
      <circle id="Ellipse_6438" data-name="Ellipse 6438" cx="20.077" cy="20.077" r="20.077" transform="translate(39.587 112.57) rotate(-2.2)" fill="#263238"/>
      <path id="Path_29189" data-name="Path 29189" d="M142.427,413.35a.221.221,0,0,1,0,.054,20.077,20.077,0,1,0,40.15.578v-.05Z" transform="translate(-102.067 -281.834)" fill="#263238"/>
      <path id="Path_29190" data-name="Path 29190" d="M156.7,394.405A14.1,14.1,0,1,0,171,380.518,14.1,14.1,0,0,0,156.7,394.405Z" transform="translate(-110.361 -262.751)" fill="#fafafa"/>
      <path id="Path_29191" data-name="Path 29191" d="M171,380.518a14.1,14.1,0,0,0-14.3,13.887l28.189.419A14.1,14.1,0,0,0,171,380.518Z" transform="translate(-110.364 -262.751)" fill="#e0e0e0"/>
      <path id="Path_29192" data-name="Path 29192" d="M169.859,402.129a8.585,8.585,0,1,0,8.707-8.46A8.585,8.585,0,0,0,169.859,402.129Z" transform="translate(-118.011 -270.395)" fill="#263238"/>
      <rect id="Rectangle_17777" data-name="Rectangle 17777" width="8.322" height="19.973" rx="4.161" transform="translate(16.509 55.675)" fill="#263238"/>
      <path id="Path_29193" data-name="Path 29193" d="M76.679,274.849H76.26v-21.12a3.8,3.8,0,0,1,3.8-3.8h1.005v.419H80.059a3.384,3.384,0,0,0-3.38,3.38Z" transform="translate(-63.612 -186.854)" fill="#263238"/>
      <path id="Path_29194" data-name="Path 29194" d="M82.45,278.431l-1.164-19.746a2.513,2.513,0,0,1,2.483-2.634v.419a2.069,2.069,0,0,0-2.065,2.19l1.164,19.751Z" transform="translate(-66.531 -190.411)" fill="#263238"/>
      <rect id="Rectangle_17778" data-name="Rectangle 17778" width="5.645" height="6.537" transform="translate(11.593 86.093)" fill="#263238"/>
      <rect id="Rectangle_17779" data-name="Rectangle 17779" width="2.295" height="0.419" transform="translate(12.858 73.684)" fill="#263238"/>
      <path id="Path_29195" data-name="Path 29195" d="M90.251,198.013l.5-.067,1.47-.172,5.7-.658,21.233-2.416c1.131-.121,2.282-.272,3.476-.377a6.526,6.526,0,0,1,1.822.117,7.07,7.07,0,0,1,1.746.662,6.512,6.512,0,0,1,2.643,2.747,6.123,6.123,0,0,1,.607,1.889,7.227,7.227,0,0,1,.088,1.005v59.105H107.472a23.431,23.431,0,0,0-3.769.18,14.629,14.629,0,0,0-11.576,9.243,11.411,11.411,0,0,0-.456,1.369,11.729,11.729,0,0,0-.322,1.4l-.109.712-.05.356-.021.356-.033.716v.4c.092-.092-.13.142-.113.117H63.05V241.761a19.423,19.423,0,0,1,.142-1.981,19.872,19.872,0,0,1,2.37-7.212q1.73-3.254,3.35-6.282l5.939-11.128,4.82-9.034q.528-.984,1.013-1.906c.168-.3.314-.607.49-.892a8.851,8.851,0,0,1,.565-.8,11.885,11.885,0,0,1,2.538-2.358,12.794,12.794,0,0,1,4.343-1.889,11.111,11.111,0,0,1,1.621-.264l-.419.063c-.272.042-.674.113-1.2.235a12.848,12.848,0,0,0-4.314,1.91,11.793,11.793,0,0,0-2.513,2.358,7.453,7.453,0,0,0-.557.8c-.172.276-.318.586-.486.892l-1.009,1.91-4.779,9.042c-1.792,3.376-3.769,7.1-5.905,11.136l-3.35,6.282a19.642,19.642,0,0,0-2.341,7.157,19.09,19.09,0,0,0-.138,1.964v32.821l-.1-.1H90.988c.029-.021-.2.2-.1.1v-.406l.038-.729v-.36l.054-.36.109-.725a11.879,11.879,0,0,1,.327-1.424,11.519,11.519,0,0,1,.465-1.39,14.859,14.859,0,0,1,11.747-9.381,23.953,23.953,0,0,1,3.769-.18H129.35l-.109.1V201.741a11.991,11.991,0,0,0-.084-1.989,5.993,5.993,0,0,0-.591-1.847,6.282,6.282,0,0,0-2.576-2.68,6.7,6.7,0,0,0-1.7-.649,6.4,6.4,0,0,0-1.78-.121c-1.185.1-2.345.251-3.472.373L97.81,197.176l-5.7.624-1.47.155Z" transform="translate(-55.934 -154.525)" fill="#263238"/>
      <path id="Path_29196" data-name="Path 29196" d="M189.986,306.955a1.563,1.563,0,0,0,.327-.05,2.3,2.3,0,0,0,.863-.343,2.182,2.182,0,0,0,.875-1.139,2.421,2.421,0,0,0,.113-.9,2.2,2.2,0,0,0-.255-.972,2.169,2.169,0,0,0-1.885-1.152h-9.1A2.149,2.149,0,0,0,178.8,304.3a2.391,2.391,0,0,0,.264,1.445,2.149,2.149,0,0,0,1.047.93,3.267,3.267,0,0,0,1.365.167h3.748l3.489.034h.951a1.681,1.681,0,0,1,.327.025,2.851,2.851,0,0,1-.327.021h-.951l-3.489.034h-4.456a2.515,2.515,0,0,1-.733-.168,2.362,2.362,0,0,1-1.147-1.014,2.6,2.6,0,0,1-.293-1.57,2.358,2.358,0,0,1,2.337-2.094h9.1a2.324,2.324,0,0,1,2.278,2.3,2.559,2.559,0,0,1-.138.942,2.278,2.278,0,0,1-.942,1.173,2.174,2.174,0,0,1-.9.314,1.455,1.455,0,0,1-.335.117Z" transform="translate(-123.074 -217.181)" fill="#263238"/>
      <path id="Path_29197" data-name="Path 29197" d="M194.032,300.951a61.656,61.656,0,0,1-7.182,0,59.276,59.276,0,0,1,7.182,0Z" transform="translate(-127.887 -216.437)" fill="#fff"/>
      <path id="Path_29198" data-name="Path 29198" d="M133.02,384.689l-3.35-.243c.875-12,2.157-19.177,3.92-21.945,3.384-5.319,6.747-6.282,10.47-6.914a49.359,49.359,0,0,1,10.349-.314l.838.033c6.986.272,21.618.029,21.778.029l.054,3.35c-.147,0-14.872.247-21.949-.029l-.838-.034a46.953,46.953,0,0,0-9.653.272c-3.329.565-5.545,1.215-8.217,5.411C135.613,365.559,134.1,369.91,133.02,384.689Z" transform="translate(-94.654 -248.01)" fill="#263238"/>
      <rect id="Rectangle_17780" data-name="Rectangle 17780" width="164.999" height="109.86" transform="translate(84.154)" fill="#c8523b"/>
      <path id="Path_29199" data-name="Path 29199" d="M412.347,210.307c0-.708-.034-41-.088-105.2l.088.084-161.238.025h0l.109-.109v105.2l-.1-.1,161.238.1-161.238.1H251V105h.121l161.238.021h.088v.088C412.381,169.307,412.347,209.6,412.347,210.307Z" transform="translate(-165.171 -102.621)" fill="#263238"/>
      <path id="Path_29215" data-name="Path 29215" d="M546.72,158.944l24.7-5.784-.976-2.63Z" transform="translate(-337.043 -129.083)" fill="#fafafa"/>
      <path id="Path_29216" data-name="Path 29216" d="M282.67,206.636l17.171-4.02-.678-1.826Z" transform="translate(-183.577 -158.294)" fill="#fafafa"/>
      <path id="Path_29217" data-name="Path 29217" d="M423.04,301.864l24.7-5.788-.972-2.626Z" transform="translate(-265.16 -212.148)" fill="#fafafa"/>
      <path id="Path_29218" data-name="Path 29218" d="M419.336,139.209c0,.059-13.184,3.212-29.471,7.04s-29.509,6.889-29.525,6.831,13.18-3.212,29.475-7.04S419.324,139.15,419.336,139.209Z" transform="translate(-228.719 -122.503)" fill="#fafafa"/>
      <path id="Path_29219" data-name="Path 29219" d="M325.484,229.567c0,.059-5.654,1.256-12.656,2.664s-12.685,2.513-12.7,2.454,5.654-1.256,12.656-2.668S325.472,229.508,325.484,229.567Z" transform="translate(-193.725 -175.018)" fill="#fafafa"/>
      <path id="Path_29221" data-name="Path 29221" d="M168.188,223.54a1.667,1.667,0,0,1-.155.13l-.461.331c-.419.289-.993.691-1.721,1.189-1.462.988-3.5,2.337-5.767,3.79s-4.343,2.739-5.863,3.656c-.754.456-1.369.838-1.8,1.072l-.494.276a.836.836,0,0,1-.18.088,1.162,1.162,0,0,1,.155-.121l.473-.318,1.763-1.127,5.817-3.711,5.8-3.736,1.763-1.127.486-.3a.954.954,0,0,1,.184-.092Z" transform="translate(-107.487 -171.517)" fill="#fafafa"/>
      <path id="Path_29222" data-name="Path 29222" d="M151.1,228.06a1.663,1.663,0,0,1-.155.13l-.461.331c-.419.285-.993.691-1.725,1.185-1.462.993-3.5,2.337-5.763,3.769s-4.343,2.743-5.863,3.66c-.754.456-1.369.838-1.8,1.068l-.494.281a.645.645,0,0,1-.18.084.88.88,0,0,1,.155-.121l.473-.314L137.047,237l5.821-3.706,5.8-3.736,1.763-1.131.482-.3a.766.766,0,0,1,.188-.071Z" transform="translate(-97.554 -174.144)" fill="#fafafa"/>
      <path id="Path_29223" data-name="Path 29223" d="M88.592,244.07a1.14,1.14,0,0,1-.13-.369c-.067-.239-.159-.59-.264-1.026a14.942,14.942,0,0,1-.419-3.476,7.539,7.539,0,0,1,.8-3.409,4.933,4.933,0,0,1,.595-.888,1.257,1.257,0,0,1,.276-.272,13.506,13.506,0,0,0-.737,1.231,8.02,8.02,0,0,0-.716,3.35,17.9,17.9,0,0,0,.373,3.443A11.5,11.5,0,0,1,88.592,244.07Z" transform="translate(-70.307 -177.962)" fill="#fafafa"/>
      <path id="Path_29224" data-name="Path 29224" d="M48.984,311.7a2.214,2.214,0,0,1,0-.448c0-.3,0-.737.025-1.256.034-1.076.113-2.563.243-4.188s.285-3.116.419-4.188c.067-.536.126-.967.172-1.256a2.191,2.191,0,0,1,.1-.456,1.751,1.751,0,0,1,0,.469l-.109,1.256c-.092,1.122-.218,2.576-.356,4.188s-.222,3.061-.3,4.188c-.038.5-.071.926-.1,1.256a1.818,1.818,0,0,1-.092.436Z" transform="translate(-47.753 -215.903)" fill="#fafafa"/>
      <path id="Path_29225" data-name="Path 29225" d="M142.834,347.48c0,.046-.808.159-2.061.565a16.291,16.291,0,0,0-2.14.867,16.354,16.354,0,0,0-6,5.13c-.758,1.076-1.114,1.818-1.152,1.8a3.231,3.231,0,0,1,.235-.528,5.445,5.445,0,0,1,.318-.595c.134-.226.281-.49.473-.762a14.659,14.659,0,0,1,1.449-1.83,16.976,16.976,0,0,1,2.14-1.914,16.234,16.234,0,0,1,2.454-1.47,14.51,14.51,0,0,1,2.178-.838c.314-.1.611-.163.867-.226a6.593,6.593,0,0,1,.666-.126,3.014,3.014,0,0,1,.574-.071Z" transform="translate(-95.706 -243.551)" fill="#fafafa"/>
      <path id="Path_29226" data-name="Path 29226" d="M255.7,190.358a1.026,1.026,0,0,1,0-.18v-.528c0-.477,0-1.16-.029-2.031-.025-1.776-.059-4.326-.1-7.471-.113-6.32-.268-15.027-.44-24.646s-.318-18.343-.377-24.651c-.029-3.154-.038-5.708-.034-7.471V120.64a.959.959,0,0,1,0,.18v.528c0,.473,0,1.156.029,2.031.025,1.776.059,4.322.1,7.467.113,6.32.268,15.027.44,24.651s.322,18.339.377,24.646c.029,3.158.042,5.708.038,7.471v2.563a1.515,1.515,0,0,1,0,.18Z" transform="translate(-167.331 -111.711)" fill="#fafafa"/>
      <circle id="Ellipse_6439" data-name="Ellipse 6439" cx="20.077" cy="20.077" r="20.077" transform="translate(187.877 112.58) rotate(-2.29)" fill="#263238"/>
      <path id="Path_29227" data-name="Path 29227" d="M496.527,413.35v.054a20.075,20.075,0,1,0,40.146.578v-.05Z" transform="translate(-307.87 -281.834)" fill="#263238"/>
      <path id="Path_29228" data-name="Path 29228" d="M510.8,394.405a14.093,14.093,0,1,0,14.3-13.887A14.093,14.093,0,0,0,510.8,394.405Z" transform="translate(-316.164 -262.751)" fill="#fafafa"/>
      <path id="Path_29229" data-name="Path 29229" d="M525.1,380.518a14.093,14.093,0,0,0-14.3,13.887l28.185.419A14.093,14.093,0,0,0,525.1,380.518Z" transform="translate(-316.166 -262.751)" fill="#e0e0e0"/>
      <path id="Path_29230" data-name="Path 29230" d="M524,402.129a8.585,8.585,0,1,0,8.707-8.46A8.585,8.585,0,0,0,524,402.129Z" transform="translate(-323.837 -270.395)" fill="#263238"/>
      <path id="Path_29231" data-name="Path 29231" d="M481.315,387.778S478.258,359.3,507.766,359.3c27.222,0,26.619,24.491,26.359,28.282h-4.268s2.174-24.14-22.092-24.14-22.155,24.63-22.155,24.63S483.819,387.984,481.315,387.778Z" transform="translate(-298.977 -250.42)" fill="#455a64"/>
      <path id="Path_29232" data-name="Path 29232" d="M499.048,366.339a.973.973,0,0,1-.23.084c-.155.054-.385.109-.67.209a20.4,20.4,0,0,0-2.4.934,19.2,19.2,0,0,0-10.562,12.564,20.524,20.524,0,0,0-.507,2.513c-.046.3-.063.536-.088.7a1.481,1.481,0,0,1-.042.243.98.98,0,0,1,0-.243,3.933,3.933,0,0,1,.05-.7,17.072,17.072,0,0,1,.444-2.555A18.758,18.758,0,0,1,495.69,367.4a17.631,17.631,0,0,1,2.438-.879c.293-.084.528-.13.683-.168A1.076,1.076,0,0,1,499.048,366.339Z" transform="translate(-300.905 -254.511)" fill="#fafafa"/>
      <path id="Path_29303" data-name="Path 29303" d="M423.04,308.2l43.3-10.148-1.7-4.6Z" transform="translate(-257.617 -241.157)" fill="#fafafa"/>
    </g>
    <g id="freepik--Character--inject-56" transform="translate(287.466 122.013)">
      <path id="Path_29233" data-name="Path 29233" d="M692.25,432.634,695.818,438l1.6,5.059a.657.657,0,0,0,.871.419h0a.645.645,0,0,0,.419-.452c.327-1.323,1.5-6.2,1.223-6.579s-3.392-5.909-3.392-5.909Z" transform="translate(-670.058 -349.855)" fill="#455a64"/>
      <g id="Group_42574" data-name="Group 42574" transform="translate(28.236 86.226)" opacity="0.6">
        <path id="Path_29234" data-name="Path 29234" d="M706.68,451.166l1.39-7.4.147.23a.989.989,0,0,1,.146.67c-.088.624-.373,2.345-1.256,6.031a.654.654,0,0,1-.419.465Z" transform="translate(-706.68 -443.77)" fill="#fff"/>
      </g>
      <g id="Group_42575" data-name="Group 42575" transform="translate(27.371 84.946)" opacity="0.6">
        <path id="Path_29235" data-name="Path 29235" d="M704.638,440.943a.419.419,0,0,0,.184.5.385.385,0,0,0,.5-.18.419.419,0,0,0-.2-.528.394.394,0,0,0-.494.247" transform="translate(-704.615 -440.714)" fill="#fff"/>
      </g>
      <path id="Path_29236" data-name="Path 29236" d="M704.039,453.494a1.91,1.91,0,0,0-.745-.121,2.006,2.006,0,0,0-.7.276.474.474,0,0,1,.147-.2,1.038,1.038,0,0,1,.544-.222,1,1,0,0,1,.578.1C703.993,453.406,704.052,453.482,704.039,453.494Z" transform="translate(-676.067 -363.039)" fill="#263238"/>
      <path id="Path_29237" data-name="Path 29237" d="M704.551,456.024a4.377,4.377,0,0,0-.632.071,4.24,4.24,0,0,0-.574.268c-.033-.021.155-.3.536-.419A.729.729,0,0,1,704.551,456.024Z" transform="translate(-676.504 -364.592)" fill="#263238"/>
      <path id="Path_29238" data-name="Path 29238" d="M703.72,450.345a6.4,6.4,0,0,0-.984.046,6.109,6.109,0,0,0-.926.322,1.44,1.44,0,0,1,.9-.461A1.5,1.5,0,0,1,703.72,450.345Z" transform="translate(-675.614 -361.284)" fill="#263238"/>
      <path id="Path_29239" data-name="Path 29239" d="M702.072,446.421c0,.042-.377.1-.775.339s-.653.523-.687.5a1.3,1.3,0,0,1,.616-.62A1.257,1.257,0,0,1,702.072,446.421Z" transform="translate(-674.917 -359.081)" fill="#263238"/>
      <path id="Path_29240" data-name="Path 29240" d="M699.685,442.562a3.3,3.3,0,0,0-.838.335,3.393,3.393,0,0,0-.607.637.639.639,0,0,1,.08-.264,1.449,1.449,0,0,1,1.068-.729C699.58,442.525,699.685,442.546,699.685,442.562Z" transform="translate(-673.539 -356.827)" fill="#263238"/>
      <path id="Path_29241" data-name="Path 29241" d="M697.467,440.662a.651.651,0,0,1-.134-.2,1.633,1.633,0,0,1-.18-.645.762.762,0,0,1,.08-.473.268.268,0,0,1,.285-.113.448.448,0,0,1,.243.193.934.934,0,0,1-.23,1.168,1.085,1.085,0,0,1-1.2.088.356.356,0,0,1-.18-.251.255.255,0,0,1,.155-.264.922.922,0,0,1,.477-.042,1.923,1.923,0,0,1,.641.188.649.649,0,0,1,.2.134,3.073,3.073,0,0,0-.838-.222.867.867,0,0,0-.419.046.138.138,0,0,0-.088.142.26.26,0,0,0,.13.159.972.972,0,0,0,1.043-.088.838.838,0,0,0,.209-.988.31.31,0,0,0-.163-.142.147.147,0,0,0-.159.059.658.658,0,0,0-.075.419,2.67,2.67,0,0,0,.205.833Z" transform="translate(-672.322 -354.902)" fill="#263238"/>
      <path id="Path_29242" data-name="Path 29242" d="M676.49,442.562l-.419,5.39s5.348,1.83,5.369,2.835l-10.47-.025.293-8.422Z" transform="translate(-657.69 -356.713)" fill="#455a64"/>
      <g id="Group_42576" data-name="Group 42576" transform="translate(14.85 90.646)" opacity="0.6">
        <path id="Path_29243" data-name="Path 29243" d="M675.037,454.336a.4.4,0,0,0,.155.792.452.452,0,0,0,.331-.507.419.419,0,0,0-.523-.276" transform="translate(-674.717 -454.325)" fill="#fff"/>
      </g>
      <g id="Group_42577" data-name="Group 42577" transform="translate(13.293 93.211)" opacity="0.6">
        <path id="Path_29244" data-name="Path 29244" d="M671,461.288l.029-.838,10.122.377a.733.733,0,0,1,.385.574Z" transform="translate(-671 -460.45)" fill="#fff"/>
      </g>
      <path id="Path_29245" data-name="Path 29245" d="M682.237,455.556c0,.05-.26.063-.519.218s-.419.364-.444.343a.619.619,0,0,1,.356-.5C681.943,455.439,682.249,455.51,682.237,455.556Z" transform="translate(-663.675 -364.363)" fill="#263238"/>
      <path id="Path_29246" data-name="Path 29246" d="M685.154,456.784c0,.05-.214.126-.4.335s-.239.419-.293.419-.071-.293.163-.549S685.154,456.733,685.154,456.784Z" transform="translate(-665.512 -365.093)" fill="#263238"/>
      <path id="Path_29247" data-name="Path 29247" d="M687.455,458.794c-.046,0-.109-.251.034-.528s.385-.377.419-.331-.134.188-.247.419S687.5,458.794,687.455,458.794Z" transform="translate(-667.239 -365.771)" fill="#263238"/>
      <path id="Path_29248" data-name="Path 29248" d="M681.966,452.385c-.025.046-.255-.033-.544-.025s-.519.088-.544.046.2-.222.54-.226S681.991,452.347,681.966,452.385Z" transform="translate(-663.447 -362.432)" fill="#263238"/>
      <g id="Group_42578" data-name="Group 42578" transform="translate(13.498 86.758)" opacity="0.3">
        <path id="Path_29249" data-name="Path 29249" d="M676.708,445.2l-.071.959-5.147-.251.029-.867Z" transform="translate(-671.49 -445.04)"/>
      </g>
      <path id="Path_29250" data-name="Path 29250" d="M681.463,448.826a.981.981,0,0,1-.524-.021,2.511,2.511,0,0,1-.544-.193,2.125,2.125,0,0,1-.293-.172.609.609,0,0,1-.155-.13.226.226,0,0,1,0-.272.289.289,0,0,1,.23-.109.8.8,0,0,1,.193.034,2.08,2.08,0,0,1,.322.126,1.886,1.886,0,0,1,.473.339c.234.234.31.419.289.419s-.134-.147-.373-.343a2.234,2.234,0,0,0-.461-.281,1.554,1.554,0,0,0-.3-.1c-.109-.033-.2-.038-.235,0s0,.025,0,.059a.419.419,0,0,0,.109.1,2.816,2.816,0,0,0,.272.167,3.008,3.008,0,0,0,.5.218A3.962,3.962,0,0,1,681.463,448.826Z" transform="translate(-662.881 -359.962)" fill="#263238"/>
      <path id="Path_29251" data-name="Path 29251" d="M683.292,447.95a.838.838,0,0,1-.117-.511,1.75,1.75,0,0,1,.239-.884.419.419,0,0,1,.348-.255.26.26,0,0,1,.214.155,1.013,1.013,0,0,1,.046.2,1.2,1.2,0,0,1-.26.888c-.218.26-.419.314-.419.3a1.953,1.953,0,0,0,.335-.373,1.281,1.281,0,0,0,.184-.486,1.074,1.074,0,0,0,0-.306c0-.113-.046-.2-.092-.193a.348.348,0,0,0-.189.163,1.77,1.77,0,0,0-.142.281,1.891,1.891,0,0,0-.121.519C683.276,447.749,683.322,447.942,683.292,447.95Z" transform="translate(-664.781 -359.015)" fill="#263238"/>
      <path id="Path_29252" data-name="Path 29252" d="M679.754,337a32.953,32.953,0,0,1,2.425,6.751c.142.8-5.5,41.193-5.5,41.193L670,384.693l3.128-37.592-1.114-7.538Z" transform="translate(-657.126 -295.49)" fill="#263238"/>
      <path id="Path_29253" data-name="Path 29253" d="M654.558,342.83a59.957,59.957,0,0,0,.419,8.167c.494,3.962,1.625,8.472,1.993,10.994.813,5.578,2.412,6.634,2.412,6.634l12.807,16.388,5.026-4.519L665.908,362.43s-3.007-20.044-2.9-19.5S654.558,342.83,654.558,342.83Z" transform="translate(-648.146 -298.878)" fill="#263238"/>
      <path id="Path_29254" data-name="Path 29254" d="M666.73,405a1.428,1.428,0,0,0,.122.172l.364.469,1.344,1.734c1.135,1.478,2.68,3.505,4.393,5.746s3.271,4.276,4.427,5.725c.574.725,1.047,1.307,1.382,1.7l.385.452a1.259,1.259,0,0,0,.142.155,1,1,0,0,0-.121-.172l-.364-.473-1.344-1.73-4.393-5.75c-1.709-2.249-3.271-4.276-4.427-5.721-.574-.729-1.047-1.307-1.378-1.7l-.389-.456A1,1,0,0,0,666.73,405Z" transform="translate(-655.225 -335.011)" fill="#455a64"/>
      <path id="Path_29255" data-name="Path 29255" d="M659,350.16a1.394,1.394,0,0,1-.18.641,4.1,4.1,0,0,1-2.287,2.144,1.551,1.551,0,0,1-.649.138,7.2,7.2,0,0,0,1.855-1.143A7.078,7.078,0,0,0,659,350.16Z" transform="translate(-648.919 -303.138)" fill="#455a64"/>
      <path id="Path_29256" data-name="Path 29256" d="M693.716,344.3a1.746,1.746,0,0,1-1.876-.276c.029-.054.419.126.93.2A8.7,8.7,0,0,1,693.716,344.3Z" transform="translate(-669.819 -299.567)" fill="#455a64"/>
      <path id="Path_29257" data-name="Path 29257" d="M679.109,358a2.056,2.056,0,0,1,.046.268c.025.193.054.448.1.771.075.691.184,1.675.322,2.873.26,2.463.616,5.863,1.026,9.775v-.046l1.855,2.965,6.445,10.374c.808,1.319,1.466,2.391,1.931,3.158l.5.854a1.771,1.771,0,0,1,.163.31,2.487,2.487,0,0,1-.2-.289l-.553-.838-1.989-3.12c-1.675-2.659-3.966-6.307-6.5-10.336l-1.851-2.969h0v-.025c-.377-3.9-.712-7.316-.951-9.783l-.26-2.881c-.025-.322-.046-.578-.059-.775A1.183,1.183,0,0,1,679.109,358Z" transform="translate(-662.42 -307.695)" fill="#455a64"/>
      <path id="Path_29258" data-name="Path 29258" d="M655.742,273.678l4,1.281.3,8.472s2.161,9.955,2.63,11.211a25.653,25.653,0,0,1,1.219,4.64s-.771,5.62-6.387,6.282S646.659,303,646.659,303s-1.872-8.376-3.589-15.889c-1.633-7.149-.306-11.412-.306-11.412l6.152-2.211Z" transform="translate(-641.001 -258.578)" fill="#455a64"/>
      <rect id="Rectangle_17781" data-name="Rectangle 17781" width="3.698" height="0.951" transform="translate(14.04 20.261) rotate(-6.9)" fill="#fafafa"/>
      <path id="Path_29259" data-name="Path 29259" d="M676.035,255.758a.838.838,0,0,0-.892-.7.7.7,0,0,0-.088-1.173,1.441,1.441,0,0,0-.3-1.91L670.54,257.8a3.065,3.065,0,0,0,2.324.637,6.218,6.218,0,0,0,2.324-.838.955.955,0,0,0,.461-.419c.08-.2-.034-.482-.251-.486A.837.837,0,0,0,676.035,255.758Z" transform="translate(-657.44 -246.076)" fill="#263238"/>
      <path id="Path_29260" data-name="Path 29260" d="M655.415,253.395a.4.4,0,0,0-.419.616.7.7,0,0,0-.729,1,1.362,1.362,0,0,0-.838.23.792.792,0,0,0-.335.783.565.565,0,0,0,.67.419.779.779,0,0,0,.042.838.5.5,0,0,0,.762.021.6.6,0,0,0,.75.9.658.658,0,0,0,1.06.662Z" transform="translate(-647.295 -246.892)" fill="#263238"/>
      <path id="Path_29261" data-name="Path 29261" d="M659.014,244.377l-.184,10.3a3.2,3.2,0,0,0,2.932,3.246h0a3.2,3.2,0,0,0,3.484-3.116c0-.98.034-1.784.034-1.784a2.983,2.983,0,0,0,2.76-2.638c.147-1.432.184-4.7.193-7.208a3.258,3.258,0,0,0-2.973-3.258l-1.5-.13a4.607,4.607,0,0,0-4.749,4.59Z" transform="translate(-650.633 -238.988)" fill="#ffbe9d"/>
      <path id="Path_29262" data-name="Path 29262" d="M669.851,269.646a6,6,0,0,1-3.141-1.256,3.13,3.13,0,0,0,3.128,1.868Z" transform="translate(-655.214 -255.614)" fill="#eb996e"/>
      <path id="Path_29263" data-name="Path 29263" d="M677.666,253.279c-.046.042-.3-.18-.678-.214s-.674.134-.712.084.034-.1.163-.18a.96.96,0,0,1,.574-.126.938.938,0,0,1,.536.23C677.658,253.171,677.692,253.259,677.666,253.279Z" transform="translate(-660.768 -246.576)" fill="#263238"/>
      <path id="Path_29264" data-name="Path 29264" d="M669.012,253.8a.356.356,0,0,1-.373.327.339.339,0,0,1-.339-.348.356.356,0,0,1,.373-.327.339.339,0,0,1,.339.348Z" transform="translate(-656.138 -246.93)" fill="#263238"/>
      <path id="Path_29265" data-name="Path 29265" d="M677.818,254.591a.356.356,0,0,1-.373.327.343.343,0,0,1-.335-.352.352.352,0,0,1,.373-.327.335.335,0,0,1,.335.352Z" transform="translate(-661.258 -247.389)" fill="#263238"/>
      <path id="Path_29266" data-name="Path 29266" d="M668.821,252.5c-.046.042-.3-.18-.678-.214s-.678.134-.716.084.034-.1.163-.18a.972.972,0,0,1,1.114.1C668.812,252.391,668.846,252.479,668.821,252.5Z" transform="translate(-655.624 -246.122)" fill="#263238"/>
      <path id="Path_29267" data-name="Path 29267" d="M673.47,255.717a2.64,2.64,0,0,1,.641-.059c.1,0,.193,0,.214-.075a.482.482,0,0,0-.038-.293c-.071-.247-.147-.5-.222-.766a12.42,12.42,0,0,1-.473-1.993,13.012,13.012,0,0,1,.632,1.947c.071.272.142.528.209.771a.574.574,0,0,1,0,.385.251.251,0,0,1-.172.13.8.8,0,0,1-.168,0A2.513,2.513,0,0,1,673.47,255.717Z" transform="translate(-659.143 -246.396)" fill="#263238"/>
      <path id="Path_29268" data-name="Path 29268" d="M670.624,260.53c.063,0,.029.419.356.741s.771.318.771.373-.109.075-.293.063a1.039,1.039,0,0,1-.645-.293.892.892,0,0,1-.272-.616C670.54,260.622,670.6,260.526,670.624,260.53Z" transform="translate(-657.44 -251.045)" fill="#263238"/>
      <path id="Path_29269" data-name="Path 29269" d="M668.828,249.669c-.05.1-.419,0-.875.033s-.838.1-.875,0,.05-.138.205-.226a1.457,1.457,0,0,1,.662-.168,1.491,1.491,0,0,1,.67.138C668.77,249.535,668.845,249.623,668.828,249.669Z" transform="translate(-655.423 -244.523)" fill="#263238"/>
      <path id="Path_29270" data-name="Path 29270" d="M677.911,250.64c-.075.084-.331-.029-.645-.063s-.586,0-.641-.088.025-.13.151-.2a.938.938,0,0,1,1.034.121C677.916,250.527,677.945,250.6,677.911,250.64Z" transform="translate(-660.967 -245.033)" fill="#263238"/>
      <path id="Path_29271" data-name="Path 29271" d="M658.431,255.177c-.042-.021-1.675-.653-1.755,1.047a1.28,1.28,0,0,0,1.637,1.395C658.322,257.568,658.431,255.177,658.431,255.177Z" transform="translate(-649.381 -247.857)" fill="#ffbe9d"/>
      <path id="Path_29272" data-name="Path 29272" d="M658.4,257.708a.644.644,0,0,1-.084.042.315.315,0,0,1-.222,0,.733.733,0,0,1-.3-.674,1.052,1.052,0,0,1,.1-.419.365.365,0,0,1,.239-.214.146.146,0,0,1,.167.092v.084a.1.1,0,0,0,.029-.1.184.184,0,0,0-.063-.109.222.222,0,0,0-.159-.054.419.419,0,0,0-.322.247.988.988,0,0,0-.13.469.771.771,0,0,0,.389.758.331.331,0,0,0,.272-.029C658.4,257.75,658.409,257.712,658.4,257.708Z" transform="translate(-649.953 -248.621)" fill="#eb996e"/>
      <path id="Path_29273" data-name="Path 29273" d="M658.489,245.67a.892.892,0,0,1,.779.49c.088.251.088.528.176.779s.318.494.582.452a.519.519,0,0,0,.389-.352,1.424,1.424,0,0,0,.05-.549c-.029-.8-.126-1.6-.088-2.4a4.134,4.134,0,0,1,.7-2.262,2.236,2.236,0,0,1,2.094-.938c.523.088.98.419,1.5.528a2.094,2.094,0,0,0,1.772-.419c.063-.05.343-.2.343-.2a1.006,1.006,0,0,0-.134-.54,5.024,5.024,0,0,0-7.66,1.051,7.173,7.173,0,0,0-.477,4.364" transform="translate(-650.377 -238.501)" fill="#263238"/>
      <path id="Path_29274" data-name="Path 29274" d="M673.956,245.119a1.612,1.612,0,0,1-1.42.754,4.486,4.486,0,0,1-1.633-.389,13.3,13.3,0,0,0-2.513-.6c-.084,0-.184,0-.222-.088s.055-.205.147-.268a7.709,7.709,0,0,1,3.547-.666,2.769,2.769,0,0,1,2.329,1.365" transform="translate(-656.056 -241.355)" fill="#263238"/>
      <path id="Path_29275" data-name="Path 29275" d="M667.74,241.7a3.032,3.032,0,0,0-1.985-1.122,8.2,8.2,0,0,0-7.639,3.828,10.575,10.575,0,0,1-.226-2.194,4.834,4.834,0,0,1,3.769-4.15C661.672,238.053,666.48,236.675,667.74,241.7Z" transform="translate(-650.088 -237.883)" fill="#455a64"/>
      <path id="Path_29276" data-name="Path 29276" d="M659.22,244.718a12.224,12.224,0,0,1,4.108-3.292,23.818,23.818,0,0,1,5.863-1.8,3.739,3.739,0,0,1,1.583-.029,1.42,1.42,0,0,1,1.076,1.055c.1.653-1.122,1.545-1.675,1.885a17.255,17.255,0,0,1-1.713.817s.121-1.185-1.763-1.6C664.124,241.183,659.22,244.718,659.22,244.718Z" transform="translate(-650.861 -238.835)" fill="#455a64"/>
      <path id="Path_29277" data-name="Path 29277" d="M670.631,239.612a5.02,5.02,0,0,0-.54-.084,7.167,7.167,0,0,0-1.5.1,22.723,22.723,0,0,0-4.77,1.353,13.2,13.2,0,0,0-4.188,2.6,6.085,6.085,0,0,0-.955,1.147c-.184.3-.255.486-.272.477s0-.05.033-.138a2.684,2.684,0,0,1,.168-.381,5.208,5.208,0,0,1,.921-1.214,12.329,12.329,0,0,1,4.213-2.689,20.332,20.332,0,0,1,4.829-1.307,6.344,6.344,0,0,1,1.524-.029,1.354,1.354,0,0,1,.419.1C670.594,239.583,670.636,239.6,670.631,239.612Z" transform="translate(-650.387 -238.772)" fill="#263238"/>
      <path id="Path_29278" data-name="Path 29278" d="M672.924,240.315a6.173,6.173,0,0,1,1.935-.473,2.449,2.449,0,0,0-.482-.352,4.913,4.913,0,0,0-1.508.364Z" transform="translate(-658.794 -238.817)" fill="#fafafa"/>
      <path id="Path_29279" data-name="Path 29279" d="M674.877,245.464a.75.75,0,0,0-.557-1.185.687.687,0,0,0,.36-.942.867.867,0,0,0-.988-.385,1.211,1.211,0,0,0-.775.787.817.817,0,0,0-1.39.059.44.44,0,0,0-.532-.276,1.528,1.528,0,0,0-.57.339,1.01,1.01,0,0,1-.6.272l-.147.063a.93.93,0,0,0,1.181.352,1.777,1.777,0,0,1,1.63.825.653.653,0,0,0,.615-.1.838.838,0,0,0,1.3.36,1.412,1.412,0,0,1,.159,1.152.754.754,0,0,0,.314-1.319Z" transform="translate(-656.94 -240.808)" fill="#263238"/>
      <path id="Path_29280" data-name="Path 29280" d="M661.141,248a10.943,10.943,0,0,0-1.675.926,3.643,3.643,0,0,0-1.236,1.445l.838.8c.23.075.419.155.595,0a.725.725,0,0,0,.243-.645.62.62,0,0,0,.7-.85.482.482,0,0,0,.352-.335.494.494,0,0,0-.122-.469.486.486,0,0,0,.306-.838Z" transform="translate(-650.285 -243.763)" fill="#263238"/>
      <path id="Path_29281" data-name="Path 29281" d="M684,277a11.359,11.359,0,0,1,3.221,2.81c.746,1.323,4.707,10.981,4.544,12.564s-3.882,2.559-3.882,2.559L684,289.907l1.776-1.06L684,285.426Z" transform="translate(-665.263 -260.618)" fill="#455a64"/>
      <path id="Path_29282" data-name="Path 29282" d="M676.272,312.322s-9,1.8-12.263-2.094l.947-3.288s5.943,1.407,7.8.8Z" transform="translate(-653.645 -278.019)" fill="#ffbe9d"/>
      <path id="Path_29283" data-name="Path 29283" d="M689.82,300.71c.033.067-1.055.523-2.19,1.39s-1.851,1.805-1.91,1.759a2.236,2.236,0,0,1,.419-.637,8.283,8.283,0,0,1,1.336-1.294,8.549,8.549,0,0,1,1.6-.959A2.365,2.365,0,0,1,689.82,300.71Z" transform="translate(-666.263 -274.398)" fill="#263238"/>
      <path id="Path_29284" data-name="Path 29284" d="M686.475,300.5a9.272,9.272,0,0,1-.808-1.6,11.826,11.826,0,0,1-.737-1.638,5.444,5.444,0,0,1,.934,1.545A6.448,6.448,0,0,1,686.475,300.5Z" transform="translate(-665.803 -272.393)" fill="#263238"/>
      <path id="Path_29285" data-name="Path 29285" d="M683.912,291.442a6.82,6.82,0,0,0-.218-1.4,7.256,7.256,0,0,0-.364-1.374A14.159,14.159,0,0,0,683.912,291.442Z" transform="translate(-664.873 -267.4)" fill="#263238"/>
      <path id="Path_29286" data-name="Path 29286" d="M642.15,279.282a9.725,9.725,0,0,1,3.468,4.607c.825,2.789,1.734,5.7,1.734,5.7l3.221.419-1.818,7.43a8.678,8.678,0,0,1-6.027-3.962,40.091,40.091,0,0,1-3.468-7.911S639.532,276.543,642.15,279.282Z" transform="translate(-639.26 -261.643)" fill="#455a64"/>
      <path id="Path_29287" data-name="Path 29287" d="M656.249,299.617a27.412,27.412,0,0,0-1.549-3.1c-.184-.042-2.819-.967-2.819-.967a.951.951,0,0,0,0,.666l-.951.121s.142.582.465.662l-.343.306a1.931,1.931,0,0,0,.645.544.7.7,0,0,0,.624,0s-.117.218.419.561,1.47.838,1.47.838Z" transform="translate(-646.043 -271.399)" fill="#ffbe9d"/>
      <path id="Path_29288" data-name="Path 29288" d="M654.2,299.259h0s-.934-.511-1.47-.838c-.465-.293-.452-.494-.419-.553a.741.741,0,0,1-.612,0,2.005,2.005,0,0,1-.649-.549h0l.314-.331c-.314-.092-.452-.641-.456-.666h0l.946-.121a.989.989,0,0,1,0-.662h0c.025,0,2.643.93,2.823.967a27.16,27.16,0,0,1,1.554,3.1h0Zm-2.329-3.053h0l-.951.121c0,.067.163.578.461.653h0l-.348.306a1.855,1.855,0,0,0,.637.536.708.708,0,0,0,.62,0h0v.025s-.109.218.419.553,1.437.838,1.47.838l2.023.356a23.827,23.827,0,0,0-1.541-3.082c-.138-.029-2.672-.917-2.814-.967A.913.913,0,0,0,651.873,296.206Z" transform="translate(-646.031 -271.393)" fill="#eb996e"/>
      <path id="Path_29289" data-name="Path 29289" d="M653.4,297.16a11.68,11.68,0,0,0,1.725.674c.243.088.482.151.67.243a.863.863,0,0,1,.394.377c.159.285.218.49.243.482a1.255,1.255,0,0,0-.151-.532.972.972,0,0,0-.419-.444,6.01,6.01,0,0,0-.687-.26,12.828,12.828,0,0,0-1.776-.54Z" transform="translate(-647.478 -272.335)" fill="#eb996e"/>
      <path id="Path_29290" data-name="Path 29290" d="M651.93,299a1.328,1.328,0,0,0,.477.172c.3.084.729.151,1.181.272a3.022,3.022,0,0,1,1.068.5c.243.188.348.352.369.339a.921.921,0,0,0-.3-.419,2.667,2.667,0,0,0-1.1-.565c-.465-.126-.9-.176-1.2-.23a2.274,2.274,0,0,0-.5-.071Z" transform="translate(-646.624 -273.404)" fill="#eb996e"/>
      <path id="Path_29291" data-name="Path 29291" d="M655.765,301.614a1.11,1.11,0,0,0-.633-.419,1.181,1.181,0,0,0-.762-.071c0,.046.335.067.716.205S655.739,301.648,655.765,301.614Z" transform="translate(-648.042 -274.619)" fill="#eb996e"/>
      <path id="Path_29292" data-name="Path 29292" d="M663.692,301.816l8.12-4.1,1.487,3.028s-7.484,7.417-10.989,7.321" transform="translate(-652.657 -272.66)" fill="#ffbe9d"/>
      <path id="Path_29293" data-name="Path 29293" d="M653.83,287a2.552,2.552,0,0,0,.109.6c.088.364.214.867.364,1.42s.293,1.055.419,1.416a2.468,2.468,0,0,0,.209.57,2.845,2.845,0,0,0-.109-.6c-.088-.364-.214-.867-.364-1.424s-.293-1.051-.419-1.407A2.674,2.674,0,0,0,653.83,287Z" transform="translate(-647.728 -266.43)" fill="#263238"/>
      <path id="Path_29294" data-name="Path 29294" d="M654.664,307.337c.025,0,.1-.373.285-.955a3.1,3.1,0,0,1,.486-.938,1.742,1.742,0,0,1,1.043-.649,4.071,4.071,0,0,1,1.286.147l1.064.214a1.677,1.677,0,0,1,.389.1.381.381,0,0,1,.2.2.306.306,0,0,1,0,.243s.113-.067.067-.26a.419.419,0,0,0-.214-.255,1.652,1.652,0,0,0-.419-.13l-1.06-.243a3.947,3.947,0,0,0-1.336-.159,1.843,1.843,0,0,0-1.135.725,3.036,3.036,0,0,0-.477.988,6.281,6.281,0,0,0-.163.72A.836.836,0,0,0,654.664,307.337Z" transform="translate(-648.21 -276.686)" fill="#263238"/>
      <path id="Path_29295" data-name="Path 29295" d="M652,304.993a3.41,3.41,0,0,1,.875-1.013,5.336,5.336,0,0,1,1.256-.544.893.893,0,0,0-.419.034,2.454,2.454,0,0,0-.909.394,2.173,2.173,0,0,0-.666.741A.8.8,0,0,0,652,304.993Z" transform="translate(-646.664 -275.975)" fill="#263238"/>
      <path id="Path_29296" data-name="Path 29296" d="M639.26,295a.486.486,0,0,0,.042.159c.042.1.088.264.151.444.138.419.327.955.561,1.629s.519,1.512.921,2.391a28.4,28.4,0,0,0,1.449,2.785,9.475,9.475,0,0,0,2.023,2.4,8.723,8.723,0,0,0,2.178,1.361,6.43,6.43,0,0,0,1.675.465,4.651,4.651,0,0,0,.469.046h.163s-.222-.025-.624-.1a6.958,6.958,0,0,1-1.633-.507,9.268,9.268,0,0,1-4.117-3.74c-.57-.951-1.03-1.91-1.453-2.768a22.872,22.872,0,0,1-.951-2.37c-.255-.7-.452-1.235-.6-1.617l-.176-.419a.872.872,0,0,0-.076-.167Z" transform="translate(-639.26 -271.079)" fill="#263238"/>
      <path id="Path_29297" data-name="Path 29297" d="M644.82,280.42c0,.042.62.268,1.328.691s1.215.863,1.256.838a5.067,5.067,0,0,0-2.571-1.52Z" transform="translate(-642.491 -262.605)" fill="#263238"/>
      <path id="Path_29298" data-name="Path 29298" d="M659.53,327.54a2.765,2.765,0,0,0,.419.209c.138.067.306.142.5.218s.419.176.678.255a16.179,16.179,0,0,0,1.809.528,19.049,19.049,0,0,0,2.283.36,18.071,18.071,0,0,0,2.312.042,16.32,16.32,0,0,0,1.876-.2c.264-.038.5-.092.708-.134s.389-.088.532-.126a3.271,3.271,0,0,0,.448-.134,3.352,3.352,0,0,0-.461.08c-.142.029-.322.067-.532.1s-.448.084-.712.113a17.646,17.646,0,0,1-1.868.167,19.593,19.593,0,0,1-2.291-.059,19.883,19.883,0,0,1-2.266-.343,17.929,17.929,0,0,1-1.805-.494c-.26-.075-.482-.163-.683-.234s-.369-.138-.507-.193A3.466,3.466,0,0,0,659.53,327.54Z" transform="translate(-651.041 -289.992)" fill="#263238"/>
      <path id="Path_29299" data-name="Path 29299" d="M675.28,336.106a7.015,7.015,0,0,0,1.646-.419,6.934,6.934,0,0,0,1.558-.662c0-.038-.72.23-1.6.523A15.313,15.313,0,0,0,675.28,336.106Z" transform="translate(-660.195 -294.34)" fill="#263238"/>
      <g id="Group_42579" data-name="Group 42579" transform="translate(6.01 34.348)" opacity="0.3">
        <path id="Path_29300" data-name="Path 29300" d="M668.884,320.075a15.7,15.7,0,0,1-5.629.084,6.072,6.072,0,0,0-2.094-.251,6.977,6.977,0,0,0-1.612.611,6.3,6.3,0,0,1-5.939-.616,4.092,4.092,0,0,0,3.074,2.157,9.08,9.08,0,0,0,3.857-.343,10.024,10.024,0,0,1,2.287-.461c.988-.025,1.956.3,2.932.314a5.285,5.285,0,0,0,3.2-.967Z" transform="translate(-653.61 -319.898)"/>
      </g>
      <g id="Group_42580" data-name="Group 42580" transform="translate(12.283 40.974)" opacity="0.3">
        <path id="Path_29301" data-name="Path 29301" d="M674.374,335.72a5.2,5.2,0,0,1-3.954,2.513,2.566,2.566,0,0,1-1.043-.084,1.286,1.286,0,0,1-.787-.658,3.731,3.731,0,0,1,1.227-.507l4.51-1.236" transform="translate(-668.59 -335.72)"/>
      </g>
      <path id="Path_29302" data-name="Path 29302" d="M673.166,305.24a2.844,2.844,0,0,1-.364.373c-.243.235-.595.57-1.009,1s-.909.955-1.512,1.478-1.29,1.064-2.014,1.625a20.408,20.408,0,0,1-2.14,1.466,10.253,10.253,0,0,1-1.926.892,8.108,8.108,0,0,1-1.39.339,2.211,2.211,0,0,1-.519.029,16.038,16.038,0,0,0,1.859-.511,11.273,11.273,0,0,0,1.876-.921,22.5,22.5,0,0,0,2.094-1.466c.724-.561,1.416-1.093,2.014-1.6s1.1-1.018,1.537-1.436.8-.737,1.064-.951A2.151,2.151,0,0,1,673.166,305.24Z" transform="translate(-652.645 -277.031)" fill="#eb996e"/>
    </g>
  </g>
</svg>
