<svg xmlns="http://www.w3.org/2000/svg" xmlns:xlink="http://www.w3.org/1999/xlink" width="162.147" height="123.528" viewBox="0 0 162.147 123.528">
  <defs>
    <clipPath id="clip-path">
      <path id="Path_29911" data-name="Path 29911" d="M28.55,352.62h3.644v3.139a1.729,1.729,0,0,1-1.729,1.729h-.159a1.729,1.729,0,0,1-1.729-1.729V352.62Z" transform="translate(-28.55 -352.62)" fill="#57b8ce" stroke="#263238" stroke-linecap="round" stroke-linejoin="round" stroke-width="1"/>
    </clipPath>
    <clipPath id="clip-path-2">
      <path id="Path_29916" data-name="Path 29916" d="M49.16,352.62H52.8v3.139a1.729,1.729,0,0,1-1.729,1.729H50.9a1.729,1.729,0,0,1-1.729-1.729V352.62Z" transform="translate(-49.16 -352.62)" fill="#57b8ce" stroke="#263238" stroke-linecap="round" stroke-linejoin="round" stroke-width="1"/>
    </clipPath>
    <clipPath id="clip-path-3">
      <path id="Path_29921" data-name="Path 29921" d="M69.77,352.62h3.644v3.139a1.729,1.729,0,0,1-1.729,1.729h-.159a1.729,1.729,0,0,1-1.729-1.729V352.62Z" transform="translate(-69.77 -352.62)" fill="#57b8ce" stroke="#263238" stroke-linecap="round" stroke-linejoin="round" stroke-width="1"/>
    </clipPath>
    <clipPath id="clip-path-4">
      <path id="Path_29926" data-name="Path 29926" d="M90.38,352.62h3.644v3.139a1.729,1.729,0,0,1-1.729,1.729h-.159a1.729,1.729,0,0,1-1.729-1.729V352.62Z" transform="translate(-90.38 -352.62)" fill="#57b8ce" stroke="#263238" stroke-linecap="round" stroke-linejoin="round" stroke-width="1"/>
    </clipPath>
    <clipPath id="clip-path-5">
      <path id="Path_29931" data-name="Path 29931" d="M111,352.62h3.644v3.143a1.729,1.729,0,0,1-1.729,1.729h-.187A1.729,1.729,0,0,1,111,355.763V352.62Z" transform="translate(-111 -352.62)" fill="#57b8ce" stroke="#263238" stroke-linecap="round" stroke-linejoin="round" stroke-width="1"/>
    </clipPath>
    <clipPath id="clip-path-6">
      <path id="Path_29952" data-name="Path 29952" d="M328.845,227.65v30.625l-7.855,15.15V242.3Z" transform="translate(-320.99 -227.65)" fill="#57b8ce" stroke="#263238" stroke-linecap="round" stroke-linejoin="round" stroke-width="1"/>
    </clipPath>
  </defs>
  <g id="Free_shipping-bro" data-name="Free shipping-bro" transform="translate(-14 -56.31)">
    <g id="freepik--Map--inject-43" transform="translate(23.307 81.166)">
      <path id="Path_29759" data-name="Path 29759" d="M247.354,224.348c.152-.024.169-.809.083-.819C247.122,223.5,247,224.4,247.354,224.348Z" transform="translate(-175.843 -193.472)" fill="none" stroke="#b2b2b2" stroke-miterlimit="10" stroke-width="1"/>
      <path id="Path_29760" data-name="Path 29760" d="M150.3,257.233c.259-.1,1.922.252,1.922-.273,0-.346-1.729-.788-1.922-.626a1.017,1.017,0,0,0,.266.605c0,.169-.719-.017-.781.156A.38.38,0,0,0,150.3,257.233Z" transform="translate(-112.144 -214.914)" fill="none" stroke="#b2b2b2" stroke-miterlimit="10" stroke-width="1"/>
      <path id="Path_29761" data-name="Path 29761" d="M94.152,207.008c-.691.038-1.383-.861-2.137-.968-.691-.093-.719-.166-1.314.079.664-.273-1.075-1.079-1.086-1.079-.294-.08-.591.712-.854.6.052.021.315-.629.045-.878s-.74.346-.764.346c.041.024.743-1.753-.111-2.22-.823-.539-1.5-.436-2.247-.812s-.761-1.214-1.729-1.151c.4-.024-.771-1.037-.446-.92-.522-.207-1.532.235-2.206.083-.263-.059-.439-.743-.823-.743-.591,0-.429,1.061-.526,1.269-.273.6-.38-1.57-.107-1.383-.2-.128-1.58.83-1.729.937-.308.228-.432.691-.754.774.539-.159-1.729-.411-1.255-.232-1.435-.546-.778-.729-1.169-2-.111-.346.263-.526-.041-.854a2.206,2.206,0,0,0-1.891-.138c-.263.145.035-.992.149-1.11h0c.467-.477.615-1.577-.107-1.6-1.2-.031-.608,1.037-1.355,1.4-2.251,1.12-2.348-2.043-2.278-3.374a.6.6,0,0,0-.09-.052.6.6,0,0,1,.09.052c.124-2.341,1.808-1.708,3.219-1.542-.37-.045-.059-.6.37-.643a3.267,3.267,0,0,1,1.158.252c.691.211.532,0,1.058.9.207.346.29,1.255.757,1.407.038,0-.028-3.278.239-3.668.346-.5,1.144-1.113,1.383-1.438.581-.743.021.093.093-.771,0-.09-.232-1.321.162-1.321-.152,0,.138,1.155.121,1.165.394-.273.138-.674.156-.985,0-.249,1.283-.691,1.383-.9.045-.1-.612,0-.612-.021,0-.346,1.037-.277,1.182-.38a3,3,0,0,1,.436-1.2c.463-.484,1.625-.373,1.981-1.11-.045.09.156.456.4.384-.916.27-1.352.754-.256.591a5.2,5.2,0,0,0,1.825-.947c.024,0-.19-.287-.159-.477a1.9,1.9,0,0,1-.851.622c-1.065-.2-.557-.916-.971-1.193a.671.671,0,0,1-.346.069c-.114-.384,1.293-.691-.059-.85-.933-.121-1.4,1.234-2.04,1.234.311,0,1.729-1.729,2.4-1.881.273-.062,4.055-.346,3.737-1.175a2.938,2.938,0,0,0-.27-.135c-.259-.242.691-.477-.346-.6a1.183,1.183,0,0,1-.028-.346,5.364,5.364,0,0,0-1.158.366c-.08-.387.978-.429,1.1-.629,0,0-2.265-1.086-2.057-1.355.418-.539.415.062.142-.778-.073-.228-1.082-1.642-1.01-1.708-.491.443-.214,1.452-1.068,1.456-.944,0-.851-1.082-.851-1.7,0-.27-2.341-.968-2.517-.965-1.324.038-.781.121-.864,1.169,0,.183-.211.927-.19,1.037.156.812.83,1.072.418,2.116-.124.318-.878.408-.933.591-.073.245.29.5.235.8a10.542,10.542,0,0,1,.048,1.207c-.5-.235-.28.228-.84-.273-.629-.564-.19-1.383-.557-1.8a21.788,21.788,0,0,0-2.375-1.037,2.534,2.534,0,0,0-1.763-.28c.163-.024-.149-.927-.218-1.037-.4-.674-.823.076-.584-1.252a9.508,9.508,0,0,1,1.559-1.888c0-.066-1.217-.522-1.21-.543.169-.4,1.2.719,1.487-.128-.131.391,1.639-.384,1.2-.691-.187-.131-1.22,0-1.162-.487-.038.328,2.223.443,1.324-.346-.031-.028.823,0,1,0,.121,0-.325-.415-.287-.453.131-.128.584.633,1.179-.031.456-.512-.242-.567-.27-1.065,0-.055.691-.245.474-.6a2.019,2.019,0,0,0-1.431-.494c-.214.069.076,1.127-.508,1.466a.692.692,0,0,1-.18-.273c-.245,0,.225.92-.093.771s-.346-.788-.394-.833c-.124-.111-.29-.515-.5-.691-.162-.145-.408.691-.491.716-.3.055.041-.768.062-.806.145-.273-.764-.183-.747-.169-.287-.252.2-.391.249-.467-.066.1-.691-1.037-.691-1.037-.418-.951-.135,0-.242-1.072.048.5,1.94-.83,1.283-1.037s-1.618-.287-1.763.242c-.083.3-.035,1.507-.162,1.991-.038.152-.557.4-.373,1.013.069.239,1.445.55.8,1.072a.256.256,0,0,1,.27-.232c.017.038-.691,1.362-.629,1.307a9.367,9.367,0,0,1-.83-.85c-.038-.069.92-.214.968-.263.373-.346-.539-.346-.539-.411s.487-.038.318-.173a1.079,1.079,0,0,0-1.545.263c-.173.221,1.345.8-.481,1.037-.833.107-1.172-.308-1.895-.481-.211-.048-.2-.27-.581-.308-.135,0-1.037.384-.761.508.2.09.947-.422,1.065-.29-.491-.539-.581,1.514-.9,1.345-.138-.073-.052-.567-.484-.691-.588-.2-1.929.411-2.368-.069-.214-.235.564-.29.5-.429-.218-.5-1.449-.539-1.9-.643s-.771-.346-1.169-.4c-.481-.052-.664.294-1.11.294-.066,0,.09-.6-.114-.626a2.538,2.538,0,0,1-.57.55c-.429-.035-.37-1.082-.878-1.006.346-.052-.726.764-.653.723a14.207,14.207,0,0,1-1.411.788c-.266,0,1.5-1.1,1.5-1.061,0-.214-1.532.443-1.708.536s0-.273-.3-.166c-.74.266-.214.5-.391.691.069-.076-4.584-1.1-4.892-1.124a18.9,18.9,0,0,1-3.457-.553c-.308-.346-1.124.021-1.494.429-.3.325-2.5.812-2.614,1.3-.221,1.01,2.13,1.2,2.309,1.746,0,.041-2.648-.1-2.942.595.1-.239.743.764.809.788a9.123,9.123,0,0,0,1.929-.221c.453.449-.532,1.058-.774,1.286s-.318-.166-.667.29a5.833,5.833,0,0,1-.66.539c.073-.069.536.958.546.968.28.245,1.141.242,1.037.142.27.27-.024.837.225.968.169.09.757.021,1.082.152-.29-.118.889-.512.819-.3-.162.487-2.074,2.838-2.375,2.527.346.373,3.824-1.978,3.824-2.534a.975.975,0,0,0-.322-.176c-.076-.2,1.884-1.832,1.815-1.2,0-.066-1.172.892-.9,1.141a8.224,8.224,0,0,0,1.583-.453c.2-.076-.474-.66,0-.747.156-.028.774.346.8.346a.218.218,0,0,0-.277.173c.059.187,2.766.066,2.939.218-.083-.073,1.729,1.5,1.729,1.061a.726.726,0,0,1-.059-.5c.868.633-.4.806-.4.768,0,.041.66.972.64.982.124-.066-.169-.84.028-.768a.6.6,0,0,1,.055.311c.218.28.256-.636.228-.567.048-.124.069,1.2-.069,1.182-.2-.028,1.155-.118.754.076.128-.062-.494-.429-.149-.456.526-.045.114.446-.242.477a4.841,4.841,0,0,0,.062.771c.111.076.591-.377.837-.346s.2.944.346,1.131c.1.135.774.816.864.927a7.205,7.205,0,0,0,1.424,1.151c-.048-.038,1.784,1.507.778,1.507-.038,0-1.093-2.845-2.268-2.016.249-.176,1.58,1.729,1.663,1.978.491,1.407-.315,3.046.232,4.581a7.632,7.632,0,0,0,2.029,2.441,9.148,9.148,0,0,1,1.058,1.6c.467.788.57.992.477,1.445,0,.021,2.109,2.23,2.029,2.289.2-.145-2.074-4.287-2.026-4.294.83-.083.9,1.21,1.054,1.449.425.66,1.2,1.272,1.663,1.87.8,1.02.9,2.074,1.608,2.821a6.277,6.277,0,0,0,2.209,1.11c.83.263,1.708.017,2.375.671h0c.3.29.788.3,1,.519.588.539.83.27,1.383.833.373.384.481.733.691.94.346.346.944,1,1.473,1.037s.363-.584.629-.522c1.182.277.968,1.863.494,2.832-.519,1.037-1.179,1.234-.6,2.3.041.073-.574,1.075-.515,1.383a26.7,26.7,0,0,0,1.729,2.956c.588,1.162,1.341,1.283,2.178,2.233.764.864.522,1.556.391,2.766a48.924,48.924,0,0,1-.612,5.113c-.145.667-1.414,4.149-.951,4.819.214.311.3-.875.515-.937s-.131,2.6-.346,2.451c-.111-.076.121-.861-.169-.733.263-.118-.539,1.106-.543,1.12.031-.346.415.422.429.546.024.211.463-.142.439.166.035-.463-1.317.536-.691.439a1.536,1.536,0,0,0,.29-.221c.093-.021-.667.792-.156.875.1,0,.152-.522.294-.38.3.3-.57.933-.366,1.189.041.048.467-.194.55-.024.024.055-.287.3-.239.315.169.062.557-.169.633.08s-.754.017-.47.418c.107.152.778-.487.906-.069-.038-.118-.754.38-.778.411a7.978,7.978,0,0,1,.885-.2c.062.138-.985.543-1.013.425.031.131.633.5.729.411.162-.166-.214-.086-.083-.259s.9-.574.944-.691a.456.456,0,0,0-.221.415,1.6,1.6,0,0,0,.346.021c-.1-.114-.242.525-.2.5a.508.508,0,0,1-.169-.346c-.18-.08-.083.377-.111.346a.242.242,0,0,0-.29-.162c.149-.207-.187.636-.187.346,0-.159.512.467.5.46a1.065,1.065,0,0,0,.145-.346,8.321,8.321,0,0,0,.844.584c.156.045-.114-.37-.024-.346a5.131,5.131,0,0,0,1.217-.252c-.56-.2-1.255-1.214-1.359-1.238h0c-.09-.021-.408.045-.346-.173s.346.08.429,0-.346-.743-.266-.944c.142-.315.391-.4.55-.691.214-.391.74-.691.774-1.124.028-.346-.494-.346-.47-.446a5.6,5.6,0,0,1,.729-1.791c.149-.187.65-.691.647-.691-.121-.1-1.082-.017-.577-.781-.159.239,1.148-.211,1.082-.173.18-.1-.028-.691.066-.8.446-.474,2.074.211,2.275-1.054.041-.28-.729-1.255-.747-1.238.263-.27,1.476.311,2.147-.394.166-.176,1-1.649,1-1.6a2.745,2.745,0,0,1-.346.612c0-.294.982-1.1,1.106-1.438.18-.487-.041-1.117.211-1.559.508-.889,1.639-.716,2.268-1.113a3.214,3.214,0,0,0,1.29-2.2c.152-.588,0-2.074.3-2.545C92.952,210.417,96.143,206.9,94.152,207.008Z" transform="translate(-40.92 -154.316)" fill="none" stroke="#b2b2b2" stroke-miterlimit="10" stroke-width="1"/>
      <path id="Path_29762" data-name="Path 29762" d="M142.114,253.99c.46-.629-4.764-1.753-4.111-.8-.311-.456,2.074.152,2.2.214C140.6,253.63,141.553,254.754,142.114,253.99Z" transform="translate(-104.401 -212.638)" fill="none" stroke="#b2b2b2" stroke-miterlimit="10" stroke-width="1"/>
      <path id="Path_29763" data-name="Path 29763" d="M145.193,258.55c.073.135.747.328.819.156S145.124,258.381,145.193,258.55Z" transform="translate(-109.141 -216.338)" fill="none" stroke="#b2b2b2" stroke-miterlimit="10" stroke-width="1"/>
      <path id="Path_29764" data-name="Path 29764" d="M158.389,258.462c.159.273.619.111.657,0C159.119,258.264,158.244,258.185,158.389,258.462Z" transform="translate(-117.766 -216.211)" fill="none" stroke="#b2b2b2" stroke-miterlimit="10" stroke-width="1"/>
      <path id="Path_29765" data-name="Path 29765" d="M165.677,355.12c.214.118.66-.467.463-.5S165.477,355.01,165.677,355.12Z" transform="translate(-122.513 -279.238)" fill="none" stroke="#b2b2b2" stroke-miterlimit="10" stroke-width="1"/>
      <path id="Path_29766" data-name="Path 29766" d="M167.282,355.407c.142.079.726-.187.657-.328C167.8,354.785,167.141,355.342,167.282,355.407Z" transform="translate(-123.582 -279.487)" fill="none" stroke="#b2b2b2" stroke-miterlimit="10" stroke-width="1"/>
      <path id="Path_29767" data-name="Path 29767" d="M129.988,282.17c-.176.29.176.577.249.446S130.167,281.876,129.988,282.17Z" transform="translate(-99.162 -231.788)" fill="none" stroke="#b2b2b2" stroke-miterlimit="10" stroke-width="1"/>
      <path id="Path_29768" data-name="Path 29768" d="M173.953,173.722c.041-.691-1.037-.346-1.2-.346S173.9,174.573,173.953,173.722Z" transform="translate(-127.166 -160.603)" fill="none" stroke="#b2b2b2" stroke-miterlimit="10" stroke-width="1"/>
      <path id="Path_29769" data-name="Path 29769" d="M172.755,149.233a16.963,16.963,0,0,1-1.729-.142c.045-.107.577-.719.508-.743.346.131,1.352,1.321,1.383.218.028-.653-.892-.657-1.037-1.179-.045-.149,1.224.408.971-.377-.142-.443-1.383.318-1.338-.159,0,.162.429-.588.346-.5.4-.439,2.2,1.065,1.037-.443-.048-.062,1.037-.041,1.1-.266s-1.089-.19-.83-.619c.325-.536,1.141.242.615-.85.017.035-1.317-.418-1.113-.619s1.774-.017,1.729-.242c-.152-.57-.927.031-.989-.46-.035-.256.47,0,.543-.128.287-.449-1.224-.09-1.169-.048-.408-.315,1.67-2.254,1.729-2.171-.384-.508-.733.346-1,.073s1.5-.487,1.556-.519c.149-.1-.947-.325-1-.242.19-.328,2.749-.287,2.749-.992,0-.951-2.42-.041-2.7.048-.211.066-.519-.211-.667-.156-.487.187-.933.978-1.459,1.054.512-.076,1.093-1.314.259-1.462-.131-.021-1.545,1.037-1.632.691-.073-.252.85-.346.83-.574-.045-.436-3.008.249-3.011.183-.045-.6,4.121-.346,4.539-.923.235-.311-5.3-1.207-5.8-1.079-.124.031-.878.3-.958.311a4.236,4.236,0,0,0-.522-.028c-.94.107-1.86.045-2.8.225-.118.021.408.373.4.4s-.823.086-.712.235a8.48,8.48,0,0,1,1.075.857c-.66.138-1.874-1.383-2.545-.885-.162.121.487.519.487.612,0,.366-1.331-.415-1.293-.415-.1,0-.062.8-.249.913.574-.346-.709-.861-.909-.882a1.065,1.065,0,0,0-1.058.612c-.3.1-.74-.259-1.127-.1-.277.114.242.577-.138.792-.1.055-2.79.121-2.42.958.273.633,1.729-.031.436,1.037-.346.287-1.383.169-1.812.47-2.057,1.4,1.9.477,1.863,1.262,0,.086-2.1.09-2.074.283.055.284,1.473.94,1.85.975.764.073,1.5-.5,2.517,0a3.962,3.962,0,0,1,2.074,2.309c.311,1.165-.429,1.314.792,1.314a6.99,6.99,0,0,0,1.037,1.12c-.041.038-1.362-.519-1.362-.187,0,.788,1.843.214,1.352,1.611-.076.211-.657-.083-.83.346a2.126,2.126,0,0,0-.207.9,9.236,9.236,0,0,0,1.445,3.381,2.836,2.836,0,0,0,1.511,1.113c1.113.5.854.564,1.48-.366.245-.363-.128-.719-.031-1,.052-.149.532-.145.6-.46.093-.411.038-1.086.09-1.265a.854.854,0,0,1,.394.052c.055-.031.747-.961.83-.961a.3.3,0,0,1,.052.377c.131.422,1.729-.992,1.753-1.016a4.142,4.142,0,0,1,1.058-.709C170.432,150.256,171.78,149.81,172.755,149.233Z" transform="translate(-113.887 -136.594)" fill="none" stroke="#b2b2b2" stroke-miterlimit="10" stroke-width="1"/>
      <path id="Path_29770" data-name="Path 29770" d="M94,156.555c.346-.19.346,0,.605-.273a1.2,1.2,0,0,0,.284.346c.411,0,.577-.882.837-.933s.076.785.671.211c.225-.218.173-.418.394-.66a5.558,5.558,0,0,0-1.431.038C94.871,155.456,94,156.565,94,156.555Z" transform="translate(-75.649 -148.778)" fill="none" stroke="#b2b2b2" stroke-miterlimit="10" stroke-width="1"/>
      <path id="Path_29771" data-name="Path 29771" d="M100.521,157.4c-.595.048.325.436.294.346a1.328,1.328,0,0,0-.691.2c-.107.152.6.1.519.124a1.282,1.282,0,0,0-.712.256c.38.553,1.037.028,1.328-.162-.156.1.923.363,1,.252-.1.159-1.117.3-1.1.463.055.525,2.026-.176,2.316-.3.978-.425,1.265-.083.806-.927.038.069-1.054-.691-1.227-.6-.512.266.3.8.19.978-.29.481-1.279-.539-1.511-.6A2.576,2.576,0,0,0,100.521,157.4Z" transform="translate(-79.528 -149.976)" fill="none" stroke="#b2b2b2" stroke-miterlimit="10" stroke-width="1"/>
      <path id="Path_29772" data-name="Path 29772" d="M118.574,165.727c.719.539,1.556-1.48,1.106-1.507a.346.346,0,0,0-.086.425c.052-.107-.591-.325-.577-.3-.138-.218.913-.415.232-.878-.5-.346-.446.294-.439.29.09-.041-1.511-.183-1,.273a2.722,2.722,0,0,0,.526.1c.6.522-1.037.242-.878.211C116.97,164.431,118.426,165.616,118.574,165.727Z" transform="translate(-90.93 -154.108)" fill="none" stroke="#b2b2b2" stroke-miterlimit="10" stroke-width="1"/>
      <path id="Path_29773" data-name="Path 29773" d="M90.657,164.893a8.423,8.423,0,0,1,.57.691c.432,0,.889-.629,1.1-.788.56-.418,1.352-.83,1.919-1.3.211-.173-2.579-.975-2.942-.861-1.172.366-.152.118-.532.761-.118.2-.747,1.234-.667,1.331A1.383,1.383,0,0,0,90.657,164.893Z" transform="translate(-73.097 -153.627)" fill="none" stroke="#b2b2b2" stroke-miterlimit="10" stroke-width="1"/>
      <path id="Path_29774" data-name="Path 29774" d="M97.849,159.029c.318.038.64-.273.622-.449S97.69,159.008,97.849,159.029Z" transform="translate(-78.153 -150.957)" fill="none" stroke="#b2b2b2" stroke-miterlimit="10" stroke-width="1"/>
      <path id="Path_29775" data-name="Path 29775" d="M139.032,166.612a.346.346,0,0,0,.346-.346c.079.256-1.338-.487-1.466-.529-.315-.107-.121-.4-.629-.512-.346-.079-.882.439-.864.443-.474-.166-.277.031-.809.031-.394,0,.273-2.147-1.438-1.117-1.037.619-.173.951-.128,1.6,0,.111-.768-.228-.736-.726s.595-.861.595-1.144c0-.526-1.857.64-1.946,1.037-.124.553.674,1.66,1,1.227-.083.111-.868-.1-.847.1.114,1.134,4.2.425,4.287.657a.47.47,0,0,1-.207-.315c.055-.19,1.438.857,1.449.944a1.176,1.176,0,0,0-.391.37c.263.225.557-.221,1,.235.494.515.487.408.605,1.189.024.163,1.5-.315,1.234.37s-.657-.176-.854-.114-.691.08-.968.162c-.045,0,.138.508.159.5-.415.2-1.1.024-1.414.3-1.179,1.01,1.262.4,1.594.5s2.368,2.6,2.9,1.874c.131-.183-.9-1.3-1.086-1.241.778-.225,1.922,1.065,1.514-.242-.183-.581-1.563-1.037-.961-1.753.252-.3,1.3.978,1.476.975,0,0,1.037-1.082,1.037-1.075,0-.723-2.845-1.113-2.766-1.812a1.608,1.608,0,0,1,.55-.138.93.93,0,0,0-.46-.252c-.052-.429.453-.408-.27-.408.526,0-.726-.57-.771-.584C139.6,166.775,139.032,166.612,139.032,166.612Z" transform="translate(-100.473 -154.645)" fill="none" stroke="#b2b2b2" stroke-miterlimit="10" stroke-width="1"/>
      <path id="Path_29776" data-name="Path 29776" d="M81.584,205.53c-.328.194.415,1.1.612.965C82.258,206.453,82.071,205.25,81.584,205.53Z" transform="translate(-67.471 -181.669)" fill="none" stroke="#b2b2b2" stroke-miterlimit="10" stroke-width="1"/>
      <path id="Path_29777" data-name="Path 29777" d="M115.146,160.457c.124-.156-.266-.487-.373-.214S115.018,160.616,115.146,160.457Z" transform="translate(-89.226 -151.998)" fill="none" stroke="#b2b2b2" stroke-miterlimit="10" stroke-width="1"/>
      <path id="Path_29778" data-name="Path 29778" d="M143.343,190.367c.124,0,.373-.5.052-.487S143.15,190.4,143.343,190.367Z" transform="translate(-107.823 -171.457)" fill="none" stroke="#b2b2b2" stroke-miterlimit="10" stroke-width="1"/>
      <path id="Path_29779" data-name="Path 29779" d="M147.527,178.013c.971-.18-.937-.878-.619-.608C147.112,177.57,146.358,178.227,147.527,178.013Z" transform="translate(-110.229 -163.255)" fill="none" stroke="#b2b2b2" stroke-miterlimit="10" stroke-width="1"/>
      <path id="Path_29780" data-name="Path 29780" d="M139,189.071c.287.2.712-.346.691-.487S138.654,188.836,139,189.071Z" transform="translate(-105.042 -170.589)" fill="none" stroke="#b2b2b2" stroke-miterlimit="10" stroke-width="1"/>
      <path id="Path_29781" data-name="Path 29781" d="M125.8,158.029c.159.5,4.225.691,4.7.37,1.877-1.362-3.979-.691-3.9-1.124a1.683,1.683,0,0,1,.325-.322c.145-.19-3.188-.864-2.935-.467C124.672,157.562,125.329,156.552,125.8,158.029Z" transform="translate(-95.257 -149.528)" fill="none" stroke="#b2b2b2" stroke-miterlimit="10" stroke-width="1"/>
      <path id="Path_29782" data-name="Path 29782" d="M104.884,167.68c.1-.124.553.252.57-.021,0-.19-1.355-1.155-1.476-1.462a7.767,7.767,0,0,1-.09-1.258c.162-.145.145-.3-.055-.456a.736.736,0,0,0-.781.194,2.385,2.385,0,0,1,.5.47c0-.09-.889-.415-.978-.235-.124.249.4,1.162.235,1.248-.031.017-1.2-1.314-1.265-1.013a1.414,1.414,0,0,1,.3.37c0,.048-.647,0-.608.111-.47-1.238-.854.245-1.283-.156-.041-.041.729-.629-.18-.633a2.429,2.429,0,0,0-1.383.8c-.529,1.258.657.346,1.151.716.028.024-1.037.3-1.037.449,0,.657,2.541-.069,2.541.487,0,.138-2.289,0-2.206.37.235,1.037,3.146.823,3.734.74a4.655,4.655,0,0,1,.951-.128c.2,0,1.825.56,1.628-.1-.156-.519-.529.156-.657-.2A1.422,1.422,0,0,1,104.884,167.68Z" transform="translate(-78.433 -154.814)" fill="none" stroke="#b2b2b2" stroke-miterlimit="10" stroke-width="1"/>
      <path id="Path_29783" data-name="Path 29783" d="M161.659,212.55c.035.156,1.068.622,1.1.408S161.628,212.416,161.659,212.55Z" transform="translate(-119.915 -186.269)" fill="none" stroke="#b2b2b2" stroke-miterlimit="10" stroke-width="1"/>
      <path id="Path_29784" data-name="Path 29784" d="M130.906,154.432c-.318-.176-.723.2-.391.346S131.227,154.6,130.906,154.432Z" transform="translate(-99.458 -148.235)" fill="none" stroke="#b2b2b2" stroke-miterlimit="10" stroke-width="1"/>
      <path id="Path_29785" data-name="Path 29785" d="M122.832,151.961c2.074,0-.377-1.165-.515-.937S122.587,151.961,122.832,151.961Z" transform="translate(-94.158 -146.016)" fill="none" stroke="#b2b2b2" stroke-miterlimit="10" stroke-width="1"/>
      <path id="Path_29786" data-name="Path 29786" d="M124.136,145.1s1.649.761,1.563.5c.045.131-.754.325-.712.37a2.175,2.175,0,0,0,2.074.743c.052,0,1.535-1.338,1.494-1.113-.059.346-1.1-1.037-1.155-1.093s-2.258-1.2-2.472-1.037a.346.346,0,0,0,.266.232c0,.121-.543.024-.591.124.1.08.2.159.294.245-.111.207-.733-.1-.691.311a1.362,1.362,0,0,0,.484.37C124.7,144.979,123.51,144.758,124.136,145.1Z" transform="translate(-95.246 -141.088)" fill="none" stroke="#b2b2b2" stroke-miterlimit="10" stroke-width="1"/>
      <path id="Path_29787" data-name="Path 29787" d="M142.26,164.449c-.446,1.061,1.815.816,1.815.584C144.075,164.677,142.388,164.145,142.26,164.449Z" transform="translate(-107.185 -154.76)" fill="none" stroke="#b2b2b2" stroke-miterlimit="10" stroke-width="1"/>
      <path id="Path_29788" data-name="Path 29788" d="M125.74,154c-.035-.118-1.383.062-1.172.235C124.931,154.524,125.785,154.116,125.74,154Z" transform="translate(-95.634 -147.957)" fill="none" stroke="#b2b2b2" stroke-miterlimit="10" stroke-width="1"/>
      <path id="Path_29789" data-name="Path 29789" d="M103.3,153.668c.09-.232-.588-.194-.532-.114C102.888,153.73,103.21,153.906,103.3,153.668Z" transform="translate(-81.381 -147.65)" fill="none" stroke="#b2b2b2" stroke-miterlimit="10" stroke-width="1"/>
      <path id="Path_29790" data-name="Path 29790" d="M124.952,160.055c-.287-.235-1.131.346-1.013.429C124.4,160.878,126,160.916,124.952,160.055Z" transform="translate(-95.229 -151.907)" fill="none" stroke="#b2b2b2" stroke-miterlimit="10" stroke-width="1"/>
      <path id="Path_29791" data-name="Path 29791" d="M113.851,154.509c.142-.194-.567-.819-.605-.526S113.7,154.717,113.851,154.509Z" transform="translate(-88.239 -147.921)" fill="none" stroke="#b2b2b2" stroke-miterlimit="10" stroke-width="1"/>
      <path id="Path_29792" data-name="Path 29792" d="M116.486,156.561c-.422-.18.18.64.114.622a1.632,1.632,0,0,0-.691-.315c-.152.121.218.491.093.553-.19.09-.657-.806-.92-.823-.57-.031.2.8.225.819.474.287.847.066,1.321.194-.066-.017.526,1.507,1.082.159C118.131,156.789,116.963,156.765,116.486,156.561Z" transform="translate(-89.304 -149.641)" fill="none" stroke="#b2b2b2" stroke-miterlimit="10" stroke-width="1"/>
      <path id="Path_29793" data-name="Path 29793" d="M106.192,153.423c.308-.052-1.262-.425-1.262.176C104.93,154.616,106.2,153.423,106.192,153.423Z" transform="translate(-82.8 -147.499)" fill="none" stroke="#b2b2b2" stroke-miterlimit="10" stroke-width="1"/>
      <path id="Path_29794" data-name="Path 29794" d="M105.149,151.772c.145.062,1.158.052,1.158-.156,0-.754-1.677.083-1.639.118A1.729,1.729,0,0,0,105.149,151.772Z" transform="translate(-82.629 -146.217)" fill="none" stroke="#b2b2b2" stroke-miterlimit="10" stroke-width="1"/>
      <path id="Path_29795" data-name="Path 29795" d="M120.626,147.688c.124-.235-.75-.418-.532-.214C120.218,147.6,120.5,147.923,120.626,147.688Z" transform="translate(-92.698 -143.654)" fill="none" stroke="#b2b2b2" stroke-miterlimit="10" stroke-width="1"/>
      <path id="Path_29796" data-name="Path 29796" d="M114.38,150.1c.287-.093.463,0,.536.273-.038.086-.66.059-.643.118s3.423,1.383,1.691-.346a1.774,1.774,0,0,0-.819-.439C113.627,149.543,114.5,150.01,114.38,150.1Z" transform="translate(-88.89 -145.15)" fill="none" stroke="#b2b2b2" stroke-miterlimit="10" stroke-width="1"/>
      <path id="Path_29797" data-name="Path 29797" d="M137.673,184.343c.035-.2-1.729-1.417-1.832-1.4-.166.021-1,1.131-.889,1.48S137.69,184.233,137.673,184.343Z" transform="translate(-102.436 -166.917)" fill="none" stroke="#b2b2b2" stroke-miterlimit="10" stroke-width="1"/>
      <path id="Path_29798" data-name="Path 29798" d="M129.876,139.924c.64-.449.111.19.118.2a2,2,0,0,1,.377.062c-.691.833,1.324.691,1.314.539.09,1.3,2.6-.432,2.9-.218.581.411-1.518.816-1.469.885,0,0,.674.57.591.577-.4.028-2.486-1.456-2.133-.135.083.308,1.729.937,1.729,1.231,0,0-2.074-.615-2.116.273-.031.564,1.141-.1,1.155-.066-.183-.4.18,1.265.18.944,0,.377-1.6-.982-1.535-.235a3.212,3.212,0,0,0,.474.366c0,.131-1.383.242-1.054.57s4.553.494,4.764-.017-1.566-.37-1.653-.5c.252.391,1.587-.691,1.677-.754.664-.366.94.169,1.293-.868.1-.311-1.151-.322-1.141-.346.733-.519,1.7-.308,2.365-.643a20.5,20.5,0,0,0,2.832-1.625c.028-.183-1.127-.048-1.193-.076.553.242,2.52-1.061,2.545-1.037-.156-.048-2.42-.823-2.469-.239a.871.871,0,0,1,.37-.308,18.711,18.711,0,0,1-2.984.076,14.279,14.279,0,0,0-2.915.114,43.513,43.513,0,0,1-4.453,1.272A.4.4,0,0,0,129.876,139.924Z" transform="translate(-98.836 -137.841)" fill="none" stroke="#b2b2b2" stroke-miterlimit="10" stroke-width="1"/>
      <path id="Path_29799" data-name="Path 29799" d="M169.069,210.22a2.22,2.22,0,0,0-.854.989c-.041.093-.826.878-.508,1.065.719.425,1.383-.643,1.459.3-.028-.315,1.037.118,1.089.024-.021.041-.315-.816-.173-.754s-1.417-1.037-1.383-.837A1.729,1.729,0,0,1,169.069,210.22Z" transform="translate(-123.823 -184.765)" fill="none" stroke="#b2b2b2" stroke-miterlimit="10" stroke-width="1"/>
      <path id="Path_29800" data-name="Path 29800" d="M41.526,205.937c.214-.1.3-.214.214-.346S41.36,206.013,41.526,205.937Z" transform="translate(-41.284 -181.724)" fill="none" stroke="#b2b2b2" stroke-miterlimit="10" stroke-width="1"/>
      <path id="Path_29801" data-name="Path 29801" d="M44.973,204.061c-.245-.1-.5.3-.532.294C44.327,204.338,45.208,204.158,44.973,204.061Z" transform="translate(-43.217 -180.726)" fill="none" stroke="#b2b2b2" stroke-miterlimit="10" stroke-width="1"/>
      <path id="Path_29802" data-name="Path 29802" d="M57.337,197.525c-.408.515-.743,1.5.128.626C57.593,198.019,57.78,196.968,57.337,197.525Z" transform="translate(-51.387 -176.353)" fill="none" stroke="#b2b2b2" stroke-miterlimit="10" stroke-width="1"/>
      <path id="Path_29803" data-name="Path 29803" d="M42,194.042c-.169-.1-.287-.055-.346.135a.553.553,0,0,0,.56.187C42.808,194.142,41.992,193.993,42,194.042Z" transform="translate(-41.398 -174.146)" fill="none" stroke="#b2b2b2" stroke-miterlimit="10" stroke-width="1"/>
      <path id="Path_29804" data-name="Path 29804" d="M240.221,228.414c-.031-.221-.436.066-.346.131C240.048,228.673,240.256,228.635,240.221,228.414Z" transform="translate(-171.082 -196.615)" fill="none" stroke="#b2b2b2" stroke-miterlimit="10" stroke-width="1"/>
      <path id="Path_29805" data-name="Path 29805" d="M264.847,234.881c0-.142-1.151,0-1.127,0C263.578,234.853,264.881,235.244,264.847,234.881Z" transform="translate(-186.684 -200.859)" fill="none" stroke="#b2b2b2" stroke-miterlimit="10" stroke-width="1"/>
      <path id="Path_29806" data-name="Path 29806" d="M274.5,234.723a4.5,4.5,0,0,1,.294-.373,3.679,3.679,0,0,0-.909.318C273.722,234.965,274.531,234.92,274.5,234.723Z" transform="translate(-193.326 -200.553)" fill="none" stroke="#b2b2b2" stroke-miterlimit="10" stroke-width="1"/>
      <path id="Path_29807" data-name="Path 29807" d="M212.462,182.753c1.269-.069.076-1.988-.526-1.635a4.649,4.649,0,0,1-1.186.526.346.346,0,0,0-.283-.218c-.788.93.031-.27-1.058-.27-.228,0,.118.322.055.315-.218-.024-.553-.093-.605.322-.024.18.9.138.871.1s-.09.346-.062.315-.743.031-.691.162c.024.045.657.062.768.194.2.232-.218.522-.263.474C210.252,183.874,211.646,182.8,212.462,182.753Z" transform="translate(-150.797 -165.697)" fill="none" stroke="#b2b2b2" stroke-miterlimit="10" stroke-width="1"/>
      <path id="Path_29808" data-name="Path 29808" d="M225.6,205.486c1.037,0,1.345-.761,1.241-1.563-.035-.277.532-.322-.1-.664a2.5,2.5,0,0,0-.83.176c-.021.567.041.066-.564.4C225.323,203.862,225.337,205.486,225.6,205.486Z" transform="translate(-161.577 -180.212)" fill="none" stroke="#b2b2b2" stroke-miterlimit="10" stroke-width="1"/>
      <path id="Path_29809" data-name="Path 29809" d="M235.372,193.5c.1-.111.218-.532.066-.487S235.327,193.55,235.372,193.5Z" transform="translate(-168.117 -173.506)" fill="none" stroke="#b2b2b2" stroke-miterlimit="10" stroke-width="1"/>
      <path id="Path_29810" data-name="Path 29810" d="M229.026,197.362c-.076-.083-.384.394-.266.391S229.106,197.448,229.026,197.362Z" transform="translate(-163.801 -176.346)" fill="none" stroke="#b2b2b2" stroke-miterlimit="10" stroke-width="1"/>
      <path id="Path_29811" data-name="Path 29811" d="M229.29,197.385c.387-.346.024,1.3.024,1.093,0-.294.508.145.453.156a.643.643,0,0,0,.228-.346c.18.028-.118.691-.111.747.031.266.691-.163.716-.1.422.736-.346,1.037-.315,1.532a.567.567,0,0,0-.432.449,5.293,5.293,0,0,0,.992.142c.017.121-1.383.415-1.037.878a27.462,27.462,0,0,0,2.7-.716c.152-.156-.263-.052-.249-.162.066-.515.467-.273.249-.837a1.383,1.383,0,0,1-.5-.387c-.287-.484-.567-1.525-1.262-1.473,0,0,.446-.743.4-.857-.194-.5-.564.069-.84-.263-.093-.114.57-.553.377-.736C230.531,196.376,229.321,197.361,229.29,197.385Z" transform="translate(-164.165 -175.786)" fill="none" stroke="#b2b2b2" stroke-miterlimit="10" stroke-width="1"/>
      <path id="Path_29812" data-name="Path 29812" d="M250.293,202.392c-.076-.021,1.01-.294.494-.643C250.345,201.452,250.252,202.382,250.293,202.392Z" transform="translate(-177.901 -179.185)" fill="none" stroke="#b2b2b2" stroke-miterlimit="10" stroke-width="1"/>
      <path id="Path_29813" data-name="Path 29813" d="M258.073,198.4c-.228,0-.346.491-.273.57S258.3,198.393,258.073,198.4Z" transform="translate(-182.804 -177.032)" fill="none" stroke="#b2b2b2" stroke-miterlimit="10" stroke-width="1"/>
      <path id="Path_29814" data-name="Path 29814" d="M262.07,197.273a1.159,1.159,0,0,0,.415-.3C262.775,196.662,261.634,197.308,262.07,197.273Z" transform="translate(-185.546 -176.044)" fill="none" stroke="#b2b2b2" stroke-miterlimit="10" stroke-width="1"/>
      <path id="Path_29815" data-name="Path 29815" d="M262.73,196.262c.048-.1-.346-.055-.256.031a.166.166,0,0,0,.256-.031Z" transform="translate(-185.868 -175.595)" fill="none" stroke="#b2b2b2" stroke-miterlimit="10" stroke-width="1"/>
      <path id="Path_29816" data-name="Path 29816" d="M257.833,146.536c.346.29,1-.041,1.414.214-.021,0-.84.3-.837.315.2.529,3.146.259,2.942-.557-.024-.1-1.915-.363-1.839-.391a.346.346,0,0,0-.073.429c-.156.114-.916-.508-1.086-.487a1.235,1.235,0,0,0-.256.346c-.1-.076-.2-.156-.3-.235C257.445,146.177,257.784,146.5,257.833,146.536Z" transform="translate(-182.712 -142.786)" fill="none" stroke="#b2b2b2" stroke-miterlimit="10" stroke-width="1"/>
      <path id="Path_29817" data-name="Path 29817" d="M250.046,148.1c-.6-.138.318.933.463,1.016.277.159.5-.519.691-.6s-.083.373.111.346a1.591,1.591,0,0,1,.425-.18c.176.27-1.265.792-1.065.84.363.09.75-.142,1.127-.052a5.752,5.752,0,0,0-1.1.346c-.038.346.636.346.792.4a.27.27,0,0,1-.2.166c-.09.124.5.183.595.128a8.8,8.8,0,0,0,.626-.954c.069-.09.643-1.459,1-.9-.1-.149.145,1.2.017,1.169.149.035,1.507.263,1.452-.37.028.325-1.407-1.037-1.383-1.037a3.317,3.317,0,0,0-1.428-.5c.183.045-.3-.6-.526-.674-.346-.107.073,1.186.1,1.082.3-1.331-.927-.287-.916-.29a2.592,2.592,0,0,0-.373-.325,1.507,1.507,0,0,1,.346-.135C250.714,147.649,248.515,147.739,250.046,148.1Z" transform="translate(-177.391 -143.554)" fill="none" stroke="#b2b2b2" stroke-miterlimit="10" stroke-width="1"/>
      <path id="Path_29818" data-name="Path 29818" d="M249.52,151.247a1.529,1.529,0,0,0,.284.214c-.131,0-.277-.691-.532-.605A.346.346,0,0,0,249.52,151.247Z" transform="translate(-177.235 -145.92)" fill="none" stroke="#b2b2b2" stroke-miterlimit="10" stroke-width="1"/>
      <path id="Path_29819" data-name="Path 29819" d="M455.538,187.737a.692.692,0,0,0-.5.169c.08.1,1.234.366,1.234.1A1.12,1.12,0,0,0,455.538,187.737Z" transform="translate(-311.866 -170.055)" fill="none" stroke="#b2b2b2" stroke-miterlimit="10" stroke-width="1"/>
      <path id="Path_29820" data-name="Path 29820" d="M398.725,221.151c-.059-.4-.947,1.3-.5,1.054-.076.041.37-.252.346-.187-.076-.111-.156-.218-.239-.325,0,.1,2.558.076,2.42-1.037.069.6-2.14-.394-1.877-.567C398.919,220.076,398.715,221.1,398.725,221.151Z" transform="translate(-274.612 -191.223)" fill="none" stroke="#b2b2b2" stroke-miterlimit="10" stroke-width="1"/>
      <path id="Path_29821" data-name="Path 29821" d="M386.108,238.279c.128.256.242-.346.311-.048,0,.045-.169.961.128.9.239-.052.691-.927.3-1.086C386.768,238,385.786,237.629,386.108,238.279Z" transform="translate(-266.724 -202.875)" fill="none" stroke="#b2b2b2" stroke-miterlimit="10" stroke-width="1"/>
      <path id="Path_29822" data-name="Path 29822" d="M390.14,237.406c.086-.384.615.073.615-.532,0-.322-.64,0-.66.055C390.012,237.122,390.053,237.786,390.14,237.406Z" transform="translate(-269.345 -202.112)" fill="none" stroke="#b2b2b2" stroke-miterlimit="10" stroke-width="1"/>
      <path id="Path_29823" data-name="Path 29823" d="M389.415,229.5s-1.953.086-1.8.771a9.774,9.774,0,0,0,1.763-.18c-.367.086.346.259.432.252.277-.021.066-.4.118-.436.308-.187,1.245.173,1.566-.266.249-.346.819-2.7.377-2.953-.557-.318-.83,1.473-1.093,1.836C390.573,228.812,389.471,228.891,389.415,229.5Z" transform="translate(-267.746 -195.516)" fill="none" stroke="#b2b2b2" stroke-miterlimit="10" stroke-width="1"/>
      <path id="Path_29824" data-name="Path 29824" d="M362.42,257.1a3.8,3.8,0,0,0,.211-.519c-.045-.18-1.037-.045-.847.346C361.808,256.969,362.368,257.757,362.42,257.1Z" transform="translate(-250.836 -215.047)" fill="none" stroke="#b2b2b2" stroke-miterlimit="10" stroke-width="1"/>
      <path id="Path_29825" data-name="Path 29825" d="M375.354,250.831c.194-.145.653-1.137.5-1.362C375.34,248.718,374.915,251.169,375.354,250.831Z" transform="translate(-259.61 -210.35)" fill="none" stroke="#b2b2b2" stroke-miterlimit="10" stroke-width="1"/>
      <path id="Path_29826" data-name="Path 29826" d="M374.606,259.667c-.273.906,2.648,2.116,2.043,2.807.971-1.113-1.113-1.566-1.328-2.074s.75-1.238,0-1.673C374.817,258.423,374.616,259.629,374.606,259.667Z" transform="translate(-259.229 -216.47)" fill="none" stroke="#b2b2b2" stroke-miterlimit="10" stroke-width="1"/>
      <path id="Path_29827" data-name="Path 29827" d="M372.2,268.831a2.421,2.421,0,0,0-.508.726c-.048-.1,1.037-.778.83-1.207A.692.692,0,0,0,372.2,268.831Z" transform="translate(-257.33 -222.798)" fill="none" stroke="#b2b2b2" stroke-miterlimit="10" stroke-width="1"/>
      <path id="Path_29828" data-name="Path 29828" d="M375.289,265.339c.035.18.118.557.38.467S375.265,265.208,375.289,265.339Z" transform="translate(-259.687 -220.814)" fill="none" stroke="#b2b2b2" stroke-miterlimit="10" stroke-width="1"/>
      <path id="Path_29829" data-name="Path 29829" d="M379.557,269.818c-.093-.131-.328.111-.294.207S379.654,269.949,379.557,269.818Z" transform="translate(-262.286 -223.733)" fill="none" stroke="#b2b2b2" stroke-miterlimit="10" stroke-width="1"/>
      <path id="Path_29830" data-name="Path 29830" d="M378.481,270.53s-1.729,1.12-1.435,1.092.411-.436.709-.225.117.885.691.885c-.425,0,.453-.913.415-.754A.951.951,0,0,0,378.481,270.53Z" transform="translate(-260.815 -224.224)" fill="none" stroke="#b2b2b2" stroke-miterlimit="10" stroke-width="1"/>
      <path id="Path_29831" data-name="Path 29831" d="M376.935,267.261a.432.432,0,0,0,.024.6c.743-.163-.263.57.308.691C377.764,268.679,377.8,267.075,376.935,267.261Z" transform="translate(-260.693 -222.076)" fill="none" stroke="#b2b2b2" stroke-miterlimit="10" stroke-width="1"/>
      <path id="Path_29832" data-name="Path 29832" d="M409.234,288.558c0,.515-1.324.194-1.338.346-.073.747,2.033.024,1.6-.522C409.352,288.347,409.266,288.4,409.234,288.558Z" transform="translate(-281.021 -235.897)" fill="none" stroke="#b2b2b2" stroke-miterlimit="10" stroke-width="1"/>
      <path id="Path_29833" data-name="Path 29833" d="M412.656,287.68c.346-.1-.273-.553-.346-.57C412.414,287.134,412.549,287.715,412.656,287.68Z" transform="translate(-283.909 -235.072)" fill="none" stroke="#b2b2b2" stroke-miterlimit="10" stroke-width="1"/>
      <path id="Path_29834" data-name="Path 29834" d="M394.146,286.053c.322.021-1.037-1.113-1.331-1.29a6.871,6.871,0,0,0-2.721-.958c-.2,0-.481.626-.726.581-.494-.09-.211-.615-.564-.761-.3-.124-.3-.463-.844-.38-.093,0-.609.422-.425.46.1.024,1.144.605,1.151.425,0,.083-.643.076-.691.086-.29.055,1.086.729,1.172.771.608.3,1.037.232,1.4.85s-.491.584-.346.864c.256.512,2.175.059,2.379.062a1.816,1.816,0,0,1,1.248.346s1.729.868,1.535.56C395.3,287.529,393.8,286.032,394.146,286.053Z" transform="translate(-267.675 -232.535)" fill="none" stroke="#b2b2b2" stroke-miterlimit="10" stroke-width="1"/>
      <path id="Path_29835" data-name="Path 29835" d="M329.43,270.146c-.256.031-.263,1.532.035,1.653C330.3,272.134,330.1,270.066,329.43,270.146Z" transform="translate(-229.559 -223.972)" fill="none" stroke="#b2b2b2" stroke-miterlimit="10" stroke-width="1"/>
      <path id="Path_29836" data-name="Path 29836" d="M289.065,297.9s-.557.968-.65,1.065c-.249.252-.909.408-1.11.636-.546.633-.176.916-.273,1.846-.069.653-.84,3.305.93,2.444,1.037-.5.812-3.416,1.193-4.377.052-.124.325.283.322-.245A5.435,5.435,0,0,0,289.065,297.9Z" transform="translate(-201.796 -242.132)" fill="none" stroke="#b2b2b2" stroke-miterlimit="10" stroke-width="1"/>
      <path id="Path_29837" data-name="Path 29837" d="M298.323,266.247c.135.152.394-.024.408-.083S298.175,266.078,298.323,266.247Z" transform="translate(-209.315 -221.338)" fill="none" stroke="#b2b2b2" stroke-miterlimit="10" stroke-width="1"/>
      <path id="Path_29838" data-name="Path 29838" d="M421.177,294.75c.038.2.3.315.411.245S421.142,294.549,421.177,294.75Z" transform="translate(-289.71 -240.033)" fill="none" stroke="#b2b2b2" stroke-miterlimit="10" stroke-width="1"/>
      <path id="Path_29839" data-name="Path 29839" d="M417.53,291.364c0,.048.277.346.346.3S417.547,291.278,417.53,291.364Z" transform="translate(-287.325 -237.847)" fill="none" stroke="#b2b2b2" stroke-miterlimit="10" stroke-width="1"/>
      <path id="Path_29840" data-name="Path 29840" d="M420.33,292.958c.1-.069-.55-.456-.56-.346S420.233,293.027,420.33,292.958Z" transform="translate(-288.79 -238.659)" fill="none" stroke="#b2b2b2" stroke-miterlimit="10" stroke-width="1"/>
      <path id="Path_29841" data-name="Path 29841" d="M415.338,289.782c-.024.118.346.736.5.64C416.095,290.238,415.362,289.668,415.338,289.782Z" transform="translate(-285.89 -236.81)" fill="none" stroke="#b2b2b2" stroke-miterlimit="10" stroke-width="1"/>
      <path id="Path_29842" data-name="Path 29842" d="M422.364,293.547c-.086.214.266.588.322.595S422.433,293.385,422.364,293.547Z" transform="translate(-290.479 -239.269)" fill="none" stroke="#b2b2b2" stroke-miterlimit="10" stroke-width="1"/>
      <path id="Path_29843" data-name="Path 29843" d="M423.287,296.062c0,.048.249.284.366.2S423.256,295.979,423.287,296.062Z" transform="translate(-291.091 -240.916)" fill="none" stroke="#b2b2b2" stroke-miterlimit="10" stroke-width="1"/>
      <path id="Path_29844" data-name="Path 29844" d="M386.5,297.564c.09.076.536-.021.519-.138S386.37,297.446,386.5,297.564Z" transform="translate(-267.013 -241.792)" fill="none" stroke="#b2b2b2" stroke-miterlimit="10" stroke-width="1"/>
      <path id="Path_29845" data-name="Path 29845" d="M382.833,304.426c-.017,0-.214-1.286-.1-1.234a9.659,9.659,0,0,1-2.42-2.766,13.167,13.167,0,0,1-.868-2.074c-.169-.408-.519-.1-.64-.366-.176-.387,0-1.2-.384-1.549-.287-.27-.439,1.933-.443,1.94-.4,1.144-.166,1.165-1.193.8-.3-.1-1.186-.56-1.269-.954-.066-.328.712-.885.608-1.092a12.9,12.9,0,0,1-1.908-.536c-.048.128,0,.225.152.294-.536-.626-1.414,1.608-1.151,1.57.124-.017-.792-.142-.539,0-.66-.38-.56-.764-1.348-.2-.512.37-.346.864-.633,1.2-.08.086-.135-.449-.256-.366-.425.284-.093.653-.481.968a4.879,4.879,0,0,1-1.234.671,5.889,5.889,0,0,0-1.763,1,.294.294,0,0,1-.045-.273c0,.142-.169.584-.187.819s.225,1.148.159,1.286a.46.46,0,0,1-.239-.225,1.626,1.626,0,0,1,.114.315l-.284-.235c-.114.283.74,1.787.823,2.123a7.279,7.279,0,0,1-.042,1.649c.55,1.124,1.338.346,2.244.09.74-.218,1.217-.377,1.936-.643a6.181,6.181,0,0,1,2.327-.529c.373.062,2.227,1.511,1.8,1.7.128-.055.889-1,.937-.958.235.221-.391.823-.418.965-.114.543.622-.429.425-.273.27-.211.142.664.118.595s.878,1.158.961,1.231c.508.436,1.774.031,1.76.021a.719.719,0,0,1,0,.3c-.114-.142.422.18.55.3-.259-.249,1.49-.8,1.438-.74a16.134,16.134,0,0,0,.633-2.14C382.152,306.76,382.681,304.568,382.833,304.426Z" transform="translate(-253.918 -241.159)" fill="none" stroke="#b2b2b2" stroke-miterlimit="10" stroke-width="1"/>
      <path id="Path_29846" data-name="Path 29846" d="M393.8,330.65c.1.1.429.069.481-.069S393.718,330.564,393.8,330.65Z" transform="translate(-271.796 -263.473)" fill="none" stroke="#b2b2b2" stroke-miterlimit="10" stroke-width="1"/>
      <path id="Path_29847" data-name="Path 29847" d="M404.141,338.333a3.286,3.286,0,0,1-.691-.214c.121-.038.021,1.839,1.037,1.31C404.988,339.163,405.182,338.205,404.141,338.333Z" transform="translate(-278.113 -268.445)" fill="none" stroke="#b2b2b2" stroke-miterlimit="10" stroke-width="1"/>
      <path id="Path_29848" data-name="Path 29848" d="M430.236,347.76c.062.021.266-.038.152-.194S430.087,347.716,430.236,347.76Z" transform="translate(-295.602 -274.599)" fill="none" stroke="#b2b2b2" stroke-miterlimit="10" stroke-width="1"/>
      <path id="Path_29849" data-name="Path 29849" d="M438.649,330.971c-.239.436-.761-.657-.809-.653a.225.225,0,0,0,0,.242,3.868,3.868,0,0,0-.961-1.189c-.021,0,.595,1.217.65,1.383.183.539-.425.519-.4.816,0-.024.439,1.269.418,1.227C438.044,333.737,439.126,330.055,438.649,330.971Z" transform="translate(-299.984 -262.722)" fill="none" stroke="#b2b2b2" stroke-miterlimit="10" stroke-width="1"/>
      <path id="Path_29850" data-name="Path 29850" d="M432.536,338.417c-.5-.391-3.5,2.292-2.6,2.9S432.962,338.756,432.536,338.417Z" transform="translate(-295.334 -268.615)" fill="none" stroke="#b2b2b2" stroke-miterlimit="10" stroke-width="1"/>
      <path id="Path_29851" data-name="Path 29851" d="M443.433,304.242c.1.038.418-.08.418-.245S443.284,304.183,443.433,304.242Z" transform="translate(-304.256 -246.092)" fill="none" stroke="#b2b2b2" stroke-miterlimit="10" stroke-width="1"/>
      <path id="Path_29852" data-name="Path 29852" d="M441.853,305.794c.149.156.453.149.46-.135S441.718,305.655,441.853,305.794Z" transform="translate(-303.225 -247.128)" fill="none" stroke="#b2b2b2" stroke-miterlimit="10" stroke-width="1"/>
      <path id="Path_29853" data-name="Path 29853" d="M292.11,145.465a.667.667,0,0,0-.38.235c.166.363,1.7-.366,1.711-.474C293.466,144.745,292.2,145.326,292.11,145.465Z" transform="translate(-205.018 -142.119)" fill="none" stroke="#b2b2b2" stroke-miterlimit="10" stroke-width="1"/>
      <path id="Path_29854" data-name="Path 29854" d="M298.268,146.708c0-.207-.619.021-.5.066S298.268,146.915,298.268,146.708Z" transform="translate(-208.959 -143.155)" fill="none" stroke="#b2b2b2" stroke-miterlimit="10" stroke-width="1"/>
      <path id="Path_29855" data-name="Path 29855" d="M289.973,145.555a1.646,1.646,0,0,1,.691-.145c.076-.211-1.383,0-1.328.118a.432.432,0,0,0,.636.028Z" transform="translate(-203.451 -142.303)" fill="none" stroke="#b2b2b2" stroke-miterlimit="10" stroke-width="1"/>
      <path id="Path_29856" data-name="Path 29856" d="M292.647,175.254c.346.346.557-.159.736-.232C293.629,174.926,292.011,174.611,292.647,175.254Z" transform="translate(-205.52 -161.63)" fill="none" stroke="#b2b2b2" stroke-miterlimit="10" stroke-width="1"/>
      <path id="Path_29857" data-name="Path 29857" d="M297.742,159.272a15.709,15.709,0,0,0-1.352,1.507c0,.038.691.612.643.643-.062-.124-.038-.214.066-.27-.066-.017,1.729,1.487,1.794.629.021-.228-.785-.723-.816-1.037s.315-.653.449-.947a4.955,4.955,0,0,1,.806-1.065c.529-.487,4.353-2.092,4.183-2.237-.4-.346-3.8.768-4.373,1.113A14.765,14.765,0,0,0,297.742,159.272Z" transform="translate(-208.066 -149.572)" fill="none" stroke="#b2b2b2" stroke-miterlimit="10" stroke-width="1"/>
      <path id="Path_29858" data-name="Path 29858" d="M406.526,161.152a1.075,1.075,0,0,0,.961-.211C407.57,160.045,403.619,160.941,406.526,161.152Z" transform="translate(-279.426 -152.268)" fill="none" stroke="#b2b2b2" stroke-miterlimit="10" stroke-width="1"/>
      <path id="Path_29859" data-name="Path 29859" d="M398.932,163.47c0-.194-.646.073-.377.169C398.7,163.691,398.932,163.667,398.932,163.47Z" transform="translate(-274.867 -154.133)" fill="none" stroke="#b2b2b2" stroke-miterlimit="10" stroke-width="1"/>
      <path id="Path_29860" data-name="Path 29860" d="M351.12,150.751c.235.149,2.368-.207,2.441-.626s-1.234-.539-1.193-.211C352.116,148.044,351.424,150.941,351.12,150.751Z" transform="translate(-243.875 -144.896)" fill="none" stroke="#b2b2b2" stroke-miterlimit="10" stroke-width="1"/>
      <path id="Path_29861" data-name="Path 29861" d="M345.283,147.818a1.141,1.141,0,0,0-.273.391c.6.574,2.054,1.013,2.178,0C347.3,147.351,345.283,147.593,345.283,147.818Z" transform="translate(-239.877 -143.799)" fill="none" stroke="#b2b2b2" stroke-miterlimit="10" stroke-width="1"/>
      <path id="Path_29862" data-name="Path 29862" d="M343.213,145.318c.384.18-.346.2-.387.221-.207.1.771.048.947-.021s1.469-.453,1.234-.75C344.039,143.579,343.023,145.232,343.213,145.318Z" transform="translate(-238.429 -141.662)" fill="none" stroke="#b2b2b2" stroke-miterlimit="10" stroke-width="1"/>
      <path id="Path_29863" data-name="Path 29863" d="M365.817,162.768c-.273.6.481.18.487.08a.318.318,0,0,0-.487-.08Z" transform="translate(-253.452 -153.666)" fill="none" stroke="#b2b2b2" stroke-miterlimit="10" stroke-width="1"/>
      <path id="Path_29864" data-name="Path 29864" d="M300,144.66c.194.211,1.348.235,1.383-.142.017-.128-.961-.3-1.02-.29C300.557,144.2,300.114,144.774,300,144.66Z" transform="translate(-210.428 -141.588)" fill="none" stroke="#b2b2b2" stroke-miterlimit="10" stroke-width="1"/>
      <path id="Path_29865" data-name="Path 29865" d="M342.016,144.291c.048-.194-.74-.111-.532.08C341.557,144.436,341.985,144.488,342.016,144.291Z" transform="translate(-237.547 -141.558)" fill="none" stroke="#b2b2b2" stroke-miterlimit="10" stroke-width="1"/>
      <path id="Path_29866" data-name="Path 29866" d="M444.563,170.8c.052.041,1.1-.031.892-.277-.487-.584-1.539.249-1.462.29C444.183,170.808,444.373,170.8,444.563,170.8Z" transform="translate(-304.636 -158.661)" fill="none" stroke="#b2b2b2" stroke-miterlimit="10" stroke-width="1"/>
      <path id="Path_29867" data-name="Path 29867" d="M394.906,159.716a1.846,1.846,0,0,0,1.293.259c.308-.059,1.134-.539.819-.653.152.055.584,1.037.84.28.211-.64-.391-.487-.937-.667-.048,0-1.037-.038-1.037-.038C396.047,158.865,393.993,159.214,394.906,159.716Z" transform="translate(-272.369 -151.185)" fill="none" stroke="#b2b2b2" stroke-miterlimit="10" stroke-width="1"/>
      <path id="Path_29868" data-name="Path 29868" d="M400.163,165.135c.629-.152-1.625-.906-1.182-.207C399.118,165.152,399.955,165.187,400.163,165.135Z" transform="translate(-275.15 -154.941)" fill="none" stroke="#b2b2b2" stroke-miterlimit="10" stroke-width="1"/>
      <path id="Path_29869" data-name="Path 29869" d="M299.2,164.3l.449.1c.114,0-.149-.156-.114-.176-.135.083.8-.239.584-.318,0,0-1.825-1.1-1.85-.716.028-.422.187.691.124.481-.346-1.12-2.634-2.348-3.917-2.624a5.219,5.219,0,0,0-2.368.069c.038,0,.294.55-.059.768-.163.1-.934-.584-.757-.667s.411.3.456-.066c.038-.294-1.5.118-1.729.152a8.906,8.906,0,0,1-1.117-.09c-.484-.045-.228.384-.425.484.169-.083-.626-.774-.619-.768-.691-.595-.6-.691-1.9-.806-.4-.031-2.351,0-2.548-.595-.059-.173.591.038.418-.252-.38-.64-1.94.093-1.953.159.107-.066.214-.138.315-.214a2.054,2.054,0,0,0-.453-.152c-.131-.218.612,0,.629-.118.114-.671-3.246-.273-2.915.183a.346.346,0,0,0,.318,0c-.214-.118.041.812.017.532,0,.052-.764-.086-.889,0a.691.691,0,0,0,.228.152s-2.123-.4-2.265-.436-.387.885-.709.864c-.474-.028-.84-1.165-1.082-1.148a.882.882,0,0,0,.432.086c.605-.346-1.514-1.615-1.964-1.518-.346.069-.4.774-.522.8-.176.031-1.874-.041-1.929-.239-.031-.107.228-.242.118-.27a4.76,4.76,0,0,0-2.116.235c-.145,0,.028-.512-.187-.55-.1-.017-1.535,0-1.407.162.08.028.159.048.242.069.021.19-1.794.481-1.832.581.391-1.006,3.329-1.272,3.087-2.316-.069-.311.124-.577-.526-.885-.83-.391-1.456.232-2.188.048a2.012,2.012,0,0,1,.29-.411c0,.083-1.037-.2-1.169-.149.09-.035.719-.142.577-.346-.474-.723-1.566.2-1.967.487.2-.149-.764,1.134-.8.532a1.753,1.753,0,0,0,.259.221c.041-.138-1.113.118-1.172.1.035-.083.073-.166.111-.249a8.031,8.031,0,0,0-1.29.249.387.387,0,0,0,.242.18,9.232,9.232,0,0,0-2.074.577c-.453.211-.221.19-.415.453l-.346-.021c-.038.045.394.245.4.287a1.758,1.758,0,0,1-.3.017s.474.284.259.481c-.128.121-.871.055-1.086.1-2.98.629,0,.83-.577,1.618-.228.315-1.729-.985-2.157-.55-.038.035.481.4.366.429-.228.066-.574-.266-.736.048-.128.252,1.054.65.961.761,0,0-1.252-.263-1.269-.28-.249-.28.429-1.089-.1-1.269s-.84,2.375-.626,2.662c.57.774,1.632.366,1.988,1.545.19.615-1.089-.875-.532-.636-.38-.166-.256-.494-.761-.4-.716.121-.035.529-.3.871-.315.4-.74.975-1.176,1.072-.121.028-1.193-.028-1.1-.3,0,.038,1.417-.142,1.656-.944.149-.5-.1-.909-.211-1.487-.031-.166.048-1.912.055-1.895-.84-1.383-2.251.194-2.323,1.179.021-.27-.031,1.037-.093.864,0,0,1.528.978.64,1.124-.622.107-3.15-2.112-3.917-1.67.2-.118,1.362,1.995.242,1.542-.439-.18.017-.221-1-.131a8.439,8.439,0,0,1-1.494.169c.124-.1.346-.2.325-.456a15.329,15.329,0,0,1-2.42.982c-.408.18-.322.944-1.075.436s.384-.481.474-.591c.346-.411-1.383-.857-1.331-.6-.017-.073.411,1.3.083,1.068.816.584-.131.529-.183.567-.94.754-.94-.059-1.127,1.29-.031.228-.778-.228-.9-.138l-.456-.3c-.277.128-.318.294-.124.5.456-.259.605.989-.19.363-.2-.156-1.276-2.524-1.711-2.306.3-.152,4.771,1.971,3.405-.477-.263-.47-3.039-1.646-3.278-1.352a.57.57,0,0,0,.3-.1c-.038-.325-.719,0-.8-.069-.183-.2-.629.256-.764-.249.024.1.723-.093.74-.187.152-.816-1.279-.09-1.1-.083-.142,0,.076-.439.062-.463-.29-.553-.536.474-.691.474-.059,0,.038-.487-.062-.422l-.57.615c-.207.045.4-.671.4-.691-.059-.37-.691.346-.691.346.2-.169-.8.567-.5.477-.384.118.1-.864.149-.691.021.083-.584.069-.574.214a.591.591,0,0,1,.166.3,1.328,1.328,0,0,0-.453-.017.532.532,0,0,0,.225.221,1.614,1.614,0,0,1-.525-.183c.021,0,.166.546,0,.439-.3-.194-.235-.508-.647-.328a4.125,4.125,0,0,0-.844.723c.014.093.4-.083.346.249a5.146,5.146,0,0,0-.691.031c.028-.121.059-.242.1-.363a14.135,14.135,0,0,1-1.193,1.058c.308.017,1.016-.774,1.345-.467,0,0-.048.346-.055.346-.93.377-1.207,1.908-2.074,2.289-.073.035.346.318.211.377-.494.194-.5.384-.909.723-.031.024-.308-.346-.346-.118-.048.494-.294.111-.539.481a.318.318,0,0,0,.211.176c-.266-.584-.937.944-.916.826-.152.923.449.615.5.774.135.474-.55.249-.519.225a2.515,2.515,0,0,0-.069.418c0,.169.37-.19.439,0,.045.124-.232.256-.266.311-.467.709,1.566.162,1.328.214.328-.073.5-.591.691-.691.111-.069.992,2.679,1.079,2.711.415.156,1.279-1.106,1.417-1.144q-.083.218-.218.1c.08-.74.961-1.321.958-1.884,0-.736-.833-.387-.564-1.469.152-.619.636-.691.954-1.124.256-.346.674-1.4,1.151-1.563,2.237-.736-.515,1.867-.588,2a3.1,3.1,0,0,0,.111,1.746c.619.622,1.8.162,2.489-.024a1.533,1.533,0,0,1,.19-.266,1.726,1.726,0,0,0-.19.266,1.6,1.6,0,0,1,.771.3c.149.18-1.915.4-1.825.346-1.328.636-.045.612-.38.992-.4.633-.477.152-.643.287-.055.045-1.037.121-.674.854.346.8-.346.992-.792,1.155.038,0-1.155.114-1.442.152-.622.076-.294.162-.6-.27-.128-.183-.857.5-.992.4a.577.577,0,0,1,0-.3c-.169-.045-.691,0-.64-.453,0-.083.456.239.491.038.069-.38-.214-.131-.325-.3-.052-.083.491-1,.207-1.31-.19-.211-.508.5-.508.5-.2.2-.4-.162-.432.691,0,.273.522.9.391,1.162-.1.2-1.245.415-1.456.553a9.972,9.972,0,0,0-1.072,1.072,5.494,5.494,0,0,1-.729.723,6.093,6.093,0,0,1-1.1.121c-.232.135.218.494,0,.671s-.837-.377-.982-.1c-.394.733.2.176.543.733.477.764,1.22,1.673.111,2.237-.515.263-1.777-.415-2.2-.187-.788.429-.173.391-.346,1.124-.346,1.49-.308,2.116.916,2.513a2.1,2.1,0,0,0,2.475-.854c.567-.761.906-2.074,1.77-2.617a7.338,7.338,0,0,0,1.642-.232c.857.041.322-.08,1.054.491-.024-.017,2.832,2.6,2.019,2.6.46,0,.3-1.155.346-1.182a.574.574,0,0,1,.512.169c-.3-.09-3.143-3.112-1.76-3.063.19,0,1.677,1.687,2.147,1.957a.58.58,0,0,1,.031-.111.582.582,0,0,0-.031.111c-.463-.273,1.241,2.6,1.241,1.929,0-.591-.768,1.466.239.909a1.214,1.214,0,0,0-.073-.443.515.515,0,0,0,.28,0c.145-.183-.3-.159-.214-.252s.574.176.508-.207c-.083-.467-.346,0-.508-.187.055.062-.073-.927-.152-.892a2.6,2.6,0,0,0,.484.093c.266-.118,1.694-.107,2.04-.453-.09.09-.57-.764-.539-.93a5.625,5.625,0,0,1,.691-1.079c.162-.232.239-.768.577-.923.214-.1,1.169-.062,1.22.228a2.1,2.1,0,0,1-.532.325c-.017-.1.432.553.422.539s1.227-.325,1.245-.346c.073-.124-1.12-.055-.546-.667.135-.142,1.473-.643,1.566-.436.021.045-.94.951-.909,1.11.128.6,1.967.927,1.9,1.583-.083.885-1.137.574-1.756.564-.266,0-.474-.3-.729-.315a5.638,5.638,0,0,0-2.14.366c-1.037.284-2.161.812-.975,2.026.56.567,1.1.328,1.729.346a8.491,8.491,0,0,1,1.639-.162c.169.111-.366,1.6-.432,1.763l.207.1h0v0l-.2-.093c-.619,1.473-1.825,1.172-3.378.882-.415-.08-.743-.277-1.155-.346-.671-.09-.322-.636-1.2-.173-.294.156-.211.743-.242.757a5.773,5.773,0,0,1-3.371-1.162c-.584-.6.4-1.113-.038-1.729-.27-.38-2.109-.041-2.634.017a10.669,10.669,0,0,0-1.891.494c-.64.183-1.165.131-1.763.287-.508.135-.3-.079-.754.159.474-.249-1.013,1.106-.83.816-.225.346-.4.761-.612,1.124-.166.283-.121.653-.391,1.061-.176.266-.532.3-.733.512a7.181,7.181,0,0,0-1.3,2.092c-.346.878-.138,1.016-.169,1.784-.028.712-.252,1.473-.228,2.178a3.01,3.01,0,0,0,.75,1.691c.847,1.383,1.853,2.659,3.481,2.814a7.312,7.312,0,0,0,2.548-.346c.1-.028,1.2-.64,1.31-.494a10.09,10.09,0,0,0,.923.5c.142.069.086.418.273.5s.394-.2.546-.1c.864.546.529.073.972,1.068.083.221-.169.923-.166,1.037.017.9.346,1.037.875,1.936a6.185,6.185,0,0,1,.861,3.063c-.124.916-.8,1.7-.837,2.707-.066.674.892,2.258,1.037,2.959a23.01,23.01,0,0,0,1.072,3.222c.574,1.621.083,1.974,1.9,1.749a4.094,4.094,0,0,0,3.665-2.507,8.784,8.784,0,0,0,.325-1.4c.615-.906,1-.411,1.172-1.59.121-.84-.4-.837.052-1.642.366-.647,1.383-.743,1.756-1.328.806-1.207-.028-2.541-.259-3.772-.249-1.31.422-2.254,1.321-3.229.373-.4,4.813-5.082,3.433-5.594-.954-.346-2.009,1.006-3.094.315h0a8.847,8.847,0,0,0-.8-1.525,7.169,7.169,0,0,1-1.483-2.029c-.128-.346-1.926-5.283-1.984-5.262.1-.038.391,1.144.667,1.144a1.936,1.936,0,0,0,.245-.622,14.625,14.625,0,0,1,1.29,2.42c.494,1.016,1.131,1.912,1.618,2.97.228.487.176,1.57.515,1.936.456.5,1.435,0,2.123-.3a11.474,11.474,0,0,0,3.5-2.123c.086-.093,1.082-1.265,1.037-1.5s-1.556-2.005-1.362-1.988c-.387-.035-.871,1.134-1.635,1.061-.619-.055,0-.826-.37-.937-.166-.052-.29.439-.294.436-.346-.27-1.255-2.14-.785-2.4.283-.152,1.971,1.407,2.551,1.666.118.055.691.021.864.066.062,0,.294.373.539.453a7.508,7.508,0,0,0,2.116.131,2.61,2.61,0,0,1,1.459.287c-.086-.041,1.3,1.276,1.3.909a.968.968,0,0,1-.557.207c-.3,1.459,1.753.259,1.383.079.328.166,1.94,10.372,3.07,4.38.315-1.673.871-1.995,2.137-3.25.228-.228,1.729-1.608,2.092-1.411.812.446.691,2.693,1.131,3.049.9.747.691-1.656,1.307.933.2.85-.021,1.846.176,2.6.114.436,1.6,3.5,2.323,3.132.519-.266-.9-2.137-1.137-2.448-.3-.4-1.587-2.565-.425-2.959.346-.114,1.113.9,1.255,1.061.052.055.64,1.075.6,1.037.073.048.885-.733.93-.774,1.238-1.179.767-1.487.055-2.845-.346-.691-1.055-1.666.159-2.14.844-.346.55.083.923.474-.073-.076,3.274-1.729,3.62-2.161.214-.263,1.2-2.441,1.31-2.42-.111-.035-.443,0-.543-.073.194.138.64-.85-.173-.85,0,0,.691-.048.581.066.062-.069-1.037-1.545-1.016-1.594.1-.667.892-.691,1.3-.992.629-.487-1.653-.315-1.158-.073a10.211,10.211,0,0,1-.826-.764c0-.145,1.628-1.252,1.8-1.1.041.035-.415,1.037-.322,1.037,1.279.073.595-.768,1.625-.1-.477-.308.169.8.073.608,0,0,.474.1.557.377.069.218-.346.94-.142,1.269.086.135,1.2-.429,1.231-.477.346-.564-.346-1.037-.432-1.542-.156-1.065-.27-.017.124-.978a4.75,4.75,0,0,1,1.02-1.334h0c.494-.391.564.176,1.106-.055s.94-.878,1.265-1.286a6.714,6.714,0,0,0,1.4-2.838c.145-.588.522-1.3.2-1.808-.626-1-.743-.083-1.338-.045-.069,0,0-.484,0-.515a1.642,1.642,0,0,0-.315.3c.373-.086-.626-.823-.664-.588.055-.346,1.106-1.054,1.383-1.314.878-.819,1.324-1.445,2.52-1.615a12.35,12.35,0,0,1,2.859.173.886.886,0,0,1-.294.093,4.1,4.1,0,0,0,1.583-.214c-.577-.647,1.383-2.161,2.1-1.67-.093-.062-.059.8-.08.761.08.173,2.074-1.59,2.04-1.175-.062.605-1.749,2.012-2.323,2.51-.747.643-1.113.553-1.438,1.573a5.139,5.139,0,0,0,.346,3.236c-.076-.086,2.61-3.2,2.631-3.219-.249.249-.059-1.155,0-.951-.152-.453-.647-.366.052-1.2a4.8,4.8,0,0,1,1.065-.608.4.4,0,0,1,.083.384c-.162-.667,1.729-.055,1.673-.038.346-.09.819-.733,1.214-.961s1.9-.6,2.026-.723c1.01-.961-.557-.9-.774-1.618.083.277,1.438-.256,1.635-.373.283-.166-.1-.453.4-.726-.284.156,2.047,1.832,2.489,1.4a.5.5,0,0,0-.176-.239C298.909,164.932,299.275,164.358,299.2,164.3Z" transform="translate(-156.206 -148.065)" fill="none" stroke="#b2b2b2" stroke-miterlimit="10" stroke-width="1"/>
      <path id="Path_29870" data-name="Path 29870" d="M307.247,145.146c.346-.512-1.58-.228-1.141.156A1.148,1.148,0,0,0,307.247,145.146Z" transform="translate(-214.381 -142.008)" fill="none" stroke="#b2b2b2" stroke-miterlimit="10" stroke-width="1"/>
      <path id="Path_29871" data-name="Path 29871" d="M302.569,146.312c-.18.076-.363.145-.55.2-.242.273,1.227.228,1.321-.086C303.4,146.24,302.552,146.26,302.569,146.312Z" transform="translate(-211.732 -142.929)" fill="none" stroke="#b2b2b2" stroke-miterlimit="10" stroke-width="1"/>
      <path id="Path_29872" data-name="Path 29872" d="M302.5,143.693a3.028,3.028,0,0,0,.736-.287c-.156-.211-1.238.2-1.258.131A.643.643,0,0,0,302.5,143.693Z" transform="translate(-211.724 -141.011)" fill="none" stroke="#b2b2b2" stroke-miterlimit="10" stroke-width="1"/>
      <path id="Path_29873" data-name="Path 29873" d="M400.517,207.1c.252.622-.5,2.42-.107,2.925-.266-.346.6.038.605.038s-.346-1.037-.325-1.079c.311-.691.629-.37.733-.508.187-.256-.92-3.08-.764-3.181C400.223,205.584,400.382,206.78,400.517,207.1Z" transform="translate(-276.047 -181.546)" fill="none" stroke="#b2b2b2" stroke-miterlimit="10" stroke-width="1"/>
      <path id="Path_29874" data-name="Path 29874" d="M318.418,165.707a.968.968,0,0,0,.615-.156C319.289,165.061,317.882,165.617,318.418,165.707Z" transform="translate(-222.398 -155.409)" fill="none" stroke="#b2b2b2" stroke-miterlimit="10" stroke-width="1"/>
      <path id="Path_29875" data-name="Path 29875" d="M328.907,166.385c-.024-.207-.46.062-.308.145S328.931,166.6,328.907,166.385Z" transform="translate(-229.119 -156.035)" fill="none" stroke="#b2b2b2" stroke-miterlimit="10" stroke-width="1"/>
      <path id="Path_29876" data-name="Path 29876" d="M310.69,144.829l.346-.19c.114-.4-1.068.093-1.037.152A.934.934,0,0,0,310.69,144.829Z" transform="translate(-216.97 -141.757)" fill="none" stroke="#b2b2b2" stroke-miterlimit="10" stroke-width="1"/>
      <path id="Path_29877" data-name="Path 29877" d="M426.339,309.3c.024.156,1.037.989,1.162.885S426.315,309.142,426.339,309.3Z" transform="translate(-293.088 -249.581)" fill="none" stroke="#b2b2b2" stroke-miterlimit="10" stroke-width="1"/>
      <path id="Path_29878" data-name="Path 29878" d="M145.589,249.417c-.221-.418.048.833.152.6A4.581,4.581,0,0,1,145.589,249.417Z" transform="translate(-109.347 -210.354)" fill="none" stroke="#b2b2b2" stroke-miterlimit="10" stroke-width="1"/>
      <path id="Path_29879" data-name="Path 29879" d="M164.658,268.847c.3.066.394-.035.287-.3C164.734,268.356,164.561,268.747,164.658,268.847Z" transform="translate(-121.86 -222.894)" fill="none" stroke="#b2b2b2" stroke-miterlimit="10" stroke-width="1"/>
      <path id="Path_29880" data-name="Path 29880" d="M360.561,286.2c0-.118-.308-.062-.214.1S360.561,286.319,360.561,286.2Z" transform="translate(-249.9 -234.437)" fill="none" stroke="#b2b2b2" stroke-miterlimit="10" stroke-width="1"/>
      <path id="Path_29881" data-name="Path 29881" d="M361.548,291.643a1.037,1.037,0,0,0,.474,0c.211-.173-1.137-.4-1.1-.387a.346.346,0,0,1,.4-.3c-.346.235-3.43-.8-3.222-.073A8.237,8.237,0,0,0,361.548,291.643Z" transform="translate(-248.436 -237.368)" fill="none" stroke="#b2b2b2" stroke-miterlimit="10" stroke-width="1"/>
      <path id="Path_29882" data-name="Path 29882" d="M375.869,293.368c.3,0,.346-.041.131-.128a7.7,7.7,0,0,0-1.6.194C374.607,293.848,375.6,293.385,375.869,293.368Z" transform="translate(-259.106 -239.083)" fill="none" stroke="#b2b2b2" stroke-miterlimit="10" stroke-width="1"/>
      <path id="Path_29883" data-name="Path 29883" d="M370.663,293.077c-.114.284-.394-.1-.536.093-.3.4,1.013.387,1.127.114C371.323,293.125,370.715,292.949,370.663,293.077Z" transform="translate(-256.282 -238.947)" fill="none" stroke="#b2b2b2" stroke-miterlimit="10" stroke-width="1"/>
      <path id="Path_29884" data-name="Path 29884" d="M361.409,276.993c.892.916.46,1.7,1.936,1.781,1.224.066,1.3-.913,2.1-1.912a4.337,4.337,0,0,1-.526-1.162c.028-.477.595-.4.691-.723s-1.141-.543-1.207-.529c-.4.086-.2.792-.885.74-.021,0-1.2,1.352-1.207,1.362C362.4,276.34,360.786,276.368,361.409,276.993Z" transform="translate(-250.512 -226.788)" fill="none" stroke="#b2b2b2" stroke-miterlimit="10" stroke-width="1"/>
      <path id="Path_29885" data-name="Path 29885" d="M348.126,280.733c-.021.131.107.508.249.346S348.15,280.605,348.126,280.733Z" transform="translate(-241.914 -230.88)" fill="none" stroke="#b2b2b2" stroke-miterlimit="10" stroke-width="1"/>
      <path id="Path_29886" data-name="Path 29886" d="M349.806,283.89c-.021.062.107.325.19.245S349.871,283.693,349.806,283.89Z" transform="translate(-243.013 -232.928)" fill="none" stroke="#b2b2b2" stroke-miterlimit="10" stroke-width="1"/>
      <path id="Path_29887" data-name="Path 29887" d="M350.363,279.819c-.035-.546.273-.4.27-.754,0-.152-.5-.619-.508-.346a1.784,1.784,0,0,1,.252.308c-.1.263-1.321-1.59-1.383-1.66-.284-.322-2.738-2.213-2.849-1.953a27.874,27.874,0,0,0,2.144,3.367C348.545,279.138,350.474,281.554,350.363,279.819Z" transform="translate(-240.618 -227.404)" fill="none" stroke="#b2b2b2" stroke-miterlimit="10" stroke-width="1"/>
      <path id="Path_29888" data-name="Path 29888" d="M374.2,295.214c0-.346-.691-.163-.736-.221S374.2,295.539,374.2,295.214Z" transform="translate(-258.494 -240.227)" fill="none" stroke="#b2b2b2" stroke-miterlimit="10" stroke-width="1"/>
      <path id="Path_29889" data-name="Path 29889" d="M373.294,282.57c-.059.1.747,1.279.415,1.417.311-.128.035-1.431.346-1.279.584.287-.062,1.092.719.484-.415.322.021-2.15.346-1.452.041.093-1.77.57-1.317-.169.494-.809,1.594.114,2.026-.781-.259.543-1.335-.118-1.694.124C373.564,281.291,373.605,282.021,373.294,282.57Z" transform="translate(-258.381 -230.937)" fill="none" stroke="#b2b2b2" stroke-miterlimit="10" stroke-width="1"/>
      <path id="Path_29890" data-name="Path 29890" d="M384.065,286.331a5.735,5.735,0,0,0,1.037.287C385.562,286.618,383.85,285.626,384.065,286.331Z" transform="translate(-265.417 -234.397)" fill="none" stroke="#b2b2b2" stroke-miterlimit="10" stroke-width="1"/>
      <path id="Path_29891" data-name="Path 29891" d="M383.628,280.447c0-.871-.723.927-.059.8C384.022,281.152,383.628,280.43,383.628,280.447Z" transform="translate(-264.922 -230.556)" fill="none" stroke="#b2b2b2" stroke-miterlimit="10" stroke-width="1"/>
      <path id="Path_29892" data-name="Path 29892" d="M379.271,293.872c.207-.266.892-.3.982-.567.048-.152-1.055.346-1.155.346-.159.028-.615.366-.346.536A.543.543,0,0,0,379.271,293.872Z" transform="translate(-261.899 -239.107)" fill="none" stroke="#b2b2b2" stroke-miterlimit="10" stroke-width="1"/>
      <path id="Path_29893" data-name="Path 29893" d="M381.734,286.675c.045.207.391.325.484.145S381.678,286.436,381.734,286.675Z" transform="translate(-263.902 -234.717)" fill="none" stroke="#b2b2b2" stroke-miterlimit="10" stroke-width="1"/>
      <path id="Path_29894" data-name="Path 29894" d="M246.461,226.556c-.111.2.138,1.383.591.8C247.425,226.881,246.744,226.016,246.461,226.556Z" transform="translate(-175.382 -195.341)" fill="none" stroke="#b2b2b2" stroke-miterlimit="10" stroke-width="1"/>
      <path id="Path_29895" data-name="Path 29895" d="M252.432,230.845c.083-.021-.913-.09-.823.176a2.931,2.931,0,0,0,.871.557,6.128,6.128,0,0,1,.273-.691A.252.252,0,0,0,252.432,230.845Z" transform="translate(-178.764 -198.233)" fill="none" stroke="#b2b2b2" stroke-miterlimit="10" stroke-width="1"/>
      <path id="Path_29896" data-name="Path 29896" d="M371.776,161.88a3.876,3.876,0,0,0-3.876,3.876c0,1.936,3.575,6.493,3.575,6.493h.3s3.879-4.349,3.879-6.493a3.876,3.876,0,0,0-3.879-3.876Zm0,5.77a1.891,1.891,0,1,1,1.341-.554A1.895,1.895,0,0,1,371.776,167.65Z" transform="translate(-254.853 -153.138)" fill="#c8523b"/>
      <path id="Path_29897" data-name="Path 29897" d="M124.937,252.33a2.147,2.147,0,0,0-2.147,2.15c0,1.072,1.981,3.6,1.981,3.6h.166s2.15-2.42,2.15-3.6a2.147,2.147,0,0,0-2.15-2.15Zm0,3.2a1.037,1.037,0,1,1,1.037-1.037,1.037,1.037,0,0,1-1.037,1.037Z" transform="translate(-94.485 -212.317)" fill="#c8523b"/>
      <path id="Path_29898" data-name="Path 29898" d="M312.944,167.54a2.354,2.354,0,0,0-2.354,2.354c0,1.172,2.171,3.938,2.171,3.938h.183s2.351-2.638,2.351-3.938a2.351,2.351,0,0,0-2.351-2.354Zm0,3.5a1.151,1.151,0,1,1,1.148-1.148A1.151,1.151,0,0,1,312.944,171.042Z" transform="translate(-217.357 -156.841)" fill="#c8523b"/>
      <path id="Path_29899" data-name="Path 29899" d="M151.33,294.31a1.76,1.76,0,0,0-1.76,1.763c0,.875,1.621,2.946,1.621,2.946h.138s1.76-1.974,1.76-2.946a1.76,1.76,0,0,0-1.76-1.763Zm0,2.621a.861.861,0,1,1,.861-.857A.861.861,0,0,1,151.33,296.931Z" transform="translate(-112.006 -239.783)" fill="#c8523b"/>
      <path id="Path_29900" data-name="Path 29900" d="M361.044,223.84a2.351,2.351,0,0,0-2.354,2.351c0,1.175,2.171,3.941,2.171,3.941h.183s2.351-2.641,2.351-3.941a2.351,2.351,0,0,0-2.351-2.351Zm0,3.5a.477.477,0,1,1,0,.01Z" transform="translate(-248.827 -193.677)" fill="#c8523b"/>
      <path id="Path_29901" data-name="Path 29901" d="M392.974,293.13a2.354,2.354,0,0,0-2.354,2.354c0,1.175,2.171,3.941,2.171,3.941h.183s2.351-2.641,2.351-3.941a2.351,2.351,0,0,0-2.351-2.354Zm0,3.5a1.148,1.148,0,1,1,1.148-1.148A1.148,1.148,0,0,1,392.974,296.632Z" transform="translate(-269.718 -239.011)" fill="#c8523b"/>
      <path id="Path_29902" data-name="Path 29902" d="M121.891,213.62a2.354,2.354,0,0,0-2.351,2.354c0,1.172,2.171,3.941,2.171,3.941h.18s2.354-2.641,2.354-3.941a2.354,2.354,0,0,0-2.354-2.354Zm0,3.5a1.148,1.148,0,1,1,.814-.335,1.148,1.148,0,0,1-.814.335Z" transform="translate(-92.359 -186.99)" fill="#c8523b"/>
      <path id="Path_29903" data-name="Path 29903" d="M256.191,163.44a2.351,2.351,0,0,0-2.351,2.351c0,1.175,2.171,3.941,2.171,3.941h.18s2.354-2.641,2.354-3.941a2.351,2.351,0,0,0-2.354-2.351Zm0,3.5a1.151,1.151,0,1,1,1.151-1.151A1.151,1.151,0,0,1,256.191,166.942Z" transform="translate(-180.227 -154.159)" fill="#c8523b"/>
      <path id="Path_29904" data-name="Path 29904" d="M73.814,168.24a2.354,2.354,0,0,0-2.354,2.354c0,1.172,2.171,3.941,2.171,3.941h.183s2.351-2.641,2.351-3.941a2.351,2.351,0,0,0-2.351-2.354Zm0,3.5a1.148,1.148,0,1,1,1.148-1.148A1.148,1.148,0,0,1,73.814,171.742Z" transform="translate(-60.901 -157.299)" fill="#c8523b"/>
      <path id="Path_29905" data-name="Path 29905" d="M53,212.85c0-38,31.116-68.8,69.492-68.8s69.492,30.8,69.492,68.8" transform="translate(-48.824 -141.472)" fill="none" stroke="#263238" stroke-miterlimit="10" stroke-width="1" stroke-dasharray="3"/>
    </g>
    <g id="freepik--House--inject-43" transform="translate(137.101 149.242)">
      <rect id="Rectangle_17828" data-name="Rectangle 17828" width="33.619" height="26.863" transform="translate(0.882 3.229)" fill="#fff" stroke="#263238" stroke-miterlimit="10" stroke-width="1"/>
      <rect id="Rectangle_17829" data-name="Rectangle 17829" width="33.619" height="4.954" transform="translate(0.882 16.588)" fill="#263238" stroke="#263238" stroke-miterlimit="10" stroke-width="1"/>
      <rect id="Rectangle_17830" data-name="Rectangle 17830" width="4.239" height="9.473" transform="translate(15.572 20.623)" fill="#263238" stroke="#263238" stroke-miterlimit="10" stroke-width="1"/>
      <rect id="Rectangle_17831" data-name="Rectangle 17831" width="3.316" height="5.418" transform="translate(16.031 21.083)" fill="#fff" stroke="#263238" stroke-miterlimit="10" stroke-width="1"/>
      <rect id="Rectangle_17832" data-name="Rectangle 17832" width="35.379" height="11.744" transform="translate(0 2.054)" fill="#57b8ce" stroke="#263238" stroke-miterlimit="10" stroke-width="1"/>
      <path id="Path_29906" data-name="Path 29906" d="M414.482,347.741v-8.287l-7.855-5.953-7.267,5.953v8.287" transform="translate(-389.23 -333.5)" fill="#fff" stroke="#263238" stroke-miterlimit="10" stroke-width="1"/>
      <rect id="Rectangle_17833" data-name="Rectangle 17833" width="9.981" height="6.164" transform="translate(12.699 7.489)" fill="#fff" stroke="#263238" stroke-miterlimit="10" stroke-width="1"/>
      <rect id="Rectangle_17834" data-name="Rectangle 17834" width="7.226" height="6.164" transform="translate(14.078 7.489)" fill="#fff" stroke="#263238" stroke-miterlimit="10" stroke-width="1"/>
      <rect id="Rectangle_17835" data-name="Rectangle 17835" width="3.962" height="6.164" transform="translate(15.71 7.489)" fill="#fff" stroke="#263238" stroke-miterlimit="10" stroke-width="1"/>
      <line id="Line_365" data-name="Line 365" y2="6.071" transform="translate(17.511 7.561)" fill="#fff" stroke="#263238" stroke-miterlimit="10" stroke-width="1"/>
      <line id="Line_366" data-name="Line 366" x2="9.826" transform="translate(12.795 8.799)" fill="#fff" stroke="#263238" stroke-miterlimit="10" stroke-width="1"/>
      <line id="Line_367" data-name="Line 367" x2="9.826" transform="translate(12.795 10.012)" fill="#fff" stroke="#263238" stroke-miterlimit="10" stroke-width="1"/>
      <line id="Line_368" data-name="Line 368" x2="9.826" transform="translate(12.795 11.222)" fill="#fff" stroke="#263238" stroke-miterlimit="10" stroke-width="1"/>
      <line id="Line_369" data-name="Line 369" x2="9.826" transform="translate(12.795 12.436)" fill="#fff" stroke="#263238" stroke-miterlimit="10" stroke-width="1"/>
      <rect id="Rectangle_17836" data-name="Rectangle 17836" width="2.119" height="9.473" transform="translate(20.675 20.623)" fill="#fff" stroke="#263238" stroke-miterlimit="10" stroke-width="1"/>
      <line id="Line_370" data-name="Line 370" y2="9.335" transform="translate(21.736 20.737)" fill="none" stroke="#263238" stroke-miterlimit="10" stroke-width="1"/>
      <line id="Line_371" data-name="Line 371" x2="1.995" transform="translate(20.73 23.793)" fill="none" stroke="#263238" stroke-miterlimit="10" stroke-width="1"/>
      <line id="Line_372" data-name="Line 372" x2="1.995" transform="translate(20.73 27.375)" fill="none" stroke="#263238" stroke-miterlimit="10" stroke-width="1"/>
      <rect id="Rectangle_17837" data-name="Rectangle 17837" width="2.119" height="9.473" transform="translate(12.377 20.623)" fill="#fff" stroke="#263238" stroke-miterlimit="10" stroke-width="1"/>
      <line id="Line_373" data-name="Line 373" y2="9.335" transform="translate(13.439 20.737)" fill="none" stroke="#263238" stroke-miterlimit="10" stroke-width="1"/>
      <line id="Line_374" data-name="Line 374" x2="1.995" transform="translate(12.432 23.793)" fill="none" stroke="#263238" stroke-miterlimit="10" stroke-width="1"/>
      <line id="Line_375" data-name="Line 375" x2="1.995" transform="translate(12.432 27.375)" fill="none" stroke="#263238" stroke-miterlimit="10" stroke-width="1"/>
      <rect id="Rectangle_17838" data-name="Rectangle 17838" width="5.3" height="7.26" transform="translate(26.611 20.509)" fill="#fff" stroke="#263238" stroke-miterlimit="10" stroke-width="1"/>
      <rect id="Rectangle_17839" data-name="Rectangle 17839" width="0.923" height="7.26" transform="translate(28.799 20.509)" fill="#fff" stroke="#263238" stroke-miterlimit="10" stroke-width="1"/>
      <line id="Line_376" data-name="Line 376" x2="5.151" transform="translate(26.638 22.324)" fill="none" stroke="#263238" stroke-miterlimit="10" stroke-width="1"/>
      <line id="Line_377" data-name="Line 377" x2="5.151" transform="translate(26.638 24.177)" fill="none" stroke="#263238" stroke-miterlimit="10" stroke-width="1"/>
      <line id="Line_378" data-name="Line 378" x2="5.151" transform="translate(26.638 26.03)" fill="none" stroke="#263238" stroke-miterlimit="10" stroke-width="1"/>
      <rect id="Rectangle_17840" data-name="Rectangle 17840" width="5.3" height="7.26" transform="translate(2.984 20.509)" fill="#fff" stroke="#263238" stroke-miterlimit="10" stroke-width="1"/>
      <rect id="Rectangle_17841" data-name="Rectangle 17841" width="0.923" height="7.26" transform="translate(5.176 20.509)" fill="#fff" stroke="#263238" stroke-miterlimit="10" stroke-width="1"/>
      <line id="Line_379" data-name="Line 379" x2="5.151" transform="translate(3.015 22.324)" fill="none" stroke="#263238" stroke-miterlimit="10" stroke-width="1"/>
      <line id="Line_380" data-name="Line 380" x2="5.151" transform="translate(3.015 24.177)" fill="none" stroke="#263238" stroke-miterlimit="10" stroke-width="1"/>
      <line id="Line_381" data-name="Line 381" x2="5.151" transform="translate(3.015 26.03)" fill="none" stroke="#263238" stroke-miterlimit="10" stroke-width="1"/>
      <path id="Path_29907" data-name="Path 29907" d="M395.36,340.525l8.65-7.025,8.982,6.794" transform="translate(-386.613 -333.5)" fill="none" stroke="#263238" stroke-miterlimit="10" stroke-width="2"/>
      <rect id="Rectangle_17842" data-name="Rectangle 17842" width="14.51" height="1.404" transform="translate(10.438 28.689)" fill="#fff" stroke="#263238" stroke-miterlimit="10" stroke-width="1"/>
      <rect id="Rectangle_17843" data-name="Rectangle 17843" width="14.51" height="0.799" transform="translate(10.438 29.297)" fill="#fff" stroke="#263238" stroke-miterlimit="10" stroke-width="1"/>
      <rect id="Rectangle_17844" data-name="Rectangle 17844" width="1.497" height="13.158" transform="translate(10.13 16.934)" fill="#fff" stroke="#263238" stroke-miterlimit="10" stroke-width="1"/>
      <rect id="Rectangle_17845" data-name="Rectangle 17845" width="1.497" height="13.158" transform="translate(24.191 16.934)" fill="#fff" stroke="#263238" stroke-miterlimit="10" stroke-width="1"/>
      <rect id="Rectangle_17846" data-name="Rectangle 17846" width="35.379" height="3.378" transform="translate(0 16)" fill="#57b8ce" stroke="#263238" stroke-miterlimit="10" stroke-width="1"/>
    </g>
    <g id="freepik--Store--inject-43" transform="translate(19.03 151.199)">
      <rect id="Rectangle_17847" data-name="Rectangle 17847" width="33.149" height="28.049" transform="translate(1.348 0.09)" fill="#57b8ce" stroke="#263238" stroke-linecap="round" stroke-linejoin="round" stroke-width="1"/>
      <rect id="Rectangle_17848" data-name="Rectangle 17848" width="33.149" height="9.743" transform="translate(1.348 18.396)" fill="#263238" stroke="#263238" stroke-linecap="round" stroke-linejoin="round" stroke-width="1"/>
      <rect id="Rectangle_17849" data-name="Rectangle 17849" width="10.559" height="20.336" transform="translate(12.643 7.8)" fill="#fff" stroke="#263238" stroke-linecap="round" stroke-linejoin="round" stroke-width="1"/>
      <rect id="Rectangle_17850" data-name="Rectangle 17850" width="8.695" height="9.549" transform="translate(13.39 7.8)" fill="#fff" stroke="#263238" stroke-linecap="round" stroke-linejoin="round" stroke-width="1"/>
      <rect id="Rectangle_17851" data-name="Rectangle 17851" width="8.695" height="9.549" transform="translate(13.39 17.978)" fill="#fff" stroke="#263238" stroke-linecap="round" stroke-linejoin="round" stroke-width="1"/>
      <path id="Path_29908" data-name="Path 29908" d="M92.138,389.4a.664.664,0,1,1-.664-.664.664.664,0,0,1,.664.664Z" transform="translate(-69.285 -371.599)" fill="#fff" stroke="#263238" stroke-linecap="round" stroke-linejoin="round" stroke-width="1"/>
      <line id="Line_382" data-name="Line 382" x1="3.883" y2="3.945" transform="translate(18.061 10.866)" fill="none" stroke="#263238" stroke-linecap="round" stroke-linejoin="round" stroke-width="0.5"/>
      <line id="Line_383" data-name="Line 383" x1="3.886" y2="3.941" transform="translate(15.202 11.914)" fill="none" stroke="#263238" stroke-linecap="round" stroke-linejoin="round" stroke-width="0.5"/>
      <line id="Line_384" data-name="Line 384" x1="3.883" y2="3.941" transform="translate(18.061 20.07)" fill="none" stroke="#263238" stroke-linecap="round" stroke-linejoin="round" stroke-width="0.5"/>
      <line id="Line_385" data-name="Line 385" x1="3.886" y2="3.945" transform="translate(15.202 21.114)" fill="none" stroke="#263238" stroke-linecap="round" stroke-linejoin="round" stroke-width="0.5"/>
      <rect id="Rectangle_17852" data-name="Rectangle 17852" width="8.294" height="12.059" transform="translate(25.432 7.8)" fill="#fff" stroke="#263238" stroke-linecap="round" stroke-linejoin="round" stroke-width="1"/>
      <line id="Line_386" data-name="Line 386" x1="3.883" y2="3.945" transform="translate(29.145 11.146)" fill="none" stroke="#263238" stroke-linecap="round" stroke-linejoin="round" stroke-width="0.5"/>
      <line id="Line_387" data-name="Line 387" x1="3.886" y2="3.941" transform="translate(26.286 12.194)" fill="none" stroke="#263238" stroke-linecap="round" stroke-linejoin="round" stroke-width="0.5"/>
      <rect id="Rectangle_17853" data-name="Rectangle 17853" width="8.294" height="12.059" transform="translate(1.94 7.8)" fill="#fff" stroke="#263238" stroke-linecap="round" stroke-linejoin="round" stroke-width="1"/>
      <line id="Line_388" data-name="Line 388" x1="3.886" y2="3.945" transform="translate(5.303 11.146)" fill="none" stroke="#263238" stroke-linecap="round" stroke-linejoin="round" stroke-width="0.5"/>
      <line id="Line_389" data-name="Line 389" x1="3.883" y2="3.941" transform="translate(2.448 12.194)" fill="none" stroke="#263238" stroke-linecap="round" stroke-linejoin="round" stroke-width="0.5"/>
      <path id="Path_29909" data-name="Path 29909" d="M28.55,352.62h3.644v3.139a1.729,1.729,0,0,1-1.729,1.729h-.159a1.729,1.729,0,0,1-1.729-1.729V352.62Z" transform="translate(-28.55 -347.966)" fill="#57b8ce"/>
      <g id="Group_42585" data-name="Group 42585" transform="translate(0 4.654)" clip-path="url(#clip-path)">
        <path id="Path_29910" data-name="Path 29910" d="M28.55,352.62h3.644v3.139a1.729,1.729,0,0,1-1.729,1.729h-.159a1.729,1.729,0,0,1-1.729-1.729V352.62Z" transform="translate(-28.55 -352.62)" opacity="0.3"/>
      </g>
      <path id="Path_29912" data-name="Path 29912" d="M28.55,352.62h3.644v3.139a1.729,1.729,0,0,1-1.729,1.729h-.159a1.729,1.729,0,0,1-1.729-1.729V352.62Z" transform="translate(-28.55 -347.966)" fill="none" stroke="#263238" stroke-linecap="round" stroke-linejoin="round" stroke-width="1"/>
      <path id="Path_29913" data-name="Path 29913" d="M38.86,352.62H42.5v3.139a1.729,1.729,0,0,1-1.729,1.729h-.159a1.729,1.729,0,0,1-1.729-1.729V352.62Z" transform="translate(-35.296 -347.966)" fill="#b2b2b2" stroke="#263238" stroke-linecap="round" stroke-linejoin="round" stroke-width="1"/>
      <path id="Path_29914" data-name="Path 29914" d="M49.16,352.62H52.8v3.139a1.729,1.729,0,0,1-1.729,1.729H50.9a1.729,1.729,0,0,1-1.729-1.729V352.62Z" transform="translate(-42.035 -347.966)" fill="#57b8ce"/>
      <g id="Group_42586" data-name="Group 42586" transform="translate(7.125 4.654)" clip-path="url(#clip-path-2)">
        <path id="Path_29915" data-name="Path 29915" d="M49.16,352.62H52.8v3.139a1.729,1.729,0,0,1-1.729,1.729H50.9a1.729,1.729,0,0,1-1.729-1.729V352.62Z" transform="translate(-49.16 -352.62)" opacity="0.3"/>
      </g>
      <path id="Path_29917" data-name="Path 29917" d="M49.16,352.62H52.8v3.139a1.729,1.729,0,0,1-1.729,1.729H50.9a1.729,1.729,0,0,1-1.729-1.729V352.62Z" transform="translate(-42.035 -347.966)" fill="none" stroke="#263238" stroke-linecap="round" stroke-linejoin="round" stroke-width="1"/>
      <path id="Path_29918" data-name="Path 29918" d="M59.47,352.62h3.641v3.139a1.729,1.729,0,0,1-1.729,1.729h-.173a1.729,1.729,0,0,1-1.729-1.729V352.62Z" transform="translate(-48.78 -347.966)" fill="#b2b2b2" stroke="#263238" stroke-linecap="round" stroke-linejoin="round" stroke-width="1"/>
      <path id="Path_29919" data-name="Path 29919" d="M69.77,352.62h3.644v3.139a1.729,1.729,0,0,1-1.729,1.729h-.159a1.729,1.729,0,0,1-1.729-1.729V352.62Z" transform="translate(-55.519 -347.966)" fill="#57b8ce"/>
      <g id="Group_42587" data-name="Group 42587" transform="translate(14.251 4.654)" clip-path="url(#clip-path-3)">
        <path id="Path_29920" data-name="Path 29920" d="M69.77,352.62h3.644v3.139a1.729,1.729,0,0,1-1.729,1.729h-.159a1.729,1.729,0,0,1-1.729-1.729V352.62Z" transform="translate(-69.77 -352.62)" opacity="0.3"/>
      </g>
      <path id="Path_29922" data-name="Path 29922" d="M69.77,352.62h3.644v3.139a1.729,1.729,0,0,1-1.729,1.729h-.159a1.729,1.729,0,0,1-1.729-1.729V352.62Z" transform="translate(-55.519 -347.966)" fill="none" stroke="#263238" stroke-linecap="round" stroke-linejoin="round" stroke-width="1"/>
      <path id="Path_29923" data-name="Path 29923" d="M80.07,352.62h3.644v3.139a1.729,1.729,0,0,1-1.729,1.729h-.159a1.729,1.729,0,0,1-1.729-1.729V352.62Z" transform="translate(-62.258 -347.966)" fill="#b2b2b2" stroke="#263238" stroke-linecap="round" stroke-linejoin="round" stroke-width="1"/>
      <path id="Path_29924" data-name="Path 29924" d="M90.38,352.62h3.644v3.139a1.729,1.729,0,0,1-1.729,1.729h-.159a1.729,1.729,0,0,1-1.729-1.729V352.62Z" transform="translate(-69.004 -347.966)" fill="#57b8ce"/>
      <g id="Group_42588" data-name="Group 42588" transform="translate(21.376 4.654)" clip-path="url(#clip-path-4)">
        <path id="Path_29925" data-name="Path 29925" d="M90.38,352.62h3.644v3.139a1.729,1.729,0,0,1-1.729,1.729h-.159a1.729,1.729,0,0,1-1.729-1.729V352.62Z" transform="translate(-90.38 -352.62)" opacity="0.3"/>
      </g>
      <path id="Path_29927" data-name="Path 29927" d="M90.38,352.62h3.644v3.139a1.729,1.729,0,0,1-1.729,1.729h-.159a1.729,1.729,0,0,1-1.729-1.729V352.62Z" transform="translate(-69.004 -347.966)" fill="none" stroke="#263238" stroke-linecap="round" stroke-linejoin="round" stroke-width="1"/>
      <path id="Path_29928" data-name="Path 29928" d="M100.68,352.62h3.644v3.143a1.729,1.729,0,0,1-1.729,1.729h-.159a1.729,1.729,0,0,1-1.729-1.729V352.62Z" transform="translate(-75.743 -347.966)" fill="#b2b2b2" stroke="#263238" stroke-linecap="round" stroke-linejoin="round" stroke-width="1"/>
      <path id="Path_29929" data-name="Path 29929" d="M111,352.62h3.644v3.143a1.729,1.729,0,0,1-1.729,1.729h-.187A1.729,1.729,0,0,1,111,355.763V352.62Z" transform="translate(-82.495 -347.966)" fill="#57b8ce"/>
      <g id="Group_42589" data-name="Group 42589" transform="translate(28.505 4.654)" clip-path="url(#clip-path-5)">
        <path id="Path_29930" data-name="Path 29930" d="M111,352.62h3.644v3.143a1.729,1.729,0,0,1-1.729,1.729h-.187A1.729,1.729,0,0,1,111,355.763V352.62Z" transform="translate(-111 -352.62)" opacity="0.3"/>
      </g>
      <path id="Path_29932" data-name="Path 29932" d="M111,352.62h3.644v3.143a1.729,1.729,0,0,1-1.729,1.729h-.187A1.729,1.729,0,0,1,111,355.763V352.62Z" transform="translate(-82.495 -347.966)" fill="none" stroke="#263238" stroke-linecap="round" stroke-linejoin="round" stroke-width="1"/>
      <path id="Path_29933" data-name="Path 29933" d="M121.29,352.613h3.644v3.139a1.729,1.729,0,0,1-1.729,1.729h-.159a1.729,1.729,0,0,1-1.729-1.729V352.61Z" transform="translate(-89.227 -347.96)" fill="#b2b2b2" stroke="#263238" stroke-linecap="round" stroke-linejoin="round" stroke-width="1"/>
      <rect id="Rectangle_17854" data-name="Rectangle 17854" width="3.644" height="4.882" transform="translate(0 0)" fill="#57b8ce" stroke="#263238" stroke-linecap="round" stroke-linejoin="round" stroke-width="1"/>
      <rect id="Rectangle_17855" data-name="Rectangle 17855" width="3.644" height="4.882" transform="translate(3.564 0)" fill="#fff" stroke="#263238" stroke-linecap="round" stroke-linejoin="round" stroke-width="1"/>
      <rect id="Rectangle_17856" data-name="Rectangle 17856" width="3.644" height="4.882" transform="translate(7.125 0)" fill="#57b8ce" stroke="#263238" stroke-linecap="round" stroke-linejoin="round" stroke-width="1"/>
      <rect id="Rectangle_17857" data-name="Rectangle 17857" width="3.644" height="4.882" transform="translate(10.69 0)" fill="#fff" stroke="#263238" stroke-linecap="round" stroke-linejoin="round" stroke-width="1"/>
      <rect id="Rectangle_17858" data-name="Rectangle 17858" width="3.644" height="4.882" transform="translate(14.251 0)" fill="#57b8ce" stroke="#263238" stroke-linecap="round" stroke-linejoin="round" stroke-width="1"/>
      <rect id="Rectangle_17859" data-name="Rectangle 17859" width="3.644" height="4.882" transform="translate(17.812 0)" fill="#fff" stroke="#263238" stroke-linecap="round" stroke-linejoin="round" stroke-width="1"/>
      <rect id="Rectangle_17860" data-name="Rectangle 17860" width="3.644" height="4.882" transform="translate(21.376 0)" fill="#57b8ce" stroke="#263238" stroke-linecap="round" stroke-linejoin="round" stroke-width="1"/>
      <rect id="Rectangle_17861" data-name="Rectangle 17861" width="3.644" height="4.882" transform="translate(24.937 0)" fill="#fff" stroke="#263238" stroke-linecap="round" stroke-linejoin="round" stroke-width="1"/>
      <rect id="Rectangle_17862" data-name="Rectangle 17862" width="3.644" height="4.882" transform="translate(28.502 0)" fill="#57b8ce" stroke="#263238" stroke-linecap="round" stroke-linejoin="round" stroke-width="1"/>
      <rect id="Rectangle_17863" data-name="Rectangle 17863" width="3.644" height="4.882" transform="translate(32.063 0)" fill="#fff" stroke="#263238" stroke-linecap="round" stroke-linejoin="round" stroke-width="1"/>
    </g>
    <g id="freepik--Airplane--inject-43" transform="translate(86.06 56.31)">
      <path id="Path_29934" data-name="Path 29934" d="M245.393,77.412a1.072,1.072,0,0,0,1.013-1.075h0a1.3,1.3,0,0,0-1.248-1.279l-5.642-.162H239.4l-2.42-3.157.882-.066a.539.539,0,0,0,.512-.494.529.529,0,0,0-.546-.553l-1.642.066-1.8-2.368,1.227-.086a.525.525,0,0,0,.5-.526h0a.311.311,0,0,0-.235-.532l-2.285.09-1.2-1.573a2.472,2.472,0,0,0-1.867-.975l-.588-.021,2.614,5.507s1.729,3.52.4,5.048l-6.368.346H226.5l-2.555-3.336-1.511-.152,1.234,3.945-.691.111a.062.062,0,0,0,0,.124l.771.187-1.293,4.028,1.67-.086,2.22-3.305.145.035,5.843.252c.757.256,1.877.875,1.48,2.251a90.43,90.43,0,0,1-3.8,8.4l.985-.162a2.572,2.572,0,0,0,1.618-.965l1.141-1.473,1.884-.135a.543.543,0,0,0,.477-.5.522.522,0,0,0-.546-.55l-.961.038,1.677-2.168,1.884-.135a.539.539,0,0,0,.512-.494.529.529,0,0,0-.546-.553l-.965.038,2.548-3.288Z" transform="translate(-222.43 -64.7)" fill="#263238"/>
    </g>
    <g id="freepik--Box--inject-43" transform="translate(47.422 90.904)">
      <rect id="Rectangle_17864" data-name="Rectangle 17864" width="47.998" height="31.126" transform="translate(24.716 36.388)" fill="#57b8ce" stroke="#263238" stroke-linecap="round" stroke-linejoin="round" stroke-width="1"/>
      <path id="Path_29949" data-name="Path 29949" d="M230.158,242.3h-48l7.855-14.645h48Z" transform="translate(-157.444 -205.907)" fill="#57b8ce" stroke="#263238" stroke-linecap="round" stroke-linejoin="round" stroke-width="1"/>
      <line id="Line_390" data-name="Line 390" x2="0.346" transform="translate(28.906 28.889)" fill="none" stroke="#263238" stroke-miterlimit="10" stroke-width="1"/>
      <line id="Line_391" data-name="Line 391" x2="46.145" transform="translate(29.933 28.889)" fill="none" stroke="#263238" stroke-miterlimit="10" stroke-width="1" stroke-dasharray="1.977 1.977"/>
      <line id="Line_392" data-name="Line 392" x2="0.346" transform="translate(76.42 28.889)" fill="none" stroke="#263238" stroke-miterlimit="10" stroke-width="1"/>
      <path id="Path_29950" data-name="Path 29950" d="M328.845,227.65v30.625l-7.855,15.15V242.3Z" transform="translate(-248.276 -205.907)" fill="#57b8ce"/>
      <g id="Group_42590" data-name="Group 42590" transform="translate(72.714 21.743)" clip-path="url(#clip-path-6)">
        <path id="Path_29951" data-name="Path 29951" d="M328.845,227.65v30.625l-7.855,15.15V242.3Z" transform="translate(-320.99 -227.65)" opacity="0.2"/>
      </g>
      <path id="Path_29953" data-name="Path 29953" d="M328.845,227.65v30.625l-7.855,15.15V242.3Z" transform="translate(-248.276 -205.907)" fill="none" stroke="#263238" stroke-linecap="round" stroke-linejoin="round" stroke-width="1"/>
      <path id="Path_29954" data-name="Path 29954" d="M238.58,242.3h6.859l7.374-14.645h-6.856Z" transform="translate(-194.358 -205.907)" fill="#fff" stroke="#263238" stroke-miterlimit="10" stroke-width="1"/>
      <path id="Path_29955" data-name="Path 29955" d="M245.488,283l-3.367-2.43L238.58,283V270.01h6.908Z" transform="translate(-194.358 -233.622)" fill="#fff" stroke="#263238" stroke-miterlimit="10" stroke-width="1"/>
      <line id="Line_393" data-name="Line 393" x1="2.268" transform="translate(19.994 22.013)" fill="none" stroke="#263238" stroke-miterlimit="10" stroke-width="1"/>
      <line id="Line_394" data-name="Line 394" x1="6.801" transform="translate(24.004 22.013)" fill="none" stroke="#263238" stroke-miterlimit="10" stroke-width="1"/>
      <line id="Line_395" data-name="Line 395" x1="10.808" transform="translate(13.196 36.136)" fill="none" stroke="#263238" stroke-miterlimit="10" stroke-width="1"/>
      <line id="Line_396" data-name="Line 396" x1="1.566" transform="translate(13.196 50.082)" fill="none" stroke="#263238" stroke-miterlimit="10" stroke-width="1"/>
      <line id="Line_397" data-name="Line 397" x1="7.495" transform="translate(16.509 50.082)" fill="none" stroke="#263238" stroke-miterlimit="10" stroke-width="1"/>
      <line id="Line_398" data-name="Line 398" x1="5.231" transform="translate(18.773 42.238)" fill="none" stroke="#263238" stroke-miterlimit="10" stroke-width="1"/>
      <line id="Line_399" data-name="Line 399" x1="5.231" transform="translate(23.831 26.372)" fill="none" stroke="#263238" stroke-miterlimit="10" stroke-width="1"/>
      <line id="Line_400" data-name="Line 400" x1="5.231" transform="translate(18.773 61.588)" fill="none" stroke="#263238" stroke-miterlimit="10" stroke-width="1"/>
    </g>
    <g id="freepik--Floor--inject-43" transform="translate(14 179.338)">
      <line id="Line_401" data-name="Line 401" x2="162.147" fill="none" stroke="#263238" stroke-miterlimit="10" stroke-width="1"/>
    </g>
  </g>
</svg>
