<svg xmlns="http://www.w3.org/2000/svg" width="211.329" height="124.962" viewBox="0 0 211.329 124.962">
  <g id="Free_shipping-cuate" data-name="Free shipping-cuate" transform="translate(-29.4 -44.81)">
    <g id="freepik--background-complete--inject-44" transform="translate(42.707 44.81)">
      <path id="Path_29608" data-name="Path 29608" d="M518.966,86.472a41.453,41.453,0,0,1-7.957,24.488h0a41.656,41.656,0,1,1-33.693-66.15c1.141,0,2.274.043,3.384.135a41.4,41.4,0,0,1,18.224,5.9,41.72,41.72,0,0,1,20.048,35.61Z" transform="translate(-323.968 -44.81)" fill="#ebebeb"/>
      <path id="Path_29609" data-name="Path 29609" d="M502.319,106.139c-.523,1.4.351,1.458.409,2.043s0,1.689-1.692,3.384-4.492,1.341-5.074,2.043-1.575,3.674-2.975,4.667-1.634.406-3.618.815-3.5,2.975-4.083,4.2.117,3.268-1.283,3.326-2.043-2.975-3.326-4.615a10.939,10.939,0,0,1-2.1-5.015c-.409-1.923.234-5.95,0-7.526s-4.434-4.375-5.95-6.3-3.621-5.772-3.5-7.055a5.231,5.231,0,0,1,1.748-3.209c.7-.526.409-.815.526-1.283s.7-.585.818-1.166-.351-2.335-.923-2.628-.991.7-1.341.526-1.4-1.4-1.809-1.517-.289.76-.874-.351-.886-3.907-1.345-4.375-.818.818-1.926,0-1.575-2.391-2.04-2.624-1.111.058-1.591-.874.422-2.628,0-2.461-1.326,1.517-1.56.234,1.166-5.6.923-7.932a9.289,9.289,0,0,1,2.218-6.769s.231-1.283.465-2.1,5.252-4.086,5.846-5.018a4.487,4.487,0,0,0,.412-1.658,41.453,41.453,0,0,1,24.663-8.083c1.141,0,2.274.043,3.384.135.037.052.077.1.117.154a4.874,4.874,0,0,0,2.529,1.6c1.48.545,1.825,1.231,1.517,1.828a1.462,1.462,0,0,1-1.4.738c-.581.04-1.129-.274-1.751.117s-1.231,2.489-2.061,2.606-2.255-1.868-2.569-2.461.7-1.828.225-2.409-1.311-.468-2.634-.585-4.4.391-4.28.9,4.51-.08,4.615.923-3.228,2.723-3.809,2.566S485.867,49.8,485,49.669s-1.538.585-2.092.661-1.172-.582-1.991-.428-1.012.855-1.44,1.129-1.437.271-1.554.892,1.283.975,1.634,1.363-.431,1.711-.08,1.981,2.529-1.631,3.077-2.1,1.009-2.489,2.178-2.461,1.554,2.021,1.945,2.215,1.231-.468,2.529-.194,2.175,3.077,2.409,3.929.778,1.711.308,2.061-2.566-.234-2.837-.778,1.4-1.363,1.283-1.557a1.669,1.669,0,0,0-1.6-.163c-.508.3-.738.941-1.283,1.1s-1.981-1.48-2.372-1.012.391,1.944.778,2.3,1.828.542,1.945.923-.972,1.231-2.3,1.166-2.409-1.089-2.917-.662-.234,1.557-.585,1.945-2.255.117-3.187,1.129-1.36,2.526-2.3,3.384-1.36-.231-2.606.975-1.437,3.889-1.477,4.821,0,1.671-.308,1.538a2.636,2.636,0,0,1-.855-1.437c-.117-.514.271-1.363.271-1.674a5.528,5.528,0,0,0-2.84-2.061c-1.052-.157-1.981.7-2.769,1.323s-2.178.508-2.683,1.012-.9,4.978-.508,6.027.9,1.049,2.154.5.545-1.594,1.283-1.36a1.738,1.738,0,0,1,1.126,1.634c0,.615-1.477,2.1-1.283,2.526s1.48-.077,2.1.117.923.585.738,2.178-.077,2.84.855,3.366,1.458-.76,1.868-.585.991,1.108,1.575,1.049.292-.581,1.4-.923.7-.585.923-1.283a1.264,1.264,0,0,1,1.692-.923c.769.36.234.877.308,1.458s1.4.643,2.461.994,1.634,0,3.735.7,2.215,2.8,3.092,3.151,3.791-.234,5.892,1.283,1.517,4.307,2.566,5.135,4.96,1.926,6.461,2.215,1.748-.757,2.975-.465a2.59,2.59,0,0,1,2.332,2.332C507.4,101.62,502.848,104.74,502.319,106.139Z" transform="translate(-339.98 -44.817)" fill="#dbdbdb"/>
      <path id="Path_29610" data-name="Path 29610" d="M498.368,144.833c.04.329,1.012.468,2.178,1.126s1.594,2.606,2.215,2.569.428-.923.661-1.169.615-.738,0-1.231-1.231-1.594-2.363-1.751-1.332-.615-1.846-.581a.88.88,0,0,0-.846,1.037Z" transform="translate(-367.376 -113.339)" fill="#dbdbdb"/>
      <path id="Path_29611" data-name="Path 29611" d="M519.13,155.674c-.175.477,0,.815,1.231,1.126s2.412-.308,2.024-.563-.972-.135-.741-.563.154-1.052-.855-.923S519.284,155.247,519.13,155.674Z" transform="translate(-381.72 -120.913)" fill="#dbdbdb"/>
      <path id="Path_29612" data-name="Path 29612" d="M532.382,158.131c-.422.062-.659.8-.231,1.268s.428.388.923,0,1.283-.585,1.089-.972S532.813,158.063,532.382,158.131Z" transform="translate(-390.618 -123.237)" fill="#dbdbdb"/>
      <path id="Path_29613" data-name="Path 29613" d="M544.361,162.84c.191-.581,1.166,0,1.594.615a2.515,2.515,0,0,1,0,2.178c-.234.661-.388,1.44-.923,1.129s.04-1.246-.04-1.791S544.207,163.317,544.361,162.84Z" transform="translate(-399.212 -126.359)" fill="#dbdbdb"/>
      <path id="Path_29614" data-name="Path 29614" d="M598.827,57.169c-.2.489.738.661,1.283.972s.972.5,1.283,0a.857.857,0,0,0-.545-1.206C600.42,56.818,599.02,56.7,598.827,57.169Z" transform="translate(-436.916 -53.132)" fill="#dbdbdb"/>
      <path id="Path_29615" data-name="Path 29615" d="M622.609,70.463c.36.378.972.308,1.4.855s.274,1.477.818,1.751.923,0,.972-.391-.778-1.36-.7-1.538,1.129.271,1.363.855-.234,1.4.308,1.538.428-.545.661-.7.738-.08.7-.545a3.523,3.523,0,0,0-1.166-1.828,4.266,4.266,0,0,0-1.751-.923,2.645,2.645,0,0,0-2.1.308C622.68,70.192,622.388,70.241,622.609,70.463Z" transform="translate(-453.348 -61.876)" fill="#dbdbdb"/>
      <path id="Path_29616" data-name="Path 29616" d="M651.86,74.289a.689.689,0,0,1-.218.409c-.818.585-1.791-1.44-2.917-1.828s-1.625-1.825-1.868-1.517-.157.738-.508,1.231-.855.391-1.086,1.363,1.086,2.769.778,3.344-.7.388-1.326.351-.5.5-1.32.271-.117-1.231-1.4-2.461-1.714-1.44-1.437-1.985-.12-1.32.465-1.4,1.049.778,1.437,1.012.9-.468.923-1.089-1.363-1.477-1.868-1.96a3.492,3.492,0,0,1-.351-2.591c.194-.351.778-.234.923-1.089.089-.5-.7-1.341-1.378-1.951A41.844,41.844,0,0,1,651.86,74.289Z" transform="translate(-465.773 -58.373)" fill="#dbdbdb"/>
      <path id="Path_29617" data-name="Path 29617" d="M663.407,138.4c.117-1.246-.5-1.323.117-3.618a6.66,6.66,0,0,0-1.129-5.249c-.468-.5-1.477-.351-2.3.154s-.231.9-.778,1.089-1.086-.117-1.594-.077-.972,1.32-2.061,1.283-1.788-1.594-2.6-2.7-2.492-1.806-3.034-3.169.5-3.461.271-5.055-1.283-1.246-1.477-2.154.154-.468.428-1.323-.308-1.323.234-2.8,1.517-2.218,1.283-2.877a11.086,11.086,0,0,1-1.012-2.526c-.04-.775.738-.741,2.215-1.846s1.868-1.012,3-.615a15.956,15.956,0,0,0,2.489.7c.661.117,1.557,1.828,1.828,1.751s.308-.585.428-1.323a1.643,1.643,0,0,1,.486-.837,41.672,41.672,0,0,1-1.646,46.539C662.521,147.713,663.3,139.646,663.407,138.4Z" transform="translate(-471.51 -87.618)" fill="#dbdbdb"/>
      <path id="Path_29618" data-name="Path 29618" d="M489.608,102.678l-.068-.222.308-.086.065.222Z" transform="translate(-361.274 -84.66)" fill="#c7c7c7"/>
      <path id="Path_29619" data-name="Path 29619" d="M546.756,105.441l-.446-.428.16-.166.446.431Zm-.9-.849-.458-.412.154-.172q.231.2.462.415Zm-.923-.818-.471-.4.148-.178.474.4Zm-.951-.791c-.16-.129-.308-.258-.483-.385l.142-.182.486.385Zm-.975-.76-.5-.366.135-.188.5.369Zm-1-.726-.511-.354.132-.191.511.354Zm-1.022-.7c-.175-.114-.348-.228-.52-.335l.123-.2.523.338Zm-1.046-.665-.529-.308.12-.2.532.308Zm-1.061-.615-.538-.308.111-.2.542.308Zm-1.086-.606-.548-.286.1-.2c.185.092.369.188.551.286Zm-1.1-.563q-.277-.138-.554-.268l.1-.209.56.271Zm-1.114-.529-.566-.255.1-.209.566.252Zm-1.132-.5c-.191-.083-.381-.16-.572-.237l.089-.215q.286.117.572.24Zm-1.145-.468-.575-.218.083-.215.578.222Zm-1.151-.431-.585-.206.077-.218.585.206Zm-1.166-.4-.588-.188.071-.222.588.191Zm-38.459,0-.062-.222.6-.163.058.225Zm1.2-.308-.055-.225.615-.148.055.225Zm36.1-.043-.594-.175.065-.222.594.175Zm-34.89-.246-.052-.225.615-.138.049.225Zm33.7-.12c-.2-.052-.4-.108-.6-.157l.059-.225.6.16Zm-32.5-.175-.046-.225.615-.129.046.228ZM527.437,95l-.615-.145.052-.225c.2.049.4.1.615.148Zm-30.091-.114-.046-.228.615-.117.043.228Zm28.891-.166-.615-.132.049-.225.615.132Zm-27.691-.065-.04-.228.615-.108.037.228Zm26.46-.191-.615-.117.043-.228c.2.04.406.077.615.12Zm-25.229-.022-.04-.228.615-.1.034.228Zm1.231-.194-.034-.231.615-.089.031.228Zm22.8,0-.615-.1.037-.228.615.1Zm-21.577-.166-.034-.228.615-.083.028.231Zm20.356-.034-.615-.089.034-.228.615.089Zm-19.128-.123-.031-.237.615-.071.028.228Zm17.9-.049-.615-.077.028-.228.615.077Zm-16.673-.092-.025-.228.615-.065.022.231Zm15.445-.055-.615-.065.022-.231.615.065Zm-14.215-.065-.018-.231.615-.052.018.228Zm12.981-.058-.615-.052.018-.231.615.052Zm-11.747-.046-.015-.228.615-.046.015.231Zm10.513-.052-.615-.04v-.231l.615.04Zm-9.276-.031-.015-.231.615-.034v.231Zm8.043-.046-.615-.028v-.231l.615.031Zm-6.806-.018v-.231l.615-.025v.231Zm5.569-.031q-.308,0-.615-.018v-.231c.206,0,.415,0,.615.018Zm-4.332,0v-.231h.615v.231Zm3.1-.018h-.615v-.231h.615Zm-1.846,0V93.1h.615v.231Z" transform="translate(-363.302 -78.242)" fill="#c7c7c7"/>
      <path id="Path_29620" data-name="Path 29620" d="M670.622,134.561l-.212-.218.163-.163.215.222Z" transform="translate(-486.494 -106.683)" fill="#c7c7c7"/>
      <path id="Path_29621" data-name="Path 29621" d="M520.086,184.155a1.483,1.483,0,0,1-.028-.335h.231a1.2,1.2,0,0,0,.022.28Z" transform="translate(-382.402 -141.05)" fill="#c7c7c7"/>
      <path id="Path_29622" data-name="Path 29622" d="M500.8,128.233h-.231c0-.166.022-.351.034-.554v-.065l.231.015v.062C500.84,127.882,500.812,128.067,500.8,128.233ZM500.88,127l-.231-.015c0-.194.025-.4.037-.615h.228C500.9,126.6,500.892,126.809,500.88,127Zm.065-1.231h-.231c0-.2,0-.4.018-.615h.231c0,.206-.012.412-.018.612Zm.031-1.231h-.231v-.615h.231v.138c0,.148,0,.308,0,.465Zm-.234-1.231c0-.2,0-.406-.018-.615h.231c0,.212,0,.418.018.615Zm-.046-1.231c0-.2-.025-.406-.04-.615l.231-.018c.015.209.028.415.04.615Zm-.092-1.231c-.018-.2-.04-.4-.062-.615l.228-.028c.025.209.046.412.065.615Zm-.138-1.231c-.025-.2-.055-.4-.086-.615l.228-.034c.031.206.062.409.089.615Zm-.188-1.231c-.037-.2-.077-.4-.117-.615l.228-.046c.04.2.08.406.114.615Zm-.246-1.2c-.043-.2-.092-.4-.142-.6l.225-.055c.049.2.1.4.145.615Zm-.308-1.194c-.055-.194-.114-.391-.172-.588l.218-.068c.062.2.12.4.175.594Zm-.36-1.172q-.1-.289-.2-.582l.218-.08c.071.2.138.391.2.588Zm-.421-1.154c-.074-.191-.151-.382-.234-.569l.212-.089c.083.191.16.382.237.572Zm-.483-1.129c-.086-.185-.172-.369-.265-.554l.206-.1c.092.188.182.375.268.56Zm-.548-1.1c-.1-.178-.194-.36-.308-.538l.2-.114c.1.182.206.36.308.542Zm-.615-1.065c-.108-.172-.215-.345-.329-.517l.194-.126c.114.172.225.348.332.523Zm-.677-1.025c-.117-.166-.237-.329-.36-.5l.185-.138c.126.166.246.332.366.5Zm-.735-.978c-.129-.16-.258-.308-.391-.474l.175-.148c.135.157.265.308.394.477Zm-.8-.923c-.138-.151-.277-.308-.422-.449l.166-.16q.218.225.425.452Zm-.855-.883c-.145-.142-.292-.28-.446-.418l.157-.172.452.425Zm-.9-.828c-.154-.132-.308-.262-.471-.394l.148-.178c.16.132.308.265.474.4Zm-.951-.772c-.163-.123-.326-.246-.5-.366l.135-.188.5.369Z" transform="translate(-362.894 -86.073)" fill="#c7c7c7"/>
      <path id="Path_29623" data-name="Path 29623" d="M489.7,103.063l-.255-.172.129-.191.255.172Z" transform="translate(-361.204 -84.889)" fill="#c7c7c7"/>
      <path id="Path_29624" data-name="Path 29624" d="M521.889,179.622l-.169-.157s.071-.08.212-.225l.166.16C521.96,179.542,521.892,179.618,521.889,179.622Z" transform="translate(-383.553 -137.879)" fill="#c7c7c7"/>
      <path id="Path_29625" data-name="Path 29625" d="M524,146.68l-.163-.166.452-.431.16.166Zm.9-.849-.154-.172c.145-.132.308-.271.468-.415l.151.175C525.209,145.563,525.052,145.7,524.908,145.831Zm.923-.818-.148-.175c.154-.129.308-.265.48-.4l.145.178Zm.96-.788-.145-.182.492-.388.142.185c-.157.129-.314.274-.477.385Zm.982-.763-.138-.185c.16-.123.329-.246.5-.372l.138.185c-.16.126-.326.249-.486.372Zm1-.738-.135-.188.511-.36.132.191Zm1.018-.711-.129-.191.517-.348.126.194c-.163.114-.332.231-.5.345Zm1.034-.686-.123-.194.526-.335.123.2Zm1.052-.661-.12-.194.535-.308.117.2Zm1.068-.634-.117-.2.545-.308.111.2Zm1.083-.615-.111-.2.548-.308.108.2Zm1.1-.585-.108-.206.557-.283.1.206c-.175.1-.36.194-.542.289Zm1.108-.56-.1-.206.563-.271.1.209Zm1.123-.532-.1-.209.566-.258.1.212Zm1.135-.5-.092-.212.572-.246.089.215Zm1.145-.48-.086-.215.579-.231.083.215Zm1.157-.452-.083-.218.585-.215.08.215c-.185.077-.378.151-.56.225Zm1.166-.428-.077-.218.591-.2.074.218Zm1.175-.4-.071-.222.594-.188.068.218Zm1.185-.372-.065-.222.6-.175.065.222Zm1.194-.345-.062-.222.615-.163.058.225Zm1.2-.308-.055-.225.615-.148.052.225c-.2.046-.4.1-.6.148Zm1.209-.289-.052-.225.615-.135.049.228Zm1.231-.258-.046-.228.615-.12.043.228q-.317.055-.615.12Zm1.231-.234-.04-.228.615-.1.037.228Zm1.231-.2-.034-.228.615-.092.034.228Zm16.7-.092-.615-.08.031-.231.615.083Zm-15.5-.083-.031-.231.615-.077.028.231Zm14.242-.074-.615-.068.025-.228.615.068Zm-13.012-.074-.025-.231.615-.065.021.231Zm11.775-.055-.615-.055.022-.231.615.055Zm-10.529-.052-.018-.231.615-.049v.228Zm9.3-.04-.615-.043.015-.231.615.043Zm-8.064-.055v-.228c.206,0,.412-.028.615-.037v.231Zm6.827-.025-.615-.031v-.231l.615.031Zm-5.587-.04v-.231l.615-.022v.231Zm4.347-.015-.615-.018v-.231l.615.018Zm-3.1-.022v-.231h.615v.231a4.558,4.558,0,0,0-.615-.012Zm1.861,0h-.615v-.231h.615Z" transform="translate(-385.02 -105.596)" fill="#c7c7c7"/>
      <path id="Path_29626" data-name="Path 29626" d="M670.635,134.914l-.3-.046.034-.228.3.046Z" transform="translate(-486.439 -107.002)" fill="#c7c7c7"/>
      <path id="Path_29627" data-name="Path 29627" d="M566.488,201.868l-.228-.04s.018-.1.043-.308l.228.031C566.509,201.76,566.488,201.868,566.488,201.868Z" transform="translate(-414.389 -153.304)" fill="#c7c7c7"/>
      <path id="Path_29628" data-name="Path 29628" d="M515.522,133.081l-.231-.022c0-.182.031-.388.043-.615h.231C515.553,132.687,515.537,132.89,515.522,133.081Zm.068-1.252h-.231v-.615h.231C515.6,131.419,515.6,131.628,515.589,131.828Zm-.225-1.249a5.9,5.9,0,0,0-.022-.615h.231c0,.215.018.425.022.615Zm-.055-1.231c0-.2-.028-.409-.046-.615l.228-.022c.018.215.037.422.049.615Zm-.111-1.231c-.021-.2-.046-.406-.077-.615l.231-.034c.028.212.052.418.077.615Zm-.166-1.231c-.031-.2-.068-.406-.1-.615l.228-.04c.037.209.074.415.1.615Zm-.221-1.231c-.04-.2-.086-.4-.132-.615l.225-.052c.049.206.092.409.132.615Zm-.277-1.212c-.052-.2-.1-.4-.16-.6l.221-.062c.055.2.111.406.16.615Zm-.332-1.2c-.062-.2-.123-.394-.188-.591l.218-.074c.065.2.129.4.188.6Zm-.391-1.181c-.068-.191-.138-.388-.215-.582l.215-.083c.077.2.148.394.218.588Zm-.443-1.175c-.077-.188-.16-.378-.243-.569l.212-.1c.083.194.166.388.243.578Zm-.5-1.135c-.086-.188-.178-.372-.271-.56l.206-.1c.1.191.185.378.274.566Zm-.554-1.114q-.145-.271-.308-.545l.2-.114c.1.185.2.369.308.551Zm-.615-1.083c-.1-.178-.212-.354-.323-.532l.2-.12c.111.178.218.357.326.535Zm-.659-1.052c-.111-.172-.228-.345-.348-.517l.191-.129q.179.258.351.517Zm-.708-1.021c-.12-.166-.246-.332-.372-.5l.185-.138c.126.166.252.332.375.5Zm-.757-.985c-.126-.16-.258-.308-.394-.48l.175-.148c.135.16.271.308.4.483Zm-.8-.948c-.135-.154-.277-.308-.418-.462l.169-.157c.145.154.283.308.421.465Zm-.846-.923c-.142-.148-.289-.308-.437-.443l.163-.163.44.443Zm-.883-.874-.458-.418.154-.172.462.425Zm-.923-.831-.477-.4.148-.178.48.4Zm-.96-.791c-.16-.126-.308-.255-.489-.382l.138-.182c.166.126.332.252.5.382Zm-.988-.751c-.166-.12-.335-.243-.508-.36l.132-.191.529.366Zm-1.021-.711q-.255-.175-.517-.342l.123-.194.523.342ZM502.113,108l-.532-.308.117-.2.535.308Zm-1.071-.634-.542-.308.111-.2q.277.148.545.308Zm-1.089-.6c-.182-.1-.366-.191-.554-.283l.1-.206c.188.092.372.188.557.286Zm-1.111-.56-.563-.268.1-.209.566.268Zm-1.129-.526-.569-.249.092-.212c.191.083.385.166.572.252Zm-1.132-.483-.578-.234.086-.215.578.237Zm-1.157-.458-.585-.218.08-.215.585.218Zm-1.169-.428-.588-.2.071-.218c.2.065.4.132.594.2Zm-1.181-.394c-.194-.065-.394-.126-.594-.188l.071-.222.594.188Z" transform="translate(-363.309 -85.449)" fill="#c7c7c7"/>
      <path id="Path_29629" data-name="Path 29629" d="M489.845,102.958l-.3-.086.062-.222.3.086Z" transform="translate(-361.28 -84.854)" fill="#c7c7c7"/>
      <path id="Path_29630" data-name="Path 29630" d="M670.369,135.079l-.049-.228.308-.062.043.228Z" transform="translate(-486.432 -107.105)" fill="#c7c7c7"/>
      <path id="Path_29631" data-name="Path 29631" d="M548.258,177.543l-.228-.037c.031-.2.065-.4.1-.615l.228.037C548.328,177.14,548.288,177.343,548.258,177.543Zm.2-1.2-.228-.04c.037-.2.071-.4.111-.615l.225.043c-.037.225-.074.412-.108.612Zm.225-1.2-.228-.043.12-.615.228.046Zm.246-1.194-.225-.049c.043-.2.086-.4.132-.6l.225.052c-.043.2-.089.394-.117.594Zm.271-1.188-.225-.055.148-.594.222.055C549.295,172.362,549.251,172.568,549.2,172.759Zm.308-1.185-.222-.058.157-.591.221.062Zm.323-1.175-.221-.065c.055-.2.111-.391.169-.588l.222.068a5.036,5.036,0,0,0-.182.6Zm.345-1.169-.218-.068c.058-.2.12-.391.182-.585l.221.071A4.722,4.722,0,0,0,550.174,169.23Zm.372-1.16-.218-.074c.065-.194.129-.388.2-.582l.218.077c-.08.191-.145.385-.209.578Zm.4-1.154-.219-.077.212-.575.215.08c-.083.188-.154.378-.221.572Zm.425-1.145-.215-.08.221-.572.215.086Zm.449-1.132-.212-.086c.077-.191.157-.378.237-.566l.212.089Zm.477-1.12-.209-.1c.08-.188.166-.372.249-.557l.209.1Zm.5-1.111-.209-.1c.086-.185.175-.369.265-.554l.206.1c-.1.182-.188.366-.274.557Zm.529-1.1-.206-.1.277-.548.206.1Zm.557-1.083-.2-.111.289-.538.2.111c-.108.178-.206.357-.308.538Zm.585-1.071-.2-.114c.1-.178.2-.357.308-.532l.2.117Zm.615-1.055-.2-.12c.1-.175.209-.351.308-.523l.2.12c-.114.172-.218.348-.32.529Zm.628-1.04-.194-.123c.108-.172.218-.345.329-.517l.194.126A5.2,5.2,0,0,0,555.713,157.061Zm.665-1.021-.194-.129c.114-.172.231-.342.345-.508l.191.129Zm.689-1.006-.191-.135.357-.5.188.135c-.129.166-.246.329-.363.5Zm.714-.988-.185-.138c.123-.166.243-.329.369-.489l.182.138c-.132.163-.255.323-.375.489Zm.739-.969-.182-.145.382-.477.178.145Zm.766-.951-.179-.148c.129-.157.262-.308.394-.468l.175.148c-.142.154-.271.311-.4.468Zm.788-.923-.175-.151c.135-.157.271-.308.406-.462l.172.154a5.3,5.3,0,0,0-.412.452Zm.812-.923-.169-.154c.138-.154.277-.308.415-.449l.169.157Zm.834-.889-.166-.16c.142-.148.286-.292.428-.437l.166.163Zm.858-.865-.163-.166c.148-.142.308-.286.44-.425l.16.166c-.157.16-.3.286-.446.431Zm.877-.846-.157-.169.449-.415.157.172Zm.9-.821-.154-.172.458-.406.154.175Zm.923-.8-.148-.175c.157-.135.308-.265.468-.394l.148.178Zm.942-.778-.145-.178c.157-.129.308-.255.477-.382l.145.182Zm.957-.754-.138-.182.486-.369.138.185Zm.979-.729-.135-.185.5-.36.135.188Zm.994-.7-.132-.191c.169-.117.338-.234.508-.345l.129.191c-.181.117-.351.234-.517.351Zm1.012-.683-.129-.194.514-.332.126.194c-.191.114-.354.225-.523.338Zm1.025-.658-.12-.2.52-.308.12.2Zm1.043-.634-.117-.2.529-.308.114.2Zm1.058-.615-.114-.2.535-.308.111.2Zm1.071-.585-.111-.2.545-.286.1.206Zm1.083-.56-.1-.206.551-.271.1.206Zm1.1-.532-.1-.209.557-.258.1.209Zm1.111-.511-.1-.209.563-.246.092.212c-.2.089-.385.172-.572.255Zm1.12-.483-.089-.212.569-.234.086.215Zm1.132-.455-.083-.215.572-.218.08.215Zm1.141-.428-.077-.218.578-.206.077.218c-.2.077-.394.135-.591.218Zm1.132-.378-.071-.218.582-.188.071.218Zm1.166-.369-.068-.218c.206-.065.4-.12.591-.175l.062.222Zm1.172-.335-.058-.222.6-.154.055.225Z" transform="translate(-401.768 -107.59)" fill="#c7c7c7"/>
      <rect id="Rectangle_17810" data-name="Rectangle 17810" width="0.308" height="0.231" transform="translate(146.137 70.836) rotate(-81.76)" fill="#c7c7c7"/>
      <path id="Path_29632" data-name="Path 29632" d="M528.929,212.245l-.221-.058c.052-.2.1-.4.154-.594l.221.055C529.037,211.845,528.985,212.051,528.929,212.245Zm.292-1.2L529,211c.043-.2.083-.4.123-.6l.225.043C529.308,210.642,529.268,210.842,529.222,211.045Zm.234-1.231-.231-.037c.034-.2.065-.4.092-.615l.228.031c-.028.231-.058.434-.089.637Zm.166-1.231-.231-.025c.025-.2.043-.406.058-.615l.231.018c-.015.234-.037.44-.058.643Zm.1-1.231H529.5c0-.206.018-.409.025-.615h.231q-.009.326-.04.637Zm.04-1.231h-.231v-.612h.231v.612Zm-.252-1.231c0-.2-.021-.409-.034-.615l.228-.015q.022.308.037.615Zm-.086-1.231q-.028-.308-.065-.615l.231-.028c.025.206.046.409.065.615Zm-.142-1.231c-.031-.2-.062-.406-.1-.615l.228-.037c.034.2.065.406.1.615Zm-.188-1.148c-.04-.2-.08-.4-.123-.6l.225-.049c.043.2.086.4.123.615Zm-.258-1.2-.148-.594.221-.058c.052.2.1.4.151.6Zm-.308-1.185c-.055-.2-.114-.394-.175-.591l.222-.068c.062.2.117.394.175.594Zm-.363-1.172c-.062-.2-.129-.391-.2-.581l.219-.077c.068.194.135.388.2.585Zm-.406-1.157c-.074-.194-.148-.382-.225-.572l.215-.086c.077.191.151.385.225.578Zm-.455-1.138c-.08-.191-.163-.378-.243-.563l.209-.1c.083.188.166.375.246.569Zm-.5-1.123c-.086-.185-.175-.369-.265-.554l.209-.1c.089.185.179.369.265.56Zm-.538-1.1c-.092-.185-.188-.366-.283-.545l.2-.108c.1.178.191.363.286.548Zm-.575-1.083-.308-.535.2-.114q.157.262.308.535Zm-.615-1.065c-.1-.178-.212-.354-.308-.523l.2-.123c.108.172.215.348.308.529Zm-.646-1.043c-.114-.175-.224-.345-.338-.514l.194-.126.339.514Zm-.7-1.043c-.117-.172-.237-.338-.351-.5l.185-.135c.12.163.237.332.357.5Zm-.714-1-.369-.489.185-.142.369.5Zm-.748-.975-.385-.477.178-.148c.126.151.255.308.388.483Zm-.778-.951-.394-.458.172-.151c.126.138.261.308.406.468Zm-.815-.923c-.268-.289-.425-.44-.425-.443l.16-.163s.16.154.434.449Z" transform="translate(-382.535 -141.535)" fill="#c7c7c7"/>
      <path id="Path_29633" data-name="Path 29633" d="M486.347,82.986a2.611,2.611,0,0,0-5.221,0c-.2,2.015,1.16,3.843,2.609,5.507C485.187,86.829,486.547,85,486.347,82.986Zm-2.612,1.449a1.431,1.431,0,1,1,1.431-1.428A1.431,1.431,0,0,1,483.735,84.435Z" transform="translate(-355.435 -69.436)" fill="#c8523b"/>
      <path id="Path_29634" data-name="Path 29634" d="M561.747,182.136a2.611,2.611,0,0,0-5.221,0c-.2,2.015,1.16,3.843,2.609,5.507C560.587,185.967,561.947,184.139,561.747,182.136Zm-2.612,1.449a.6.6,0,1,0,0-.012Z" transform="translate(-407.636 -138.08)" fill="#57b8ce"/>
      <path id="Path_29635" data-name="Path 29635" d="M515.767,163.676a2.611,2.611,0,0,0-5.221,0c-.2,2.015,1.16,3.843,2.609,5.507C514.607,167.51,515.967,165.691,515.767,163.676Zm-2.612,1.449a1.431,1.431,0,1,1,1.431-1.431A1.431,1.431,0,0,1,513.155,165.125Z" transform="translate(-375.803 -125.3)" fill="#c8523b"/>
      <path id="Path_29636" data-name="Path 29636" d="M668.067,116.566a2.611,2.611,0,0,0-5.221,0c-.2,2.015,1.16,3.843,2.609,5.507C666.907,120.409,668.267,118.587,668.067,116.566Zm-2.612,1.449a1.431,1.431,0,1,1,1.431-1.431A1.431,1.431,0,0,1,665.455,118.015Z" transform="translate(-481.244 -92.684)" fill="#c8523b"/>
      <path id="Path_29637" data-name="Path 29637" d="M544.647,258.186a2.611,2.611,0,0,0-5.221,0c-.2,2.015,1.16,3.84,2.609,5.507C543.487,262.026,544.847,260.2,544.647,258.186Zm-2.6,1.449a1.431,1.431,0,1,1,1.014-.418A1.431,1.431,0,0,1,542.05,259.635Z" transform="translate(-395.797 -190.731)" fill="#57b8ce"/>
    </g>
    <g id="freepik--Shadow--inject-44" transform="translate(38.969 158.763)">
      <ellipse id="Ellipse_6446" data-name="Ellipse 6446" cx="100.88" cy="5.504" rx="100.88" ry="5.504" transform="translate(0)" fill="#ebebeb"/>
    </g>
    <g id="freepik--Floor--inject-44" transform="translate(29.4 153.822)">
      <path id="Path_29638" data-name="Path 29638" d="M29.4,399.271l26.417-.074,26.414-.028,52.834-.049,52.834.049,26.414.028,26.417.074-26.417.077-26.414.028-52.834.049-52.834-.052-26.414-.025Z" transform="translate(-29.4 -399.12)" fill="#263238"/>
    </g>
    <g id="freepik--Plants--inject-44" transform="translate(38.984 145.998)">
      <path id="Path_29639" data-name="Path 29639" d="M104.63,381.662s-.566-2.646-1.7-3.055a1.6,1.6,0,0,0-1.821.781s-.268-2.529-1.874-3.286a2.42,2.42,0,0,0-2.809.794s-1.231-3.206-3.434-3.206-3.311,4.692-3.311,4.692-1.3-1.4-2.631-.615-1.332,3.889-1.332,3.889Z" transform="translate(-77.976 -373.69)" fill="#455a64"/>
      <path id="Path_29640" data-name="Path 29640" d="M238.814,384.82h-19.9s.655-2.806,1.975-3.006a1.946,1.946,0,0,1,1.935,1.1s-.062-3.914,2.4-4.581,4.532,2.791,4.532,2.791a4.9,4.9,0,0,1,3.652-1.846c2.114.126,2.64,3.384,2.64,3.384S237.967,381.534,238.814,384.82Z" transform="translate(-170.187 -376.848)" fill="#37474f"/>
      <path id="Path_29641" data-name="Path 29641" d="M71.011,389.589H60.55s.025-1.56,1.052-1.975a1.406,1.406,0,0,1,1.643.394s.422-2.868,2.338-2.868,2.84,2.461,2.84,2.461a1.468,1.468,0,0,1,1.5-.615C70.968,387.146,71.011,389.589,71.011,389.589Z" transform="translate(-60.55 -381.617)" fill="#37474f"/>
    </g>
    <g id="freepik--Truck--inject-44" transform="translate(34.366 73.479)">
      <path id="Path_29642" data-name="Path 29642" d="M369.3,190.62l2.575,57.166h46.868l-4.852-23.2-15.618-4.923a2.929,2.929,0,0,1-1.772-1.741l-9.338-23.98Z" transform="translate(-269.687 -174.427)" fill="#686666"/>
      <path id="Path_29643" data-name="Path 29643" d="M386.08,210.18l1.169,20.623,16.913,1.585-7.289-21.454Z" transform="translate(-281.304 -187.969)" fill="#455a64"/>
      <g id="Group_42584" data-name="Group 42584" transform="translate(104.914 22.454)" opacity="0.3">
        <path id="Path_29644" data-name="Path 29644" d="M388.16,246.9l.268,4.7,5.071,5.07,4.9.462Z" transform="translate(-387.658 -235.845)" fill="#fff"/>
        <path id="Path_29645" data-name="Path 29645" d="M397.32,210.97l10.846,10.846-1.138-3.363-7.32-7.32Z" transform="translate(-394 -210.97)" fill="#fff"/>
        <path id="Path_29646" data-name="Path 29646" d="M386.53,218.06l.031.569,17.245,17.245-.28-.818Z" transform="translate(-386.53 -215.879)" fill="#fff"/>
        <path id="Path_29647" data-name="Path 29647" d="M389.35,267.83l.031.572,2.538,2.538.6.055Z" transform="translate(-388.482 -250.336)" fill="#fff"/>
      </g>
      <path id="Path_29648" data-name="Path 29648" d="M386.08,210.18l10.793.754,7.289,21.454-1.132-.108L396.141,212l-10.009-.914Z" transform="translate(-281.304 -187.969)" fill="#263238"/>
      <rect id="Rectangle_17811" data-name="Rectangle 17811" width="0.308" height="26.746" transform="translate(127.719 45.742)" fill="#263238"/>
      <path id="Path_29649" data-name="Path 29649" d="M512.352,299.815l-3.812-.615,2.221,7.849,1.963-.206a.809.809,0,0,0,.723-.868l-.415-5.434a.818.818,0,0,0-.68-.726Z" transform="translate(-366.087 -249.6)" fill="#fff"/>
      <path id="Path_29650" data-name="Path 29650" d="M450.747,262.111c-.923.778-.089,7.781.56,7.661a7.489,7.489,0,0,0,2.6-.828c.56-.443,3.729-6.11,2.96-7.286S451.464,261.511,450.747,262.111Z" transform="translate(-325.791 -223.236)" fill="#57b8ce"/>
      <path id="Path_29651" data-name="Path 29651" d="M450.747,262.111c-.923.778-.089,7.781.56,7.661a7.489,7.489,0,0,0,2.6-.828c.56-.443,3.729-6.11,2.96-7.286S451.464,261.511,450.747,262.111Z" transform="translate(-325.791 -223.236)" opacity="0.1"/>
      <path id="Path_29652" data-name="Path 29652" d="M398.746,293.111H392.94V291.48l5.806.317Z" transform="translate(-286.054 -244.255)" opacity="0.1"/>
      <path id="Path_29653" data-name="Path 29653" d="M156.672,211.349H60.33l5.1-68.7L153.2,137.99Z" transform="translate(-55.779 -137.99)" fill="#686666"/>
      <path id="Path_29669" data-name="Path 29669" d="M156.672,354.609H60.33l.274-3.686,95.613-6Z" transform="translate(-55.779 -281.253)" opacity="0.1"/>
      <path id="Path_29670" data-name="Path 29670" d="M58.75,376.608H205.889V372.23H58.75Z" transform="translate(-54.686 -300.16)" fill="#ebebeb"/>
      <path id="Path_29671" data-name="Path 29671" d="M513.906,365.39l-14.676.9h0v6.246H515Z" transform="translate(-359.641 -295.425)" fill="#dbdbdb"/>
      <path id="Path_29672" data-name="Path 29672" d="M55.939,372.71V366.6l-9.261-.957-1.138,7.07Z" transform="translate(-45.54 -295.598)" fill="#dbdbdb"/>
      <path id="Path_29673" data-name="Path 29673" d="M109.266,364.708l-3.046-.446c.581-3.96,4.052-11.452,13.039-11.452s12.39,7.5,12.922,11.47l-3.049.412,1.538-.206-1.538.209c-.049-.36-1.341-8.809-9.876-8.809C110.657,355.887,109.318,364.348,109.266,364.708Z" transform="translate(-87.55 -286.715)" fill="#c7c7c7"/>
      <path id="Path_29674" data-name="Path 29674" d="M124.179,358.88c-14.347,0-14.368,22.3,0,22.3S138.551,358.88,124.179,358.88Z" transform="translate(-92.529 -290.918)" fill="#263238"/>
      <path id="Path_29675" data-name="Path 29675" d="M137.412,378.67c-6.51,0-6.523,10.119,0,10.119S143.935,378.67,137.412,378.67Z" transform="translate(-105.762 -304.619)" fill="#c7c7c7"/>
      <path id="Path_29676" data-name="Path 29676" d="M388.593,364.693l-3.043-.462c.578-3.96,4.049-11.452,13.039-11.452s12.387,7.5,12.922,11.47l-3.055.422,1.538-.206-1.538.209c-.052-.36-1.344-8.809-9.876-8.809S388.648,364.333,388.593,364.693Z" transform="translate(-280.938 -286.694)" fill="#c7c7c7"/>
      <path id="Path_29677" data-name="Path 29677" d="M403.679,358.88c-14.347,0-14.368,22.3,0,22.3S418.051,358.88,403.679,358.88Z" transform="translate(-286.034 -290.918)" fill="#263238"/>
      <path id="Path_29678" data-name="Path 29678" d="M416.912,378.67c-6.51,0-6.523,10.119,0,10.119S423.435,378.67,416.912,378.67Z" transform="translate(-299.267 -304.619)" fill="#c7c7c7"/>
    </g>
    <g id="freepik--Boxes--inject-44" transform="translate(188.939 129.433)">
      <rect id="Rectangle_17812" data-name="Rectangle 17812" width="16.224" height="17.968" transform="translate(8.378 17.968)" fill="#c8523b"/>
      <rect id="Rectangle_17814" data-name="Rectangle 17814" width="8.378" height="17.968" transform="translate(8.378 35.936) rotate(180)" fill="#57b8ce"/>
      <rect id="Rectangle_17815" data-name="Rectangle 17815" width="8.378" height="17.968" transform="translate(8.378 35.936) rotate(180)" opacity="0.32"/>
      <path id="Path_29679" data-name="Path 29679" d="M597.05,382.133h.6l.148-.3.206.3.28-.615.265.615h1.1l.126-.409.12.409h.225V378.25H597.05Z" transform="translate(-581.937 -360.282)" fill="#fff"/>
      <path id="Path_29680" data-name="Path 29680" d="M549.81,397.8q.923-1.92,1.846-3.846l1.818-3.864,1.791-3.867q.9-1.941,1.766-3.9-.923,1.92-1.846,3.846l-1.818,3.864-1.791,3.883Q550.687,395.842,549.81,397.8Z" transform="translate(-549.232 -363.1)" fill="#57b8ce"/>
      <path id="Path_29681" data-name="Path 29681" d="M549.81,382.27q.874,1.957,1.766,3.9l1.794,3.883,1.818,3.864q.923,1.929,1.846,3.846-.874-1.957-1.766-3.9l-1.794-3.883-1.818-3.864Q550.739,384.187,549.81,382.27Z" transform="translate(-549.232 -363.065)" fill="#57b8ce"/>
      <rect id="Rectangle_17816" data-name="Rectangle 17816" width="16.224" height="17.968" transform="translate(15.888)" fill="#c8523b"/>
      <rect id="Rectangle_17818" data-name="Rectangle 17818" width="8.378" height="17.968" transform="translate(15.891 17.971) rotate(180)" fill="#57b8ce"/>
      <rect id="Rectangle_17819" data-name="Rectangle 17819" width="8.378" height="17.968" transform="translate(15.891 17.971) rotate(180)" opacity="0.32"/>
      <path id="Path_29682" data-name="Path 29682" d="M621.47,323.733h.6l.148-.3.206.3.28-.615.265.615h1.108l.126-.409.117.409h.225V319.85H621.47Z" transform="translate(-598.844 -319.85)" fill="#fff"/>
      <path id="Path_29683" data-name="Path 29683" d="M574.22,339.371q.923-1.917,1.846-3.846l1.818-3.864,1.806-3.88q.9-1.948,1.769-3.9-.923,1.914-1.846,3.843l-1.818,3.864L576,335.47Q575.094,337.415,574.22,339.371Z" transform="translate(-566.131 -322.64)" fill="#57b8ce"/>
      <path id="Path_29684" data-name="Path 29684" d="M574.22,323.88q.877,1.957,1.766,3.9l1.794,3.88,1.818,3.864q.923,1.929,1.846,3.846-.877-1.957-1.769-3.9l-1.794-3.883-1.818-3.864Q575.155,325.794,574.22,323.88Z" transform="translate(-566.131 -322.64)" fill="#57b8ce"/>
      <rect id="Rectangle_17820" data-name="Rectangle 17820" width="16.224" height="17.968" transform="translate(29.223 17.968)" fill="#c8523b"/>
      <rect id="Rectangle_17822" data-name="Rectangle 17822" width="8.378" height="17.968" transform="translate(29.223 35.936) rotate(180)" fill="#c8523b"/>
      <rect id="Rectangle_17823" data-name="Rectangle 17823" width="8.378" height="17.968" transform="translate(29.223 35.936) rotate(180)" opacity="0.32"/>
      <path id="Path_29685" data-name="Path 29685" d="M664.8,382.133h.6l.148-.3.206.3.28-.615.265.615h1.108l.123-.409.12.409h.225V378.25H664.8Z" transform="translate(-628.842 -360.282)" fill="#fff"/>
      <path id="Path_29686" data-name="Path 29686" d="M617.56,397.8q.923-1.92,1.846-3.846l1.818-3.864,1.791-3.867q.9-1.941,1.766-3.9-.923,1.92-1.846,3.846l-1.818,3.864-1.791,3.883Q618.437,395.842,617.56,397.8Z" transform="translate(-596.137 -363.1)" fill="#57b8ce"/>
      <path id="Path_29687" data-name="Path 29687" d="M617.56,382.27q.874,1.957,1.766,3.9l1.794,3.883,1.806,3.864q.923,1.929,1.846,3.846-.874-1.957-1.766-3.9l-1.794-3.883-1.818-3.864Q618.489,384.187,617.56,382.27Z" transform="translate(-596.137 -363.065)" fill="#57b8ce"/>
    </g>
    <g id="freepik--Character--inject-44" transform="translate(163.469 70.997)">
      <path id="Path_29688" data-name="Path 29688" d="M489.134,399.186c.591.188,17.387-.028,18.02-.443.243-.154.354-2.6.4-5.566v-.092c0-.615.018-1.231.021-1.877v-.265l-.815-8.713-11.236.114,1.108,8.615v.342l.068,1.788v.185s-6.393,2.957-7.043,3.489S488.546,399,489.134,399.186Z" transform="translate(-481.568 -304.602)" fill="#ad6359"/>
      <path id="Path_29689" data-name="Path 29689" d="M489.134,418.793c.591.188,17.387-.028,18.02-.443.243-.154.354-2.6.4-5.566v-.092c0-.615.018-1.231.021-1.877v-.265l-10.944.031v.341l.068,1.788v.185s-6.393,2.957-7.043,3.489S488.546,418.6,489.134,418.793Z" transform="translate(-481.568 -324.209)" fill="#ebebeb"/>
      <path id="Path_29690" data-name="Path 29690" d="M489.146,423.608c.308.1,4.864.089,9.326,0,.9-.015,1.788-.037,2.64-.062a42.276,42.276,0,0,0,6.052-.375c.243-.157.351-2.535.4-5.443v-.218h0l-10.824.022v.185s-6.39,2.957-7.04,3.486S488.555,423.42,489.146,423.608Z" transform="translate(-481.58 -329.027)" fill="#57b8ce"/>
      <path id="Path_29691" data-name="Path 29691" d="M490.231,434.774c2.831-.1,14.258-.268,17.064-.157.022,0,.022.015,0,.018-2.8.166-14.23.234-17.064.185C490.173,434.82,490.173,434.777,490.231,434.774Z" transform="translate(-482.484 -340.845)" fill="#263238"/>
      <path id="Path_29692" data-name="Path 29692" d="M510.328,417.512a3.965,3.965,0,0,1,3.338.714c.031.031,0,.077-.049.068a15.652,15.652,0,0,0-3.283-.64.071.071,0,0,1-.006-.142Z" transform="translate(-496.38 -328.965)" fill="#263238"/>
      <path id="Path_29693" data-name="Path 29693" d="M507.727,419.122a3.963,3.963,0,0,1,3.338.714c.034.031,0,.077-.046.068a15.7,15.7,0,0,0-3.286-.64.071.071,0,0,1-.006-.142Z" transform="translate(-494.58 -330.079)" fill="#263238"/>
      <path id="Path_29694" data-name="Path 29694" d="M505.138,420.732a3.954,3.954,0,0,1,3.338.714c.034.031,0,.077-.046.065a15.872,15.872,0,0,0-3.286-.637.071.071,0,0,1-.006-.142Z" transform="translate(-492.787 -331.194)" fill="#263238"/>
      <path id="Path_29695" data-name="Path 29695" d="M520.05,423.6c.9-.015,1.788-.037,2.64-.062a42.268,42.268,0,0,0,6.052-.375c.243-.157.351-2.535.4-5.443V417.5h0C527.653,418.54,522.425,422.02,520.05,423.6Z" transform="translate(-503.158 -329.02)" fill="#263238"/>
      <path id="Path_29696" data-name="Path 29696" d="M508.422,284.286h12.1s-2.437-28.251-2.341-28.746c.12-.631.837-3.489,1.784-7.227.308-1.169.615-2.421.954-3.723.9-3.514,1.9-7.353,2.769-10.7l2.32-8.892H515.742s-1.194,3.787-2.7,8.716c-2.461,8-5.732,19.03-6.055,21.71C506.462,259.746,508.422,284.286,508.422,284.286Z" transform="translate(-494.053 -195.748)" fill="#263238"/>
      <path id="Path_29697" data-name="Path 29697" d="M513.683,410.813c1.846-.037,1.317-.052,3.166-.071.9,0,6.846-.058,7.692.08a.018.018,0,1,1,0,.037c-.843.142-6.787.089-7.692.08-1.846-.018-1.317-.034-3.166-.071C513.649,410.862,513.649,410.813,513.683,410.813Z" transform="translate(-498.733 -324.333)" fill="#37474f"/>
      <path id="Path_29698" data-name="Path 29698" d="M535.645,259.55c.4-1.748.991-3.461,1.5-5.178q1.575-5.23,3.166-10.461.794-2.612,1.594-5.23.406-1.32.815-2.637c.271-.858.575-1.711.818-2.575.1-.354.154-.16.028.289-.255.9-.508,1.806-.769,2.7q-.791,2.683-1.575,5.35-1.569,5.317-3.172,10.624l-1.6,5.323a21.8,21.8,0,0,0-.655,2.575,11.952,11.952,0,0,0-.108,2.754c.117,1.846.332,3.692.5,5.538s.345,3.692.514,5.538q.511,5.538,1.015,11.049c.04.468.083.923.117,1.4,0,.157-.225.145-.24,0-.4-3.64-.7-7.292-1.046-10.938s-.68-7.258-1.018-10.889c-.086-.923-.182-1.821-.185-2.738a11.367,11.367,0,0,1,.3-2.5Z" transform="translate(-513.751 -201.484)" fill="#37474f"/>
      <path id="Path_29699" data-name="Path 29699" d="M539.57,225c.714,5.507,2.071,15.83,3.058,23.319,2.3-9.079,6.03-23.319,6.03-23.319Z" transform="translate(-516.672 -195.748)" fill="#37474f"/>
      <path id="Path_29700" data-name="Path 29700" d="M530.789,399.865c.588.194,17.384.037,18.021-.375.243-.154.363-2.6.425-5.566v-.092c0-.615.025-1.231.028-1.877v-.262c.04-4.277-.268-8.713-.268-8.713l-10.981.071.308,8.633v.341l.062,1.788v.182s-6.4,2.935-7.055,3.464S530.2,399.678,530.789,399.865Z" transform="translate(-510.408 -305.121)" fill="#ad6359"/>
      <path id="Path_29701" data-name="Path 29701" d="M530.789,419.472c.588.194,17.384.037,18.021-.375.243-.154.363-2.6.425-5.566v-.092c0-.615.025-1.231.028-1.877V411.3H538.321v.342l.062,1.788v.181s-6.4,2.935-7.055,3.464S530.2,419.284,530.789,419.472Z" transform="translate(-510.408 -324.728)" fill="#ebebeb"/>
      <path id="Path_29702" data-name="Path 29702" d="M530.8,424.242c.588.194,17.384.037,18.021-.375.243-.154.363-2.6.425-5.566v-.092l-10.836-.018v.182s-6.4,2.935-7.055,3.464S530.21,424.054,530.8,424.242Z" transform="translate(-510.417 -329.498)" fill="#57b8ce"/>
      <path id="Path_29703" data-name="Path 29703" d="M531.894,435.412c2.831-.1,14.258-.215,17.061-.1.025,0,.025.015,0,.018-2.8.157-14.23.182-17.061.123C531.832,435.458,531.829,435.415,531.894,435.412Z" transform="translate(-511.325 -341.32)" fill="#263238"/>
      <path id="Path_29704" data-name="Path 29704" d="M552.048,418.119a3.962,3.962,0,0,1,3.335.726c.031.031,0,.077-.049.068a15.448,15.448,0,0,0-3.28-.652.071.071,0,0,1-.006-.142Z" transform="translate(-525.264 -329.387)" fill="#263238"/>
      <path id="Path_29705" data-name="Path 29705" d="M549.448,419.719a3.962,3.962,0,0,1,3.335.726c.034.031,0,.077-.046.068a15.518,15.518,0,0,0-3.283-.652.071.071,0,1,1-.006-.142Z" transform="translate(-523.464 -330.495)" fill="#263238"/>
      <path id="Path_29706" data-name="Path 29706" d="M546.834,421.319a3.962,3.962,0,0,1,3.335.726c.034.031,0,.077-.046.068a15.511,15.511,0,0,0-3.289-.646.074.074,0,1,1,0-.148Z" transform="translate(-521.65 -331.602)" fill="#263238"/>
      <path id="Path_29707" data-name="Path 29707" d="M536.45,225a45.288,45.288,0,0,0,1.357,8.79c.092.308.188.637.308.941a18.151,18.151,0,0,1,2.954,1.517s.117,3.947.237,8.347c.129,4.923.268,10.409.237,11.572-.1,4.357.545,28.306.545,28.306l12.095.049s-2.187-26.743-2.172-28.337c.025-2.566-.585-13.9-1.055-22.153-.286-5.092-.523-9.018-.523-9.018Z" transform="translate(-514.512 -195.748)" fill="#263238"/>
      <path id="Path_29708" data-name="Path 29708" d="M556.458,411.142c1.846-.031,1.317-.049,3.166-.058.9,0,6.846-.031,7.692.111a.018.018,0,0,1,0,.037c-.846.138-6.787.062-7.692.049-1.846-.028-1.317-.04-3.166-.086a.028.028,0,0,1,0-.052Z" transform="translate(-528.352 -324.576)" fill="#37474f"/>
      <path id="Path_29709" data-name="Path 29709" d="M578.8,230.58c.221,6.747.458,13.495.76,20.239s.711,13.538,1.277,20.282c.308,3.772.615,9.079,1.021,12.842a.02.02,0,1,1-.04,0c-.88-6.692-1.369-14.968-1.8-21.7s-.726-13.479-.957-20.223c-.129-3.815-.228-7.633-.345-11.449C578.709,230.522,578.8,230.525,578.8,230.58Z" transform="translate(-543.776 -199.58)" fill="#37474f"/>
      <path id="Path_29710" data-name="Path 29710" d="M540.346,255.641a22.135,22.135,0,0,1,3.458,1.809.04.04,0,0,1-.037.071c-1.166-.566-2.357-1.111-3.492-1.741a.078.078,0,0,1,.071-.138Z" transform="translate(-517.131 -216.955)" fill="#37474f"/>
      <path id="Path_29711" data-name="Path 29711" d="M538.2,236.743c.1.563.24,1.12.363,1.68s.2,1.058.335,1.578a2.7,2.7,0,0,0,.735,1.32c.206.194.434.363.652.538l.369.28a1.233,1.233,0,0,0-.043-.228c-.037-.212-.074-.425-.108-.64-.08-.474-.157-.948-.228-1.421-.145-.923-.274-1.877-.471-2.8a.031.031,0,0,1,.058,0c.234.923.489,1.821.692,2.744.1.452.452,2.689.471,2.846s.028.329.034.492a1.948,1.948,0,0,1,0,.5.04.04,0,0,1-.074,0h0a1.878,1.878,0,0,1-.142-.486c-.043-.16-.077-.308-.108-.483a1.79,1.79,0,0,0-.025-.178c-.222-.135-.428-.308-.634-.462s-.446-.308-.655-.492a2.5,2.5,0,0,1-.8-1.255,9.158,9.158,0,0,1-.265-1.606c-.071-.637-.123-1.274-.212-1.908C538.143,236.722,538.2,236.706,538.2,236.743Z" transform="translate(-515.688 -203.863)" fill="#37474f"/>
      <path id="Path_29712" data-name="Path 29712" d="M500.324,172.179a30.009,30.009,0,0,1-6.35,10.953c-1.406,1.538-12.538,3.172-13.713,2.837-.825-.237-3.237-7.356-2.461-7.953,1.474-1.123,11.916.182,12.328-.089a51.511,51.511,0,0,0,7.341-6.846C499.361,168.844,501.229,168.65,500.324,172.179Z" transform="translate(-473.802 -157.292)" fill="#ad6359"/>
      <path id="Path_29713" data-name="Path 29713" d="M528.472,178.159l-6.732-1.978s5.363-5.538,7.384-6.738c2.292-1.335,2.461.129,1.846,2.575A38.411,38.411,0,0,1,528.472,178.159Z" transform="translate(-504.328 -156.933)" fill="#57b8ce"/>
      <path id="Path_29714" data-name="Path 29714" d="M525.923,189.5c.243.031,2.351.615,2.806.751s2.323.68,2.769.858a.018.018,0,0,1,0,.034c-.483-.089-2.366-.631-2.834-.76s-2.538-.754-2.769-.852C525.88,189.521,525.892,189.5,525.923,189.5Z" transform="translate(-507.2 -171.169)" fill="#263238"/>
      <path id="Path_29715" data-name="Path 29715" d="M535.18,177.367l2.6.763a38.282,38.282,0,0,0,2.52-6.153c.455-1.788.48-3.052-.434-3.077Z" transform="translate(-513.633 -156.908)" fill="#263238"/>
      <path id="Path_29716" data-name="Path 29716" d="M546.218,189.916l-17.458-.083c0,.345,3.787-19.513,5.612-21.891.391-.511,3.058-1.154,4.261-.031C543.91,172.822,546.218,190.138,546.218,189.916Z" transform="translate(-509.188 -155.793)" fill="#57b8ce"/>
      <path id="Path_29717" data-name="Path 29717" d="M540.734,187.08l2.231.154-.135,2.944-1.532.406-.877-.7Z" transform="translate(-517.261 -169.495)" opacity="0.1"/>
      <path id="Path_29718" data-name="Path 29718" d="M546.888,162.592c.831.2,2.058-1.375,2.658-2.563.04-.08-.111-.923-.246-1.945-.077-.615-.151-1.317-.172-1.957,0-.132-3.978,1.108-3.978,1.108a10.116,10.116,0,0,1,.468,2.443,1.228,1.228,0,0,1-.018.265v.043C545.532,160.488,546,162.377,546.888,162.592Z" transform="translate(-520.536 -148.059)" fill="#ad6359"/>
      <path id="Path_29719" data-name="Path 29719" d="M545.606,159.965v.043a2.591,2.591,0,0,0,.412,0c2.357-.129,2.883-3.1,2.978-3.858-.711.126-3.837,1.1-3.837,1.1a10.211,10.211,0,0,1,.471,2.443A1.439,1.439,0,0,1,545.606,159.965Z" transform="translate(-520.542 -148.081)" fill="#263238"/>
      <path id="Path_29720" data-name="Path 29720" d="M544.64,134.863c.338,1.449-.686,5.5-1.757,6.347-1.538,1.231-3.957,1.194-4.966-.64-.978-1.778.449-7.033,1.634-7.79A3.549,3.549,0,0,1,544.64,134.863Z" transform="translate(-515.303 -131.591)" fill="#ad6359"/>
      <path id="Path_29721" data-name="Path 29721" d="M547.069,147.67s.018.018.015.031c-.077.271-.117.594.108.745v.015C546.893,148.344,546.955,147.916,547.069,147.67Z" transform="translate(-521.799 -142.21)" fill="#263238"/>
      <path id="Path_29722" data-name="Path 29722" d="M547.446,146.933c.446.077.262.966-.151.9S547.071,146.872,547.446,146.933Z" transform="translate(-521.859 -141.698)" fill="#263238"/>
      <path id="Path_29723" data-name="Path 29723" d="M541.456,146.75s-.025,0-.028.018c-.049.28-.151.588-.418.615v.015C541.315,147.442,541.453,147.021,541.456,146.75Z" transform="translate(-517.669 -141.573)" fill="#263238"/>
      <path id="Path_29724" data-name="Path 29724" d="M540.806,145.622c-.437-.126-.655.757-.249.871S541.16,145.73,540.806,145.622Z" transform="translate(-517.207 -140.784)" fill="#263238"/>
      <path id="Path_29725" data-name="Path 29725" d="M548.357,144.249a3.4,3.4,0,0,1-.308-.194.615.615,0,0,1-.289-.258.2.2,0,0,1,.077-.222.489.489,0,0,1,.483.049.692.692,0,0,1,.332.378.206.206,0,0,1-.3.246Z" transform="translate(-522.336 -139.346)" fill="#263238"/>
      <path id="Path_29726" data-name="Path 29726" d="M540.568,142.806a2.99,2.99,0,0,0,.372-.018.615.615,0,0,0,.378-.092.191.191,0,0,0,.034-.231.477.477,0,0,0-.446-.185.714.714,0,0,0-.471.175.206.206,0,0,0,.132.351Z" transform="translate(-517.23 -138.475)" fill="#263238"/>
      <path id="Path_29727" data-name="Path 29727" d="M545.409,156.118c-.08.049-.163.126-.265.114a.747.747,0,0,1-.283-.132h0a.379.379,0,0,0,.308.222.308.308,0,0,0,.268-.2.015.015,0,0,0-.028-.006Z" transform="translate(-520.33 -148.046)" fill="#263238"/>
      <path id="Path_29728" data-name="Path 29728" d="M542.709,145.987a.954.954,0,0,1-.714.289,1.162,1.162,0,0,1-.338-.055.4.4,0,0,1-.065-.018l-.058-.025a.068.068,0,0,1-.043-.071h0a.088.088,0,0,1,0-.028h0v-.022c.04-.215.126-.532.126-.532-.086.022-.517.117-.489,0a14.629,14.629,0,0,1,.951-2.769.028.028,0,0,1,.049.018c-.2.88-.554,1.72-.769,2.6a1.708,1.708,0,0,1,.471-.043c.028.015-.178.615-.191.711h0a1.32,1.32,0,0,0,1.034-.1C542.712,145.947,542.73,145.969,542.709,145.987Z" transform="translate(-517.75 -138.801)" fill="#263238"/>
      <path id="Path_29729" data-name="Path 29729" d="M543.33,153.42a1.138,1.138,0,0,0,.372.437.529.529,0,0,0,.308.083c.231-.015.28-.215.274-.4a1.234,1.234,0,0,0-.043-.283A1.48,1.48,0,0,1,543.33,153.42Z" transform="translate(-519.276 -146.08)" fill="#263238"/>
      <path id="Path_29730" data-name="Path 29730" d="M544.54,154.476a.529.529,0,0,0,.308.083c.231-.015.28-.215.274-.4A.532.532,0,0,0,544.54,154.476Z" transform="translate(-520.113 -146.699)" fill="#ff98b9"/>
      <path id="Path_29731" data-name="Path 29731" d="M541.14,133.673c.225-.308.471-.637.7-.661s.258.514.729.646c.637.175,1.074-.354,1.991-.231,1.317.175,1.668,1.378,1.32,3.228-.308,1.652.655,2.009.655,2.009s1.344-3.5.569-4.923a3.967,3.967,0,0,0-4.827-1.6C541.611,132.446,541.14,133.673,541.14,133.673Z" transform="translate(-517.759 -131.253)" fill="#263238"/>
      <path id="Path_29732" data-name="Path 29732" d="M555.649,149.256s1.04-1.231,1.612-.861-.289,2.243-1.018,2.443a.72.72,0,0,1-.923-.468Z" transform="translate(-527.576 -142.664)" fill="#ad6359"/>
      <path id="Path_29733" data-name="Path 29733" d="M557.912,150.27v.018a1.828,1.828,0,0,0-1.037,1.052.4.4,0,0,1,.615-.055v.025a.44.44,0,0,0-.5.111,2.115,2.115,0,0,0-.268.372c-.028.043-.1,0-.083-.037h0C556.663,151.11,557.232,150.273,557.912,150.27Z" transform="translate(-528.489 -144.01)" fill="#263238"/>
      <path id="Path_29734" data-name="Path 29734" d="M542,131.886a9.364,9.364,0,0,1,3.4,1.058,17.352,17.352,0,0,1,2.388,2.4c.074.089,1.2-3.344-1.538-4.541A3.131,3.131,0,0,0,542,131.886Z" transform="translate(-518.355 -130.263)" fill="#57b8ce"/>
      <path id="Path_29735" data-name="Path 29735" d="M543.571,134.83a16.2,16.2,0,0,0-2.341-3.627,6.8,6.8,0,0,0-4.8-1.194c-1.231.28,1.252,2.274,1.252,2.274a.8.8,0,0,1,.545-.462,5.1,5.1,0,0,1,2.769.738A17.077,17.077,0,0,1,543.571,134.83Z" transform="translate(-514.261 -129.924)" fill="#57b8ce"/>
      <path id="Path_29736" data-name="Path 29736" d="M543.571,134.83a16.2,16.2,0,0,0-2.341-3.627,6.8,6.8,0,0,0-4.8-1.194c-1.231.28,1.252,2.274,1.252,2.274a.8.8,0,0,1,.545-.462,5.1,5.1,0,0,1,2.769.738A17.077,17.077,0,0,1,543.571,134.83Z" transform="translate(-514.261 -129.924)" opacity="0.2"/>
      <rect id="Rectangle_17824" data-name="Rectangle 17824" width="13.768" height="15.248" transform="translate(23.928 23.456)" fill="#57b8ce"/>
      <rect id="Rectangle_17825" data-name="Rectangle 17825" width="13.768" height="15.248" transform="translate(23.928 23.456)" opacity="0.1"/>
      <rect id="Rectangle_17826" data-name="Rectangle 17826" width="7.11" height="15.248" transform="translate(23.925 38.704) rotate(180)" fill="#57b8ce"/>
      <rect id="Rectangle_17827" data-name="Rectangle 17827" width="7.11" height="15.248" transform="translate(23.925 38.704) rotate(180)" opacity="0.32"/>
      <path id="Path_29737" data-name="Path 29737" d="M561.5,209.455h.508l.126-.255.175.255.237-.523.225.523h.942l.1-.348.1.348h.191v-3.3H561.5Z" transform="translate(-531.855 -182.704)" fill="#fff"/>
      <path id="Path_29738" data-name="Path 29738" d="M521.4,222.717q.791-1.625,1.566-3.261l1.538-3.28,1.538-3.3q.757-1.649,1.5-3.311-.791,1.631-1.563,3.264l-1.538,3.28-1.538,3.3Q522.141,221.059,521.4,222.717Z" transform="translate(-504.093 -185.065)" fill="#57b8ce"/>
      <path id="Path_29739" data-name="Path 29739" d="M521.4,209.57q.745,1.661,1.5,3.311l1.538,3.3,1.538,3.28q.775,1.64,1.563,3.261-.738-1.655-1.5-3.311l-1.538-3.292-1.538-3.28Q522.2,211.2,521.4,209.57Z" transform="translate(-504.093 -185.065)" fill="#57b8ce"/>
      <path id="Path_29740" data-name="Path 29740" d="M563.256,170.947c3.36,2.526,9.876,8.187,10.461,11.249.748,4.018-2.674,11.922-4.135,13.448-.985,1.031-5.323-2.769-5.584-3.692s3.264-7.344,3.292-8.08-4.48-7.464-6.437-10.461C558.373,169.642,560.413,168.805,563.256,170.947Z" transform="translate(-530.636 -157.524)" fill="#ad6359"/>
      <path id="Path_29741" data-name="Path 29741" d="M556.6,236.48c.308-.357.123-.52-.7-.36s-3.926,1.486-4.307.363,4.037-2.932,5.421-3.092a22.408,22.408,0,0,1,3.692.062C559.926,233.978,558.136,235.431,556.6,236.48Z" transform="translate(-524.983 -201.523)" fill="#ad6359"/>
      <path id="Path_29742" data-name="Path 29742" d="M560.3,239.352c-1.391,2.32-5.424,3.781-8.433,3.837a1.486,1.486,0,0,1-.923-.277c-1.348.049-1.775-.572-1.775-.572a2.473,2.473,0,0,1-1.618-1.037s-1.585.04-1.769-.923c-.206-1.071,2.058-.923,3.354-1.594a72.063,72.063,0,0,0,7.572-5.126Z" transform="translate(-520.963 -201.743)" fill="#ad6359"/>
      <path id="Path_29743" data-name="Path 29743" d="M557.369,252.165a15.042,15.042,0,0,1-5.821,1.914.028.028,0,0,0,0,.052,11.384,11.384,0,0,0,5.846-1.926C557.428,252.177,557.412,252.143,557.369,252.165Z" transform="translate(-524.952 -214.55)" fill="#263238"/>
      <path id="Path_29744" data-name="Path 29744" d="M562.194,257.543a15.807,15.807,0,0,1-5.424,1.292v.018a10.224,10.224,0,0,0,5.443-1.268C562.265,257.558,562.253,257.518,562.194,257.543Z" transform="translate(-528.58 -218.272)" fill="#263238"/>
      <path id="Path_29745" data-name="Path 29745" d="M566.837,260.485a16.116,16.116,0,0,1-4.267.985v.018a9.665,9.665,0,0,0,4.307-.954C566.92,260.509,566.9,260.46,566.837,260.485Z" transform="translate(-532.596 -220.31)" fill="#263238"/>
      <path id="Path_29746" data-name="Path 29746" d="M562.773,177.942l6.375-2.932s-6.11-4.714-8.307-5.594c-2.461-.991-2.431.486-1.461,2.815A38.03,38.03,0,0,0,562.773,177.942Z" transform="translate(-529.962 -157.049)" fill="#57b8ce"/>
      <path id="Path_29747" data-name="Path 29747" d="M575.967,185.984c-.237.068-2.237.951-2.667,1.151s-2.2,1.006-2.628,1.252c-.018,0,0,.04,0,.031.465-.157,2.252-.966,2.7-1.163s2.4-1.111,2.6-1.231C576,185.984,576,185.965,575.967,185.984Z" transform="translate(-538.199 -168.731)" fill="#263238"/>
      <path id="Path_29748" data-name="Path 29748" d="M565.216,186.142c-.2.074-.5.2-.5.2-.471-.861-1.034-1.68-1.538-2.517s-1.058-1.692-1.585-2.538h-.022c.271.5.538.994.812,1.489l-.135-.166c-.16-.2-.326-.394-.477-.6,0-.015-.04,0-.028.018a6.4,6.4,0,0,0,.437.631c.117.138.24.271.366.4.157.28.308.563.48.843.508.855,1.009,1.846,1.581,2.655,0,0,.434-.246.64-.394C565.268,186.167,565.247,186.124,565.216,186.142Z" transform="translate(-531.904 -165.486)" fill="#263238"/>
      <path id="Path_29749" data-name="Path 29749" d="M484.155,195.791l-10.486.865-3.52-14.341,10.486-.865Z" transform="translate(-468.611 -165.597)" fill="#37474f"/>
      <path id="Path_29750" data-name="Path 29750" d="M484.027,181.371l-4.969.406-.388-1.585,4.972-.4Z" transform="translate(-474.51 -164.448)" fill="#a6a6a6"/>
      <path id="Path_29751" data-name="Path 29751" d="M484.327,177.1l-.612.049-.178-.729-1.489.12.178.732-.609.049-.326-1.329,2.72-.222Z" transform="translate(-476.324 -161.664)" fill="#a6a6a6"/>
      <path id="Path_29752" data-name="Path 29752" d="M465.152,196.526a1.141,1.141,0,0,0,.886,1.04,1.706,1.706,0,0,0-.615,1.585c.123.455.96.658.96.658a1.36,1.36,0,0,0-.4,1.363c.209.615,1.018.726,1.018.726a1.627,1.627,0,0,0,.043,1.421c.843,1.135,6.3-.1,6.686-2.3.182-1.028-1.135-.652-1.135-.652s1.763-.994,1.538-2.126-1.908-.542-1.908-.542,1.7-.978,1.348-2.129-1.948-.308-1.948-.308,1.028-1.1.557-1.914c-.778-1.351-3.12,1.092-4.381,1.08l-.5-1.871S465.047,195.535,465.152,196.526Z" transform="translate(-465.149 -173.289)" fill="#ad6359"/>
      <path id="Path_29753" data-name="Path 29753" d="M471.59,219.2v.028a9.686,9.686,0,0,0,5.538-1.606c.049-.037,0-.135-.049-.1A19.974,19.974,0,0,1,471.59,219.2Z" transform="translate(-469.608 -190.563)" fill="#263238"/>
      <path id="Path_29754" data-name="Path 29754" d="M469.068,211.212c-.022,0,0,.04,0,.04a9.089,9.089,0,0,0,5.941-2.129c.055-.049.055-.154,0-.1A16.217,16.217,0,0,1,469.068,211.212Z" transform="translate(-467.856 -184.676)" fill="#263238"/>
      <path id="Path_29755" data-name="Path 29755" d="M473.866,200.823a12.475,12.475,0,0,1-5.6,2.461c-.028,0-.015.04,0,.043a8.187,8.187,0,0,0,3.32-.745,5.6,5.6,0,0,0,2.323-1.7C473.936,200.851,473.9,200.8,473.866,200.823Z" transform="translate(-467.293 -179.004)" fill="#263238"/>
      <path id="Path_29756" data-name="Path 29756" d="M545.56,170.588a5.33,5.33,0,0,0,.255.9,5.4,5.4,0,0,0,.394.843,2.565,2.565,0,0,0,.563.7.858.858,0,0,0,.366.175.843.843,0,0,0,.391-.086,4.037,4.037,0,0,0,1.412-1.138c.1-.117.2-.24.308-.36a3.255,3.255,0,0,0,.274-.385c.089-.129.175-.258.262-.391s.163-.268.249-.4a7.379,7.379,0,0,1-.923,1.661,3.741,3.741,0,0,1-1.471,1.246,1.067,1.067,0,0,1-.526.092.985.985,0,0,1-.474-.234,2.372,2.372,0,0,1-.581-.791A4.5,4.5,0,0,1,545.56,170.588Z" transform="translate(-520.819 -157.981)" fill="#263238"/>
    </g>
  </g>
</svg>
