<svg xmlns="http://www.w3.org/2000/svg" width="1083.381" height="78.831" viewBox="0 0 1083.381 78.831">
  <g id="freepik--Symbols--inject-82" transform="translate(54.844 -60.406)" opacity="0.302">
    <g id="Group_42657" data-name="Group 42657">
      <g id="freepik--question-mark--inject-82" transform="translate(994.836 62.615)">
        <path id="Path_27801" data-name="Path 27801" d="M431.32,298.83a27.881,27.881,0,0,1,3.54-1.31,21.877,21.877,0,0,1,3.93-.78,22.148,22.148,0,0,1,4.31,0,24,24,0,0,1,4.72,1,20.18,20.18,0,0,1,5.82,2.81,14.28,14.28,0,0,1,3.91,4.09,12.25,12.25,0,0,1,1.77,5.07,14,14,0,0,1-.59,5.77,14.21,14.21,0,0,1-2.41,4.8,14.641,14.641,0,0,1-3.26,3.07,17,17,0,0,1-3.63,1.88l-3.54,1.29a25.223,25.223,0,0,0-2.95,1.29,4.16,4.16,0,0,0-1.86,1.85L438.47,335,432,333l1.27-6.49a5.33,5.33,0,0,1,1.5-3,10.13,10.13,0,0,1,2.77-1.89,28.16,28.16,0,0,1,3.47-1.34,26.943,26.943,0,0,0,3.6-1.42,12.729,12.729,0,0,0,3.12-2.12,7.71,7.71,0,0,0,2.05-3.44,6,6,0,0,0,.24-2.65,5.869,5.869,0,0,0-.86-2.33,6.9,6.9,0,0,0-1.84-1.9,9.71,9.71,0,0,0-2.67-1.28,13,13,0,0,0-3.86-.66,13.788,13.788,0,0,0-2.92.29c-.83.18-1.53.35-2.12.52a2.49,2.49,0,0,1-1.46.08,2.2,2.2,0,0,1-1.65-1.77ZM426,342.24a6.1,6.1,0,0,1,1.14-2.13,5.76,5.76,0,0,1,4-2.14,6.17,6.17,0,0,1,4.6,1.41,6.431,6.431,0,0,1,1.47,1.8,6,6,0,0,1,.45,4.65,5.75,5.75,0,0,1-1.17,2.15,5.828,5.828,0,0,1-1.81,1.45,6.177,6.177,0,0,1-4.65.38,6.41,6.41,0,0,1-2.18-1.15,5.76,5.76,0,0,1-1.47-1.78,5.92,5.92,0,0,1-.66-2.21,6.221,6.221,0,0,1,.28-2.43Z" transform="translate(-425.699 -296.635)" fill="#e0e0e0"/>
      </g>
      <g id="freepik--question-mark--inject-82-2" data-name="freepik--question-mark--inject-82" transform="translate(710.965 88.417)">
        <path id="Path_27802" data-name="Path 27802" d="M446.92,156.19a19.438,19.438,0,0,1-2.34,1.11,14.821,14.821,0,0,1-2.63.77,14.52,14.52,0,0,1-2.93.26,16.161,16.161,0,0,1-3.28-.37,13.6,13.6,0,0,1-4.14-1.56,9.77,9.77,0,0,1-2.91-2.55,8.36,8.36,0,0,1-1.51-3.35,9.51,9.51,0,0,1,.05-4,9.71,9.71,0,0,1,1.35-3.42,10.139,10.139,0,0,1,2-2.29,11.717,11.717,0,0,1,2.36-1.5l2.34-1.1a16.267,16.267,0,0,0,1.93-1.05,2.83,2.83,0,0,0,1.15-1.38l1.46-3.8,4.56,1-.48,4.49a3.61,3.61,0,0,1-.84,2.15,6.84,6.84,0,0,1-1.77,1.45,19.531,19.531,0,0,1-2.29,1.13,16.819,16.819,0,0,0-2.36,1.19,8.55,8.55,0,0,0-2,1.63,5.15,5.15,0,0,0-1.19,2.47,3.93,3.93,0,0,0,.72,3.35,4.69,4.69,0,0,0,1.38,1.18,6.291,6.291,0,0,0,1.89.72,8.92,8.92,0,0,0,2.67.21,9.1,9.1,0,0,0,2-.37c.56-.17,1-.33,1.42-.49a1.76,1.76,0,0,1,1-.14,1.52,1.52,0,0,1,1.23,1.11Zm1-29.92a4.15,4.15,0,0,1-.64,1.53,4,4,0,0,1-1.13,1.11,4.11,4.11,0,0,1-1.48.59,4.19,4.19,0,0,1-1.69,0,4,4,0,0,1-1.53-.66,4.44,4.44,0,0,1-1.11-1.14,4,4,0,0,1-.61-1.48,4.27,4.27,0,0,1,0-1.67,3.91,3.91,0,0,1,.67-1.53,4.109,4.109,0,0,1,1.14-1.1,4.221,4.221,0,0,1,1.48-.57,4.28,4.28,0,0,1,1.67,0,4.22,4.22,0,0,1,1.55.65,4,4,0,0,1,1.12,1.13,4.06,4.06,0,0,1,.54,3.13Z" transform="translate(-426.992 -121.268)" fill="#e0e0e0"/>
      </g>
      <g id="freepik--question-mark--inject-82-3" data-name="freepik--question-mark--inject-82" transform="translate(-54.844 89.347)">
        <path id="Path_27803" data-name="Path 27803" d="M61.09,319.44a21.094,21.094,0,0,1-2.34,1.11,14.805,14.805,0,0,1-2.63.76,15.3,15.3,0,0,1-2.94.27,16.112,16.112,0,0,1-3.27-.38,13.65,13.65,0,0,1-4.14-1.55,9.81,9.81,0,0,1-2.91-2.56,8.31,8.31,0,0,1-1.52-3.35,9.52,9.52,0,0,1,.06-4,9.87,9.87,0,0,1,1.35-3.42,10.3,10.3,0,0,1,2-2.29,11.05,11.05,0,0,1,2.37-1.49l2.33-1.1a15.488,15.488,0,0,0,1.93-1.06A2.88,2.88,0,0,0,52.57,299L54,295.23l4.56,1-.47,4.5a3.67,3.67,0,0,1-.84,2.14,6.92,6.92,0,0,1-1.78,1.46,19.366,19.366,0,0,1-2.28,1.12,18.74,18.74,0,0,0-2.37,1.19,8.76,8.76,0,0,0-2,1.63,5.24,5.24,0,0,0-1.18,2.47,4.14,4.14,0,0,0,0,1.82,4.05,4.05,0,0,0,.73,1.54,4.67,4.67,0,0,0,1.37,1.18,6.56,6.56,0,0,0,1.89.71,9,9,0,0,0,2.68.22,10.662,10.662,0,0,0,2-.37c.55-.18,1-.34,1.41-.49a1.68,1.68,0,0,1,1-.14,1.48,1.48,0,0,1,1.23,1.1Zm1-29.92a4.052,4.052,0,0,1-3.25,3.23,4.37,4.37,0,0,1-1.69,0,4.2,4.2,0,0,1-1.54-.67,4.289,4.289,0,0,1-1.11-1.14,4.12,4.12,0,0,1-.6-1.48,4.27,4.27,0,0,1,.68-3.2,4.1,4.1,0,0,1,1.15-1.09,4.19,4.19,0,0,1,3.15-.55,4.38,4.38,0,0,1,1.55.66,3.92,3.92,0,0,1,1.69,2.59,4.28,4.28,0,0,1,0,1.65Z" transform="translate(-41.156 -284.52)" fill="#e0e0e0"/>
      </g>
      <g id="freepik--question-mark--inject-82-4" data-name="freepik--question-mark--inject-82" transform="translate(220.148 81.148)">
        <path id="Path_27804" data-name="Path 27804" d="M37.51,126.87A21.391,21.391,0,0,1,39,124.74a16,16,0,0,1,1.89-2,15.189,15.189,0,0,1,2.41-1.7,16.07,16.07,0,0,1,3-1.31,13.7,13.7,0,0,1,4.37-.73,9.71,9.71,0,0,1,3.79.75,8.48,8.48,0,0,1,3,2.14,10.71,10.71,0,0,1,2.48,7.1,10,10,0,0,1-.62,3,11.2,11.2,0,0,1-1.32,2.5l-1.47,2.12a16,16,0,0,0-1.14,1.88,2.74,2.74,0,0,0-.31,1.77l.64,4-4.43,1.44-1.84-4.13a3.67,3.67,0,0,1-.35-2.28,7,7,0,0,1,.81-2.15,19.379,19.379,0,0,1,1.41-2.11,18.87,18.87,0,0,0,1.46-2.22,8.8,8.8,0,0,0,.91-2.41,5.2,5.2,0,0,0-.21-2.73,4.16,4.16,0,0,0-.91-1.58,4,4,0,0,0-1.4-1,4.67,4.67,0,0,0-1.78-.34,6.43,6.43,0,0,0-2,.33A8.88,8.88,0,0,0,45,126.31a9.83,9.83,0,0,0-1.52,1.3c-.39.43-.71.81-1,1.13a1.71,1.71,0,0,1-.78.62,1.5,1.5,0,0,1-1.6-.36ZM51.6,153.29a4.43,4.43,0,0,1-.2-1.65,4,4,0,0,1,.42-1.53,4.14,4.14,0,0,1,1-1.25,4.35,4.35,0,0,1,1.47-.83,4.18,4.18,0,0,1,1.67-.19,4.35,4.35,0,0,1,1.53.43,4.06,4.06,0,0,1,1.26,1,3.93,3.93,0,0,1,.82,1.45,4.14,4.14,0,0,1,.2,1.66,4.26,4.26,0,0,1-.45,1.52,4.37,4.37,0,0,1-1,1.24,4.17,4.17,0,0,1-1.46.81,4.39,4.39,0,0,1-1.67.21,4,4,0,0,1-1.53-.41,4.17,4.17,0,0,1-1.24-1A4.51,4.51,0,0,1,51.6,153.29Z" transform="translate(-37.51 -119)" fill="#e0e0e0"/>
      </g>
      <g id="freepik--question-mark--inject-82-5" data-name="freepik--question-mark--inject-82" transform="translate(295.74 94.23)">
        <path id="Path_27805" data-name="Path 27805" d="M200.38,131.12a25,25,0,0,1-1.94,2.44,17.229,17.229,0,0,1-2.43,2.22,18.81,18.81,0,0,1-3,1.85,20,20,0,0,1-3.74,1.34,16.49,16.49,0,0,1-5.31.51,11.89,11.89,0,0,1-4.5-1.21,10.11,10.11,0,0,1-3.42-2.82,11.38,11.38,0,0,1-2-4.32,11.69,11.69,0,0,1-.37-4.41,12.5,12.5,0,0,1,1-3.56,13.781,13.781,0,0,1,1.76-2.87l1.94-2.43a19.063,19.063,0,0,0,1.53-2.17,3.36,3.36,0,0,0,.51-2.1l-.45-4.89,5.45-1.37,1.87,5.11a4.41,4.41,0,0,1,.24,2.77,8.389,8.389,0,0,1-1.15,2.52,23.191,23.191,0,0,1-1.87,2.42,22.471,22.471,0,0,0-1.93,2.55,10.421,10.421,0,0,0-1.29,2.82,6.27,6.27,0,0,0,0,3.3,4.78,4.78,0,0,0,2.56,3.24,5.53,5.53,0,0,0,2.11.55,7.59,7.59,0,0,0,2.43-.23,10.83,10.83,0,0,0,3-1.19,11.53,11.53,0,0,0,1.93-1.45c.51-.48.93-.91,1.27-1.28a2.15,2.15,0,0,1,1-.68,1.83,1.83,0,0,1,1.92.55ZM185.6,98.23a5,5,0,0,1,.11,2,4.75,4.75,0,0,1-.62,1.81,5.08,5.08,0,0,1-1.29,1.42,5.17,5.17,0,0,1-3.85,1,5.35,5.35,0,0,1-1.81-.64,5.09,5.09,0,0,1-1.43-1.28,5,5,0,0,1-.87-1.81,5.09,5.09,0,0,1-.1-2,5,5,0,0,1,.66-1.8,5.23,5.23,0,0,1,1.3-1.4,5,5,0,0,1,1.82-.86,5.18,5.18,0,0,1,2-.11,4.76,4.76,0,0,1,1.8.62,4.85,4.85,0,0,1,1.4,1.28,5,5,0,0,1,.88,1.77Z" transform="translate(-173.603 -94.51)" fill="#e0e0e0"/>
      </g>
      <g id="freepik--question-mark--inject-82-6" data-name="freepik--question-mark--inject-82" transform="translate(783.221 75.98)">
        <path id="Path_27806" data-name="Path 27806" d="M303.56,77.86a20.428,20.428,0,0,1,2.52-1A15.53,15.53,0,0,1,312,76a16.93,16.93,0,0,1,3.43.57,14.65,14.65,0,0,1,4.26,1.86,10.32,10.32,0,0,1,2.92,2.85,8.88,8.88,0,0,1,1.41,3.6,10,10,0,0,1-.27,4.17,10.33,10.33,0,0,1-1.61,3.52,10.74,10.74,0,0,1-2.26,2.3,11.921,11.921,0,0,1-2.57,1.44l-2.51,1a16.38,16.38,0,0,0-2.09,1,3,3,0,0,0-1.29,1.39l-1.74,3.92-4.74-1.27.75-4.7a3.75,3.75,0,0,1,1-2.21,7,7,0,0,1,1.94-1.43A21.41,21.41,0,0,1,311.07,93a18.892,18.892,0,0,0,2.56-1.12,9.181,9.181,0,0,0,2.19-1.61,5.49,5.49,0,0,0,1.38-2.53,4.32,4.32,0,0,0,.11-1.91,4.15,4.15,0,0,0-.69-1.65,4.68,4.68,0,0,0-1.37-1.32A6.87,6.87,0,0,0,313.3,82a9.49,9.49,0,0,0-2.81-.38,10.13,10.13,0,0,0-2.09.29c-.59.15-1.09.29-1.51.43a1.91,1.91,0,0,1-1.05.1,1.59,1.59,0,0,1-1.23-1.23Zm-2.72,31.39a4.49,4.49,0,0,1,.76-1.57,4.39,4.39,0,0,1,1.25-1.11,4.444,4.444,0,0,1,6.04,1.62,4.121,4.121,0,0,1,.55,1.59,4.319,4.319,0,0,1-.1,1.75,4.4,4.4,0,0,1-2.05,2.66,4.36,4.36,0,0,1-3.34.4,4.66,4.66,0,0,1-1.6-.77,4.24,4.24,0,0,1-1.11-1.25,4.309,4.309,0,0,1-.53-1.56,4.6,4.6,0,0,1,.13-1.76Z" transform="translate(-300.677 -75.981)" fill="#e0e0e0"/>
      </g>
      <g id="freepik--question-mark--inject-82-7" data-name="freepik--question-mark--inject-82" transform="translate(918.408 70.77)">
        <path id="Path_27807" data-name="Path 27807" d="M437.27,41.84a28.321,28.321,0,0,1,1.48-3.33,21,21,0,0,1,2.11-3.23,20.747,20.747,0,0,1,2.9-3,22.62,22.62,0,0,1,3.84-2.61,19.25,19.25,0,0,1,5.85-2.13,13.83,13.83,0,0,1,5.45.06,11.8,11.8,0,0,1,4.7,2.2,13.31,13.31,0,0,1,3.58,4.28,13.91,13.91,0,0,1,1.69,4.9,14.359,14.359,0,0,1-.08,4.31,15.89,15.89,0,0,1-1.15,3.77c-.53,1.17-1,2.28-1.49,3.31a22.224,22.224,0,0,0-1.09,2.9,4,4,0,0,0,0,2.53L467,61.24l-5.77,3.14-3.61-5.24a5.09,5.09,0,0,1-1.07-3.06,9.75,9.75,0,0,1,.56-3.19,27.573,27.573,0,0,1,1.41-3.29A25.005,25.005,0,0,0,460,46.16a11.94,11.94,0,0,0,.64-3.58,7.41,7.41,0,0,0-1-3.73,5.81,5.81,0,0,0-1.66-2,5.69,5.69,0,0,0-2.19-1,6.62,6.62,0,0,0-2.55,0,9.26,9.26,0,0,0-2.68,1,13,13,0,0,0-3.06,2.22,14.2,14.2,0,0,0-1.76,2.2c-.43.7-.79,1.3-1.07,1.82a2.46,2.46,0,0,1-.92,1.06,2.12,2.12,0,0,1-2.33-.05ZM463.6,74.77a6.19,6.19,0,0,1-.71-2.23,5.651,5.651,0,0,1,.19-2.22,5.769,5.769,0,0,1,1-2,5.63,5.63,0,0,1,1.82-1.52,5.72,5.72,0,0,1,2.25-.7,6.2,6.2,0,0,1,2.24.2,5.7,5.7,0,0,1,2,1,6,6,0,0,1,2.2,4,5.911,5.911,0,0,1-.22,2.23,5.76,5.76,0,0,1-1.06,2,5.66,5.66,0,0,1-1.81,1.5,6.11,6.11,0,0,1-2.26.73,5.84,5.84,0,0,1-2.22-.18,5.55,5.55,0,0,1-2-1A6.049,6.049,0,0,1,463.6,74.77Z" transform="translate(-437.27 -27.298)" fill="#e0e0e0"/>
      </g>
      <g id="freepik--question-mark--inject-82-8" data-name="freepik--question-mark--inject-82" transform="translate(66.012 60.406)">
        <path id="Path_27808" data-name="Path 27808" d="M62.35,81.38a26.391,26.391,0,0,1-3.63.3,20.52,20.52,0,0,1-7.85-1.4,22.82,22.82,0,0,1-4.13-2.12,19,19,0,0,1-4.68-4.1,14,14,0,0,1-2.57-4.81,12,12,0,0,1-.34-5.17,13.47,13.47,0,0,1,2-5.2A13.82,13.82,0,0,1,44.67,55a14.08,14.08,0,0,1,3.82-2,16.19,16.19,0,0,1,3.86-.8L56,51.94a22.94,22.94,0,0,0,3-.43,4.05,4.05,0,0,0,2.2-1.24L65.05,46l5.53,3.54L67.72,55.2a5.12,5.12,0,0,1-2.17,2.42,9.78,9.78,0,0,1-3.06,1,26.34,26.34,0,0,1-3.57.35,25.5,25.5,0,0,0-3.71.39,12.47,12.47,0,0,0-3.44,1.16A7.38,7.38,0,0,0,49,63.22a5.74,5.74,0,0,0-.91,2.39,5.52,5.52,0,0,0,.2,2.39,6.46,6.46,0,0,0,1.22,2.23,8.89,8.89,0,0,0,2.14,1.88,12.41,12.41,0,0,0,3.42,1.62,13.3,13.3,0,0,0,2.78.48c.81.05,1.52.07,2.11.06a2.55,2.55,0,0,1,1.37.31,2.12,2.12,0,0,1,1.07,2.07ZM78.56,42.46a5.94,5.94,0,0,1-1.62,1.69,5.68,5.68,0,0,1-2,.91,5.8,5.8,0,0,1-2.24,0,6,6,0,0,1-2.22-.86,5.75,5.75,0,0,1-1.69-1.64,6.33,6.33,0,0,1-.9-2.05,5.83,5.83,0,0,1,.79-4.44,5.61,5.61,0,0,1,1.63-1.69,5.9,5.9,0,0,1,2.06-.87A6.1,6.1,0,0,1,78.48,36a5.51,5.51,0,0,1,.91,2,5.7,5.7,0,0,1,0,2.22A6.16,6.16,0,0,1,78.56,42.46Z" transform="translate(-39.012 -33.406)" fill="#e0e0e0"/>
      </g>
    </g>
  </g>
</svg>
