<svg xmlns="http://www.w3.org/2000/svg" width="146.676" height="142.134" viewBox="0 0 146.676 142.134">
  <g id="Free_shipping-amico" data-name="Free shipping-amico" transform="translate(-7.5 -16.2)">
    <g id="freepik--Floor--inject-40" transform="translate(7.5 72.445)">
      <ellipse id="freepik--floor--inject-40-2" data-name="freepik--floor--inject-40" cx="73.338" cy="42.944" rx="73.338" ry="42.944" fill="#fafafa"/>
    </g>
    <g id="freepik--Shadows--inject-40" transform="translate(14.11 79.843)">
      <path id="freepik--Shadow--inject-40" d="M66.1,228.368,30.292,249.045a.835.835,0,0,0,0,1.582l83.079,48.022a4.355,4.355,0,0,0,2.9.387c15.768-4.319,28.089-11.677,35.989-20.65a1.264,1.264,0,0,0-.345-2L68.848,228.368A3.024,3.024,0,0,0,66.1,228.368Z" transform="translate(-29.725 -228.037)" fill="#ebebeb"/>
      <ellipse id="freepik--shadow--inject-40-2" data-name="freepik--shadow--inject-40" cx="10.624" cy="6.133" rx="10.624" ry="6.133" transform="translate(14.787 38.751)" fill="#ebebeb"/>
    </g>
    <g id="freepik--Truck--inject-40" transform="translate(22.367 34.202)">
      <g id="freepik--truck--inject-40-2" data-name="freepik--truck--inject-40">
        <g id="freepik--Back--inject-40" transform="translate(0 33.527)">
          <path id="Path_29964" data-name="Path 29964" d="M78.849,275.974a6.7,6.7,0,0,1-.523,2.764h0a3.427,3.427,0,0,1-1.346,1.57l-.045.027h0l-3.369,1.942h0L72.2,279.554l-.094-.181a11.1,11.1,0,0,1-2.041-2.078,6.655,6.655,0,0,1-.429-.59,14.975,14.975,0,0,1-1.942-3.968,12.075,12.075,0,0,1-.587-3.3l-.024-.045-.345-.684L66,267.3l-.3-.6,3-1.739h0l.2-.118.085-.048A3.025,3.025,0,0,1,70.5,264.4a4.969,4.969,0,0,1,2.453.744C76.215,267.04,78.849,271.882,78.849,275.974Z" transform="translate(-62.966 -240.732)" fill="#263238"/>
          <path id="Path_29965" data-name="Path 29965" d="M59,275.759a14.1,14.1,0,0,0,4.582,9.874h0a8.646,8.646,0,0,0,1.288.922c3.251,1.881,5.888.082,5.885-4.013a14.3,14.3,0,0,0-3.629-8.958l-.018-.018a9.468,9.468,0,0,0-2.226-1.833C61.619,269.87,59,271.667,59,275.759Z" transform="translate(-58.292 -245.335)" fill="#37474f"/>
          <path id="Path_29966" data-name="Path 29966" d="M69.764,280.592c-2.066-1.195-3.744.048-3.744,2.779s1.678,5.909,3.744,7.1,3.747-.051,3.747-2.779S71.833,281.787,69.764,280.592Z" transform="translate(-63.189 -251.711)" fill="#455a64"/>
          <path id="Path_29967" data-name="Path 29967" d="M59,275.77a14.1,14.1,0,0,0,4.582,9.874,16.667,16.667,0,0,1-3.732-7.222c-.5-2.359-.3-5.746,1.715-6.6s4.7.947,5.543,1.769a9.468,9.468,0,0,0-2.226-1.833C61.619,269.881,59,271.678,59,275.77Z" transform="translate(-58.292 -245.346)" fill="#455a64"/>
          <path id="Path_29968" data-name="Path 29968" d="M73.922,288.956c-1.074-.62-1.942.024-1.942,1.443a4.62,4.62,0,0,0,1.942,3.687c1.074.62,1.945-.027,1.945-1.443A4.586,4.586,0,0,0,73.922,288.956Z" transform="translate(-67.347 -257.697)" fill="#e0e0e0"/>
          <path id="Path_29969" data-name="Path 29969" d="M73.274,289.012a1.6,1.6,0,0,0-.426-.172c-.538.145-.907.735-.907,1.642a4.9,4.9,0,0,0,1.1,2.943,2.21,2.21,0,0,0,.23.157c.956.55,1.727-.021,1.727-1.282A4.127,4.127,0,0,0,73.274,289.012Z" transform="translate(-67.319 -257.781)" fill="#f5f5f5"/>
          <path id="Path_29970" data-name="Path 29970" d="M64.83,259.26v1.427l42.01,24.254v-1.427Z" transform="translate(-62.359 -237.147)" fill="#455a64"/>
          <path id="Path_29971" data-name="Path 29971" d="M102.405,285.678l-2.3-1.328v7.8c0,.42.3.59.656.378l1.815-1.043-.172-.1Z" transform="translate(-86.97 -254.649)" fill="#57b8ce"/>
          <path id="Path_29972" data-name="Path 29972" d="M102.405,285.678l-2.3-1.328v7.8c0,.42.3.59.656.378l1.815-1.043-.172-.1Z" transform="translate(-86.97 -254.649)" fill="#fff" opacity="0.7"/>
          <path id="Path_29973" data-name="Path 29973" d="M107.7,288.74v4.279l10.509,6.067v-4.279Z" transform="translate(-92.264 -257.711)" fill="#37474f"/>
          <path id="Path_29974" data-name="Path 29974" d="M116.8,308.957l-10.509-6.067-.611.363,11.12,6.411Z" transform="translate(-90.855 -267.582)" fill="#263238"/>
          <path id="Path_29975" data-name="Path 29975" d="M105.69,304.811V304.1l11.117,6.408v.72Z" transform="translate(-90.862 -268.426)" fill="#455a64"/>
          <path id="Path_29976" data-name="Path 29976" d="M142.45,304.08v8.562l8.649,4.993v-8.562Z" transform="translate(-116.505 -268.412)" fill="#37474f"/>
          <path id="Path_29977" data-name="Path 29977" d="M171.05,320.59v8.562l8.649,4.993v-8.559Z" transform="translate(-136.456 -279.929)" fill="#37474f"/>
          <path id="Path_29978" data-name="Path 29978" d="M199.65,345.662l2.471-1.427V337.1l-1.234.714-1.237-.711Z" transform="translate(-156.406 -291.446)" fill="#263238"/>
          <path id="Path_29979" data-name="Path 29979" d="M170.02,328.559V320l.617.357v8.559Z" transform="translate(-135.737 -279.517)" fill="#263238"/>
          <path id="Path_29980" data-name="Path 29980" d="M184.32,334.4V332.97l.617.357,0,1.427Z" transform="translate(-145.712 -288.565)" fill="#e0e0e0"/>
          <path id="Path_29981" data-name="Path 29981" d="M155.72,317.9V316.47l.617.354,0,1.43Z" transform="translate(-125.762 -277.055)" fill="#e0e0e0"/>
          <path id="Path_29982" data-name="Path 29982" d="M138.972,302.87v5.71l-.6.36v.717l1.234.714v-7.134Z" transform="translate(-113.659 -267.568)" opacity="0.2"/>
          <path id="Path_29983" data-name="Path 29983" d="M56.66,247.993l44.481,25.679,0-2.843L56.66,245.15Z" transform="translate(-56.66 -227.304)" fill="#57b8ce"/>
          <g id="Group_42591" data-name="Group 42591" transform="translate(0 17.846)" opacity="0.6">
            <path id="Path_29984" data-name="Path 29984" d="M56.66,247.993l44.481,25.679,0-2.843L56.66,245.15Z" transform="translate(-56.66 -245.15)" fill="#fff"/>
          </g>
          <path id="Path_29985" data-name="Path 29985" d="M203.74,331.236l1.234-.714V327.67l-1.234.714Z" transform="translate(-159.259 -284.868)" fill="#57b8ce"/>
          <g id="Group_42592" data-name="Group 42592" transform="translate(44.481 42.802)" opacity="0.5">
            <path id="Path_29986" data-name="Path 29986" d="M203.74,331.236l1.234-.714V327.67l-1.234.714Z" transform="translate(-203.74 -327.67)" fill="#fff"/>
          </g>
          <g id="Group_42593" data-name="Group 42593" transform="translate(44.481 42.802)" opacity="0.1">
            <path id="Path_29987" data-name="Path 29987" d="M203.74,331.236l1.234-.714V327.67l-1.234.714Z" transform="translate(-203.74 -327.67)"/>
          </g>
          <path id="Path_29988" data-name="Path 29988" d="M87.55,186.14,56.66,203.986l44.481,25.67,30.89-17.834Z" transform="translate(-56.66 -186.14)" fill="#57b8ce"/>
          <g id="Group_42594" data-name="Group 42594" opacity="0.8">
            <path id="Path_29989" data-name="Path 29989" d="M87.55,186.14,56.66,203.986l44.481,25.67,30.89-17.834Z" transform="translate(-56.66 -186.14)" fill="#fff"/>
          </g>
        </g>
        <g id="freepik--Gift--inject-40" transform="translate(3.705)">
          <g id="freepik--Box--inject-40">
            <g id="freepik--box--inject-40-2" data-name="freepik--box--inject-40">
              <path id="Path_29990" data-name="Path 29990" d="M68.91,91.687l39.539,22.827,28.419-16.407L97.329,75.28Z" transform="translate(-68.91 -75.28)" fill="#455a64"/>
              <path id="Path_29991" data-name="Path 29991" d="M108.449,188.025V152.357L68.91,129.53V165.2Z" transform="translate(-68.91 -113.123)" fill="#37474f"/>
              <path id="Path_29992" data-name="Path 29992" d="M199.65,202.835l28.419-16.407V150.76L199.65,167.167Z" transform="translate(-160.111 -127.933)" fill="#263238"/>
            </g>
            <path id="Path_29993" data-name="Path 29993" d="M160.222,278.655a1.718,1.718,0,0,1-.732-1.388V275.15l1.488.874.1-.018v.142h0v1.9a.711.711,0,0,1-.3.644.487.487,0,0,1-.233.06A.674.674,0,0,1,160.222,278.655Zm.166-2.286-.109.744h-.55v.154a1.512,1.512,0,0,0,.6,1.182.327.327,0,0,0,.321.033.481.481,0,0,0,.172-.435v-1.76Zm-.212-.206.439-.079-.886-.523v1.313h.345Z" transform="translate(-132.096 -214.704)" fill="#e0e0e0"/>
            <path id="Path_29994" data-name="Path 29994" d="M161.838,287.843a.118.118,0,0,0,.118-.121v-1.594a.118.118,0,1,0-.236,0v1.594a.118.118,0,0,0,.118.121Z" transform="translate(-133.652 -222.28)" fill="#e0e0e0"/>
            <path id="Path_29995" data-name="Path 29995" d="M160.922,290.984a.115.115,0,0,0,.1-.06.118.118,0,0,0-.042-.163l-1.391-.8a.112.112,0,0,0-.16.042.118.118,0,0,0,.042.163l1.388.8A.135.135,0,0,0,160.922,290.984Z" transform="translate(-132.043 -225.022)" fill="#e0e0e0"/>
            <path id="Path_29996" data-name="Path 29996" d="M176.927,294.529a.245.245,0,0,0,.13-.033.3.3,0,0,0,.142-.287v-.327a.121.121,0,0,0-.239,0v.327c0,.048,0,.076-.024.082a.1.1,0,0,1-.076-.021.7.7,0,0,1-.224-.541v-2.117a.118.118,0,0,0-.118-.121.121.121,0,0,0-.121.121v2.117a.907.907,0,0,0,.339.747.39.39,0,0,0,.191.054Z" transform="translate(-143.89 -226.103)" fill="#e0e0e0"/>
            <path id="Path_29997" data-name="Path 29997" d="M171.774,286.451v-.07a1.01,1.01,0,0,1,1.645-.95,3.372,3.372,0,0,1,1.527,2.646v.206Zm.6-.907a.889.889,0,0,0-.369.777l2.686,1.551a3.154,3.154,0,0,0-1.4-2.226,1.228,1.228,0,0,0-.6-.184.65.65,0,0,0-.311.073Z" transform="translate(-140.654 -221.711)" fill="#e0e0e0"/>
            <path id="Path_29998" data-name="Path 29998" d="M193.721,300.473a.118.118,0,0,0,.118-.121v-4.062a.118.118,0,0,0-.118-.121.121.121,0,0,0-.121.121v4.062A.121.121,0,0,0,193.721,300.473Z" transform="translate(-155.891 -229.367)" fill="#e0e0e0"/>
            <path id="Path_29999" data-name="Path 29999" d="M193.284,297a.126.126,0,0,0,.048,0,.118.118,0,0,0,.06-.157l-.423-.983-.475.55a.119.119,0,0,0,.181.154l.224-.26.275.632A.118.118,0,0,0,193.284,297Z" transform="translate(-155.1 -229.151)" fill="#e0e0e0"/>
            <path id="Path_30000" data-name="Path 30000" d="M190.087,298.35a.121.121,0,0,0,.118-.121v-4.062a.121.121,0,1,0-.239,0v4.062a.121.121,0,0,0,.121.121Z" transform="translate(-153.355 -227.872)" fill="#e0e0e0"/>
            <path id="Path_30001" data-name="Path 30001" d="M189.652,294.92a.136.136,0,0,0,.048,0,.118.118,0,0,0,.06-.157l-.423-.983-.475.547a.121.121,0,0,0,.181.157l.224-.26.275.632A.118.118,0,0,0,189.652,294.92Z" transform="translate(-152.572 -227.7)" fill="#e0e0e0"/>
            <path id="Path_30002" data-name="Path 30002" d="M85.692,223.924v6.541c0,.251-.178.354-.4.227l-10.21-5.9a.865.865,0,0,1-.4-.683v-6.544c0-.254.178-.354.4-.23L85.3,223.247A.874.874,0,0,1,85.692,223.924Z" transform="translate(-72.942 -174.339)" fill="#fafafa"/>
            <path id="Path_30003" data-name="Path 30003" d="M76.78,220.56l.33.191V226.7l-.33-.191Z" transform="translate(-74.4 -176.624)" fill="#455a64"/>
            <path id="Path_30004" data-name="Path 30004" d="M81.22,223.12l.569.336V229.4l-.569-.333Z" transform="translate(-77.497 -178.409)" fill="#455a64"/>
            <path id="Path_30005" data-name="Path 30005" d="M85.66,225.68l.33.191v5.949l-.33-.191Z" transform="translate(-80.594 -180.195)" fill="#455a64"/>
            <path id="Path_30006" data-name="Path 30006" d="M89.01,227.58l.659.393v5.946l-.659-.39Z" transform="translate(-82.931 -181.521)" fill="#455a64"/>
            <path id="Path_30007" data-name="Path 30007" d="M94.54,230.81l.33.191v5.946l-.33-.191Z" transform="translate(-86.789 -183.774)" fill="#455a64"/>
            <path id="Path_30008" data-name="Path 30008" d="M97.73,232.61l.708.42v5.946l-.708-.417Z" transform="translate(-89.014 -185.029)" fill="#455a64"/>
            <path id="Path_30009" data-name="Path 30009" d="M103.42,235.93l.33.191,0,5.949-.327-.194Z" transform="translate(-92.983 -187.345)" fill="#455a64"/>
            <path id="Path_30010" data-name="Path 30010" d="M105.95,237.37l.163.1v5.946l-.163-.094Z" transform="translate(-94.748 -188.35)" fill="#455a64"/>
            <path id="Path_30011" data-name="Path 30011" d="M101.39,234.86l.166.094V240.9l-.166-.1Z" transform="translate(-91.567 -186.599)" fill="#455a64"/>
            <path id="Path_30012" data-name="Path 30012" d="M92.45,229.62l.166.1v5.946l-.166-.094Z" transform="translate(-85.331 -182.944)" fill="#455a64"/>
            <path id="Path_30013" data-name="Path 30013" d="M87.55,226.81l.166.1v5.946l-.166-.094Z" transform="translate(-81.913 -180.984)" fill="#455a64"/>
            <path id="Path_30014" data-name="Path 30014" d="M84.033,224.87l.163.1v5.946l-.166-.1Z" transform="translate(-79.457 -179.63)" fill="#455a64"/>
            <path id="Path_30015" data-name="Path 30015" d="M79.27,221.97l.163.1v5.946l-.163-.094Z" transform="translate(-76.137 -177.607)" fill="#455a64"/>
            <path id="Path_30016" data-name="Path 30016" d="M107.853,238.49l.327.191v5.949l-.33-.191Z" transform="translate(-96.074 -189.131)" fill="#455a64"/>
          </g>
          <g id="freepik--Ribbon--inject-40" transform="translate(11.726 3.822)">
            <path id="Path_30017" data-name="Path 30017" d="M131.052,201.073V165.4l-4.942-2.855v35.668Z" transform="translate(-120.537 -139.979)" fill="#57b8ce"/>
            <g id="Group_42595" data-name="Group 42595" transform="translate(5.573 22.571)" opacity="0.3">
              <path id="Path_30018" data-name="Path 30018" d="M131.052,201.073V165.4l-4.942-2.855v35.668Z" transform="translate(-126.11 -162.55)"/>
            </g>
            <path id="Path_30019" data-name="Path 30019" d="M238.48,211.683V176.015l4.942-2.855v35.668Z" transform="translate(-198.924 -147.381)" fill="#57b8ce"/>
            <g id="Group_42596" data-name="Group 42596" transform="translate(39.556 25.779)" opacity="0.45">
              <path id="Path_30020" data-name="Path 30020" d="M238.48,211.683V176.015l4.942-2.855v35.668Z" transform="translate(-238.48 -173.16)"/>
            </g>
            <path id="Path_30021" data-name="Path 30021" d="M126.11,124.707,154.529,108.3l4.942,2.852-28.419,16.41Z" transform="translate(-120.537 -102.136)" fill="#57b8ce"/>
            <g id="Group_42597" data-name="Group 42597" transform="translate(5.573 6.164)" opacity="0.15">
              <path id="Path_30022" data-name="Path 30022" d="M126.11,124.707,154.529,108.3l4.942,2.852-28.419,16.41Z" transform="translate(-126.11 -108.3)"/>
            </g>
            <g id="Group_42598" data-name="Group 42598" transform="translate(16.412 15.793)" opacity="0.15">
              <path id="Path_30023" data-name="Path 30023" d="M161.95,140.66l4.966,2.84.877-.505-4.942-2.855Z" transform="translate(-161.95 -140.14)"/>
            </g>
            <path id="Path_30024" data-name="Path 30024" d="M152.207,120.514,112.662,97.69l-4.942,2.852,39.545,22.827Z" transform="translate(-107.709 -94.735)" fill="#57b8ce"/>
            <g id="Group_42599" data-name="Group 42599" transform="translate(0.011 2.955)" opacity="0.15">
              <path id="Path_30025" data-name="Path 30025" d="M152.207,120.514,112.662,97.69l-4.942,2.852,39.545,22.827Z" transform="translate(-107.72 -97.69)"/>
            </g>
            <g id="freepik--ribbon--inject-40-2" data-name="freepik--ribbon--inject-40">
              <path id="Path_30026" data-name="Path 30026" d="M183.292,139s7.016,6.127,18.475,4.8a16.64,16.64,0,0,1-10.63,2.616s.75,3.3,5.386,5.081c0,0-13.159-.194-15.463-11Z" transform="translate(-158.869 -123.552)" opacity="0.2"/>
              <path id="Path_30027" data-name="Path 30027" d="M182.315,136.91s7.016,5.825,18.475,4.5a17.82,17.82,0,0,1-10.818,2.465s.853,2.171,5.867,4.818c0,0-12.523.112-15.759-10.282Z" transform="translate(-158.185 -122.094)" fill="#57b8ce"/>
              <path id="Path_30028" data-name="Path 30028" d="M182.315,136.91s7.016,5.825,18.475,4.5a17.82,17.82,0,0,1-10.818,2.465s.853,2.171,5.867,4.818c0,0-12.523.112-15.759-10.282Z" transform="translate(-158.185 -122.094)" fill="#fff" opacity="0.25"/>
              <path id="Path_30029" data-name="Path 30029" d="M181.822,139.881a8.39,8.39,0,0,0,4.914-.408h0l-.46-.2-.07-.033-.408-.191-.091-.045-.372-.184-.094-.045-.339-.178-.094-.051-.3-.169a.814.814,0,0,0-.088-.048l-.284-.166-.079-.045-.26-.157-.073-.045-.233-.142-.067-.045-.2-.133-.06-.039-.175-.118-.054-.036-.145-.1-.048-.033-.118-.088-.039-.03-.091-.064-.039-.033-.051-.039-.036-.03h-.021l-.018-.015h0l-.732.49-1.512,1c3.236,10.4,15.756,10.282,15.759,10.282h0C189.395,148.425,182.626,143.535,181.822,139.881Z" transform="translate(-158.185 -122.128)" opacity="0.1"/>
              <path id="Path_30030" data-name="Path 30030" d="M198.318,95.113s-1.394-1.627-5.667-.892c-2.58.445-6.956,3.451-9.121,8.468-.275.635-.889.847-1.21,1.273a2.461,2.461,0,0,1-.248.269H180.72c0-4.675,2.622-9.4,5.1-12.127a14.372,14.372,0,0,1,9.481-4.18,6.578,6.578,0,0,1,3.006.578C199.1,90.722,199.425,92.915,198.318,95.113Z" transform="translate(-158.632 -87.918)" fill="#57b8ce"/>
              <path id="Path_30031" data-name="Path 30031" d="M198.318,95.113s-1.394-1.627-5.667-.892c-2.58.445-6.956,3.451-9.121,8.468-.275.635-.889.847-1.21,1.273a2.461,2.461,0,0,1-.248.269H180.72c0-4.675,2.622-9.4,5.1-12.127a14.372,14.372,0,0,1,9.481-4.18,6.578,6.578,0,0,1,3.006.578C199.1,90.722,199.425,92.915,198.318,95.113Z" transform="translate(-158.632 -87.918)" fill="#fff" opacity="0.5"/>
              <path id="Path_30032" data-name="Path 30032" d="M183.836,123.751h0s-2.435-.823-1.43-4.721a16.612,16.612,0,0,0-1.675,6.9h1.352a2.463,2.463,0,0,0,.248-.269c.33-.426.944-.638,1.21-1.273A6.558,6.558,0,0,1,183.836,123.751Z" transform="translate(-158.639 -109.621)" fill="#57b8ce" opacity="0.3"/>
              <path id="Path_30033" data-name="Path 30033" d="M183.836,123.751h0s-2.435-.823-1.43-4.721a16.612,16.612,0,0,0-1.675,6.9h1.352a2.463,2.463,0,0,0,.248-.269c.33-.426.944-.638,1.21-1.273A6.558,6.558,0,0,1,183.836,123.751Z" transform="translate(-158.639 -109.621)" opacity="0.1"/>
              <path id="Path_30034" data-name="Path 30034" d="M231.934,95.113s.215-5.141-3.024-7.189a6.578,6.578,0,0,1,3.006.578C232.715,90.722,233.041,92.915,231.934,95.113Z" transform="translate(-192.248 -87.918)" fill="#57b8ce" opacity="0.3"/>
              <path id="Path_30035" data-name="Path 30035" d="M231.934,95.113s.215-5.141-3.024-7.189a6.578,6.578,0,0,1,3.006.578C232.715,90.722,233.041,92.915,231.934,95.113Z" transform="translate(-192.248 -87.918)" opacity="0.1"/>
              <path id="Path_30036" data-name="Path 30036" d="M195.4,99.451a9.759,9.759,0,0,0,2.5-3c1.11-2.2.78-4.391,0-6.611,2.507,1.11,4,4.367,4.576,6.992a6.9,6.9,0,0,1,.091,3.342c-.7,1.654-4.821,8.341-22.446,5.4l.021-1.851C184.538,103.452,192.247,102.109,195.4,99.451Z" transform="translate(-158.213 -89.259)" fill="#57b8ce"/>
              <path id="Path_30037" data-name="Path 30037" d="M195.4,99.451a9.759,9.759,0,0,0,2.5-3c1.11-2.2.78-4.391,0-6.611,2.507,1.11,4,4.367,4.576,6.992a6.9,6.9,0,0,1,.091,3.342c-.7,1.654-4.821,8.341-22.446,5.4l.021-1.851C184.538,103.452,192.247,102.109,195.4,99.451Z" transform="translate(-158.213 -89.259)" fill="#fff" opacity="0.4"/>
              <path id="Path_30038" data-name="Path 30038" d="M131.515,139s-7.016,6.127-18.475,4.8a16.64,16.64,0,0,0,10.63,2.616s-.75,3.3-5.386,5.081c0,0,13.159-.194,15.463-11Z" transform="translate(-111.42 -123.552)" opacity="0.2"/>
              <path id="Path_30039" data-name="Path 30039" d="M132.478,136.91s-7.016,5.825-18.478,4.5a17.82,17.82,0,0,0,10.818,2.465s-.853,2.171-5.867,4.818c0,0,12.523.112,15.759-10.282Z" transform="translate(-112.089 -122.094)" fill="#57b8ce"/>
              <path id="Path_30040" data-name="Path 30040" d="M132.478,136.91s-7.016,5.825-18.478,4.5a17.82,17.82,0,0,0,10.818,2.465s-.853,2.171-5.867,4.818c0,0,12.523.112,15.759-10.282Z" transform="translate(-112.089 -122.094)" fill="#fff" opacity="0.25"/>
              <path id="Path_30041" data-name="Path 30041" d="M144.4,139.881a8.4,8.4,0,0,1-4.917-.408h0l.46-.2.07-.033.408-.191.091-.045.372-.184.094-.045.342-.178.091-.051.3-.169.088-.048.284-.166.079-.045.26-.157.073-.045.233-.142.067-.045.2-.133.061-.039.175-.118.054-.036.148-.1.045-.033.118-.088.039-.03.091-.064.039-.033.051-.039.036-.03h.021l.018-.015h0l.732.49,1.512,1c-3.236,10.4-15.756,10.282-15.759,10.282h0C136.825,148.425,143.593,143.535,144.4,139.881Z" transform="translate(-123.516 -122.128)" opacity="0.1"/>
              <path id="Path_30042" data-name="Path 30042" d="M122.022,95.113s1.391-1.627,5.664-.892c2.58.445,6.956,3.451,9.124,8.468.272.635.886.847,1.21,1.273a2.462,2.462,0,0,0,.248.269h1.352c0-4.675-2.622-9.4-5.1-12.127a14.372,14.372,0,0,0-9.481-4.18,6.578,6.578,0,0,0-3.006.578C121.238,90.722,120.912,92.915,122.022,95.113Z" transform="translate(-117.187 -87.918)" fill="#57b8ce"/>
              <path id="Path_30043" data-name="Path 30043" d="M122.022,95.113s1.391-1.627,5.664-.892c2.58.445,6.956,3.451,9.124,8.468.272.635.886.847,1.21,1.273a2.462,2.462,0,0,0,.248.269h1.352c0-4.675-2.622-9.4-5.1-12.127a14.372,14.372,0,0,0-9.481-4.18,6.578,6.578,0,0,0-3.006.578C121.238,90.722,120.912,92.915,122.022,95.113Z" transform="translate(-117.187 -87.918)" fill="#fff" opacity="0.5"/>
              <path id="Path_30044" data-name="Path 30044" d="M171.59,123.751h0s2.419-.823,1.43-4.721a16.612,16.612,0,0,1,1.675,6.9h-1.352a2.46,2.46,0,0,1-.248-.269c-.33-.426-.944-.638-1.21-1.273C171.793,124.162,171.69,123.96,171.59,123.751Z" transform="translate(-152.263 -109.621)" fill="#57b8ce" opacity="0.3"/>
              <path id="Path_30045" data-name="Path 30045" d="M171.59,123.751h0s2.419-.823,1.43-4.721a16.612,16.612,0,0,1,1.675,6.9h-1.352a2.46,2.46,0,0,1-.248-.269c-.33-.426-.944-.638-1.21-1.273C171.793,124.162,171.69,123.96,171.59,123.751Z" transform="translate(-152.263 -109.621)" opacity="0.1"/>
              <path id="Path_30046" data-name="Path 30046" d="M122.024,95.113s-.218-5.141,3.024-7.189a6.578,6.578,0,0,0-3.006.578C121.241,90.722,120.915,92.915,122.024,95.113Z" transform="translate(-117.189 -87.918)" fill="#57b8ce" opacity="0.3"/>
              <path id="Path_30047" data-name="Path 30047" d="M122.024,95.113s-.218-5.141,3.024-7.189a6.578,6.578,0,0,0-3.006.578C121.241,90.722,120.915,92.915,122.024,95.113Z" transform="translate(-117.189 -87.918)" opacity="0.1"/>
              <path id="Path_30048" data-name="Path 30048" d="M115.01,99.451a9.759,9.759,0,0,1-2.495-3c-1.11-2.2-.78-4.391,0-6.611-2.51,1.11-4.007,4.367-4.576,6.992a6.91,6.91,0,0,0-.094,3.342c.7,1.654,4.821,8.341,22.446,5.4l-.018-1.851C125.876,103.452,118.167,102.109,115.01,99.451Z" transform="translate(-107.683 -89.259)" fill="#57b8ce"/>
              <path id="Path_30049" data-name="Path 30049" d="M115.01,99.451a9.759,9.759,0,0,1-2.495-3c-1.11-2.2-.78-4.391,0-6.611-2.51,1.11-4.007,4.367-4.576,6.992a6.91,6.91,0,0,0-.094,3.342c.7,1.654,4.821,8.341,22.446,5.4l-.018-1.851C125.876,103.452,118.167,102.109,115.01,99.451Z" transform="translate(-107.683 -89.259)" fill="#fff" opacity="0.4"/>
              <path id="Path_30050" data-name="Path 30050" d="M178,135.3a1.013,1.013,0,0,0-.6-.823,4.7,4.7,0,0,0-1.815-.263,4.561,4.561,0,0,0-1.869.3,1,1,0,0,0-.55.792,3.312,3.312,0,0,0,.263,2.023,3.221,3.221,0,0,0,2.162.777,3.169,3.169,0,0,0,2.15-.777A3.374,3.374,0,0,0,178,135.3Z" transform="translate(-153.332 -120.209)" fill="#57b8ce"/>
              <path id="Path_30051" data-name="Path 30051" d="M178,135.3a1.013,1.013,0,0,0-.6-.823,4.7,4.7,0,0,0-1.815-.263,4.561,4.561,0,0,0-1.869.3,1,1,0,0,0-.55.792,3.312,3.312,0,0,0,.263,2.023,3.221,3.221,0,0,0,2.162.777,3.169,3.169,0,0,0,2.15-.777A3.374,3.374,0,0,0,178,135.3Z" transform="translate(-153.332 -120.209)" fill="#fff" opacity="0.5"/>
              <path id="Path_30052" data-name="Path 30052" d="M178.04,139.3c0,.218-.242.566-.714.907a3.024,3.024,0,0,1-2.643.187,2.2,2.2,0,0,1-1.542-1.706,2.966,2.966,0,0,0,.287,1.766,3.221,3.221,0,0,0,2.162.777,3.169,3.169,0,0,0,2.15-.777A2.25,2.25,0,0,0,178.04,139.3Z" transform="translate(-153.332 -123.335)" fill="#57b8ce" opacity="0.3"/>
              <path id="Path_30053" data-name="Path 30053" d="M178.04,139.3c0,.218-.242.566-.714.907a3.024,3.024,0,0,1-2.643.187,2.2,2.2,0,0,1-1.542-1.706,2.966,2.966,0,0,0,.287,1.766,3.221,3.221,0,0,0,2.162.777,3.169,3.169,0,0,0,2.15-.777A2.25,2.25,0,0,0,178.04,139.3Z" transform="translate(-153.332 -123.335)" opacity="0.1"/>
            </g>
          </g>
        </g>
        <g id="freepik--Cab--inject-40" transform="translate(45.718 27.294)">
          <g id="freepik--percentage-box--inject-40" transform="translate(56.215 24.235)">
            <path id="Path_30054" data-name="Path 30054" d="M394.47,247.089l2.274-1.322a.526.526,0,0,1,.532-.051c.133.079.4.242.535.3a.526.526,0,0,1,.224.487v5.462a1.648,1.648,0,0,1-.75,1.294l-2.271,1.337a.529.529,0,0,1-.529.054c-.136-.079-.405-.245-.541-.321a.529.529,0,0,1-.221-.487v-5.462A1.648,1.648,0,0,1,394.47,247.089Z" transform="translate(-393.717 -245.667)" fill="#fafafa"/>
            <path id="Path_30055" data-name="Path 30055" d="M393.713,252.955v5.462a.526.526,0,0,0,.221.487c.133.073.336.2.526.3a.541.541,0,0,1-.2-.475v-5.456a1.512,1.512,0,0,1,.218-.735l-.541-.321A1.512,1.512,0,0,0,393.713,252.955Z" transform="translate(-393.71 -250.238)" fill="#e0e0e0"/>
            <path id="Path_30056" data-name="Path 30056" d="M398.548,254.013l-2.271,1.322c-.414.239-.747.045-.747-.429V249.44a1.651,1.651,0,0,1,.747-1.294l2.274-1.322c.414-.239.75-.045.75.432v5.462A1.648,1.648,0,0,1,398.548,254.013Z" transform="translate(-394.98 -246.403)" fill="#f0f0f0"/>
          </g>
          <path id="Path_30057" data-name="Path 30057" d="M395.325,268.241a.194.194,0,0,1-.163-.1.188.188,0,0,1,.07-.257l1.585-.907a.187.187,0,0,0,.094-.163v-5.991a.191.191,0,1,1,.378,0v5.982a.572.572,0,0,1-.284.493l-1.585.907A.179.179,0,0,1,395.325,268.241Z" transform="translate(-338.49 -231.856)" fill="#263238"/>
          <path id="Path_30058" data-name="Path 30058" d="M238.072,370.263l6.427-2.97s-.5-6.048-4.745-4.6S238.072,370.263,238.072,370.263Z" transform="translate(-228.392 -302.91)" fill="#57b8ce"/>
          <g id="Group_42600" data-name="Group 42600" transform="translate(8.914 59.559)" opacity="0.5">
            <path id="Path_30059" data-name="Path 30059" d="M238.072,370.263l6.427-2.97s-.5-6.048-4.745-4.6S238.072,370.263,238.072,370.263Z" transform="translate(-237.306 -362.469)"/>
          </g>
          <path id="Path_30060" data-name="Path 30060" d="M248.37,374.1,247,371.357l3.29-1.905h0a3.907,3.907,0,0,1,3.971.351c3.251,1.878,5.885,6.717,5.885,10.812,0,2.141-.723,3.656-1.878,4.343h0l-.048.027h0l-3.372,1.948-1.461-2.9A13.968,13.968,0,0,1,248.37,374.1Z" transform="translate(-235.154 -307.506)" fill="#263238"/>
          <path id="Path_30061" data-name="Path 30061" d="M240.18,380.351a14.1,14.1,0,0,0,4.585,9.874h0a8.877,8.877,0,0,0,1.291.928c3.251,1.875,5.888.079,5.885-4.016a14.3,14.3,0,0,0-3.629-8.958l-.018-.018a9.391,9.391,0,0,0-2.226-1.833C242.814,374.463,240.18,376.26,240.18,380.351Z" transform="translate(-230.397 -312.064)" fill="#37474f"/>
          <path id="Path_30062" data-name="Path 30062" d="M251,385.168c-2.069-1.21-3.744.048-3.744,2.779s1.675,5.909,3.744,7.1,3.744-.051,3.744-2.779S253.073,386.362,251,385.168Z" transform="translate(-235.335 -318.422)" fill="#455a64"/>
          <path id="Path_30063" data-name="Path 30063" d="M255.162,393.561c-1.074-.6-1.942.024-1.942,1.443a4.62,4.62,0,0,0,1.942,3.687c1.074.62,1.945-.027,1.945-1.443A4.627,4.627,0,0,0,255.162,393.561Z" transform="translate(-239.493 -324.439)" fill="#e0e0e0"/>
          <path id="Path_30064" data-name="Path 30064" d="M254.514,393.6a1.64,1.64,0,0,0-.426-.172c-.538.145-.907.735-.907,1.642a4.915,4.915,0,0,0,1.089,2.93,2.633,2.633,0,0,0,.233.157c.956.55,1.727-.021,1.727-1.282A4.089,4.089,0,0,0,254.514,393.6Z" transform="translate(-239.465 -324.507)" fill="#f5f5f5"/>
          <path id="Path_30065" data-name="Path 30065" d="M240.18,380.36a14.1,14.1,0,0,0,4.585,9.874,16.667,16.667,0,0,1-3.732-7.222c-.5-2.359-.3-5.746,1.715-6.6s4.7.947,5.543,1.769a9.4,9.4,0,0,0-2.226-1.833C242.814,374.471,240.18,376.268,240.18,380.36Z" transform="translate(-230.397 -312.072)" fill="#455a64"/>
          <path id="Path_30066" data-name="Path 30066" d="M240.359,286.757l-5.822-3.363-.765-.442-1.467-.853h0l-.7-.405a.487.487,0,0,0,.03-.206,1.174,1.174,0,0,0,.027-.324,15.572,15.572,0,0,0-7.08-12.23,8.62,8.62,0,0,0-1.146-.556h0c-.172-.067-.336-.124-.5-.172h0c-3.1-.937-5.4.944-5.4,4.8v.584l-9.678-5.592V223.88h0l12.027,6.956,10.5,7.733,4.76,23.151,3.693,5.426.2.287,2.256,3.309h0l.732,9,.181,1.969.079.81h0l.181,1.948.085.907a1.458,1.458,0,0,1-2.193,1.379Z" transform="translate(-207.851 -206.233)" fill="#57b8ce"/>
          <g id="Group_42601" data-name="Group 42601" transform="translate(0.009 17.647)" opacity="0.15">
            <path id="Path_30067" data-name="Path 30067" d="M240.359,286.757l-5.822-3.363-.765-.442-1.467-.853h0l-.7-.405a.487.487,0,0,0,.03-.206,1.174,1.174,0,0,0,.027-.324,15.572,15.572,0,0,0-7.08-12.23,8.62,8.62,0,0,0-1.146-.556h0c-.172-.067-.336-.124-.5-.172h0c-3.1-.937-5.4.944-5.4,4.8v.584l-9.678-5.592V223.88h0l12.027,6.956,10.5,7.733,4.76,23.151,3.693,5.426.2.287,2.256,3.309h0l.732,9,.181,1.969.079.81h0l.181,1.948.085.907a1.458,1.458,0,0,1-2.193,1.379Z" transform="translate(-207.86 -223.88)"/>
          </g>
          <path id="Path_30068" data-name="Path 30068" d="M232.109,253.794v14.271c0,.526-.366.738-.82.475l-11.837-6.826a1.815,1.815,0,0,1-.823-1.424V245.268c0-.523.366-.735.823-.475l7.116,4.11c.454.263,1.164.726,1.585,1.037l3.191,2.344A2.1,2.1,0,0,1,232.109,253.794Z" transform="translate(-215.364 -220.745)" fill="#455a64"/>
          <path id="Path_30069" data-name="Path 30069" d="M272.62,295.172a3.024,3.024,0,0,1-1.37-2.371v-12.62c0-.874.324-1.34.723-1.04l.723.541a3.308,3.308,0,0,1,1.089,1.739l2.915,15.152c.118.6-.215.832-.738.526Z" transform="translate(-252.07 -244.719)" fill="#455a64"/>
          <g id="Group_42602" data-name="Group 42602" transform="translate(1.818 21.499)" opacity="0.15">
            <path id="Path_30070" data-name="Path 30070" d="M229.372,245.98,224.59,242.5c-.357-.26-.959-.653-1.34-.871l-8.483-4.89a.623.623,0,0,0-.641-.048.635.635,0,0,0-.281.581v38.481a1.666,1.666,0,0,0,.765,1.325l5.568,3.212a.75.75,0,0,0,.387.115.554.554,0,0,0,.242-.051.605.605,0,0,0,.251-.218.874.874,0,0,0,.133-.339,4.7,4.7,0,0,1,2.722-3.6,4.9,4.9,0,0,1,3.109-.091h0a8.3,8.3,0,0,1,1.554.584c.218.106.417.212.6.3a.635.635,0,0,0,.641.06.469.469,0,0,0,.154-.154.735.735,0,0,0,.106-.411V247.365A1.893,1.893,0,0,0,229.372,245.98Zm.227,30.811a.339.339,0,0,1-.215-.045h0l-.051-.024a8.9,8.9,0,0,0-2.595-1.016,5.075,5.075,0,0,0-2.94.187,4.86,4.86,0,0,0-2.828,3.472h0c-.036.13-.064.245-.085.36a.429.429,0,0,1-.209.33.369.369,0,0,1-.339-.051l-5.571-3.209a1.358,1.358,0,0,1-.6-1.049V237.261a.348.348,0,0,1,.121-.3.206.206,0,0,1,.1-.024.46.46,0,0,1,.224.073l8.483,4.9c.375.215.962.6,1.309.85l4.784,3.487a1.585,1.585,0,0,1,.575,1.128v29.12a.336.336,0,0,1-.1.3.146.146,0,0,1-.051.015Z" transform="translate(-213.843 -236.62)"/>
          </g>
          <path id="Path_30071" data-name="Path 30071" d="M350.084,334.193s-4.388,6.067-13.96,11.795a48.385,48.385,0,0,1-16.6,5.858L318.39,338.11l30.563-17.65Z" transform="translate(-284.954 -273.605)" fill="#57b8ce"/>
          <g id="Group_42603" data-name="Group 42603" transform="translate(33.436 46.855)" opacity="0.3">
            <path id="Path_30072" data-name="Path 30072" d="M350.084,334.193s-4.388,6.067-13.96,11.795a48.385,48.385,0,0,1-16.6,5.858L318.39,338.11l30.563-17.65Z" transform="translate(-318.39 -320.46)"/>
          </g>
          <path id="Path_30073" data-name="Path 30073" d="M334.82,299.659s-4.388,6.07-13.96,11.795a48.385,48.385,0,0,1-16.6,5.858L298.13,308.3,328.7,290.65Z" transform="translate(-270.821 -252.811)" fill="#57b8ce"/>
          <path id="Path_30074" data-name="Path 30074" d="M335.062,357.82c-.054-.057-.1-.048-.16.048,0,0-4.388,6.067-13.963,11.795a48.713,48.713,0,0,1-16.606,5.855c-3.714.339-8.262-3.584-8.262-3.584l.626-.457s4.313,3.266,6.505,3.266c1.89,0,8.646-.859,17.813-6.049s13.307-11.465,13.307-11.465a.962.962,0,0,1,.741.59Z" transform="translate(-269.384 -299.255)" fill="#37474f"/>
          <path id="Path_30075" data-name="Path 30075" d="M334.9,359.142s-4.391,6.067-13.963,11.795a48.364,48.364,0,0,1-16.6,5.858c-3.714.339-8.262-3.578-8.262-3.578h0v5.238s4.536,3.932,8.262,3.581a48.439,48.439,0,0,0,16.6-5.858c9.572-5.722,13.963-11.795,13.963-11.795C335.667,363.086,335.34,358.365,334.9,359.142Z" transform="translate(-269.384 -300.529)" fill="#455a64"/>
          <path id="Path_30076" data-name="Path 30076" d="M326.582,387.742a2.244,2.244,0,0,1,2.761,2.066,3.042,3.042,0,0,1-2.241,3.236,2.22,2.22,0,0,1-2.758-2.066A3.106,3.106,0,0,1,326.582,387.742Z" transform="translate(-289.099 -320.494)" fill="#fff"/>
          <path id="Path_30077" data-name="Path 30077" d="M409.367,340.887a5.33,5.33,0,0,0-1.191,3.968c.172,1.364.953,1.793,1.739.959a5.762,5.762,0,0,0,1.191-3.968C410.979,340.488,410.2,340.058,409.367,340.887Z" transform="translate(-347.563 -287.56)" fill="#fff"/>
          <path id="Path_30078" data-name="Path 30078" d="M346.868,373.966a35.757,35.757,0,0,0,7.561-3.387c.378-.221.68-.048.68.387v.553a1.512,1.512,0,0,1-.68,1.195,35.752,35.752,0,0,1-7.561,3.387.566.566,0,0,1-.762-.575v-.553A1.11,1.11,0,0,1,346.868,373.966Z" transform="translate(-304.286 -308.5)" fill="#37474f"/>
          <path id="Path_30079" data-name="Path 30079" d="M387.012,351.281v.553a1.926,1.926,0,0,1-.6,1.3,64.058,64.058,0,0,1-5.664,4.234c-.363.239-.662.076-.662-.36v-.547a1.642,1.642,0,0,1,.662-1.21,64.5,64.5,0,0,0,5.664-4.234C386.751,350.722,387.012,350.846,387.012,351.281Z" transform="translate(-327.987 -294.81)" fill="#37474f"/>
          <path id="Path_30080" data-name="Path 30080" d="M346.867,386.751a35.742,35.742,0,0,0,7.561-3.384c.378-.221.68-.051.68.387v.553a1.53,1.53,0,0,1-.68,1.195,35.9,35.9,0,0,1-7.561,3.384.563.563,0,0,1-.762-.575v-.553A1.119,1.119,0,0,1,346.867,386.751Z" transform="translate(-304.286 -317.42)" fill="#37474f"/>
          <path id="Path_30081" data-name="Path 30081" d="M387.012,364.1v.553a1.926,1.926,0,0,1-.6,1.3,64.052,64.052,0,0,1-5.664,4.234c-.363.242-.662.079-.662-.36v-.553a1.642,1.642,0,0,1,.662-1.21,65.718,65.718,0,0,0,5.664-4.234C386.751,363.539,387.012,363.663,387.012,364.1Z" transform="translate(-327.987 -303.749)" fill="#37474f"/>
          <g id="Group_42604" data-name="Group 42604" transform="translate(30.701 49.81)" opacity="0.15">
            <path id="Path_30082" data-name="Path 30082" d="M322.364,330.331a102.362,102.362,0,0,1-12.6,5.746.6.6,0,0,0-.3.931l.021.03a1.264,1.264,0,0,0,1.21.505,52.246,52.246,0,0,0,13.116-5.066.7.7,0,0,0,.248-1.031l-.566-.841a.883.883,0,0,0-1.128-.275Z" transform="translate(-309.347 -330.232)"/>
          </g>
          <g id="Group_42605" data-name="Group 42605" transform="translate(46.007 40.677)" opacity="0.15">
            <path id="Path_30083" data-name="Path 30083" d="M370.722,300.216a75.654,75.654,0,0,1-10.4,7.518.735.735,0,0,0-.233,1.059l.572.847a.853.853,0,0,0,1.125.251,40.643,40.643,0,0,0,10.065-8.042,1.116,1.116,0,0,0,.057-1.27l-.154-.23a.674.674,0,0,0-1.034-.133Z" transform="translate(-359.958 -300.033)"/>
          </g>
          <path id="Path_30084" data-name="Path 30084" d="M317.684,237.18a70.731,70.731,0,0,1-13.373,9.923,100.445,100.445,0,0,1-17.193,7.721l-4.778-23.157,19.1-11.023,8.785-5.069,2.679-1.554Z" transform="translate(-259.806 -199.355)" fill="#455a64"/>
          <path id="Path_30085" data-name="Path 30085" d="M312.906,214l-2.679,1.551-8.785,5.078-19.1,11.023,4.778,23.157h0l.327-.109.067-.021.333-.115.139-.039h.06l.227-.082.354-.124.351-.127.23-.085.3-.112,1.022-.387.23-.088c.82-.318,1.748-.686,2.755-1.107l.992-.42.16-.07.181-.076c.209-.1.426-.187.644-.284l.188-.082.435-.2.5-.224c.363-.163.732-.336,1.1-.511s.747-.354,1.125-.535c.284-.139.569-.278.853-.423l.69-.345.073-.036.7-.366.057-.03.62-.327.5-.266q.6-.324,1.176-.653l.783-.448.714-.46c.2-.118.4-.242.6-.363.076-.045.154-.091.227-.139.227-.136.457-.278.677-.417l.082-.051.324-.206c.142-.091.278-.181.42-.269l.4-.266.4-.26c.166-.109.333-.218.493-.33.33-.224.65-.442.965-.662l.064-.045.363-.251c.478-.339.938-.671,1.373-.992l.327-.245.3-.236.3-.236c.206-.154.4-.3.6-.457l.024-.018.245-.191.559-.448.354-.281c.073-.06.142-.121.212-.175s.139-.118.206-.169l.2-.166a.072.072,0,0,1,0-.015l.46-.369c.566-.478,1.04-.907,1.415-1.24a1.532,1.532,0,0,1,.151-.136l.03-.03.157-.145h0c.445-.408.686-.65.72-.683h0Zm-10.3,32.36a.04.04,0,0,1,0,.018,1.129,1.129,0,0,1-.027.139v.039c-.015.036-.027.076-.042.112a.34.34,0,0,1-.021.048.722.722,0,0,1-.061.13,1.248,1.248,0,0,1-.321.378.722.722,0,0,1-.139.088c-1.125.6-2.25,1.192-3.348,1.727l-.578.284q-.693.33-1.37.641l-.629.3-1.077.478c-.178.082-.354.157-.526.23l-.511.221c-.677.3-1.325.556-1.936.8h0c-.324.133-.641.257-.944.378l-.445.172c-.729.281-1.37.523-1.911.72a.786.786,0,0,1-.974-.33,1.006,1.006,0,0,1-.1-.272l-2.94-14.643a1.394,1.394,0,0,1,.623-1.391l12.4-7.158a.668.668,0,0,1,1.037.451l2.937,12.26.889,3.714.015.06v.045a.143.143,0,0,1,0,.051.268.268,0,0,1,0,.051.636.636,0,0,1,0,.109A.877.877,0,0,1,302.609,246.36Zm10.924-6.8h0l-.218.184c-.723.584-1.545,1.21-2.45,1.9-.3.23-.626.46-.956.7l-.354.257c-.481.345-.98.689-1.512,1.043l-.514.345c-.172.118-.351.233-.529.348s-.36.239-.541.354c-.65.42-1.325.841-2.02,1.255a.653.653,0,0,1-1.025-.442l-.021-.091h0l-.892-3.7-2.909-12.23a1.349,1.349,0,0,1,.6-1.394l2.35-1.352,9.566-5.534.426-.242.036-.018a.635.635,0,0,1,.965.472l2.924,14.516a1.836,1.836,0,0,1-.281,1.279c-.033.051-.07.1-.106.148h0a1.414,1.414,0,0,1-.115.118l-.154.139c-.07.067-.142.13-.215.194l-.653.569c-.233.2-.49.42-.762.647l-.572.472-.07.054Z" transform="translate(-259.806 -199.341)" fill="#57b8ce"/>
          <g id="Group_42606" data-name="Group 42606" transform="translate(22.534 14.659)" opacity="0.3">
            <path id="Path_30086" data-name="Path 30086" d="M312.906,214l-2.679,1.551-8.785,5.078-19.1,11.023,4.778,23.157h0l.327-.109.067-.021.333-.115.139-.039h.06l.227-.082.354-.124.351-.127.23-.085.3-.112,1.022-.387.23-.088c.82-.318,1.748-.686,2.755-1.107l.992-.42.16-.07.181-.076c.209-.1.426-.187.644-.284l.188-.082.435-.2.5-.224c.363-.163.732-.336,1.1-.511s.747-.354,1.125-.535c.284-.139.569-.278.853-.423l.69-.345.073-.036.7-.366.057-.03.62-.327.5-.266q.6-.324,1.176-.653l.783-.448.714-.46c.2-.118.4-.242.6-.363.076-.045.154-.091.227-.139.227-.136.457-.278.677-.417l.082-.051.324-.206c.142-.091.278-.181.42-.269l.4-.266.4-.26c.166-.109.333-.218.493-.33.33-.224.65-.442.965-.662l.064-.045.363-.251c.478-.339.938-.671,1.373-.992l.327-.245.3-.236.3-.236c.206-.154.4-.3.6-.457l.024-.018.245-.191.559-.448.354-.281c.073-.06.142-.121.212-.175s.139-.118.206-.169l.2-.166a.072.072,0,0,1,0-.015l.46-.369c.566-.478,1.04-.907,1.415-1.24a1.532,1.532,0,0,1,.151-.136l.03-.03.157-.145h0c.445-.408.686-.65.72-.683h0Zm-10.3,32.36a.04.04,0,0,1,0,.018,1.129,1.129,0,0,1-.027.139v.039c-.015.036-.027.076-.042.112a.34.34,0,0,1-.021.048.722.722,0,0,1-.061.13,1.248,1.248,0,0,1-.321.378.722.722,0,0,1-.139.088c-1.125.6-2.25,1.192-3.348,1.727l-.578.284q-.693.33-1.37.641l-.629.3-1.077.478c-.178.082-.354.157-.526.23l-.511.221c-.677.3-1.325.556-1.936.8h0c-.324.133-.641.257-.944.378l-.445.172c-.729.281-1.37.523-1.911.72a.786.786,0,0,1-.974-.33,1.006,1.006,0,0,1-.1-.272l-2.94-14.643a1.394,1.394,0,0,1,.623-1.391l12.4-7.158a.668.668,0,0,1,1.037.451l2.937,12.26.889,3.714.015.06v.045a.143.143,0,0,1,0,.051.268.268,0,0,1,0,.051.636.636,0,0,1,0,.109A.877.877,0,0,1,302.609,246.36Zm10.924-6.8h0l-.218.184c-.723.584-1.545,1.21-2.45,1.9-.3.23-.626.46-.956.7l-.354.257c-.481.345-.98.689-1.512,1.043l-.514.345c-.172.118-.351.233-.529.348s-.36.239-.541.354c-.65.42-1.325.841-2.02,1.255a.653.653,0,0,1-1.025-.442l-.021-.091h0l-.892-3.7-2.909-12.23a1.349,1.349,0,0,1,.6-1.394l2.35-1.352,9.566-5.534.426-.242.036-.018a.635.635,0,0,1,.965.472l2.924,14.516a1.836,1.836,0,0,1-.281,1.279c-.033.051-.07.1-.106.148h0a1.414,1.414,0,0,1-.115.118l-.154.139c-.07.067-.142.13-.215.194l-.653.569c-.233.2-.49.42-.762.647l-.572.472-.07.054Z" transform="translate(-282.34 -214)"/>
          </g>
          <path id="Path_30087" data-name="Path 30087" d="M287.735,238.759l27.578-15.929a1.089,1.089,0,0,0,.49-1.083l-.5-2.489a.493.493,0,0,0-.777-.351l-27.575,15.929a1.086,1.086,0,0,0-.49,1.086l.5,2.486a.493.493,0,0,0,.777.351Z" transform="translate(-262.67 -202.701)" fill="#455a64"/>
          <path id="Path_30088" data-name="Path 30088" d="M314.358,310.927a1.288,1.288,0,0,1-.6,1.364,101.681,101.681,0,0,1-13.276,5.946.789.789,0,0,1-1.074-.6l-.194-.965c2.679-1.948,9.188-6.6,14.184-9.481a.644.644,0,0,1,.06-.036Z" transform="translate(-271.574 -264.321)" fill="#37474f"/>
          <path id="Path_30089" data-name="Path 30089" d="M362.715,288.4a1.278,1.278,0,0,1-.23.275,76.648,76.648,0,0,1-11.522,8.468.653.653,0,0,1-1.025-.442l-.907-3.8a86.99,86.99,0,0,1,12.118-5.519Z" transform="translate(-306.328 -250.529)" fill="#37474f"/>
          <path id="Path_30090" data-name="Path 30090" d="M377.052,250.057l-3.342-1.923a3.024,3.024,0,0,1-1.37-2.374v-7.092l2.562-1.482.423-.245a.169.169,0,0,1,.039-.021l2.419,12.608C377.908,250.124,377.575,250.36,377.052,250.057Z" transform="translate(-322.588 -215.33)" fill="#fff" opacity="0.1"/>
          <path id="Path_30091" data-name="Path 30091" d="M352.592,247.35v4.911c0,.526-.366.738-.823.475l-4.249-2.453.505-.3Z" transform="translate(-305.274 -222.606)" fill="#fff" opacity="0.1"/>
          <path id="Path_30092" data-name="Path 30092" d="M260.93,180.192l-30.566,17.646-10.506-7.721-12.027-6.944L238.4,165.53l12.027,6.944Z" transform="translate(-207.83 -165.53)" fill="#57b8ce"/>
          <g id="freepik--percentage-box--inject-40-2" data-name="freepik--percentage-box--inject-40" transform="translate(18.648 45.611)">
            <path id="Path_30093" data-name="Path 30093" d="M270.27,317.769l2.277-1.322a.52.52,0,0,1,.529-.051l.538.321a.52.52,0,0,1,.221.484v5.462a1.648,1.648,0,0,1-.747,1.294l-2.277,1.322a.523.523,0,0,1-.529.054c-.133-.079-.405-.245-.538-.321a.526.526,0,0,1-.221-.487v-5.462A1.651,1.651,0,0,1,270.27,317.769Z" transform="translate(-269.511 -316.346)" fill="#fafafa"/>
            <path id="Path_30094" data-name="Path 30094" d="M269.493,323.663v5.465a.523.523,0,0,0,.221.484c.13.073.336.2.523.3a.541.541,0,0,1-.2-.475v-5.456a1.527,1.527,0,0,1,.215-.723l-.544-.321A1.536,1.536,0,0,0,269.493,323.663Z" transform="translate(-269.49 -320.946)" fill="#e0e0e0"/>
            <path id="Path_30095" data-name="Path 30095" d="M274.314,324.7l-2.277,1.322c-.411.239-.747.045-.747-.429v-5.462a1.66,1.66,0,0,1,.747-1.3l2.277-1.322c.411-.236.747-.045.747.432V323.4A1.648,1.648,0,0,1,274.314,324.7Z" transform="translate(-270.746 -317.086)" fill="#f0f0f0"/>
          </g>
          <path id="Path_30096" data-name="Path 30096" d="M286.235,344.268A1.7,1.7,0,0,1,287,345.6c0,.49-.342.69-.765.445a1.69,1.69,0,0,1-.765-1.331C285.47,344.223,285.812,344.023,286.235,344.268Z" transform="translate(-261.99 -290.14)" fill="#37474f"/>
          <path id="Path_30097" data-name="Path 30097" d="M277.792,338.414a.577.577,0,0,1-.284-.079.556.556,0,0,1-.281-.49v-5.54a.191.191,0,1,1,.378,0v5.546a.178.178,0,0,0,.094.163.181.181,0,0,0,.188,0l2.5-1.446a.188.188,0,0,1,.257.07.194.194,0,0,1-.07.26l-2.513,1.443a.578.578,0,0,1-.272.073Z" transform="translate(-256.238 -281.719)" fill="#263238"/>
        </g>
      </g>
    </g>
    <g id="freepik--Label--inject-40" transform="translate(59.573 16.2)">
      <g id="freepik--label--inject-40-2" data-name="freepik--label--inject-40">
        <path id="Path_30098" data-name="Path 30098" d="M180.162,89.37a.3.3,0,0,1-.3-.263c-1.406-10.116,5.979-16.289,13.358-18.693a16.522,16.522,0,0,1,13.367.974.305.305,0,0,1-.324.517A16.2,16.2,0,0,0,193.408,71c-7.146,2.329-14.3,8.286-12.944,18.031a.3.3,0,0,1-.26.345Z" transform="translate(-179.686 -53.37)" fill="#37474f"/>
        <g id="freepik--label--inject-40-3" data-name="freepik--label--inject-40" transform="translate(22.955)">
          <path id="Path_30099" data-name="Path 30099" d="M279.941,16.2l-19.41,11.2-4.942,9.98,4.942,4.282.556.321,19.425-11.2V16.521ZM259.854,35.555A2.622,2.622,0,0,1,261.04,33.5a1.077,1.077,0,0,1,.511-.157,1.092,1.092,0,0,1,.118.52,2.631,2.631,0,0,1-1.186,2.056,1.122,1.122,0,0,1-.517.157,1.1,1.1,0,0,1-.112-.526Z" transform="translate(-255.59 -16.2)" fill="#c8523b"/>
          <path id="Path_30100" data-name="Path 30100" d="M262.372,28.468l-4.942,9.98,4.942,4.279,19.425-11.2V17.26Zm-.048,8.5c-.656.381-1.185.073-1.185-.683a2.622,2.622,0,0,1,1.186-2.056c.653-.378,1.185-.07,1.185.683A2.625,2.625,0,0,1,262.323,36.972Z" transform="translate(-256.874 -16.939)" fill="#c8523b"/>
          <path id="Path_30101" data-name="Path 30101" d="M272.319,73.713a2.625,2.625,0,0,1-1.186,2.056c-.475.275-.883.191-1.074-.163h0a1.061,1.061,0,0,0,.517-.16,2.619,2.619,0,0,0,1.186-2.053,1.059,1.059,0,0,0-.118-.514.6.6,0,0,1,.448.166A.907.907,0,0,1,272.319,73.713Z" transform="translate(-265.684 -55.737)" fill="#c8523b" opacity="0.3"/>
          <path id="Path_30102" data-name="Path 30102" d="M291.9,16.521l-.556-.321L271.93,27.4l.556.324Z" transform="translate(-266.988 -16.2)" fill="#c8523b" opacity="0.6"/>
          <path id="Path_30103" data-name="Path 30103" d="M261.088,53.574l-4.942,9.989-.556-.324,4.942-9.989Z" transform="translate(-255.59 -42.045)" fill="#c8523b" opacity="0.15"/>
          <path id="Path_30104" data-name="Path 30104" d="M256.146,86.6l4.942,4.279-.556-.321L255.59,86.28Z" transform="translate(-255.59 -65.086)" fill="#c8523b" opacity="0.3"/>
        </g>
        <g id="freepik--Text--inject-40" transform="translate(31.553 3.895)">
          <path id="Path_30105" data-name="Path 30105" d="M287.547,50.206a.079.079,0,0,1,.1,0,.194.194,0,0,1,.042.136v.886a.442.442,0,0,1-.042.181.266.266,0,0,1-.1.127l-1.624.938v1.143l1.512-.874a.082.082,0,0,1,.1,0,.185.185,0,0,1,.042.133v.886a.466.466,0,0,1-.042.184.272.272,0,0,1-.1.124l-1.512.877v1.815a.444.444,0,0,1-.042.184.3.3,0,0,1-.1.127l-.714.411a.082.082,0,0,1-.1,0,.184.184,0,0,1-.042-.133V51.945a.466.466,0,0,1,.042-.184.3.3,0,0,1,.1-.127Z" transform="translate(-284.646 -43.803)" fill="#fafafa"/>
          <path id="Path_30106" data-name="Path 30106" d="M298.05,44.91a1.9,1.9,0,0,1,.641-.254.689.689,0,0,1,.478.073.759.759,0,0,1,.3.423,2.455,2.455,0,0,1,.106.786,3.628,3.628,0,0,1-.169,1.137,2.888,2.888,0,0,1-.478.907l.677,1.606a.2.2,0,0,1,.015.082.378.378,0,0,1-.033.151.227.227,0,0,1-.085.1l-.738.426c-.073.042-.124.045-.154,0a.371.371,0,0,1-.076-.109l-.6-1.44-.5.3v1.787a.454.454,0,0,1-.042.184.3.3,0,0,1-.1.127l-.711.408a.082.082,0,0,1-.106,0,.184.184,0,0,1-.042-.133v-5.41a.454.454,0,0,1,.042-.184.284.284,0,0,1,.106-.127Zm-.6,2.885.6-.354a1.164,1.164,0,0,0,.366-.351,1.028,1.028,0,0,0,.148-.572c0-.236-.051-.366-.148-.4a.493.493,0,0,0-.378.085l-.6.354Z" transform="translate(-292.675 -39.935)" fill="#fafafa"/>
          <path id="Path_30107" data-name="Path 30107" d="M312.077,40.491a.079.079,0,0,1,.1,0,.172.172,0,0,1,.045.133v.886a.423.423,0,0,1-.045.184.254.254,0,0,1-.1.124L309.507,43.3a.079.079,0,0,1-.1,0,.172.172,0,0,1-.045-.133v-5.4a.414.414,0,0,1,.045-.184.263.263,0,0,1,.1-.127l2.528-1.458a.079.079,0,0,1,.1,0,.172.172,0,0,1,.042.133v.886a.411.411,0,0,1-.042.184.3.3,0,0,1-.1.127l-1.672.965v.907l1.551-.907a.082.082,0,0,1,.106,0,.185.185,0,0,1,.042.133v.886a.445.445,0,0,1-.042.184.284.284,0,0,1-.106.127l-1.551.907v.938Z" transform="translate(-301.695 -33.898)" fill="#fafafa"/>
          <path id="Path_30108" data-name="Path 30108" d="M324.067,33.592a.079.079,0,0,1,.1,0,.172.172,0,0,1,.042.133v.886a.4.4,0,0,1-.042.181.266.266,0,0,1-.1.127L321.494,36.4a.079.079,0,0,1-.1,0,.184.184,0,0,1-.042-.133v-5.4a.454.454,0,0,1,.042-.184.3.3,0,0,1,.1-.127l2.531-1.461a.082.082,0,0,1,.1,0,.185.185,0,0,1,.042.133v.886a.466.466,0,0,1-.042.184.272.272,0,0,1-.1.124l-1.672.968V32.3l1.551-.907a.079.079,0,0,1,.1,0,.173.173,0,0,1,.045.133v.886a.405.405,0,0,1-.045.184.281.281,0,0,1-.1.127l-1.551.907v.934Z" transform="translate(-310.059 -29.08)" fill="#fafafa"/>
          <path id="Path_30109" data-name="Path 30109" d="M284.888,76a.756.756,0,0,1,.339-.112.466.466,0,0,1,.263.057.442.442,0,0,1,.175.181.569.569,0,0,1,.067.257.2.2,0,0,1-.018.079.106.106,0,0,1-.042.051l-.375.218a.1.1,0,0,1-.064.018.082.082,0,0,1-.051-.024.11.11,0,0,1-.027-.027.157.157,0,0,0-.139-.039.321.321,0,0,0-.127.048.766.766,0,0,0-.1.07.835.835,0,0,0-.091.088.4.4,0,0,0-.06.106.275.275,0,0,0-.027.124.1.1,0,0,0,.121.121.683.683,0,0,0,.169-.024c.073-.018.16-.039.263-.07a.859.859,0,0,1,.275-.033.3.3,0,0,1,.2.073.387.387,0,0,1,.118.2,1.17,1.17,0,0,1,.039.339,1.443,1.443,0,0,1-.067.439,1.9,1.9,0,0,1-.184.408,1.851,1.851,0,0,1-.635.626.859.859,0,0,1-.354.124.484.484,0,0,1-.278-.048.472.472,0,0,1-.181-.187.648.648,0,0,1-.07-.3.2.2,0,0,1,.018-.079.106.106,0,0,1,.042-.051l.375-.218a.139.139,0,0,1,.064-.021.1.1,0,0,1,.045.021.2.2,0,0,1,.036.036.16.16,0,0,0,.06.045.185.185,0,0,0,.1.018.363.363,0,0,0,.145-.054,1.068,1.068,0,0,0,.254-.2.354.354,0,0,0,.1-.242.1.1,0,0,0-.039-.088.191.191,0,0,0-.112-.018,1.343,1.343,0,0,0-.191.036c-.076.024-.169.045-.272.073a.423.423,0,0,1-.432-.076.789.789,0,0,1-.136-.529,1.406,1.406,0,0,1,.057-.393,1.871,1.871,0,0,1,.16-.4,1.977,1.977,0,0,1,.257-.357A1.443,1.443,0,0,1,284.888,76Z" transform="translate(-284.02 -61.73)" fill="#fafafa"/>
          <path id="Path_30110" data-name="Path 30110" d="M292.67,70.895a.039.039,0,0,1,.054,0,.091.091,0,0,1,.021.07v2.852a.232.232,0,0,1-.021.1.179.179,0,0,1-.054.067l-.378.215a.042.042,0,0,1-.054,0,.1.1,0,0,1-.021-.07V73.036l-.635.369v1.08a.217.217,0,0,1-.024.1.139.139,0,0,1-.054.067l-.375.218a.042.042,0,0,1-.054,0,.091.091,0,0,1-.024-.073V71.947a.23.23,0,0,1,.024-.1.139.139,0,0,1,.054-.067l.375-.218a.042.042,0,0,1,.054,0,.087.087,0,0,1,.024.07V72.7l.635-.366V71.273a.233.233,0,0,1,.021-.1.155.155,0,0,1,.054-.067Z" transform="translate(-288.923 -58.241)" fill="#fafafa"/>
          <path id="Path_30111" data-name="Path 30111" d="M298.3,72.285a.042.042,0,0,1-.054,0,.1.1,0,0,1-.024-.073V69.36a.23.23,0,0,1,.024-.1.139.139,0,0,1,.054-.067l.375-.218a.045.045,0,0,1,.054,0,.1.1,0,0,1,.024.073V71.9a.218.218,0,0,1-.024.1.139.139,0,0,1-.054.067Z" transform="translate(-293.925 -56.906)" fill="#fafafa"/>
          <path id="Path_30112" data-name="Path 30112" d="M302.438,65.935a.965.965,0,0,1,.33-.127.342.342,0,0,1,.248.051.444.444,0,0,1,.16.233,1.315,1.315,0,0,1,.054.417,2.089,2.089,0,0,1-.054.487,1.711,1.711,0,0,1-.16.411,1.55,1.55,0,0,1-.248.339,1.587,1.587,0,0,1-.33.257l-.369.212v.907a.234.234,0,0,1-.021.1.154.154,0,0,1-.054.067l-.375.206a.039.039,0,0,1-.054,0,.091.091,0,0,1-.024-.07V66.57a.239.239,0,0,1,.024-.1.154.154,0,0,1,.054-.067Zm-.369,1.594.354-.206a.56.56,0,0,0,.278-.508c0-.124-.027-.2-.079-.221a.212.212,0,0,0-.2.033l-.354.2Z" transform="translate(-296.241 -54.697)" fill="#fafafa"/>
          <path id="Path_30113" data-name="Path 30113" d="M309.174,62.045a1.013,1.013,0,0,1,.33-.127.351.351,0,0,1,.251.051.441.441,0,0,1,.157.233,1.228,1.228,0,0,1,.057.417,1.934,1.934,0,0,1-.057.487,1.78,1.78,0,0,1-.157.414,1.622,1.622,0,0,1-.251.336,1.443,1.443,0,0,1-.33.257l-.366.212v.907a.239.239,0,0,1-.024.1.139.139,0,0,1-.054.067l-.375.218a.042.042,0,0,1-.054,0,.091.091,0,0,1-.021-.07V62.683a.236.236,0,0,1,.021-.1.155.155,0,0,1,.054-.067Zm-.375,1.594.354-.206a.563.563,0,0,0,.275-.508c0-.124-.024-.2-.079-.221a.206.206,0,0,0-.2.033l-.354.2Z" transform="translate(-300.942 -51.983)" fill="#fafafa"/>
          <path id="Path_30114" data-name="Path 30114" d="M315.081,62.593a.042.042,0,0,1-.054,0A.088.088,0,0,1,315,62.52V59.668a.218.218,0,0,1,.024-.1.124.124,0,0,1,.054-.067l.375-.218a.042.042,0,0,1,.054,0,.1.1,0,0,1,.024.07v2.861a.23.23,0,0,1-.024.1.139.139,0,0,1-.054.067Z" transform="translate(-305.63 -50.145)" fill="#fafafa"/>
          <path id="Path_30115" data-name="Path 30115" d="M319.632,58.445c-.033.018-.057.021-.079,0a.118.118,0,0,1-.039-.039l-.656-1.131v1.491a.215.215,0,0,1-.021.1.139.139,0,0,1-.054.067l-.375.218a.042.042,0,0,1-.054,0,.085.085,0,0,1-.024-.07V56.222a.191.191,0,0,1,.024-.1.14.14,0,0,1,.054-.067l.3-.172c.033-.018.06-.021.079,0a.118.118,0,0,1,.039.039l.656,1.131v-1.5a.214.214,0,0,1,.021-.1.181.181,0,0,1,.054-.067l.378-.218a.045.045,0,0,1,.054,0,.1.1,0,0,1,.021.073V58.1a.225.225,0,0,1-.021.1.139.139,0,0,1-.054.067Z" transform="translate(-307.952 -47.28)" fill="#fafafa"/>
          <path id="Path_30116" data-name="Path 30116" d="M326.088,52.879a.605.605,0,0,0-.163.136.8.8,0,0,0-.106.175.827.827,0,0,0-.06.2,1.7,1.7,0,0,0-.03.212v.741a.791.791,0,0,0,.027.178.3.3,0,0,0,.063.127.142.142,0,0,0,.109.048.3.3,0,0,0,.16-.051.668.668,0,0,0,.142-.106.739.739,0,0,0,.115-.151.855.855,0,0,0,.076-.194.866.866,0,0,0,.03-.242l-.242.139a.045.045,0,0,1-.054,0,.1.1,0,0,1-.021-.073v-.463a.235.235,0,0,1,.021-.1.154.154,0,0,1,.054-.067l.7-.4a.042.042,0,0,1,.054,0,.1.1,0,0,1,.021.073v.563a2.043,2.043,0,0,1-.07.547,2.28,2.28,0,0,1-.187.493,2.171,2.171,0,0,1-.281.4,1.492,1.492,0,0,1-.354.287.756.756,0,0,1-.366.118.429.429,0,0,1-.287-.1.623.623,0,0,1-.175-.278,1.472,1.472,0,0,1-.07-.42v-.786a2.256,2.256,0,0,1,.07-.5,2.172,2.172,0,0,1,.175-.481,1.977,1.977,0,0,1,.275-.42,1.554,1.554,0,0,1,.369-.3.816.816,0,0,1,.363-.118.493.493,0,0,1,.272.073.532.532,0,0,1,.175.206.648.648,0,0,1,.067.275.15.15,0,0,1-.015.079.142.142,0,0,1-.045.054l-.372.2c-.03.015-.051.015-.07,0l-.045-.051a.248.248,0,0,0-.109-.082A.269.269,0,0,0,326.088,52.879Z" transform="translate(-312.739 -45.11)" fill="#fafafa"/>
        </g>
        <path id="Path_30117" data-name="Path 30117" d="M262.329,82.162a3.5,3.5,0,0,1-.859-.109.311.311,0,1,1,.145-.6,2.465,2.465,0,0,0,2.958-1.4,1.919,1.919,0,0,0-.662-2.453.305.305,0,1,1,.33-.514,2.537,2.537,0,0,1,.907,3.206,3.024,3.024,0,0,1-2.819,1.878Z" transform="translate(-236.57 -58.634)" fill="#37474f"/>
      </g>
    </g>
    <g id="freepik--Character--inject-40" transform="translate(32.057 81.295)">
      <g id="freepik--character--inject-40-2" data-name="freepik--character--inject-40">
        <g id="freepik--Bottom--inject-40" transform="translate(2.441 17.143)">
          <path id="Path_30118" data-name="Path 30118" d="M97.016,371.21a1.688,1.688,0,0,0-.145.877,4.031,4.031,0,0,1,.145,1.195c-.048.6-.178.789-.224,1.21a1.733,1.733,0,0,0,.257,1.21,1.97,1.97,0,0,0,1.908.623c.865-.064,1.231-.547,1.231-1.059Z" transform="translate(-96.771 -346.085)" fill="#263238"/>
          <path id="Path_30119" data-name="Path 30119" d="M98.5,357.557c.544.3,1.434-.051,2.1-.405l.7-4.113-3.009-.668Z" transform="translate(-97.824 -332.942)" fill="#ffa8a7"/>
          <path id="Path_30120" data-name="Path 30120" d="M97.266,366.926a2,2,0,0,0-.039.339c-.024.2-.079.393-.118.6a.96.96,0,0,1-.03.157,6.305,6.305,0,0,0,.039,1.21,6.678,6.678,0,0,1-.2,1.421c-.163.85-.16,1.379.6,1.932a1.984,1.984,0,0,0,1.306.318,1.728,1.728,0,0,0,1.074-.3.907.907,0,0,0,.3-.514,27.474,27.474,0,0,0-.463-2.81,4.485,4.485,0,0,1-.045-.723c.021-.3.112-.6.133-.907a.5.5,0,0,0-.051-.327.538.538,0,0,0-.405-.163c-.393-.036-.786-.06-1.182-.076a.35.35,0,0,0-.266.067c-.073.07-.07.187-.088.287s-.088.218-.188.2a.166.166,0,0,1-.124-.142c0-.067-.06-.584-.06-.65C97.45,366.856,97.311,366.838,97.266,366.926Z" transform="translate(-96.816 -343.043)" fill="#37474f"/>
          <path id="Path_30121" data-name="Path 30121" d="M100.265,381.139a1.082,1.082,0,0,0-.145-.538c-.439-.786-2.64-.732-3.3.094a1.21,1.21,0,0,0,.556,1.122,2.411,2.411,0,0,0,1.476.3,1.911,1.911,0,0,0,1.077-.333.741.741,0,0,0,.336-.647Z" transform="translate(-96.802 -352.246)" fill="#455a64"/>
          <path id="Path_30122" data-name="Path 30122" d="M117,356.087c.46.995,1.182.6,2.117-.042l.457-5.955-2.885.78Z" transform="translate(-110.666 -331.352)" fill="#ffa8a7"/>
          <path id="Path_30123" data-name="Path 30123" d="M122.194,374.6a.662.662,0,0,1-.027.49,2.472,2.472,0,0,1-1.83.5,4.255,4.255,0,0,1-2.1-.732,2.419,2.419,0,0,0-1.288-.333,1.865,1.865,0,0,1-1.27-.514,1.116,1.116,0,0,1,.018-.638Z" transform="translate(-109.937 -347.591)" fill="#263238"/>
          <path id="Path_30124" data-name="Path 30124" d="M118.7,366.379a2.113,2.113,0,0,1,.1.227,1.778,1.778,0,0,0,.529.717,5.712,5.712,0,0,0,1.095.65c.242.121.5.163.75.26a4.427,4.427,0,0,1,.807.393.732.732,0,0,1,0,1.21,3.566,3.566,0,0,1-2.5.172c-.587-.166-1.237-.792-2.008-.853a3.032,3.032,0,0,1-1.73-.547,1.905,1.905,0,0,1,.166-1.14,3.78,3.78,0,0,0,.124-.78c0-.139-.07-.541.224-.578v.3s.051.1.354.169c.1.021.169.151.218.272s.076.209.172.212a.185.185,0,0,0,.157-.112,1.453,1.453,0,0,0,.063-.194.777.777,0,0,1,.478-.435,2.351,2.351,0,0,1,.541-.091c.142-.015.257-.07.378.051A.454.454,0,0,1,118.7,366.379Z" transform="translate(-109.981 -342.527)" fill="#37474f"/>
          <path id="Path_30125" data-name="Path 30125" d="M115.96,369.54c-.021.112-.042.221-.073.33a1.912,1.912,0,0,0-.166,1.14,2.386,2.386,0,0,0,1.331.5A1.854,1.854,0,0,0,115.96,369.54Z" transform="translate(-109.967 -344.92)" fill="#455a64"/>
          <path id="Path_30126" data-name="Path 30126" d="M98.359,289.11c-.127,3.856-.073,5.4-.057,12.493a12.248,12.248,0,0,0-.52,3.351c-.048,1.775.139,5.444.139,5.444a2.935,2.935,0,0,0,2.722.187s1-5.4,1.382-7.863c.336-2.174.68-5.356.68-5.356l.481,4.521a17.942,17.942,0,0,0-.082,3.436c.082,1.161.4,5.256.4,5.256a2.768,2.768,0,0,0,2.722.185s.653-8.147.674-9.2c.021-1.21-.448-13.431-.448-13.431Z" transform="translate(-97.47 -288.13)" fill="#455a64"/>
          <path id="Path_30127" data-name="Path 30127" d="M114.05,306.572l.729-4.21a4.53,4.53,0,0,0,2.459-1.022s-.157.868-2.147,1.385l-.729,4.234.169,4.122Z" transform="translate(-108.824 -297.345)" fill="#263238"/>
          <path id="Path_30128" data-name="Path 30128" d="M131.152,373.652a4.081,4.081,0,0,0-.714-.3,1.73,1.73,0,0,0-1.6,1.778,3.327,3.327,0,0,0,2.3-.2.792.792,0,0,0,.012-1.279Z" transform="translate(-119.14 -347.577)" fill="#455a64"/>
        </g>
        <g id="freepik--Top--inject-40">
          <g id="freepik--Arm--inject-40" transform="translate(8.719 6.953)">
            <path id="Path_30129" data-name="Path 30129" d="M118.039,255.726a3.192,3.192,0,0,1,2.834,1.11c.623.8,2.326,2.743,3.284,4.016a28.963,28.963,0,0,0,2.6-2.791,7.772,7.772,0,0,0,.635-1.427,4.772,4.772,0,0,0,.233-.892,4.84,4.84,0,0,0,.054-1.134c0-.339.5-.154.683.39a3.006,3.006,0,0,1,.124.928l.826-.378c.3-.13,1.249-.439,1.328.094a1.288,1.288,0,0,0,.024.36.91.91,0,0,0,.1.139.6.6,0,0,1,.06.6.469.469,0,0,0-.057.278.8.8,0,0,1,0,.3,1.3,1.3,0,0,1-.124.218.907.907,0,0,0-.091.3,1.092,1.092,0,0,1-.079.3c-.109.233-.393.281-.6.354a10.45,10.45,0,0,0-.992.363c-.532.336-2.005,2.858-3.475,4.464-.505.55-.953.892-1.418.82h0a2.5,2.5,0,0,1-1.273-.768c-1.4-1.264-3.662-3.629-3.662-3.629A6.159,6.159,0,0,1,118.039,255.726Z" transform="translate(-117.861 -254.436)" fill="#ffa8a7"/>
            <path id="Path_30130" data-name="Path 30130" d="M117.708,258.628a3.366,3.366,0,0,1,1.917.3,3.439,3.439,0,0,1,1.3,1.164c.572.671,1.367,1.681,1.367,1.681a3.4,3.4,0,0,1-2.311,2.386l-2.45-2.846Z" transform="translate(-117.53 -257.339)" fill="#455a64"/>
            <path id="Path_30131" data-name="Path 30131" d="M152.286,259.59c-.3.094-.372.3-.36.714a1.18,1.18,0,0,1-.336.907.653.653,0,0,0,.354-.157c.13-.133.163-.148.236-.073a.5.5,0,0,0,.191.106.327.327,0,0,0-.027.39c.133.215.72.215,1.21-.039,0,0-.78.251-.965,0s.23-.562.538-.65c0,0-.756.188-.874-.057s.194-.439.638-.556c0,0-.623.118-.732-.091A.384.384,0,0,1,152.286,259.59Z" transform="translate(-141.289 -258.031)" fill="#f28f8f"/>
          </g>
          <path id="Path_30132" data-name="Path 30132" d="M107.385,261.3c-.169-1.237-.333-2.9-2.25-2.976l-2.492-.118c-.6.157-3.327.947-3.327.947v3.932s.091,1.642.2,3.714c0,0-.224,2.419-.2,3.36,1.772,1.122,6.475.8,8.344-.327C107.748,268.127,107.564,262.529,107.385,261.3Z" transform="translate(-96.105 -250.115)" fill="#c8523b"/>
          <path id="Path_30133" data-name="Path 30133" d="M102.011,244.753l-3.9-.2c-.741.587-2.117,1.815-2.117,2.15h0v.233h0a.049.049,0,0,0,0,.027c.142.26.644.411,1.418.408a6.148,6.148,0,0,0,2.722-.448c.553-.5,1.878-1.948,1.878-1.948h-.2Z" transform="translate(-93.788 -240.586)" fill="#57b8ce"/>
          <path id="Path_30134" data-name="Path 30134" d="M102.011,244.753l-3.9-.2c-.741.587-2.117,1.815-2.117,2.15h0v.233h0a.049.049,0,0,0,0,.027c.142.26.644.411,1.418.408a6.148,6.148,0,0,0,2.722-.448c.553-.5,1.878-1.948,1.878-1.948h-.2Z" transform="translate(-93.788 -240.586)" opacity="0.2"/>
          <path id="Path_30135" data-name="Path 30135" d="M98.129,245.27c-.777.6-2.247,1.932-2.1,2.193s.644.411,1.418.408a6.148,6.148,0,0,0,2.722-.448c.553-.5,1.878-1.948,1.878-1.948Z" transform="translate(-93.804 -241.089)" fill="#57b8ce"/>
          <path id="Path_30136" data-name="Path 30136" d="M98.129,245.27c-.777.6-2.247,1.932-2.1,2.193s.644.411,1.418.408a6.148,6.148,0,0,0,2.722-.448c.553-.5,1.878-1.948,1.878-1.948Z" transform="translate(-93.804 -241.089)" opacity="0.4"/>
          <path id="Path_30137" data-name="Path 30137" d="M103,244.482c0,.115.393.342.393.342l-.127-.683Z" transform="translate(-98.675 -240.3)" fill="#57b8ce"/>
          <path id="Path_30138" data-name="Path 30138" d="M103,244.482c0,.115.393.342.393.342l-.127-.683Z" transform="translate(-98.675 -240.3)" opacity="0.3"/>
          <path id="Path_30139" data-name="Path 30139" d="M109.362,233.763a2.552,2.552,0,0,0-.786-.88,3.315,3.315,0,0,0-2.026-.435,5,5,0,0,0-1.322.2,2.665,2.665,0,0,0-1.751,1.709,3.6,3.6,0,0,0,.366,3.024,12.534,12.534,0,0,1,.6,1.21c.172.336.3.6.3.6l-.057-1.062,1.01-.088a3.931,3.931,0,0,1,.88-.048,1.164,1.164,0,0,0,.768-.242,12.04,12.04,0,0,0,1.364-1.01,3.822,3.822,0,0,0,.735-.78,1.54,1.54,0,0,0,.127-.215,1.276,1.276,0,0,0,.133-.405,2.344,2.344,0,0,0,.027-.6,2.821,2.821,0,0,0-.178-.6A3.846,3.846,0,0,0,109.362,233.763Z" transform="translate(-98.883 -232.14)" fill="#263238"/>
          <path id="Path_30140" data-name="Path 30140" d="M106.052,238.594a5.311,5.311,0,0,1-.68-.136h-.064a1.527,1.527,0,0,1-1.122,1.016,3.889,3.889,0,0,1,.03,1.282.8.8,0,0,1-.1.26.321.321,0,0,1-.227.142.213.213,0,0,1-.215-.163,2.723,2.723,0,0,0-.187-.36.635.635,0,0,0-.109-.139.6.6,0,0,0-1.007.206,1.282,1.282,0,0,0,.674,1.557c.777.215.944-.3.944-.3l.151,2.767c.42.439,2.017,1.043,2.477,1.564.206-.354.8-1.225.018-1.718l-.03-.844a4.875,4.875,0,0,0,1.037.018c.563-.106.841-.581.992-1.21a14.28,14.28,0,0,0,.136-3.629,5.854,5.854,0,0,0-.118-.8c.024.076-.532.3-.6.3a3.4,3.4,0,0,1-.774.163,7.159,7.159,0,0,1-.907.033A2.808,2.808,0,0,1,106.052,238.594Z" transform="translate(-98.195 -236.094)" fill="#ffa8a7"/>
          <path id="Path_30141" data-name="Path 30141" d="M111.107,254.256a9.85,9.85,0,0,1-1.718-.432,1.47,1.47,0,0,1-.629-.584,2.014,2.014,0,0,0,.369.7c.336.4,1.987.584,1.987.584Z" transform="translate(-102.693 -246.648)" fill="#f28f8f"/>
          <path id="Path_30142" data-name="Path 30142" d="M113.642,245.206a.236.236,0,1,1-.071-.169A.236.236,0,0,1,113.642,245.206Z" transform="translate(-105.77 -240.879)" fill="#263238"/>
          <path id="Path_30143" data-name="Path 30143" d="M112.257,241.386l-.6.178a.321.321,0,0,1,.212-.393.3.3,0,0,1,.393.215Z" transform="translate(-104.702 -238.218)" fill="#263238"/>
          <path id="Path_30144" data-name="Path 30144" d="M114.941,251.19l.871.3a.454.454,0,0,1-.575.3.478.478,0,0,1-.3-.6Z" transform="translate(-106.988 -245.218)" fill="#b16668"/>
          <path id="Path_30145" data-name="Path 30145" d="M115.082,251.79a.349.349,0,0,0-.112.018.472.472,0,0,0,.3.4.427.427,0,0,0,.194.021.136.136,0,0,0,0-.033.4.4,0,0,0-.384-.4Z" transform="translate(-107.025 -245.637)" fill="#f28f8f"/>
          <path id="Path_30146" data-name="Path 30146" d="M121.7,241.417l-.566-.215a.3.3,0,0,1,.566.215Z" transform="translate(-111.322 -238.119)" fill="#263238"/>
          <path id="Path_30147" data-name="Path 30147" d="M106.291,243.09l-1.981.68a.711.711,0,0,1,.569.287l1.4-.532Z" transform="translate(-99.589 -239.568)" fill="#37474f"/>
          <path id="Path_30148" data-name="Path 30148" d="M120.792,245.069a.236.236,0,1,1-.245-.239.242.242,0,0,1,.245.239Z" transform="translate(-110.757 -240.782)" fill="#263238"/>
          <path id="Path_30149" data-name="Path 30149" d="M114.482,242.673l-.127-.015a3.862,3.862,0,0,0-1.3.067c-.414.136-.562.281-.792.287s-.4-.136-.835-.257a4.283,4.283,0,0,0-1.382,0,.353.353,0,0,0-.139.018.23.23,0,0,0-.16.236.49.49,0,0,0,.13.269.387.387,0,0,1,.042.109,4.558,4.558,0,0,0,.154.747.95.95,0,0,0,.172.269.75.75,0,0,0,.091.076l.051.036a.812.812,0,0,0,.154.073h.109a.923.923,0,0,0,.136.018h.133a.98.98,0,0,0,.956-.578c.148-.287.118-.686.381-.693h.048c.191.042.16.411.278.674a1.071,1.071,0,0,0,.181.287.282.282,0,0,0,.042.042l.024.021a.082.082,0,0,0,.024.021l.021.015.024.018h.033a.886.886,0,0,0,.224.088h.021a1.109,1.109,0,0,0,.275.024.835.835,0,0,0,.814-.535,4.839,4.839,0,0,0,.175-.756.239.239,0,0,1,.051-.1.529.529,0,0,0,.124-.278A.191.191,0,0,0,114.482,242.673Zm-2.746,1.113a.889.889,0,0,1-.2.4h0a.817.817,0,0,1-.623.239.665.665,0,0,1-.6-.278l-.018-.03-.03-.054a.076.076,0,0,1,0-.021v-.021a.051.051,0,0,1,0-.015.128.128,0,0,1,0-.03h0a.3.3,0,0,0-.03-.082h0v-.048a.506.506,0,0,1-.018-.082v-.03c-.042-.2-.085-.587,0-.677a1.137,1.137,0,0,1,.783-.151h.045a1.041,1.041,0,0,1,.191.03l.076.018a1.515,1.515,0,0,1,.188.057l.057.024.06.03h.024a.405.405,0,0,1,.124.1A.907.907,0,0,1,111.736,243.786Zm2.471-.13a.907.907,0,0,1-.411.644.8.8,0,0,1-.3.076.659.659,0,0,1-.626-.3h0v-.039h0a.163.163,0,0,0-.015-.033v-.054h0v-.015h0a.784.784,0,0,1-.036-.145.959.959,0,0,1,.024-.6,1.21,1.21,0,0,1,.7-.3l.2-.018h.224l.1.015h.088l.048.018h0a.318.318,0,0,1,.1.067,3.07,3.07,0,0,1-.085.69Z" transform="translate(-103.383 -239.248)" fill="#263238"/>
          <path id="Path_30150" data-name="Path 30150" d="M117.81,245.024l.045,1.648.907-.266L117.916,245A.236.236,0,0,0,117.81,245.024Z" transform="translate(-109.006 -240.9)" fill="#f28f8f"/>
          <path id="Path_30151" data-name="Path 30151" d="M102.361,234.682a3.326,3.326,0,0,0,.188.965,1.209,1.209,0,0,1,.23-.278,5.8,5.8,0,0,1,1.736-1.04h0a6.817,6.817,0,0,1,4.564-.269,3.148,3.148,0,0,0-.2-.823,2.731,2.731,0,0,0-3.172-1.757C103.813,231.718,102.27,232.8,102.361,234.682Z" transform="translate(-98.227 -231.444)" fill="#57b8ce"/>
          <path id="Path_30152" data-name="Path 30152" d="M113.77,234.744a4.972,4.972,0,0,1,1.89-.172,1.984,1.984,0,0,0,.387-.457c.148-.245.091-.553-.057-.6s-.151.13-.7.417a.931.931,0,0,0,.036-.566c-.1-.224-.281.188-.69.46S113.812,234.239,113.77,234.744Z" transform="translate(-106.188 -232.737)" fill="#263238"/>
          <path id="Path_30153" data-name="Path 30153" d="M108.444,259.071c-.3-.191-.974-.52-1.319-.154s-.526.472-.753.405a4.587,4.587,0,0,1-1.21-1.21c-.3-.463-.23-.65-.23-.65l.566-.744c.157-.209.209-.233.408-.248l.027.55a1.043,1.043,0,0,0,.426.677C106.922,258.082,108.029,258.185,108.444,259.071Z" transform="translate(-100.018 -248.902)" fill="#455a64"/>
          <path id="Path_30154" data-name="Path 30154" d="M116.56,259.936c.184-.172.6-.6.907-.511s.442.269.448.106a3.278,3.278,0,0,0-.5-1.1,1.9,1.9,0,0,0-.844-.723l.018.508s.363.46.321.735S116.6,259.667,116.56,259.936Z" transform="translate(-108.134 -249.767)" fill="#455a64"/>
          <g id="freepik--arm--inject-40-2" data-name="freepik--arm--inject-40" transform="translate(0 8.963)">
            <path id="Path_30155" data-name="Path 30155" d="M121.51,280.67l-6.566,1.125-2.595,7.794,6.254-1.234Z" transform="translate(-105.198 -274.745)" fill="#263238"/>
            <path id="Path_30156" data-name="Path 30156" d="M117.624,299.79a1.512,1.512,0,0,1-1.086,1.065,3.3,3.3,0,0,1-1.748-.145l.218-.65Z" transform="translate(-106.9 -288.083)" opacity="0.15"/>
            <path id="Path_30157" data-name="Path 30157" d="M129.644,283.074l.076-.239c.039-.133-.336-.172-.841-.088l-.968.163c-.505.085-.947.26-.989.393l-.073.239Z" transform="translate(-115.312 -276.163)" opacity="0.15"/>
            <path id="Path_30158" data-name="Path 30158" d="M129.919,280c.024-.082-.124-.118-.336-.079l-.384.07s.157-.52-.69-.408a1.3,1.3,0,0,0-1.08.7l-.411.079a.741.741,0,0,0-.469.224l-.06.148,3.381-.578S129.892,280.086,129.919,280Z" transform="translate(-115.061 -273.977)" fill="#57b8ce"/>
            <path id="Path_30159" data-name="Path 30159" d="M129.919,280c.024-.082-.124-.118-.336-.079l-.384.07s.157-.52-.69-.408a1.3,1.3,0,0,0-1.08.7l-.411.079a.741.741,0,0,0-.469.224l-.06.148,3.381-.578S129.892,280.086,129.919,280Z" transform="translate(-115.061 -273.977)" opacity="0.3"/>
            <path id="Path_30160" data-name="Path 30160" d="M127.067,282.447c.033-.109.348-.248.741-.342v-.036c.033-.118,0-.191-.251-.151v-.094l2.341-.384-.1.094c-.3.048-.439.076-.5.281l-.015.045c.366-.033.6,0,.581.121l-.076.239-2.782.469Z" transform="translate(-115.417 -275.283)" fill="#57b8ce"/>
            <path id="Path_30161" data-name="Path 30161" d="M127.067,282.447c.033-.109.348-.248.741-.342v-.036c.033-.118,0-.191-.251-.151v-.094l2.341-.384-.1.094c-.3.048-.439.076-.5.281l-.015.045c.366-.033.6,0,.581.121l-.076.239-2.782.469Z" transform="translate(-115.417 -275.283)" opacity="0.4"/>
            <path id="Path_30162" data-name="Path 30162" d="M97.286,271.682a8.158,8.158,0,0,0,2.516.242c.079,0,.175,0,.209.088a.175.175,0,0,1-.073.188.823.823,0,0,0-.163.142c-.064.094-.039.218-.057.33a.85.85,0,0,1-.26.417,1.962,1.962,0,0,1-.417.375,2.928,2.928,0,0,1-1.872.221,6.259,6.259,0,0,1-1.14-.366c-.351-.139-2.477-.823-2.722-.907-1.875-.7-4.458-1.576-4.591-2.474s.644-3.856,1.037-6.127c.375-2.156,1.176-2.419,2.392-2.64a4.056,4.056,0,0,1,.275,4.183l-.789,3.505a40.887,40.887,0,0,0,3.814,2.181,1.512,1.512,0,0,0,.75-.064,3.257,3.257,0,0,1,1.376-.106" transform="translate(-88.7 -261.143)" fill="#ffa8a7"/>
            <path id="Path_30163" data-name="Path 30163" d="M93.355,261.08c-1.282.145-1.887.46-2.19,1.488s-.8,3.472-.8,3.472a4.29,4.29,0,0,0,2.918.925l.426-1.715A4.107,4.107,0,0,0,93.355,261.08Z" transform="translate(-89.865 -261.08)" fill="#455a64"/>
          </g>
        </g>
      </g>
    </g>
  </g>
</svg>
