<svg xmlns="http://www.w3.org/2000/svg" width="201.509" height="150.149" viewBox="0 0 201.509 150.149">
  <g id="Free_shipping-rafiki" data-name="Free shipping-rafiki" transform="translate(0 -55)">
    <g id="freepik--background-complete--inject-39" transform="translate(0 55)">
      <rect id="Rectangle_17865" data-name="Rectangle 17865" width="201.509" height="0.101" transform="translate(0 131.948)" fill="#ebebeb"/>
      <rect id="Rectangle_17866" data-name="Rectangle 17866" width="13.348" height="0.101" transform="translate(167.97 138.433)" fill="#ebebeb"/>
      <rect id="Rectangle_17867" data-name="Rectangle 17867" width="3.502" height="0.101" transform="translate(129.986 139.529)" fill="#ebebeb"/>
      <rect id="Rectangle_17868" data-name="Rectangle 17868" width="7.734" height="0.101" transform="translate(159.833 134.693)" fill="#ebebeb"/>
      <rect id="Rectangle_17869" data-name="Rectangle 17869" width="17.406" height="0.101" transform="translate(21.142 135.37)" fill="#ebebeb"/>
      <rect id="Rectangle_17870" data-name="Rectangle 17870" width="2.551" height="0.101" transform="translate(42.14 135.37)" fill="#ebebeb"/>
      <rect id="Rectangle_17871" data-name="Rectangle 17871" width="37.755" height="0.101" transform="translate(52.985 137.071)" fill="#ebebeb"/>
      <path id="Path_30164" data-name="Path 30164" d="M118.326,168.974H40.507a2.3,2.3,0,0,1-2.3-2.3V57.281A2.3,2.3,0,0,1,40.507,55h77.819a2.3,2.3,0,0,1,2.3,2.3V166.672A2.3,2.3,0,0,1,118.326,168.974ZM40.507,55.081a2.2,2.2,0,0,0-2.2,2.2V166.672a2.2,2.2,0,0,0,2.2,2.2h77.819a2.2,2.2,0,0,0,2.2-2.2V57.281a2.2,2.2,0,0,0-2.2-2.2Z" transform="translate(-22.811 -55)" fill="#ebebeb"/>
      <path id="Path_30165" data-name="Path 30165" d="M334.624,168.974H256.8a2.305,2.305,0,0,1-2.3-2.3V57.281A2.305,2.305,0,0,1,256.8,55h77.823a2.3,2.3,0,0,1,2.293,2.281V166.672A2.3,2.3,0,0,1,334.624,168.974ZM256.8,55.081a2.2,2.2,0,0,0-2.2,2.2V166.672a2.2,2.2,0,0,0,2.2,2.2h77.823a2.2,2.2,0,0,0,2.2-2.2V57.281a2.2,2.2,0,0,0-2.2-2.2Z" transform="translate(-151.932 -55)" fill="#ebebeb"/>
      <path id="Path_30166" data-name="Path 30166" d="M139.09,344.7l1.979,4.53a4.788,4.788,0,0,0,4.393,2.882h8.25a4.131,4.131,0,0,0,2.918-1.209h15.407a3.756,3.756,0,0,0,3.047-1.56l2.035-2.821Z" transform="translate(-83.034 -227.946)" fill="#e0e0e0"/>
      <path id="Path_30167" data-name="Path 30167" d="M136.069,276.458c0,2.172,8.657,17.6,9.523,18.212s12.167-.073,12.167-.073l-.83,3.2H125.9L113,272.774l8.524-12.3,15.536.431S136.069,274.289,136.069,276.458Z" transform="translate(-67.459 -177.662)" fill="#e6e6e6"/>
      <path id="Path_30168" data-name="Path 30168" d="M136.069,276.458c0,2.172,8.657,17.6,9.523,18.212s12.167-.073,12.167-.073l-.83,3.2H125.9L113,272.774l8.524-12.3,15.536.431S136.069,274.289,136.069,276.458Z" transform="translate(-67.459 -177.662)" fill="#f0f0f0"/>
      <ellipse id="Ellipse_6448" data-name="Ellipse 6448" cx="12.659" cy="15.27" rx="12.659" ry="15.27" transform="translate(30.742 101.516)" fill="#e0e0e0"/>
      <ellipse id="Ellipse_6449" data-name="Ellipse 6449" cx="7.984" cy="9.632" rx="7.984" ry="9.632" transform="translate(33.297 107.155)" fill="#ebebeb"/>
      <path id="Path_30169" data-name="Path 30169" d="M92.955,334.51c-1.838,0-3.325,1.793-3.325,4.01s1.487,4.03,3.325,4.03,3.325-1.8,3.325-4.03S94.793,334.51,92.955,334.51Z" transform="translate(-53.507 -221.862)" fill="#e6e6e6"/>
      <path id="Path_30170" data-name="Path 30170" d="M92.955,334.51c-1.838,0-3.325,1.793-3.325,4.01s1.487,4.03,3.325,4.03,3.325-1.8,3.325-4.03S94.793,334.51,92.955,334.51Z" transform="translate(-53.507 -221.862)" fill="#e0e0e0"/>
      <path id="Path_30171" data-name="Path 30171" d="M232.179,279.851s-11.426,8.762-15.782,26.821H198.1l17.33-28.211,9.14-3.8Z" transform="translate(-118.262 -186.133)" fill="#e6e6e6"/>
      <path id="Path_30172" data-name="Path 30172" d="M233.38,278.96a52.529,52.529,0,0,0-15.79,23.54,6.045,6.045,0,0,1-5.731,4.171H198.1l17.33-28.211,9.14-3.8Z" transform="translate(-118.262 -186.133)" fill="#e0e0e0"/>
      <path id="Path_30173" data-name="Path 30173" d="M155.628,256.029h-7.057a6.746,6.746,0,0,0-3.772,1.1c-4.187,2.789-14.106,10.567-15.137,22.891a3.264,3.264,0,0,1-3.224,3.007H95.764a29.134,29.134,0,0,1-14.673-3.963l-8.767-5.109a5.239,5.239,0,0,1-2.483-5.57c1.044-5.03,3.986-13.67,12.4-17.048.133-.06-.069-.113.335-.161v-5.239H104.57s-4.409,10.515-4.409,14.851c0,4.107,4.336,19.808,9.946,21.42h7.657a5.8,5.8,0,0,0,4.949-3.023c3.732-6.662,12.022-23.935,9.439-40.262a3.339,3.339,0,0,1,3.1-3.869h9.874s8.887,10.285,11.744,18.978A1.532,1.532,0,0,1,155.628,256.029Z" transform="translate(-41.631 -162.493)" fill="#e6e6e6"/>
      <path id="Path_30174" data-name="Path 30174" d="M208.893,216.165h-2.821a3.253,3.253,0,0,1-2.035-.721l-5.8-4.7a1.29,1.29,0,0,0-.806-.286H186.3a.806.806,0,0,1,0-1.612h11.139a2.906,2.906,0,0,1,1.822.645l5.8,4.7a1.612,1.612,0,0,0,1.02.363H208.9a1.636,1.636,0,0,0,1.612-1.4l.254-1.81a2.918,2.918,0,0,1,2.874-2.495h2.124a.806.806,0,1,1,0,1.612h-2.124a1.3,1.3,0,0,0-1.278,1.108l-.254,1.81A3.256,3.256,0,0,1,208.893,216.165Z" transform="translate(-110.734 -146.846)" fill="#e0e0e0"/>
      <path id="Path_30175" data-name="Path 30175" d="M227.667,218.49s.036,1.9-1.749,1.781l-.58,2.051a2.16,2.16,0,0,0,.246,1.737l1.261,2.015h11.688l.919-1.733a1.471,1.471,0,0,0-.246-1.721l-3.466-3.522a1.955,1.955,0,0,0-1.4-.592Z" transform="translate(-134.473 -152.601)" fill="#e6e6e6"/>
      <path id="Path_30176" data-name="Path 30176" d="M227.667,218.49s.036,1.9-1.749,1.781l-.58,2.051a2.16,2.16,0,0,0,.246,1.737l1.261,2.015h11.688l.919-1.733a1.471,1.471,0,0,0-.246-1.721l-3.466-3.522a1.955,1.955,0,0,0-1.4-.592Z" transform="translate(-134.473 -152.601)" fill="#e0e0e0"/>
      <ellipse id="Ellipse_6450" data-name="Ellipse 6450" cx="12.659" cy="15.27" rx="12.659" ry="15.27" transform="translate(100.605 101.516)" fill="#e0e0e0"/>
      <ellipse id="Ellipse_6451" data-name="Ellipse 6451" cx="7.984" cy="9.632" rx="7.984" ry="9.632" transform="translate(103.165 107.155)" fill="#ebebeb"/>
      <path id="Path_30177" data-name="Path 30177" d="M271.635,303.457c-1.334-2.265-4.9-7.174-11.313-8.608a12.525,12.525,0,0,0-5.01-.145l-.028-.069.028-.06h-.048l-1.1-2.515h-1.253a4.7,4.7,0,0,0-2.821.943l-2.2,1.652,1.036,3.591a10.349,10.349,0,0,0-.838,1.02A18.176,18.176,0,0,0,244.4,307.2a.85.85,0,0,0,.842.979h.661a.85.85,0,0,0,.806-.54,11.03,11.03,0,0,1,2.736-4.111L253.1,313.1l2.954-1.241-1.036-11.913s6.795-1.906,11.244,3.587a2.773,2.773,0,0,0,2.152,1.036h2.583a.738.738,0,0,0,.641-1.108Z" transform="translate(-145.894 -196.52)" fill="#e6e6e6"/>
      <path id="Path_30178" data-name="Path 30178" d="M271.635,303.457c-1.334-2.265-4.9-7.174-11.313-8.608a12.525,12.525,0,0,0-5.01-.145l-.028-.069.028-.06h-.048l-1.1-2.515h-1.253a4.7,4.7,0,0,0-2.821.943l-2.2,1.652,1.036,3.591a10.349,10.349,0,0,0-.838,1.02A18.176,18.176,0,0,0,244.4,307.2a.85.85,0,0,0,.842.979h.661a.85.85,0,0,0,.806-.54,11.03,11.03,0,0,1,2.736-4.111L253.1,313.1l2.954-1.241-1.036-11.913s6.795-1.906,11.244,3.587a2.773,2.773,0,0,0,2.152,1.036h2.583a.738.738,0,0,0,.641-1.108Z" transform="translate(-145.894 -196.52)" fill="#f0f0f0"/>
      <path id="Path_30179" data-name="Path 30179" d="M266.315,334.51c-1.838,0-3.325,1.793-3.325,4.01s1.487,4.03,3.325,4.03,3.325-1.8,3.325-4.03S268.153,334.51,266.315,334.51Z" transform="translate(-157 -221.862)" fill="#e6e6e6"/>
      <path id="Path_30180" data-name="Path 30180" d="M266.315,334.51c-1.838,0-3.325,1.793-3.325,4.01s1.487,4.03,3.325,4.03,3.325-1.8,3.325-4.03S268.153,334.51,266.315,334.51Z" transform="translate(-157 -221.862)" fill="#e0e0e0"/>
      <path id="Path_30181" data-name="Path 30181" d="M241.53,236.35s2.092,13.167,9,13.259c6.477.085,7.081-12.28.9-14.178C246.443,233.9,241.53,236.35,241.53,236.35Z" transform="translate(-144.189 -162.413)" fill="#e6e6e6"/>
      <path id="Path_30182" data-name="Path 30182" d="M241.53,236.35s2.092,13.167,9,13.259c6.477.085,7.081-12.28.9-14.178C246.443,233.9,241.53,236.35,241.53,236.35Z" transform="translate(-144.189 -162.413)" fill="#f0f0f0"/>
      <ellipse id="Ellipse_6452" data-name="Ellipse 6452" cx="4.764" cy="6.069" rx="4.764" ry="6.069" transform="translate(100.889 74.53) rotate(-6.86)" fill="#f5f5f5"/>
      <path id="Path_30183" data-name="Path 30183" d="M250.531,230.9h-6l.476-.774h5.525Z" transform="translate(-145.98 -159.549)" fill="#e6e6e6"/>
      <path id="Path_30184" data-name="Path 30184" d="M129.831,257.355v1.515a2.318,2.318,0,0,1-2.5,2.265H100.077a2.3,2.3,0,0,1-2.487-2.265v-1.515a2.3,2.3,0,0,1,2.487-2.265h27.252A2.318,2.318,0,0,1,129.831,257.355Z" transform="translate(-58.259 -174.45)" fill="#e0e0e0"/>
      <path id="Path_30185" data-name="Path 30185" d="M120.965,257.346v1.515a2.164,2.164,0,0,1-2.321,2.265H100.077a2.3,2.3,0,0,1-2.487-2.265v-1.515a2.3,2.3,0,0,1,2.487-2.265h18.567a2.164,2.164,0,0,1,2.321,2.265Z" transform="translate(-58.259 -174.441)" fill="#f0f0f0"/>
      <path id="Path_30186" data-name="Path 30186" d="M100.907,297.441v9.721H95.764A29.133,29.133,0,0,1,81.092,303.2l-8.767-5.121a5.239,5.239,0,0,1-2.483-5.57c1.044-5.03,4.03-13.67,12.465-17.048l.4.02h3.405a10.337,10.337,0,0,1,9.358,5.957l3.627,7.778A19.409,19.409,0,0,1,100.907,297.441Z" transform="translate(-41.631 -186.611)" fill="#f0f0f0"/>
      <rect id="Rectangle_17872" data-name="Rectangle 17872" width="0.806" height="7.186" transform="matrix(0.794, -0.608, 0.608, 0.794, 81.393, 57.035)" fill="#e0e0e0"/>
      <path id="Path_30187" data-name="Path 30187" d="M195.384,193.59h2.055a1.1,1.1,0,0,1,1,.661l.274.641a1.092,1.092,0,0,1-1,1.519h-2.237a1.088,1.088,0,0,1-1.08-.935l-.093-.641a1.092,1.092,0,0,1,1.08-1.245Z" transform="translate(-115.989 -137.736)" fill="#e6e6e6"/>
      <rect id="Rectangle_17873" data-name="Rectangle 17873" width="5.215" height="0.806" transform="matrix(0.206, -0.979, 0.979, 0.206, 101.467, 62.551)" fill="#e0e0e0"/>
      <path id="Path_30188" data-name="Path 30188" d="M256.579,193.59h-2.213a.9.9,0,0,0-.891.774l-.149,1.02a.9.9,0,0,0,.895,1.028h2.192a.9.9,0,0,0,.891-.774l.149-1.02a.9.9,0,0,0-.875-1.028Z" transform="translate(-151.226 -137.736)" fill="#e6e6e6"/>
      <path id="Path_30189" data-name="Path 30189" d="M76.532,199v5.509l.967.536v3.039c-5.2.862-8.238,11.583-8.238,11.583H51.44a2.97,2.97,0,0,1-2.97-2.97V164.11a2.97,2.97,0,0,1,2.97-2.97H86.354a2.914,2.914,0,0,1,1.346.326,2.962,2.962,0,0,1,1.612,2.644V199Z" transform="translate(-28.936 -118.364)" fill="#e6e6e6"/>
      <path id="Path_30190" data-name="Path 30190" d="M101.922,199.487V205l.967.536v3.039c-5.2.862-8.238,11.583-8.238,11.583H91V164.57a2.62,2.62,0,0,1,2.62-2.62H113.1a2.962,2.962,0,0,1,1.612,2.644v34.893Z" transform="translate(-54.325 -118.847)" fill="#ebebeb"/>
      <rect id="Rectangle_17874" data-name="Rectangle 17874" width="57.676" height="117.085" transform="translate(124.444 14.428)" fill="#c8523b" opacity="0.29"/>
      <rect id="Rectangle_17875" data-name="Rectangle 17875" width="13.836" height="13.836" transform="translate(155.005 27.768)" fill="#f5f5f5"/>
      <rect id="Rectangle_17876" data-name="Rectangle 17876" width="13.836" height="13.836" transform="translate(137.925 27.768)" fill="#f5f5f5"/>
      <rect id="Rectangle_17877" data-name="Rectangle 17877" width="13.836" height="13.836" transform="translate(137.925 44.852)" fill="#f5f5f5"/>
      <rect id="Rectangle_17878" data-name="Rectangle 17878" width="13.836" height="13.836" transform="translate(155.005 44.852)" fill="#f5f5f5"/>
      <path id="Path_30191" data-name="Path 30191" d="M321.144,239.887a2.257,2.257,0,1,1-2.257-2.257A2.257,2.257,0,0,1,321.144,239.887Z" transform="translate(-189.022 -164.027)" fill="#e0e0e0"/>
    </g>
    <g id="freepik--Shadow--inject-39" transform="translate(22.613 196.024)">
      <ellipse id="freepik--path--inject-39" cx="78.141" cy="4.562" rx="78.141" ry="4.562" fill="#f5f5f5"/>
    </g>
    <g id="freepik--Plant--inject-39" transform="translate(38.944 160.085)">
      <path id="Path_30194" data-name="Path 30194" d="M111.216,346.405a10.536,10.536,0,0,0-.282-8.685c-2.3-4.312-2.958-5.328-1.5-6.215s2.128,3.45,2.128,3.45a9.717,9.717,0,0,0,.218-6.1c-1.02-3.119-1.656-8.2-.266-8.75s.262,6.339,1.467,8.689a20.219,20.219,0,0,0,1.177-5.118c.169-2.507-.093-6.509,1-7.536s1.8-.314.721,5.215a57.916,57.916,0,0,0-1.044,10.027s2.378-7.254,3.974-7.468,1.612,2.14.23,4.175-4,5.687-4.433,7.565c0,0,2.612-5.457,4.957-3.784s-2.043,4.969-4,6.162-3.317,8.661-3.317,8.661Z" transform="translate(-103.813 -315.746)" fill="#57b8ce"/>
      <path id="Path_30195" data-name="Path 30195" d="M111.216,346.405a10.536,10.536,0,0,0-.282-8.685c-2.3-4.312-2.958-5.328-1.5-6.215s2.128,3.45,2.128,3.45a9.717,9.717,0,0,0,.218-6.1c-1.02-3.119-1.656-8.2-.266-8.75s.262,6.339,1.467,8.689a20.219,20.219,0,0,0,1.177-5.118c.169-2.507-.093-6.509,1-7.536s1.8-.314.721,5.215a57.916,57.916,0,0,0-1.044,10.027s2.378-7.254,3.974-7.468,1.612,2.14.23,4.175-4,5.687-4.433,7.565c0,0,2.612-5.457,4.957-3.784s-2.043,4.969-4,6.162-3.317,8.661-3.317,8.661Z" transform="translate(-103.813 -315.746)" fill="#fff" opacity="0.6"/>
      <path id="Path_30196" data-name="Path 30196" d="M105.891,350.763a10.553,10.553,0,0,1,.4-8.681c2.354-4.28,3.019-5.284,1.568-6.186s-2.172,3.418-2.172,3.418a9.765,9.765,0,0,1-.141-6.106c1.056-3.1,1.753-8.177.371-8.741s-.339,6.335-1.572,8.665a20.292,20.292,0,0,1-1.116-5.138c-.137-2.507.169-6.5-.911-7.544s-1.8-.347-.806,5.2a57.974,57.974,0,0,1,.951,10.043s-2.293-7.291-3.889-7.524-1.612,2.112-.278,4.171,3.937,5.747,4.345,7.629c0,0-2.543-5.5-4.913-3.857s1.983,5,3.929,6.219,3.224,8.709,3.224,8.709Z" transform="translate(-96.876 -318.31)" fill="#57b8ce"/>
      <path id="Path_30197" data-name="Path 30197" d="M105.891,350.763a10.553,10.553,0,0,1,.4-8.681c2.354-4.28,3.019-5.284,1.568-6.186s-2.172,3.418-2.172,3.418a9.765,9.765,0,0,1-.141-6.106c1.056-3.1,1.753-8.177.371-8.741s-.339,6.335-1.572,8.665a20.292,20.292,0,0,1-1.116-5.138c-.137-2.507.169-6.5-.911-7.544s-1.8-.347-.806,5.2a57.974,57.974,0,0,1,.951,10.043s-2.293-7.291-3.889-7.524-1.612,2.112-.278,4.171,3.937,5.747,4.345,7.629c0,0-2.543-5.5-4.913-3.857s1.983,5,3.929,6.219,3.224,8.709,3.224,8.709Z" transform="translate(-96.876 -318.31)" fill="#fff" opacity="0.7"/>
      <path id="Path_30198" data-name="Path 30198" d="M96.63,388.48h16.129l-1.306,11.542H97.936Z" transform="translate(-96.63 -359.167)" fill="#c8523b"/>
    </g>
    <g id="freepik--Cat--inject-39" transform="translate(120.046 172.704)">
      <path id="Path_30199" data-name="Path 30199" d="M348.994,363.352a6.534,6.534,0,0,1-1.548-.177,1.008,1.008,0,1,1,.512-1.951c.028,0,2.136.524,3.164-.705a3.071,3.071,0,0,0,.738-2.567c-.278-1.35-1.612-2.656-3.813-3.78-4.228-2.144-3.478-4.554-3.148-5.239a3.152,3.152,0,0,1,3.78-1.693,1.008,1.008,0,1,1-.834,1.834,1.378,1.378,0,0,0-1.157.806c-.274.7.6,1.656,2.269,2.507,2.821,1.431,4.465,3.172,4.872,5.175a5.05,5.05,0,0,1-1.161,4.26A4.655,4.655,0,0,1,348.994,363.352Z" transform="translate(-325.784 -347.056)" fill="#263238"/>
      <g id="Group_42607" data-name="Group 42607" transform="translate(18.846)" opacity="0.2">
        <path id="Path_30200" data-name="Path 30200" d="M348.994,363.352a6.534,6.534,0,0,1-1.548-.177,1.008,1.008,0,1,1,.512-1.951c.028,0,2.136.524,3.164-.705a3.071,3.071,0,0,0,.738-2.567c-.278-1.35-1.612-2.656-3.813-3.78-4.228-2.144-3.478-4.554-3.148-5.239a3.152,3.152,0,0,1,3.78-1.693,1.008,1.008,0,1,1-.834,1.834,1.378,1.378,0,0,0-1.157.806c-.274.7.6,1.656,2.269,2.507,2.821,1.431,4.465,3.172,4.872,5.175a5.05,5.05,0,0,1-1.161,4.26A4.655,4.655,0,0,1,348.994,363.352Z" transform="translate(-344.629 -347.056)" fill="#fff"/>
      </g>
      <path id="Path_30201" data-name="Path 30201" d="M320.031,389.622l-.27-.588c-.919-.133-1.842-.294-2.761-.443a73.458,73.458,0,0,0,2.628,10.579s-1.511-.056-1,.919H321C321.272,399.758,318.612,393.994,320.031,389.622Z" transform="translate(-309.289 -371.851)" fill="#263238"/>
      <path id="Path_30202" data-name="Path 30202" d="M336.54,391.36a16.208,16.208,0,0,0,3.26,5.513l-1.632,3.849s-1.31.3-1.044,1.02h1.83s2.527-4.228,2.636-4.683.584-5.13.584-5.13Z" transform="translate(-320.955 -373.505)" fill="#263238"/>
      <path id="Path_30203" data-name="Path 30203" d="M320.031,389.622l-.27-.588c-.919-.133-1.842-.294-2.761-.443a73.458,73.458,0,0,0,2.628,10.579s-1.511-.056-1,.919H321C321.272,399.758,318.612,393.994,320.031,389.622Z" transform="translate(-309.289 -371.851)" fill="#fff" opacity="0.2"/>
      <path id="Path_30204" data-name="Path 30204" d="M336.54,391.36a16.208,16.208,0,0,0,3.26,5.513l-1.632,3.849s-1.31.3-1.044,1.02h1.83s2.527-4.228,2.636-4.683.584-5.13.584-5.13Z" transform="translate(-320.955 -373.505)" fill="#fff" opacity="0.2"/>
      <path id="Path_30205" data-name="Path 30205" d="M321.3,365.375c-1.346-1.89-3.647-1.032-10.281-3.3s-3.986-9.354-3.986-9.354l-2.217,1.777-2.354-1.354a3.716,3.716,0,0,0-.806,3.349c.48,2.076,2.015,5.316,2.18,7.714l-1.249,4.3s-4.224.887-4.6,1.781a3.7,3.7,0,0,0,.266,2.334l1.173-.093-.613-1.612c1.939-.649,5.239-.713,5.924-1.036a7.427,7.427,0,0,0,2.458-1.995c.439.367,3.087,2.313,9.926,2.269,0,0,2.293,3.075,4.675,3.849l.379,3.716s-1.443.064-1.386.951h2.547l.25-5.263C322.062,369.461,322.594,367.217,321.3,365.375Z" transform="translate(-297.868 -350.437)" fill="#263238"/>
      <path id="Path_30206" data-name="Path 30206" d="M321.3,365.375c-1.346-1.89-3.647-1.032-10.281-3.3s-3.986-9.354-3.986-9.354l-2.217,1.777-2.354-1.354a3.716,3.716,0,0,0-.806,3.349c.48,2.076,2.015,5.316,2.18,7.714l-1.249,4.3s-4.224.887-4.6,1.781a3.7,3.7,0,0,0,.266,2.334l1.173-.093-.613-1.612c1.939-.649,5.239-.713,5.924-1.036a7.427,7.427,0,0,0,2.458-1.995c.439.367,3.087,2.313,9.926,2.269,0,0,2.293,3.075,4.675,3.849l.379,3.716s-1.443.064-1.386.951h2.547l.25-5.263C322.062,369.461,322.594,367.217,321.3,365.375Z" transform="translate(-297.868 -350.437)" fill="#fff" opacity="0.4"/>
      <path id="Path_30207" data-name="Path 30207" d="M312.684,358.647c-.093.181-.242.294-.335.246s-.089-.234,0-.4.242-.294.335-.246S312.776,358.466,312.684,358.647Z" transform="translate(-306.472 -353.729)" fill="#263238"/>
      <path id="Path_30208" data-name="Path 30208" d="M309.148,353.7s-.226-.2-.306-.2-.181.4-.181.4Z" transform="translate(-304.311 -350.903)" fill="#a24e3f"/>
      <path id="Path_30209" data-name="Path 30209" d="M315.08,355.56a5.062,5.062,0,0,1,.758.774l.875-1.834Z" transform="translate(-308.143 -351.5)" opacity="0.2"/>
    </g>
    <g id="freepik--character-2--inject-39" transform="translate(122.685 88.359)">
      <path id="Path_30210" data-name="Path 30210" d="M310.293,186.922a3.63,3.63,0,0,0-.234-1.769c-.347-.451-4.433-3.071-4.639-2.785a9.89,9.89,0,0,0-1,3.043c.048.625,3.168,3.381,3.627,3.043S310.293,186.922,310.293,186.922Z" transform="translate(-304.415 -164.383)" fill="#b97964"/>
      <path id="Path_30211" data-name="Path 30211" d="M334.694,179.11c-3.1.318-8.443,9.805-9.959,9.725s-10.2-4.86-10.2-4.86L313,186.284s9.672,6.888,12.3,6.73,10.124-9.358,10.124-9.358Z" transform="translate(-309.54 -162.451)" fill="#b97964"/>
      <path id="Path_30212" data-name="Path 30212" d="M357.5,299.607c2.571,3.224,4.881,6.166,6.9,8.3h0c2.015,2.164,3.055,3.506,3.055,3.506l1.991-1.145s-1.842-2.914-4.341-6.932c-2.124-3.41-4.723-7.617-7.085-11.514-3.055-5.038-5.711-9.556-6.412-11.172-.5-1.149.854-5.562,2.35-9.721,1.519-4.236,3.188-8.214,3.188-8.214L351.7,253.51s-2.213,6.13-4.179,12.6a84.979,84.979,0,0,0-2.869,11.522C344.1,281.7,351.114,291.591,357.5,299.607Z" transform="translate(-328.418 -206.866)" fill="#b97964"/>
      <path id="Path_30213" data-name="Path 30213" d="M376.52,356.368c2.571,3.224,5.042,6.166,6.88,8.3.262-1.314.528-2.869.738-4.566-2.124-3.41-4.723-7.617-7.085-11.514A44.6,44.6,0,0,1,376.52,356.368Z" transform="translate(-347.46 -263.627)" opacity="0.2"/>
      <path id="Path_30214" data-name="Path 30214" d="M351.82,266.136l6.428,4.836c1.519-4.236,3.188-8.214,3.188-8.214L356,253.55S353.787,259.668,351.82,266.136Z" transform="translate(-332.715 -206.89)" opacity="0.2"/>
      <path id="Path_30215" data-name="Path 30215" d="M379.68,320.815l2.317.3s3.325-16.367,3.224-29.872a115.174,115.174,0,0,0,2.886-13.594c.806-5.529,1.209-11.688.137-16.282L380.184,265l-.165,12.091-.137,10.075Z" transform="translate(-349.347 -211.558)" fill="#b97964"/>
      <path id="Path_30216" data-name="Path 30216" d="M380.52,277.088l8.089.564c.806-5.529,1.209-11.687.137-16.282L380.685,265Z" transform="translate(-349.848 -211.558)" opacity="0.2"/>
      <path id="Path_30217" data-name="Path 30217" d="M401.5,391.2c-.238-.173-2.245,2.821-2.245,2.821a11.4,11.4,0,0,1-.455,5.155c-.9,2.023.854,1.85,2.313-.069l3.627-4.735C405.777,393.025,403.975,392.989,401.5,391.2Z" transform="translate(-360.616 -289.06)" fill="#263238"/>
      <path id="Path_30218" data-name="Path 30218" d="M397.188,401.046a.423.423,0,0,1-.371-.476,1.475,1.475,0,0,1,.4-.7c-.3.141-.609.23-.766.121s-.137-.193-.1-.371a.536.536,0,0,1,.27-.379,2.218,2.218,0,0,1,1.35,0l.032.02h0v.024h0v.028h0v.036c-.056.262-.351,1.56-.806,1.668Zm.621-1.451c-.318.27-.766.705-.806,1a.2.2,0,0,0,.04.161c.089.113.145.1.165.1C397.405,400.8,397.663,400.156,397.808,399.6Zm-.633-.278a.879.879,0,0,0-.435.093.371.371,0,0,0-.181.254c0,.052-.024.145,0,.173.137.093.673-.145,1.157-.447A2.452,2.452,0,0,0,397.176,399.317Z" transform="translate(-359.286 -293.797)" fill="#57b8ce"/>
      <path id="Path_30219" data-name="Path 30219" d="M373.957,405.778c0-.294-3.627-.064-3.627-.064a11.365,11.365,0,0,1-4.373,2.765c-2.156.508-.951,1.8,1.459,1.8h5.961C375.1,410.26,374.03,408.8,373.957,405.778Z" transform="translate(-340.484 -297.678)" fill="#263238"/>
      <path id="Path_30220" data-name="Path 30220" d="M373.154,405.574a.5.5,0,0,1-.314-.085.334.334,0,0,1-.089-.383.367.367,0,0,1,.193-.246,1.491,1.491,0,0,1,.806-.089c-.29-.157-.548-.347-.56-.536,0-.125.073-.226.238-.3a.556.556,0,0,1,.468,0,2.01,2.01,0,0,1,.806,1.084.059.059,0,0,1,0,.036h0a.094.094,0,0,1,0,.032h0a.082.082,0,0,1,0,.024h0a.064.064,0,0,1-.032.024A4.537,4.537,0,0,1,373.154,405.574Zm.31-.629a.919.919,0,0,0-.427.081.19.19,0,0,0-.1.125c-.036.141,0,.177.024.189.169.141.83-.056,1.362-.282a4.2,4.2,0,0,0-.858-.113Zm.21-.883a.432.432,0,0,0-.165.04c-.048.024-.129.073-.129.121,0,.161.528.443,1.06.645a1.572,1.572,0,0,0-.617-.774A.4.4,0,0,0,373.674,404.063Z" transform="translate(-345.194 -296.636)" fill="#57b8ce"/>
      <path id="Path_30221" data-name="Path 30221" d="M358.721,265.014,350,260.448a95.142,95.142,0,0,1,5.215-13.058c8.568,1.467,7.786,8.238,7.786,8.238S360.821,260.15,358.721,265.014Z" transform="translate(-331.628 -203.213)" fill="#263238"/>
      <path id="Path_30222" data-name="Path 30222" d="M359.269,263.728c-.185.423-.375.854-.56,1.286L350,260.448a94.882,94.882,0,0,1,5.211-13.058c5.288.907,7.013,3.833,7.561,5.94a6.952,6.952,0,0,1,.226,2.3S361.2,259.384,359.269,263.728Z" transform="translate(-331.628 -203.213)" fill="#fff" opacity="0.1"/>
      <path id="Path_30223" data-name="Path 30223" d="M373,271.973c1.914-4.345,3.724-8.1,3.724-8.1a6.953,6.953,0,0,0-.226-2.3,2.753,2.753,0,0,0-.891-.375S373.29,264.855,373,271.973Z" transform="translate(-345.359 -211.457)" opacity="0.2"/>
      <path id="Path_30224" data-name="Path 30224" d="M368.549,256.549l.3-13.94-6.908-2.015a81.44,81.44,0,0,1,1.35-9.547s11.224-2.793,12.933,1.012c0,0,0,.06.024.081l.028.032s3.224,5.675,2.261,24.383Z" transform="translate(-338.756 -192.866)" fill="#263238"/>
      <path id="Path_30225" data-name="Path 30225" d="M368.549,256.549l.3-13.94-6.908-2.015a81.44,81.44,0,0,1,1.35-9.547s11.224-2.793,12.933,1.012c0,0,0,.06.024.081l.028.032s3.224,5.675,2.261,24.383Z" transform="translate(-338.756 -192.866)" fill="#fff" opacity="0.1"/>
      <path id="Path_30226" data-name="Path 30226" d="M378.577,228.226v1.9l-12.9-1V226.88Z" transform="translate(-340.989 -190.969)" fill="#263238"/>
      <rect id="Rectangle_17879" data-name="Rectangle 17879" width="0.645" height="3.289" transform="translate(33.709 39.758) rotate(-177.07)" fill="#263238"/>
      <rect id="Rectangle_17880" data-name="Rectangle 17880" width="2.853" height="2.164" transform="translate(30.242 38.78) rotate(-174.88)" fill="#fff"/>
      <rect id="Rectangle_17881" data-name="Rectangle 17881" width="0.646" height="3.293" transform="translate(25.479 38.923) rotate(-177.138)" fill="#263238"/>
      <rect id="Rectangle_17882" data-name="Rectangle 17882" width="3.289" height="0.645" transform="translate(33.067 39.748) rotate(-87.07)" fill="#fff" opacity="0.1"/>
      <rect id="Rectangle_17883" data-name="Rectangle 17883" width="3.289" height="0.645" transform="translate(25.109 38.865) rotate(-87.08)" fill="#fff" opacity="0.1"/>
      <path id="Path_30227" data-name="Path 30227" d="M364.825,198.21l12.993,1.124c.31-4.836.617-7.948,3.478-16.556q.375-1.132.806-2.4a38.715,38.715,0,0,0-5.384-1.294,41.782,41.782,0,0,0-5.836-.617c-2.531,0-5.433.266-5.433.266s-.4.1-.673,2.777A114.194,114.194,0,0,0,364.825,198.21Z" transform="translate(-340.292 -162.069)" fill="#57b8ce"/>
      <path id="Path_30228" data-name="Path 30228" d="M382.11,180.343c-.294.842-.564,1.644-.806,2.4s-.516,1.568-.742,2.285c-.532,1.693-.951,3.152-1.286,4.433a46.7,46.7,0,0,0-1.451,9.822l-12.993-1.124a114.577,114.577,0,0,1-.052-16.705c.262-2.676.673-2.777.673-2.777s.77-.077,1.866-.145c1.028-.068,2.342-.129,3.567-.121a41.653,41.653,0,0,1,5.832.641,33.216,33.216,0,0,1,3.317.7Q381.082,180.017,382.11,180.343Z" transform="translate(-340.295 -162.032)" fill="#fff" opacity="0.6"/>
      <path id="Path_30229" data-name="Path 30229" d="M388.315,294.221l-11.385-.1.2,1.713,10.68-.1Z" transform="translate(-347.705 -231.11)" fill="#57b8ce"/>
      <path id="Path_30230" data-name="Path 30230" d="M358.655,283.258l-9.471-5.138-.5,1.511,9.169,4.534Z" transform="translate(-330.84 -221.558)" fill="#57b8ce"/>
      <path id="Path_30231" data-name="Path 30231" d="M381.379,175.181c3.2-.4,4.167-1.781,4.167-1.781-1.31-1.233-1.072-3.055-.737-4.191a6.506,6.506,0,0,1,.4-1.048l-3.877.742a11.1,11.1,0,0,1,.149,1.612,4.864,4.864,0,0,1-.109,1.209c-.262,1.153-.919,1.169-.919,1.169C379.767,174.141,381.379,175.181,381.379,175.181Z" transform="translate(-349.708 -155.914)" fill="#b97964"/>
      <path id="Path_30232" data-name="Path 30232" d="M383.039,170.549a4.865,4.865,0,0,1-.109,1.209,5.322,5.322,0,0,0,3.422-2.491,6.505,6.505,0,0,1,.4-1.048l-3.865.717A11.1,11.1,0,0,1,383.039,170.549Z" transform="translate(-351.263 -155.95)" opacity="0.2"/>
      <path id="Path_30233" data-name="Path 30233" d="M397.18,143.314s2.225-1.967,4.433-.959,2.418,2.608,1.572,4.361-1.535,3.293-.609,3.929a1.486,1.486,0,0,1-.242,2.5c-.9.423-1.491.963-.48,1.415,0,0-.161.089-1.012-.451s-.157-1.128.109-1.523-.214.1-1.012-1.056-.266-2.418.161-3.744-2.519-1.149-2.519-1.149Z" transform="translate(-359.794 -140.337)" fill="#263238"/>
      <path id="Path_30234" data-name="Path 30234" d="M379.794,139.074a8.26,8.26,0,0,0-4.836-1.261c-2.454.3-4.764,3.172-4.058,5.195s1.447,2.974.758,3.72-.983,2.1-.052,2.692a1,1,0,0,1,0-1.338c.584-.717,2.773-.347,3.353-1.967s3.393-2.043,3.393-2.043l1.677,5.364s2.628-.729,2.894-4.534S381.978,138.7,379.794,139.074Z" transform="translate(-344.028 -137.774)" fill="#263238"/>
      <path id="Path_30235" data-name="Path 30235" d="M378.182,143.446c-3.353.125-4.365,1.963-4.482,5.429-.149,4.328.923,7.363,5.082,6.283C384.433,153.694,383.752,143.24,378.182,143.446Z" transform="translate(-345.769 -141.158)" fill="#b97964"/>
      <path id="Path_30236" data-name="Path 30236" d="M377.707,156.25a7.125,7.125,0,0,1-.927,1.427.923.923,0,0,0,.9.347Z" transform="translate(-347.616 -148.804)" fill="#a24e3f"/>
      <path id="Path_30237" data-name="Path 30237" d="M384.15,154.634c0,.278.153.5.339.5s.33-.23.326-.5-.157-.5-.343-.5S384.146,154.36,384.15,154.634Z" transform="translate(-352.015 -147.538)" fill="#263238"/>
      <path id="Path_30238" data-name="Path 30238" d="M384.255,153.826l-.6-.226S383.956,154.1,384.255,153.826Z" transform="translate(-351.717 -147.222)" fill="#263238"/>
      <path id="Path_30239" data-name="Path 30239" d="M375.64,154.614c0,.274.153.5.339.492s.331-.226.326-.5-.157-.5-.339-.492S375.636,154.336,375.64,154.614Z" transform="translate(-346.935 -147.526)" fill="#263238"/>
      <path id="Path_30240" data-name="Path 30240" d="M375.745,153.8l-.6-.23S375.446,154.07,375.745,153.8Z" transform="translate(-346.637 -147.204)" fill="#263238"/>
      <path id="Path_30241" data-name="Path 30241" d="M384,149.6a1.741,1.741,0,0,1,1.471.455" transform="translate(-351.926 -144.82)" fill="none" stroke="#263238" stroke-linecap="round" stroke-linejoin="round" stroke-width="0.708"/>
      <path id="Path_30242" data-name="Path 30242" d="M376.036,149.449a1.564,1.564,0,0,0-1.326.326" transform="translate(-346.38 -144.723)" fill="none" stroke="#263238" stroke-linecap="round" stroke-linejoin="round" stroke-width="0.708"/>
      <path id="Path_30243" data-name="Path 30243" d="M380.35,162.859a8.515,8.515,0,0,1,.435,1.153l.214-.028c.971-.137,1.378-.52,1.535-.907a1.261,1.261,0,0,0,.093-.572,1.21,1.21,0,0,0-.073-.334,4.651,4.651,0,0,1-1.854.657Z" transform="translate(-349.747 -152.338)" fill="#263238"/>
      <path id="Path_30244" data-name="Path 30244" d="M381.17,162.777l.137.339a2.9,2.9,0,0,0,1.789-.661,1.21,1.21,0,0,0-.073-.335A4.651,4.651,0,0,1,381.17,162.777Z" transform="translate(-350.236 -152.308)" fill="#fff"/>
      <path id="Path_30245" data-name="Path 30245" d="M382,165.327c.971-.137,1.378-.52,1.535-.907a3.224,3.224,0,0,0-1.052.367A1.209,1.209,0,0,0,382,165.327Z" transform="translate(-350.732 -153.681)" fill="#de5753"/>
      <path id="Path_30246" data-name="Path 30246" d="M382.039,146.964s-1.673-2.7-1.511-4.836c0,0-6.746-2.471-6.827,4.288,0,0-.871-5.965,4.889-6.311s6.045,8.089,3.164,10.712C381.753,150.821,383.063,148.653,382.039,146.964Z" transform="translate(-345.749 -139.159)" fill="#263238"/>
      <path id="Path_30247" data-name="Path 30247" d="M393.16,156.921a1.475,1.475,0,0,1,1.535-1.4c1.044.073,1.612,2.188-.947,2.8C393.378,158.383,393.156,158.029,393.16,156.921Z" transform="translate(-357.394 -148.366)" fill="#b97964"/>
      <path id="Path_30248" data-name="Path 30248" d="M389.964,144.367a4.115,4.115,0,0,0-.5,1.9c0,1.052,1.467,3.071,1.491,3.663s-.4,1.612.06,2.2a1.415,1.415,0,0,1,.52-1.5,2.564,2.564,0,0,0,.629-3.406,2.694,2.694,0,0,1-.04-2.712S390.887,143.1,389.964,144.367Z" transform="translate(-355.185 -141.394)" fill="#263238"/>
      <path id="Path_30249" data-name="Path 30249" d="M362.489,183.163c4.006,3.41-5.5,13.062-10.075,15.315s-20.445,4.977-20.445,4.977l-.318-2.692s16.524-3.833,18.656-5.94S361.7,182.49,362.489,183.163Z" transform="translate(-320.674 -164.851)" fill="#b97964"/>
      <path id="Path_30250" data-name="Path 30250" d="M322.3,225.953s-1.116-.713-1.677-.617-4.78,2.511-4.623,2.821a10.2,10.2,0,0,0,2.233,2.3c.56.242,4.465-1.241,4.385-1.814S322.3,225.953,322.3,225.953Z" transform="translate(-311.331 -190.042)" fill="#b97964"/>
      <path id="Path_30251" data-name="Path 30251" d="M384.152,179.767a10.751,10.751,0,0,1-8.6,2.986c-3.849-.294-4.171-3.083-4.119-4.183,1.028-.069,2.342-.129,3.567-.121a41.648,41.648,0,0,1,5.844.625A32.562,32.562,0,0,1,384.152,179.767Z" transform="translate(-344.421 -162.056)" fill="#b97964"/>
    </g>
    <g id="freepik--character-1--inject-39" transform="translate(57.632 74.066)">
      <g id="freepik--group--inject-39" transform="translate(0 0)">
        <path id="Path_30266" data-name="Path 30266" d="M195.57,398.664l3.373.355.633-7.275-3.373-.355Z" transform="translate(-174.383 -274.885)" fill="#ebb376"/>
        <path id="Path_30267" data-name="Path 30267" d="M153.82,397.619h3.268l.27-7.569h-3.272Z" transform="translate(-149.459 -274.085)" fill="#ebb376"/>
        <path id="Path_30268" data-name="Path 30268" d="M155.787,407.89h-3.97a.286.286,0,0,0-.278.226l-.645,2.91a.48.48,0,0,0,.371.568.5.5,0,0,0,.109,0c1.282-.02,2.217-.1,3.833-.1.991,0,3.99.1,5.36.1s1.552-1.354.991-1.479a13,13,0,0,1-5.239-2.035A.806.806,0,0,0,155.787,407.89Z" transform="translate(-147.707 -284.735)" fill="#263238"/>
        <path id="Path_30269" data-name="Path 30269" d="M163.52,407.948a.077.077,0,0,1-.06-.065.081.081,0,0,1,.036-.077c.117-.073,1.173-.721,1.536-.536a.23.23,0,0,1,.133.218.463.463,0,0,1-.161.4.971.971,0,0,1-.629.165A3.8,3.8,0,0,1,163.52,407.948Zm.222-.1a1.612,1.612,0,0,0,1.165-.06.314.314,0,0,0,.1-.278c0-.065-.028-.093-.048-.093a.182.182,0,0,0-.1-.02,3.151,3.151,0,0,0-1.12.455Z" transform="translate(-155.213 -284.346)" fill="#57b8ce"/>
        <path id="Path_30270" data-name="Path 30270" d="M163.5,406.879a.085.085,0,0,1-.036-.069c0-.044.085-.987.463-1.294a.435.435,0,0,1,.326-.1.254.254,0,0,1,.25.206c.069.347-.584,1.064-.923,1.245h-.036A.056.056,0,0,1,163.5,406.879Zm.524-1.27a1.814,1.814,0,0,0-.383,1.024c.335-.254.75-.806.709-1.012,0-.02,0-.081-.113-.081H164.2a.266.266,0,0,0-.177.069Z" transform="translate(-155.214 -283.257)" fill="#57b8ce"/>
        <path id="Path_30271" data-name="Path 30271" d="M197.576,407.63h-3.958a.286.286,0,0,0-.278.226l-.645,2.91a.488.488,0,0,0,.375.572h.1c1.286-.02,2.221-.1,3.833-.1.991,0,3.99.1,5.36.1s1.552-1.354.991-1.479a13.361,13.361,0,0,1-5.239-2.015A.806.806,0,0,0,197.576,407.63Z" transform="translate(-172.662 -284.58)" fill="#263238"/>
        <path id="Path_30272" data-name="Path 30272" d="M205.29,407.7a.078.078,0,0,1-.02-.145c.117-.073,1.173-.721,1.531-.536a.23.23,0,0,1,.133.218.443.443,0,0,1-.161.4.963.963,0,0,1-.629.165A4.077,4.077,0,0,1,205.29,407.7Zm.226-.109a1.564,1.564,0,0,0,1.161-.06.314.314,0,0,0,.1-.278c0-.06-.028-.093-.048-.093a.213.213,0,0,0-.1-.02A3.1,3.1,0,0,0,205.516,407.593Z" transform="translate(-180.15 -284.197)" fill="#57b8ce"/>
        <path id="Path_30273" data-name="Path 30273" d="M205.27,406.626a.089.089,0,0,1-.04-.073c0-.044.085-.983.463-1.294a.4.4,0,0,1,.326-.1.25.25,0,0,1,.25.2c.069.347-.584,1.064-.923,1.249h-.036A.077.077,0,0,1,205.27,406.626Zm.524-1.274a1.822,1.822,0,0,0-.4,1.024c.335-.254.75-.806.709-1.012,0-.02,0-.077-.113-.077h-.036a.27.27,0,0,0-.157.065Z" transform="translate(-180.15 -283.105)" fill="#57b8ce"/>
        <path id="Path_30274" data-name="Path 30274" d="M196.65,391.39l3.373.355-.33,3.752-3.373-.355Z" transform="translate(-174.831 -274.885)" opacity="0.2"/>
        <path id="Path_30275" data-name="Path 30275" d="M154.271,390.06h3.273l-.141,3.9H154.13Z" transform="translate(-149.644 -274.091)" opacity="0.2"/>
        <path id="Path_30276" data-name="Path 30276" d="M153.836,225.3h17.33c1.648,9,6.811,40.87,3.107,69.263l-5.86-.725s.544-37.694-4.639-51.631c-.6,7.46-1.306,15.4-1.918,19.615-1.5,10.394-4.727,33.1-4.727,33.1H151.14s1.209-21.739,1.785-31.951C153.542,251.887,153.812,227.6,153.836,225.3Z" transform="translate(-147.859 -175.732)" fill="#263238"/>
        <path id="Path_30277" data-name="Path 30277" d="M153.836,225.3h17.33c1.648,9,6.811,40.87,3.107,69.263l-5.86-.725s.544-37.694-4.639-51.631c-.6,7.46-1.306,15.4-1.918,19.615-1.5,10.394-4.727,33.1-4.727,33.1H151.14s1.209-21.739,1.785-31.951C153.542,251.887,153.812,227.6,153.836,225.3Z" transform="translate(-147.859 -175.732)" fill="#fff" opacity="0.2"/>
        <path id="Path_30278" data-name="Path 30278" d="M199.823,156.64s10.478,9.886,15.315,11.538,17.269,7.774,17.269,7.774l1.906-1.5c0-.085,1.39.991,1.407,1.737,0,.54-1.366,5.066-1.652,5.062-1.33,0-2.8-3.047-2.8-3.047s-15.919-4.147-18.777-5.4-14.609-10.422-14.609-10.422Z" transform="translate(-175.762 -134.744)" fill="#ebb376"/>
        <path id="Path_30279" data-name="Path 30279" d="M195.456,150.749c2.394-.073,15.02,11.01,16,12.127s10.789,4.461,11.9,6.138-.556,3.655-3.268,3.9-21.412-8.153-24.258-12.244S195.456,150.749,195.456,150.749Z" transform="translate(-173.722 -131.227)" fill="#57b8ce"/>
        <path id="Path_30280" data-name="Path 30280" d="M195.456,150.749c2.394-.073,15.02,11.01,16,12.127s10.789,4.461,11.9,6.138-.556,3.655-3.268,3.9-21.412-8.153-24.258-12.244S195.456,150.749,195.456,150.749Z" transform="translate(-173.722 -131.227)" opacity="0.2"/>
        <path id="Path_30281" data-name="Path 30281" d="M212.2,170.452l1.382,28.082h18.773L246.7,195.1V168.7l-20.074-.113Z" transform="translate(-184.311 -141.878)" fill="#57b8ce"/>
        <path id="Path_30282" data-name="Path 30282" d="M212.2,170.452l1.382,28.082h18.773L246.7,195.1V168.7l-20.074-.113Z" transform="translate(-184.311 -141.878)" fill="#c8523b" opacity="0.6"/>
        <path id="Path_30283" data-name="Path 30283" d="M212.2,173.21l19.039.641,1.116,27.442H213.582Z" transform="translate(-184.311 -144.636)" fill="#c8523b" opacity="0.2"/>
        <path id="Path_30284" data-name="Path 30284" d="M231.239,171.093,246.7,168.7l-20.074-.113L212.2,170.452Z" transform="translate(-184.311 -141.878)" fill="#fff" opacity="0.4"/>
        <path id="Path_30285" data-name="Path 30285" d="M229.85,173.239l2.438-.379,3.031.141-2.736.33v1.544l-2.608-.181Z" transform="translate(-194.848 -144.427)" opacity="0.2"/>
        <path id="Path_30286" data-name="Path 30286" d="M264.328,168.69l-.8.165h2.708l.983-.149Z" transform="translate(-214.954 -141.937)" opacity="0.2"/>
        <path id="Path_30287" data-name="Path 30287" d="M262.21,179.2l.214,2.712,5.155-.879V178.37Z" transform="translate(-214.166 -147.716)" opacity="0.2"/>
        <path id="Path_30288" data-name="Path 30288" d="M282.25,226.328v3.293l5.634-1.326V225.3Z" transform="translate(-226.13 -175.732)" opacity="0.2"/>
        <path id="Path_30289" data-name="Path 30289" d="M246.52,225.3a4.237,4.237,0,0,0,1.54,2.16v2.853l-.77.806h2.648l-1.4-.9-.052-2.745a2.821,2.821,0,0,0,1.455-2.172h-1.451l-.258.866.467.052-.467.975v-.5h-.383l.383-1.378Z" transform="translate(-204.799 -175.732)" opacity="0.2"/>
        <path id="Path_30290" data-name="Path 30290" d="M182.49,258.114a46.346,46.346,0,0,1,1.939,7.5,46.79,46.79,0,0,0-1.455-13.674Z" transform="translate(-166.575 -191.636)" opacity="0.2"/>
        <path id="Path_30291" data-name="Path 30291" d="M168.412,150.658s-11.031-.536-19.252,1.54c0,0,2.507,22.44,2.664,33.749a1.814,1.814,0,0,0,1.878,1.781l16.56-.576a1.814,1.814,0,0,0,1.749-1.886C171.769,179.216,170.818,159.661,168.412,150.658Z" transform="translate(-146.677 -131.135)" fill="#57b8ce"/>
        <path id="Path_30292" data-name="Path 30292" d="M156.91,240.325v1.89l19.446-.943-.149-1.552Z" transform="translate(-151.304 -184.341)" fill="#263238"/>
        <path id="Path_30293" data-name="Path 30293" d="M179.63,162s3.708,16.661,3.168,32.141" transform="translate(-164.867 -137.943)" fill="none" stroke="#263238" stroke-miterlimit="10" stroke-width="1"/>
        <path id="Path_30294" data-name="Path 30294" d="M148.41,173.807s3.446,9.507,4.465,11.5,21.09,3.962,21.09,3.962,4.433,2.87,5.239,2.736,2.652-3.9,1.846-4.3-3.256-3.176-4.582-3.131a4.094,4.094,0,0,0-2.487,1.519s-16.524-4.735-17.414-5.086c-.637-.254-3.248-9.459-3.248-9.459Z" transform="translate(-146.23 -143.645)" fill="#ebb376"/>
        <path id="Path_30295" data-name="Path 30295" d="M145.487,154.568c-2.728.069-3.732,4.486-.306,14.3,2.2,6.319,7.48,9.672,15.75,11.139s8.423-3.3,6.7-4.945-11.208-4.091-12.735-5.473S151.213,154.427,145.487,154.568Z" transform="translate(-143 -133.506)" fill="#57b8ce"/>
        <path id="Path_30296" data-name="Path 30296" d="M203.346,205.43l-.516,4.482,1.39.463.484-4.945Z" transform="translate(-178.717 -163.87)" fill="#263238"/>
        <path id="Path_30297" data-name="Path 30297" d="M145.487,154.568c-2.728.069-3.732,4.486-.306,14.3,2.2,6.319,7.48,9.672,15.75,11.139s8.423-3.3,6.7-4.945-11.208-4.091-12.735-5.473S151.213,154.427,145.487,154.568Z" transform="translate(-143 -133.506)" opacity="0.2"/>
        <path id="Path_30298" data-name="Path 30298" d="M164.72,150.75s5.489,5.094,6.416,4.55,1.209-4.224,1.209-4.224Z" transform="translate(-155.966 -131.227)" fill="#fff"/>
        <path id="Path_30299" data-name="Path 30299" d="M164.73,139.363c1.612,1.447,5.493.911,5.493.911s2.418-.665,1.922-1.427a2.722,2.722,0,0,1-2.418-1.761,4.147,4.147,0,0,1-.145-1.64,8.014,8.014,0,0,1,.121-.915l-4.836-3.571C165.516,133.318,166.29,137.654,164.73,139.363Z" transform="translate(-155.972 -119.413)" fill="#ebb376"/>
        <path id="Path_30300" data-name="Path 30300" d="M167.88,136.6a4.091,4.091,0,0,0,3.732,3.853,4.147,4.147,0,0,1-.145-1.64Z" transform="translate(-157.853 -122.78)" opacity="0.2"/>
        <path id="Path_30301" data-name="Path 30301" d="M184.773,114.45a15.272,15.272,0,0,1,.141,5.683c-.584,2.374-1.282,2.62-2.015,2.777s-.709-8.173-.709-8.173Z" transform="translate(-166.396 -109.557)" fill="#57b8ce"/>
        <path id="Path_30302" data-name="Path 30302" d="M183.631,115.61s1.116,3.264.532,5.642-1.282,2.62-2.039,2.777-.705-8.173-.705-8.173Z" transform="translate(-165.935 -110.249)" opacity="0.5"/>
        <path id="Path_30303" data-name="Path 30303" d="M179.847,111.75s1.415,4.332-.661,6.448-3.446-6.17-3.446-6.17Z" transform="translate(-162.545 -107.945)" fill="#263238"/>
        <path id="Path_30304" data-name="Path 30304" d="M166.145,122.221a4.091,4.091,0,0,0,4.889.806,4.546,4.546,0,0,0,2.217-2.515c.052-.145.1-.3.141-.459.709-2.91.286-7.718-2.878-9.02a4.433,4.433,0,0,0-6.13,4.4C164.561,118.65,164.509,120.561,166.145,122.221Z" transform="translate(-155.759 -107.313)" fill="#ebb376"/>
        <path id="Path_30305" data-name="Path 30305" d="M176.577,124.016c-.02.262.137.48.31.48s.314-.218.314-.48-.137-.476-.31-.476S176.581,123.75,176.577,124.016Z" transform="translate(-163.044 -114.983)" fill="#263238"/>
        <path id="Path_30306" data-name="Path 30306" d="M184,124.046c0,.262.141.48.31.48s.314-.214.318-.476-.141-.48-.314-.48S184,123.8,184,124.046Z" transform="translate(-167.476 -115.001)" fill="#263238"/>
        <path id="Path_30307" data-name="Path 30307" d="M181.6,125.07a9.427,9.427,0,0,0,1.249,2.257,1.519,1.519,0,0,1-1.265.234Z" transform="translate(-166.031 -115.897)" fill="#d58745"/>
        <path id="Path_30308" data-name="Path 30308" d="M174.108,121.013a.165.165,0,0,0,.149-.06,1.245,1.245,0,0,1,.991-.512.157.157,0,0,0,.165-.145.153.153,0,0,0-.141-.165h0a1.548,1.548,0,0,0-1.261.633.157.157,0,0,0,.024.218h0A.214.214,0,0,0,174.108,121.013Z" transform="translate(-161.493 -112.948)" fill="#263238"/>
        <path id="Path_30309" data-name="Path 30309" d="M185.5,120.618a.178.178,0,0,0,.093,0,.153.153,0,0,0,.073-.206h0a1.531,1.531,0,0,0-1.108-.875.153.153,0,0,0-.173.133h0a.157.157,0,0,0,.133.173h0a1.245,1.245,0,0,1,.867.705A.173.173,0,0,0,185.5,120.618Z" transform="translate(-167.708 -112.593)" fill="#263238"/>
        <path id="Path_30310" data-name="Path 30310" d="M168.232,134.41a3.905,3.905,0,0,0,2.668,2.749,2.582,2.582,0,0,0,2.632-.435,3.1,3.1,0,0,1-3.627.6,6.259,6.259,0,0,1-2.535-2.366Z" transform="translate(-157.548 -121.473)" fill="#263238"/>
        <path id="Path_30311" data-name="Path 30311" d="M164.513,112.43l.234,1.419a1.068,1.068,0,0,0-.476,1.362,3.89,3.89,0,0,1-.975,3.849s-.048-.52-.484-.379-.193,2.845.717,4.095a8.388,8.388,0,0,1-2.2-3.917c-.806-2.6-.967-4.78-.476-5.82Z" transform="translate(-153.495 -108.351)" fill="#263238"/>
        <path id="Path_30312" data-name="Path 30312" d="M160.625,125.954a3.1,3.1,0,0,0,1.761,1.568c1.02.347,1.612-.556,1.362-1.552-.214-.887-1-2.16-2.051-2.067A1.376,1.376,0,0,0,160.625,125.954Z" transform="translate(-153.427 -115.197)" fill="#ebb376"/>
        <path id="Path_30313" data-name="Path 30313" d="M168.193,107.851s-6.666-.214-7.041,1.088-.024,3.978.069,5.836a1.9,1.9,0,0,1-1.983,1.959h0a2.153,2.153,0,0,1-.322,0,2.08,2.08,0,0,1-.935-.262c-1.209-.725-2.652-1.85-3.47-5.151-1.068-4.308.979-8.955,7.142-9.011A6.083,6.083,0,0,1,168.193,107.851Z" transform="translate(-149.71 -102.309)" fill="#57b8ce"/>
        <path id="Path_30314" data-name="Path 30314" d="M175.212,115.59s-6.283-.29-6.658,1.012-.024,3.978.069,5.836a1.9,1.9,0,0,1-1.983,1.959,1.13,1.13,0,0,0,.9-1.209c.044-1.012-.633-5.461,0-6.315s2.777-1.527,4.981-1.7S175.212,115.59,175.212,115.59Z" transform="translate(-157.113 -109.971)" opacity="0.5"/>
        <path id="Path_30315" data-name="Path 30315" d="M166.375,113.532s-.653.838-.335,1.35,10.321-.326,10.442-.576-1.124-.689-1.31-.806-.238-1.209-.6-1.314S169.2,111.735,166.375,113.532Z" transform="translate(-156.702 -108.148)" fill="#263238"/>
        <path id="Path_30316" data-name="Path 30316" d="M168.237,116.678a.258.258,0,1,1-.1-.169.258.258,0,0,1,.1.169Z" transform="translate(-157.758 -110.757)" fill="#57b8ce"/>
        <path id="Path_30317" data-name="Path 30317" d="M178.531,132.006a8.6,8.6,0,0,0-.339,1.209h-.222c-1-.048-1.455-.4-1.648-.778a1.334,1.334,0,0,1-.133-.6,1.21,1.21,0,0,1,.048-.347,4.707,4.707,0,0,0,1.951.5C178.386,132,178.531,132.006,178.531,132.006Z" transform="translate(-162.814 -119.729)" fill="#263238"/>
        <path id="Path_30318" data-name="Path 30318" d="M178.159,131.976l-.109.359a2.985,2.985,0,0,1-1.89-.508,1.209,1.209,0,0,1,.048-.347,4.707,4.707,0,0,0,1.951.5Z" transform="translate(-162.796 -119.724)" fill="#fff"/>
        <path id="Path_30319" data-name="Path 30319" d="M178.138,134.608c-1-.048-1.455-.4-1.648-.778a3.224,3.224,0,0,1,1.1.27,1.177,1.177,0,0,1,.544.508Z" transform="translate(-162.993 -121.126)" fill="#de5753"/>
        <path id="Path_30320" data-name="Path 30320" d="M162.19,149.442l.532-1.842s5.582,2.076,6.5,5.82c0,0-.4-4.542.979-5.82l.951,1.209s.121,4.534-1.523,5.09S162.19,149.442,162.19,149.442Z" transform="translate(-154.456 -129.347)" fill="#57b8ce"/>
        <path id="Path_30321" data-name="Path 30321" d="M162.19,149.442l.532-1.842s5.582,2.076,6.5,5.82c0,0-.4-4.542.979-5.82l.951,1.209s.121,4.534-1.523,5.09S162.19,149.442,162.19,149.442Z" transform="translate(-154.456 -129.347)" opacity="0.2"/>
        <path id="Path_30322" data-name="Path 30322" d="M199.476,395.975l-7.266-1.08.222-2.015,7.557.991Z" transform="translate(-172.377 -275.775)" fill="#57b8ce"/>
        <path id="Path_30323" data-name="Path 30323" d="M199.476,395.975l-7.266-1.08.222-2.015,7.557.991Z" transform="translate(-172.377 -275.775)" fill="#fff" opacity="0.6"/>
        <path id="Path_30324" data-name="Path 30324" d="M157.309,394.855H150.26v-2.108l7.315-.137Z" transform="translate(-147.334 -275.613)" fill="#57b8ce"/>
        <path id="Path_30325" data-name="Path 30325" d="M157.309,394.855H150.26v-2.108l7.315-.137Z" transform="translate(-147.334 -275.613)" fill="#fff" opacity="0.6"/>
      </g>
    </g>
  </g>
</svg>
