<svg xmlns="http://www.w3.org/2000/svg" width="30" height="30" viewBox="0 0 30 30">
  <g id="Group_42542" data-name="Group 42542" transform="translate(-870 -241)">
    <g id="order-svgrepo-com-2" transform="translate(870 241)">
      <rect id="Rectangle_17628" data-name="Rectangle 17628" width="30" height="30" fill="rgba(255,255,255,0.01)"/>
      <path id="Path_28394" data-name="Path 28394" d="M23.587,7h3.08a1.244,1.244,0,0,1,1.245,1.245V28.779a1.244,1.244,0,0,1-1.245,1.245H9.245A1.244,1.244,0,0,1,8,28.779V8.245A1.245,1.245,0,0,1,9.245,7H13.6V8.867h8.712V7Z" transform="translate(-3.022 -2.644)" fill="none" stroke="#c8523b" stroke-linejoin="round" stroke-width="2"/>
      <rect id="Rectangle_17629" data-name="Rectangle 17629" width="8" height="4" transform="translate(11 2)" fill="none" stroke="#c8523b" stroke-linecap="round" stroke-linejoin="round" stroke-width="2"/>
      <path id="Path_28395" data-name="Path 28395" d="M23.978,19,19,23.979h6.225l-4.98,4.978" transform="translate(-7.177 -7.177)" fill="none" stroke="#c8523b" stroke-linecap="round" stroke-linejoin="round" stroke-width="2"/>
    </g>
  </g>
</svg>
