<svg id="Group_15164" data-name="Group 15164" xmlns="http://www.w3.org/2000/svg" width="49.298" height="49.298" viewBox="0 0 49.298 49.298">
  <g id="Group_4641" data-name="Group 4641" transform="translate(0)">
    <path id="Path_8574" data-name="Path 8574" d="M46.777,1H4.521A3.525,3.525,0,0,0,1,4.521V46.777A3.525,3.525,0,0,0,4.521,50.3H46.777A3.525,3.525,0,0,0,50.3,46.777V4.521A3.525,3.525,0,0,0,46.777,1ZM4.521,3.348H46.777A1.174,1.174,0,0,1,47.95,4.521V10.39H3.348V4.521A1.174,1.174,0,0,1,4.521,3.348Zm42.255,44.6H4.521a1.174,1.174,0,0,1-1.174-1.174V12.738h44.6V46.777a1.174,1.174,0,0,1-1.174,1.174Z" transform="translate(-1 -1)" fill="#57b8ce"/>
    <g id="Component_14_27" data-name="Component 14 – 27" transform="translate(18.787 20.635)">
      <path id="Union_1" data-name="Union 1" d="M5.25,12V6.75H0V5.25H5.25V0h1.5V5.25H12v1.5H6.75V12Z" fill="#57b8ce"/>
    </g>
  </g>
</svg>
