<svg xmlns="http://www.w3.org/2000/svg" width="242.806" height="217.783" viewBox="0 0 242.806 217.783">
  <g id="Heavy_box-amico" data-name="Heavy box-amico" transform="translate(-12.892 -53.647)">
    <g id="freepik--Floor--inject-45" transform="translate(12.892 130.787)">
      <path id="Path_29304" data-name="Path 29304" d="M219.854,224.908c-47.565-27.464-124.417-27.464-171.68,0s-47,71.983.553,99.447,124.417,27.464,171.69,0S267.414,252.367,219.854,224.908Z" transform="translate(-12.892 -204.31)" fill="#f5f5f5"/>
    </g>
    <g id="freepik--Bricks--inject-45" transform="translate(50.273 62.537)">
      <path id="Path_29305" data-name="Path 29305" d="M94.7,147.932c.282-.164.512-.036.512.292v3.144a1.121,1.121,0,0,1-.512.881l-8.284,4.787c-.282.159-.512.031-.512-.292V153.6a1.131,1.131,0,0,1,.512-.886Z" transform="translate(-85.9 -108.513)" fill="#f0f0f0"/>
      <path id="Path_29306" data-name="Path 29306" d="M94.706,169.053c.282-.164.512-.031.512.292v3.144a1.131,1.131,0,0,1-.512.886l-8.274,4.782c-.282.164-.512.036-.512-.292v-3.144a1.132,1.132,0,0,1,.512-.886Z" transform="translate(-85.91 -118.821)" fill="#f0f0f0"/>
      <path id="Path_29307" data-name="Path 29307" d="M105.466,152.183c.282-.164.512-.031.512.292v3.144a1.132,1.132,0,0,1-.512.886l-8.274,4.767c-.282.164-.512.036-.512-.292v-3.144a1.111,1.111,0,0,1,.512-.886Z" transform="translate(-91.161 -110.588)" fill="#f0f0f0"/>
      <path id="Path_29308" data-name="Path 29308" d="M164.391,71.082c.282-.164.512-.036.512.292v3.144a1.1,1.1,0,0,1-.512.881L156.1,80.186c-.282.164-.512.031-.512-.292V76.75a1.131,1.131,0,0,1,.512-.886Z" transform="translate(-119.908 -71.011)" fill="#f0f0f0"/>
      <path id="Path_29309" data-name="Path 29309" d="M164.406,92.165c.282-.159.512-.031.512.292V95.6a1.111,1.111,0,0,1-.512.886l-8.274,4.777c-.282.164-.512.036-.512-.292V97.828a1.121,1.121,0,0,1,.512-.881Z" transform="translate(-119.923 -81.301)" fill="#f0f0f0"/>
      <path id="Path_29310" data-name="Path 29310" d="M154.8,87.192c.282-.164.512-.036.512.292v3.144a1.121,1.121,0,0,1-.512.881l-8.284,4.767c-.282.159-.512.031-.512-.292V92.86a1.126,1.126,0,0,1,.512-.886Z" transform="translate(-115.229 -78.873)" fill="#f0f0f0"/>
      <path id="Path_29311" data-name="Path 29311" d="M175.156,75.3c.282-.159.512-.031.512.292v3.144a1.132,1.132,0,0,1-.512.886L166.872,84.4c-.282.164-.512.036-.512-.292V80.963a1.121,1.121,0,0,1,.512-.881Z" transform="translate(-125.164 -73.068)" fill="#f0f0f0"/>
      <path id="Path_29312" data-name="Path 29312" d="M417.512,73.782c-.282-.164-.512-.036-.512.292v3.144a1.121,1.121,0,0,0,.512.881l8.284,4.787c.282.159.512.031.512-.3V79.45a1.111,1.111,0,0,0-.512-.886Z" transform="translate(-247.475 -72.329)" fill="#f0f0f0"/>
      <path id="Path_29313" data-name="Path 29313" d="M417.512,94.863c-.282-.164-.512-.031-.512.292V98.3a1.132,1.132,0,0,0,.512.886l8.284,4.782c.282.164.512.031.512-.292v-3.144a1.111,1.111,0,0,0-.512-.886Z" transform="translate(-247.475 -82.616)" fill="#f0f0f0"/>
      <path id="Path_29314" data-name="Path 29314" d="M427.122,89.932c-.282-.164-.512-.036-.512.292v3.144a1.121,1.121,0,0,0,.512.881l8.284,4.787c.282.159.512.031.512-.3V95.6a1.132,1.132,0,0,0-.512-.886Z" transform="translate(-252.165 -80.21)" fill="#f0f0f0"/>
      <path id="Path_29315" data-name="Path 29315" d="M406.762,77.993c-.282-.164-.512-.031-.512.292v3.144a1.111,1.111,0,0,0,.512.886l8.289,4.782c.282.164.512.031.512-.292V83.661a1.131,1.131,0,0,0-.512-.886Z" transform="translate(-242.229 -74.384)" fill="#f0f0f0"/>
      <path id="Path_29316" data-name="Path 29316" d="M445.172,217.235c-.282-.159-.512-.031-.512.3v3.139a1.132,1.132,0,0,0,.512.886l8.284,4.782c.282.164.512.036.512-.292V222.9a1.121,1.121,0,0,0-.512-.881Z" transform="translate(-260.973 -142.335)" fill="#f0f0f0"/>
      <path id="Path_29317" data-name="Path 29317" d="M445.172,238.322c-.282-.164-.512-.036-.512.292v3.144a1.121,1.121,0,0,0,.512.881l8.284,4.787c.282.159.512.031.512-.3V243.99a1.132,1.132,0,0,0-.512-.886Z" transform="translate(-260.973 -152.623)" fill="#f0f0f0"/>
      <path id="Path_29318" data-name="Path 29318" d="M454.782,233.345c-.282-.159-.512-.031-.512.3v3.139a1.111,1.111,0,0,0,.512.886l8.289,4.782c.282.164.512.036.512-.292v-3.144a1.121,1.121,0,0,0-.512-.881Z" transform="translate(-265.663 -150.196)" fill="#f0f0f0"/>
    </g>
    <g id="freepik--Shadows--inject-45" transform="translate(22.893 129.564)">
      <path id="Path_29319" data-name="Path 29319" d="M200.677,221.674,167.125,202.3a2.8,2.8,0,0,0-2.811,0l-33.321,19.364a1.4,1.4,0,0,0,0,2.422l33.552,19.374a2.8,2.8,0,0,0,2.811,0L200.677,224.1a1.4,1.4,0,0,0,0-2.422Z" transform="translate(-80.185 -201.921)" fill="#e6e6e6"/>
      <path id="Path_29320" data-name="Path 29320" d="M102.808,277.174,69.251,257.8a2.8,2.8,0,0,0-2.811,0L33.124,277.143a1.4,1.4,0,0,0,0,2.427l33.552,19.369a2.811,2.811,0,0,0,2.811,0L102.8,279.575a1.4,1.4,0,0,0,.005-2.4Z" transform="translate(-32.425 -229.005)" fill="#e6e6e6"/>
      <path id="Path_29321" data-name="Path 29321" d="M124.658,376.514,91.106,357.14a2.8,2.8,0,0,0-2.811,0L54.974,376.5a1.4,1.4,0,0,0,0,2.427L88.531,398.3a2.8,2.8,0,0,0,2.811,0l33.316-19.364a1.4,1.4,0,0,0,0-2.427Z" transform="translate(-43.088 -277.483)" fill="#e6e6e6"/>
      <path id="Path_29322" data-name="Path 29322" d="M225.738,407.505l-33.557-19.374a2.8,2.8,0,0,0-2.806,0l-33.321,19.364a1.4,1.4,0,0,0,0,2.427l33.552,19.369a2.8,2.8,0,0,0,2.811,0l33.321-19.364a1.4,1.4,0,0,0,0-2.422Z" transform="translate(-92.414 -292.607)" fill="#e6e6e6"/>
      <path id="Path_29323" data-name="Path 29323" d="M375.95,321.423c-17.649-10.194-46.173-10.194-63.709,0s-17.444,26.711.2,36.9,46.178,10.189,63.714,0S393.6,331.612,375.95,321.423Z" transform="translate(-162.585 -256.507)" fill="#e6e6e6"/>
    </g>
    <g id="freepik--Boxes--inject-45" transform="translate(25.077 101.127)">
      <path id="Path_29324" data-name="Path 29324" d="M201.2,165.677l-17.009-9.887-3.154-1.828h0l-13.046-7.583-33.419,19.3.087,30.331,33.2,19.292,33.424-19.292Z" transform="translate(-84.455 -146.38)" fill="#37474f"/>
      <path id="Path_29325" data-name="Path 29325" d="M134.57,165.677l33.419-19.3,33.209,19.3-33.424,19.3Z" transform="translate(-84.455 -146.38)" fill="#455a64"/>
      <path id="Path_29326" data-name="Path 29326" d="M167.774,203.367l.087,30.326-33.2-19.292-.087-30.331Z" transform="translate(-84.455 -164.773)" fill="#455a64"/>
      <path id="Path_29327" data-name="Path 29327" d="M232.844,184.07l.087,30.331-33.424,19.292-.087-30.326Z" transform="translate(-116.102 -164.773)" fill="#455a64"/>
      <path id="Path_29328" data-name="Path 29328" d="M134.57,165.677l33.419-19.3,33.209,19.3-33.424,19.3Z" transform="translate(-84.455 -146.38)" fill="#fff" opacity="0.2"/>
      <path id="Path_29329" data-name="Path 29329" d="M232.844,184.07l.087,30.331-33.424,19.292-.087-30.326Z" transform="translate(-116.102 -164.773)" opacity="0.1"/>
      <path id="Path_29330" data-name="Path 29330" d="M193.469,161.19l6.467,3.758-33.419,19.3-6.467-3.758Z" transform="translate(-96.889 -153.607)" fill="#fff" opacity="0.3"/>
      <path id="Path_29331" data-name="Path 29331" d="M160.05,210.595l6.467,3.758V202.638l-6.467-3.758Z" transform="translate(-96.889 -172)" fill="#fff" opacity="0.3"/>
      <path id="Path_29332" data-name="Path 29332" d="M160.05,250.6l6.467,3.758v-7.736l-6.467-3.758Z" transform="translate(-96.889 -193.462)" fill="#fff" opacity="0.3"/>
      <path id="Path_29333" data-name="Path 29333" d="M200.046,205.289l-6.984-4.029-6.933,4.029,6.979,4.035Z" transform="translate(-109.616 -173.161)" fill="#fff" opacity="0.4"/>
      <path id="Path_29334" data-name="Path 29334" d="M69.981,201.84l-13.046,7.578h0l-1.418.824-18.739,10.89-.087,30.331,33.424,19.3,33.2-19.3.087-30.331Z" transform="translate(-36.69 -173.444)" fill="#37474f"/>
      <path id="Path_29335" data-name="Path 29335" d="M103.487,221.132,70.063,201.84l-33.2,19.292,33.424,19.3Z" transform="translate(-36.773 -173.444)" fill="#455a64"/>
      <path id="Path_29336" data-name="Path 29336" d="M102.057,258.817l-.087,30.331,33.2-19.3.087-30.331Z" transform="translate(-68.546 -191.832)" fill="#455a64"/>
      <path id="Path_29337" data-name="Path 29337" d="M36.777,239.52l-.087,30.331,33.424,19.3.087-30.331Z" transform="translate(-36.69 -191.832)" fill="#455a64"/>
      <path id="Path_29338" data-name="Path 29338" d="M103.487,221.132,70.063,201.84l-33.2,19.292,33.424,19.3Z" transform="translate(-36.773 -173.444)" fill="#fff" opacity="0.4"/>
      <path id="Path_29339" data-name="Path 29339" d="M36.777,239.52l-.087,30.331,33.424,19.3.087-30.331Z" transform="translate(-36.69 -191.832)" fill="#fff" opacity="0.3"/>
      <path id="Path_29340" data-name="Path 29340" d="M70.067,216.64,63.6,220.4l33.424,19.3,6.467-3.758Z" transform="translate(-49.822 -180.667)" fill="#fff" opacity="0.3"/>
      <path id="Path_29341" data-name="Path 29341" d="M135.347,266.045,128.88,269.8V258.088l6.467-3.758Z" transform="translate(-81.678 -199.059)" fill="#fff" opacity="0.3"/>
      <path id="Path_29342" data-name="Path 29342" d="M135.347,306.046,128.88,309.8v-7.736l6.467-3.758Z" transform="translate(-81.678 -220.521)" fill="#fff" opacity="0.3"/>
      <path id="Path_29343" data-name="Path 29343" d="M85.872,189.495l-10.04-5.837-3.082-1.792h0l-8.494-4.936L42.5,189.495l.056,19.738L64.173,221.8l21.755-12.559Z" transform="translate(-39.525 -161.288)" fill="#c8523b"/>
      <path id="Path_29344" data-name="Path 29344" d="M42.5,189.495,64.255,176.93l21.617,12.565L64.117,202.054Z" transform="translate(-39.525 -161.288)" fill="#c8523b"/>
      <path id="Path_29345" data-name="Path 29345" d="M64.117,214.029l.056,19.743L42.556,221.208,42.5,201.47Z" transform="translate(-39.525 -173.264)" fill="#c8523b"/>
      <path id="Path_29346" data-name="Path 29346" d="M106.475,201.47l.056,19.743L84.776,233.772l-.056-19.743Z" transform="translate(-60.128 -173.264)" fill="#c8523b"/>
      <path id="Path_29347" data-name="Path 29347" d="M42.5,189.495,64.255,176.93l21.617,12.565L64.117,202.054Z" transform="translate(-39.525 -161.288)" fill="#fff" opacity="0.4"/>
      <path id="Path_29348" data-name="Path 29348" d="M64.117,214.029l.056,19.743L42.556,221.208,42.5,201.47Z" transform="translate(-39.525 -173.264)" fill="#fff" opacity="0.1"/>
      <path id="Path_29349" data-name="Path 29349" d="M106.475,201.47l.056,19.743L84.776,233.772l-.056-19.743Z" transform="translate(-60.128 -173.264)" fill="#fff" opacity="0.3"/>
      <path id="Path_29350" data-name="Path 29350" d="M80.845,186.57l4.209,2.447L63.3,201.577l-4.209-2.447Z" transform="translate(-47.621 -165.993)" fill="#fff" opacity="0.3"/>
      <path id="Path_29351" data-name="Path 29351" d="M59.09,218.729l4.209,2.447v-7.629L59.09,211.1Z" transform="translate(-47.621 -177.963)" fill="#fff" opacity="0.3"/>
      <path id="Path_29352" data-name="Path 29352" d="M59.09,244.773,63.3,247.22v-5.038L59.09,239.74Z" transform="translate(-47.621 -191.939)" fill="#fff" opacity="0.3"/>
      <path id="Path_29353" data-name="Path 29353" d="M112.2,198.681l-4.541-2.621-4.516,2.621,4.547,2.627Z" transform="translate(-69.117 -170.624)" fill="#fff" opacity="0.4"/>
      <path id="Path_29354" data-name="Path 29354" d="M125.177,320.517l-17.372-10.1L105.02,308.8h-.005L91.974,301.22l-33.424,19.3.087,30.326,33.2,19.3,33.424-19.3Z" transform="translate(-47.358 -221.941)" fill="#c8523b"/>
      <path id="Path_29355" data-name="Path 29355" d="M58.55,320.517l33.424-19.3,33.2,19.3-33.424,19.3Z" transform="translate(-47.358 -221.941)" fill="#c8523b"/>
      <path id="Path_29356" data-name="Path 29356" d="M91.754,358.207l.087,30.326-33.2-19.3L58.55,338.91Z" transform="translate(-47.358 -240.334)" fill="#c8523b"/>
      <path id="Path_29357" data-name="Path 29357" d="M156.824,338.91l.087,30.326-33.424,19.3-.087-30.326Z" transform="translate(-79.004 -240.334)" fill="#c8523b"/>
      <path id="Path_29358" data-name="Path 29358" d="M58.55,320.517l33.424-19.3,33.2,19.3-33.424,19.3Z" transform="translate(-47.358 -221.941)" fill="#fff" opacity="0.2"/>
      <path id="Path_29359" data-name="Path 29359" d="M156.824,338.91l.087,30.326-33.424,19.3-.087-30.326Z" transform="translate(-79.004 -240.334)" opacity="0.1"/>
      <path id="Path_29360" data-name="Path 29360" d="M117.454,316.03l6.461,3.758L90.5,339.086l-6.467-3.758Z" transform="translate(-59.792 -229.168)" fill="#fff" opacity="0.3"/>
      <path id="Path_29361" data-name="Path 29361" d="M84.03,365.435l6.467,3.758V357.478L84.03,353.72Z" transform="translate(-59.792 -247.561)" fill="#fff" opacity="0.3"/>
      <path id="Path_29362" data-name="Path 29362" d="M84.03,405.436l6.467,3.758v-7.736L84.03,397.7Z" transform="translate(-59.792 -269.023)" fill="#fff" opacity="0.3"/>
      <path id="Path_29363" data-name="Path 29363" d="M81.706,333.959l-6.979-4.029-6.938,4.029,6.984,4.029Z" transform="translate(-51.867 -235.952)" fill="#fff" opacity="0.4"/>
      <path id="Path_29364" data-name="Path 29364" d="M192.916,332.22,179.87,339.8h0l-2.79,1.623-17.372,10.092-.087,30.331,33.424,19.3,33.2-19.3.087-30.331Z" transform="translate(-96.679 -237.069)" fill="#c8523b"/>
      <path id="Path_29365" data-name="Path 29365" d="M226.417,351.512,193,332.22,159.79,351.512l33.424,19.3Z" transform="translate(-96.762 -237.069)" fill="#c8523b"/>
      <path id="Path_29366" data-name="Path 29366" d="M224.987,389.2l-.087,30.331,33.2-19.3.087-30.331Z" transform="translate(-128.536 -255.457)" fill="#c8523b"/>
      <path id="Path_29367" data-name="Path 29367" d="M159.707,369.9l-.087,30.331,33.424,19.3.087-30.331Z" transform="translate(-96.679 -255.457)" fill="#c8523b"/>
      <path id="Path_29368" data-name="Path 29368" d="M226.417,351.512,193,332.22,159.79,351.512l33.424,19.3Z" transform="translate(-96.762 -237.069)" fill="#fff" opacity="0.2"/>
      <path id="Path_29369" data-name="Path 29369" d="M159.707,369.9l-.087,30.331,33.424,19.3.087-30.331Z" transform="translate(-96.679 -255.457)" fill="#fff" opacity="0.1"/>
      <path id="Path_29370" data-name="Path 29370" d="M193.007,347.02l-6.467,3.758,33.419,19.3,6.467-3.758Z" transform="translate(-109.816 -244.291)" fill="#fff" opacity="0.3"/>
      <path id="Path_29371" data-name="Path 29371" d="M258.277,396.425l-6.467,3.758V388.468l6.467-3.758Z" transform="translate(-141.668 -262.684)" fill="#fff" opacity="0.3"/>
      <path id="Path_29372" data-name="Path 29372" d="M258.277,436.432l-6.467,3.753v-7.736l6.467-3.758Z" transform="translate(-141.668 -284.146)" fill="#fff" opacity="0.3"/>
      <path id="Path_29373" data-name="Path 29373" d="M199.494,292.42l-10.348,6.016h0l-3.159,1.833-12.841,7.46-.067,24.064L199.6,347.107l26.343-15.314.072-24.064Z" transform="translate(-103.248 -217.647)" fill="#37474f"/>
      <path id="Path_29374" data-name="Path 29374" d="M226.08,307.729,199.558,292.42,173.21,307.729l26.522,15.314Z" transform="translate(-103.311 -217.647)" fill="#455a64"/>
      <path id="Path_29375" data-name="Path 29375" d="M224.947,337.634,224.88,361.7l26.343-15.314.072-24.064Z" transform="translate(-128.526 -232.238)" fill="#455a64"/>
      <path id="Path_29376" data-name="Path 29376" d="M173.147,322.32l-.067,24.064L199.6,361.7l.067-24.064Z" transform="translate(-103.248 -232.238)" fill="#455a64"/>
      <path id="Path_29377" data-name="Path 29377" d="M226.08,307.729,199.558,292.42,173.21,307.729l26.522,15.314Z" transform="translate(-103.311 -217.647)" fill="#fff" opacity="0.4"/>
      <path id="Path_29378" data-name="Path 29378" d="M224.947,337.634,224.88,361.7l26.343-15.314.072-24.064Z" transform="translate(-128.526 -232.238)" fill="#fff" opacity="0.1"/>
      <path id="Path_29379" data-name="Path 29379" d="M173.147,322.32l-.067,24.064L199.6,361.7l.067-24.064Z" transform="translate(-103.248 -232.238)" fill="#fff" opacity="0.3"/>
      <path id="Path_29380" data-name="Path 29380" d="M199.565,304.17l-5.135,2.98,26.522,15.309,5.13-2.98Z" transform="translate(-113.666 -223.381)" fill="#fff" opacity="0.3"/>
      <path id="Path_29381" data-name="Path 29381" d="M251.36,343.368l-5.13,2.98v-9.3l5.13-2.98Z" transform="translate(-138.945 -237.972)" fill="#fff" opacity="0.3"/>
      <path id="Path_29382" data-name="Path 29382" d="M251.36,375.109l-5.13,2.98V371.95l5.13-2.98Z" transform="translate(-138.945 -255.003)" fill="#fff" opacity="0.3"/>
      <path id="Path_29383" data-name="Path 29383" d="M225.1,339.33l-5.535-3.2-5.5,3.2,5.54,3.195Z" transform="translate(-123.246 -238.977)" fill="#fff" opacity="0.4"/>
    </g>
    <g id="freepik--Character--inject-45" transform="translate(116.793 53.647)">
      <path id="Path_29384" data-name="Path 29384" d="M313.582,341.715a7,7,0,0,0,5.253,1.93,15.872,15.872,0,0,0,5.571-1.4c1.777-.727,4-2.775,5.924-2.734a46.6,46.6,0,0,0,5.632-.384,29.133,29.133,0,0,0-.8-7.608l-8.965-.236c-2.422,3.313-7.127,6.072-10.691,7.107a3.144,3.144,0,0,0-2.212,2.36.189.189,0,0,1,0,.056A3.8,3.8,0,0,0,313.582,341.715Z" transform="translate(-263.386 -189.131)" fill="#455a64"/>
      <path id="Path_29385" data-name="Path 29385" d="M330.236,346.984c-1.92-.041-4.147,2.007-5.924,2.734a15.872,15.872,0,0,1-5.555,1.4,7,7,0,0,1-5.253-1.93,3.808,3.808,0,0,1-.312-.911.187.187,0,0,0,0-.056,2.929,2.929,0,0,0,0,1.193,3.8,3.8,0,0,0,.312.911,6.984,6.984,0,0,0,5.253,1.93,15.873,15.873,0,0,0,5.571-1.4c1.777-.732,4-2.775,5.924-2.739a41.332,41.332,0,0,0,5.53-.317c.046-.4.072-.8.087-1.2A46.6,46.6,0,0,1,330.236,346.984Z" transform="translate(-263.308 -196.607)" fill="#263238"/>
      <path id="Path_29386" data-name="Path 29386" d="M431.858,363.076a14.338,14.338,0,0,1-.292,2.918,6.764,6.764,0,0,1-2.668,4.25,8.738,8.738,0,0,1-4.239,1.126,9.42,9.42,0,0,1-3.876-.4,4.429,4.429,0,0,1-2.273-1.853v.051a4.1,4.1,0,0,0,2.611,2.719,9.442,9.442,0,0,0,3.881.4,8.655,8.655,0,0,0,4.239-1.126,6.784,6.784,0,0,0,2.668-4.26,13.93,13.93,0,0,0,.287-2.918,4.91,4.91,0,0,1,1.567-3.584,9.749,9.749,0,0,0,.681-.7,1.736,1.736,0,0,0,.415-1.275,3.76,3.76,0,0,0-.051-.512c-.353.41-1.188,1.393-1.4,1.592a4.936,4.936,0,0,0-1.551,3.574Z" transform="translate(-314.733 -202.126)" fill="#263238"/>
      <path id="Path_29387" data-name="Path 29387" d="M424.44,348.13a10.624,10.624,0,0,1-.748,5.914,22.573,22.573,0,0,1-3.133,5.151,15.443,15.443,0,0,0-1.638,2.391,4.3,4.3,0,0,0-.466,2.76,4.429,4.429,0,0,0,2.273,1.853,9.421,9.421,0,0,0,3.876.4,8.572,8.572,0,0,0,4.239-1.126,6.763,6.763,0,0,0,2.668-4.255,14.336,14.336,0,0,0,.292-2.918,4.936,4.936,0,0,1,1.562-3.584c.21-.2,1.024-1.183,1.4-1.592a10.819,10.819,0,0,0-1.444-4.132Z" transform="translate(-314.677 -197.353)" fill="#455a64"/>
      <path id="Path_29388" data-name="Path 29388" d="M349.131,184.66s-17.813,31.539-17.613,39.824,2.13,35.733,2.13,35.733c4.639,2.709,11.346.686,11.346.686.543-26.112,4.214-27.034,2.56-36.6,4.4-7.68,13.706-19.922,13.706-19.922,1.7,14.643,4.1,26.568,5.217,31.852a25.291,25.291,0,0,0,1.848,5.478l12.9,27.6c4.536,2.371,10.24,0,10.24,0-3.584-22.16-2.913-21.432-10.092-33.669-.123-23.081-1.2-50.56-1.2-50.56Z" transform="translate(-272.28 -117.581)" fill="#37474f"/>
      <path id="Path_29389" data-name="Path 29389" d="M372.385,210.17c.435,3.374,3.753,5.847,3.753,5.847-4.751,5.842-7.675,12.534-8.238,16.5,4.7-7.26,11.1-15.683,11.1-15.683-.246-3.18-.512-4.608-.512-4.608A10.135,10.135,0,0,1,372.385,210.17Z" transform="translate(-290.035 -130.03)" opacity="0.3"/>
      <path id="Path_29390" data-name="Path 29390" d="M328.5,115.74c-4.833-.276-6.1,2.248-9.15,5.094s-8.8,8.376-8.8,8.376a11.484,11.484,0,0,0,6.374,9.006l10.639-7.849Z" transform="translate(-262.049 -83.938)" fill="#c8523b"/>
      <path id="Path_29391" data-name="Path 29391" d="M328.5,115.74c-4.833-.276-6.1,2.248-9.15,5.094s-8.8,8.376-8.8,8.376a11.484,11.484,0,0,0,6.374,9.006l10.639-7.849Z" transform="translate(-262.049 -83.938)" opacity="0.4"/>
      <path id="Path_29392" data-name="Path 29392" d="M380.315,156.694c-6.359,2.217-18.908,5.007-29.266-2.36a3.656,3.656,0,0,1-1.377-4.04c.415-1.352.512-1.4-.983-7.475-1.459-5.939-10.342-15.053-10.66-18.212s.108-8.638,3.835-9.467c6.912-1.464,19.907,0,19.907,0l6.851,2.842c7.2,8.827,13.491,23.829,15.319,32.307A5.55,5.55,0,0,1,380.315,156.694Z" transform="translate(-275.417 -83.338)" fill="#c8523b"/>
      <path id="Path_29393" data-name="Path 29393" d="M380.315,156.694c-6.359,2.217-18.908,5.007-29.266-2.36a3.656,3.656,0,0,1-1.377-4.04c.415-1.352.512-1.4-.983-7.475-1.459-5.939-10.342-15.053-10.66-18.212s.108-8.638,3.835-9.467c6.912-1.464,19.907,0,19.907,0l6.851,2.842c7.2,8.827,13.491,23.829,15.319,32.307A5.55,5.55,0,0,1,380.315,156.694Z" transform="translate(-275.417 -83.338)" opacity="0.3"/>
      <path id="Path_29394" data-name="Path 29394" d="M325.588,80.253c-1.469-1.055-1.275-2.652-1.649-4.419a8.535,8.535,0,0,1,1.111-5.591c1.024-5.473,20.409-4.823,20.583-.809.876-.394,1.4,3.487,1.469,4.444.271,3.666.886,6.712-.266,10.179-.6,1.792-1.459,3.692-3.159,4.521Z" transform="translate(-268.526 -59.812)" fill="#263238"/>
      <path id="Path_29395" data-name="Path 29395" d="M369.136,109.283a17.833,17.833,0,0,0-3.886-.573l2.319,3.61Z" transform="translate(-288.742 -80.518)" fill="#c8523b"/>
      <path id="Path_29396" data-name="Path 29396" d="M369.136,109.283a17.833,17.833,0,0,0-3.886-.573l2.319,3.61Z" transform="translate(-288.742 -80.518)" opacity="0.7"/>
      <path id="Path_29397" data-name="Path 29397" d="M351.322,113.42a14.894,14.894,0,0,0-4.347,2.683,14,14,0,0,1-.845,3.789,11.909,11.909,0,0,0,2.954-1.761,4.711,4.711,0,0,0,2.2,1.275,24.989,24.989,0,0,0,.389-2.965A9.006,9.006,0,0,0,351.322,113.42Z" transform="translate(-279.411 -82.816)" fill="#c8523b"/>
      <path id="Path_29398" data-name="Path 29398" d="M351.322,113.42a14.894,14.894,0,0,0-4.347,2.683,14,14,0,0,1-.845,3.789,11.909,11.909,0,0,0,2.954-1.761,4.711,4.711,0,0,0,2.2,1.275,24.989,24.989,0,0,0,.389-2.965A9.006,9.006,0,0,0,351.322,113.42Z" transform="translate(-279.411 -82.816)" opacity="0.4"/>
      <path id="Path_29399" data-name="Path 29399" d="M349,122.269a11.29,11.29,0,0,0,1.51-1.024,8.308,8.308,0,0,1-1.183-1.475A6.765,6.765,0,0,1,349,122.269Z" transform="translate(-280.812 -85.915)" opacity="0.4"/>
      <path id="Path_29400" data-name="Path 29400" d="M345.32,102.52s4.634,4.142,4.173,5.868a2.124,2.124,0,0,0,1.536,2.734c2.468.963,6.2-1.413,7.721-3.533a2.463,2.463,0,0,0,.681-1.408l-4.3-10.051Z" transform="translate(-279.016 -74.379)" fill="#ffa8a7"/>
      <path id="Path_29401" data-name="Path 29401" d="M354.316,101.878a10.369,10.369,0,0,0-.067-4.608l-8.929,5.821a22.975,22.975,0,0,1,3.743,4.27,7.562,7.562,0,0,0,2.314-1.116A7.649,7.649,0,0,0,354.316,101.878Z" transform="translate(-279.016 -74.935)" fill="#f28f8f"/>
      <path id="Path_29402" data-name="Path 29402" d="M357.12,117.92c.87-.7,1.674-3.19,1.674-3.19a19.876,19.876,0,0,0,6.375-4.9l1.536,2.652c-.609,3.072-5.12,7.839-5.12,7.839l-1.28-2.811a3.241,3.241,0,0,1-3.185.41Z" transform="translate(-284.775 -81.064)" fill="#c8523b"/>
      <path id="Path_29403" data-name="Path 29403" d="M357.12,117.92c.87-.7,1.674-3.19,1.674-3.19a19.876,19.876,0,0,0,6.375-4.9l1.536,2.652c-.609,3.072-5.12,7.839-5.12,7.839l-1.28-2.811a3.241,3.241,0,0,1-3.185.41Z" transform="translate(-284.775 -81.064)" opacity="0.4"/>
      <path id="Path_29404" data-name="Path 29404" d="M359.08,123.772a2.857,2.857,0,0,0,2.186-.64l-.814-1.782A6.451,6.451,0,0,1,359.08,123.772Z" transform="translate(-285.731 -86.686)" opacity="0.4"/>
      <path id="Path_29405" data-name="Path 29405" d="M268.212,96.27l-14.746,8.571h0l-2.345,1.362-20.444,11.879-.1,34.284,37.781,21.817L305.9,152.365l.1-34.284Z" transform="translate(-223.024 -74.447)" fill="#c8523b"/>
      <path id="Path_29406" data-name="Path 29406" d="M306.086,118.081,268.305,96.27,230.77,118.081,268.551,139.9Z" transform="translate(-223.116 -74.447)" fill="#c8523b"/>
      <path id="Path_29407" data-name="Path 29407" d="M304.467,160.687l-.1,34.284,37.535-21.817.1-34.284Z" transform="translate(-259.033 -95.235)" fill="#c8523b"/>
      <path id="Path_29408" data-name="Path 29408" d="M230.677,138.87l-.1,34.284,37.781,21.817.1-34.284Z" transform="translate(-223.024 -95.235)" fill="#c8523b"/>
      <path id="Path_29409" data-name="Path 29409" d="M306.086,118.081,268.305,96.27,230.77,118.081,268.551,139.9Z" transform="translate(-223.116 -74.447)" fill="#fff" opacity="0.4"/>
      <path id="Path_29410" data-name="Path 29410" d="M304.467,160.687l-.1,34.284,37.535-21.817.1-34.284Z" transform="translate(-259.033 -95.235)" fill="#fff" opacity="0.1"/>
      <path id="Path_29411" data-name="Path 29411" d="M230.677,138.87l-.1,34.284,37.781,21.817.1-34.284Z" transform="translate(-223.024 -95.235)" fill="#fff" opacity="0.3"/>
      <path id="Path_29412" data-name="Path 29412" d="M268.311,113.01,261,117.255l37.781,21.817,7.311-4.25Z" transform="translate(-237.868 -82.616)" fill="#fff" opacity="0.3"/>
      <path id="Path_29413" data-name="Path 29413" d="M342.1,168.856,334.79,173.1V159.86l7.311-4.25Z" transform="translate(-273.878 -103.405)" fill="#fff" opacity="0.3"/>
      <path id="Path_29414" data-name="Path 29414" d="M342.1,214.1l-7.311,4.25V209.58l7.311-4.25Z" transform="translate(-273.878 -127.668)" fill="#fff" opacity="0.3"/>
      <path id="Path_29415" data-name="Path 29415" d="M304.921,163.22l-7.726-4.46-7.675,4.46,7.726,4.46Z" transform="translate(-251.786 -104.942)" fill="#fff" opacity="0.4"/>
      <path id="Path_29416" data-name="Path 29416" d="M357.914,161.13l-.189,10.839c-4.608,5.263-12.882,15.826-12.882,15.826-2.2-1.224-4.956.189-6.083-.845a1.075,1.075,0,0,0-1.311.138,1.213,1.213,0,0,0-.271,1.229,1.818,1.818,0,0,0,.85.983,3.707,3.707,0,0,0,1.26.4,6.656,6.656,0,0,1,1.193.241,1.413,1.413,0,0,1,.875.8,19.082,19.082,0,0,1-2.268,4.178l-2.048,1.173a4.492,4.492,0,0,0,2.56,1.306,2.284,2.284,0,0,0,2.048-1.3,2.945,2.945,0,0,0,2.447.282,5.243,5.243,0,0,0,2.048-1.162,11.029,11.029,0,0,0,3.425-5.263L364.2,180.33a9.774,9.774,0,0,0,4.367-6.979l1.224-10.127Z" transform="translate(-274.976 -106.098)" fill="#ffa8a7"/>
      <path id="Path_29417" data-name="Path 29417" d="M380.273,115.76c-4.168,7.117-4.168,19.072-4.413,26.624,5.8,5.274,13.6,2.166,13.6,2.166C392.249,123.2,392.72,116.395,380.273,115.76Z" transform="translate(-293.92 -83.958)" fill="#c8523b"/>
      <path id="Path_29418" data-name="Path 29418" d="M380.273,115.76c-4.168,7.117-4.168,19.072-4.413,26.624,5.8,5.274,13.6,2.166,13.6,2.166C392.249,123.2,392.72,116.395,380.273,115.76Z" transform="translate(-293.92 -83.958)" opacity="0.4"/>
      <path id="Path_29419" data-name="Path 29419" d="M375.962,161.13c-.036,1.2-.067,2.355-.1,3.415,5.8,5.274,13.6,2.166,13.6,2.166.148-1.147.292-2.237.425-3.3C387.861,163.879,380.878,165.1,375.962,161.13Z" transform="translate(-293.92 -106.098)" fill="#fff" opacity="0.2"/>
      <path id="Path_29420" data-name="Path 29420" d="M325.988,75.617a38.3,38.3,0,0,0,.963,14.848,11.776,11.776,0,0,0,1.178,3.072,4.951,4.951,0,0,0,2.412,2.14,7.583,7.583,0,0,0,3.988,0,20.089,20.089,0,0,0,7.02-2.156c2.1-1.275,3.779-3.584,3.584-6.031a4.214,4.214,0,0,0,4.029.22,4.28,4.28,0,0,0,2.207-3.415,2.971,2.971,0,0,0-2.048-3.174,2.939,2.939,0,0,0-2.345.686,8.762,8.762,0,0,0-1.638,1.91,2.878,2.878,0,0,1-.814.87.983.983,0,0,1-1.126,0,1.48,1.48,0,0,1-.317-1.229l.138-3.108a1.239,1.239,0,0,0-.686-1.162,3.036,3.036,0,0,1-1.413-1.587,6.435,6.435,0,0,1-.389-1.869.768.768,0,0,0-1.07-.691A22.713,22.713,0,0,1,325.988,75.617Z" transform="translate(-269.423 -64.008)" fill="#ffa8a7"/>
      <path id="Path_29421" data-name="Path 29421" d="M337,91.05l-2.8,4.71,3.338.63Z" transform="translate(-273.59 -71.9)" fill="#f28f8f"/>
      <path id="Path_29422" data-name="Path 29422" d="M338.681,107.016l3.425-.932a2.094,2.094,0,0,0-2.243-1.116A1.856,1.856,0,0,0,338.681,107.016Z" transform="translate(-275.772 -78.675)" fill="#f28f8f"/>
      <path id="Path_29423" data-name="Path 29423" d="M338.681,107.016l3.425-.932a2.094,2.094,0,0,0-2.243-1.116A1.856,1.856,0,0,0,338.681,107.016Z" transform="translate(-275.772 -78.675)" opacity="0.3"/>
      <path id="Path_29424" data-name="Path 29424" d="M330.787,85.365l-2.447-.814a1.367,1.367,0,0,1,1.449-.584,1.618,1.618,0,0,1,1,1.4Z" transform="translate(-270.73 -68.426)" fill="#263238"/>
      <path id="Path_29425" data-name="Path 29425" d="M344.08,84.424l2.437-.855a1.367,1.367,0,0,0-1.454-.548A1.623,1.623,0,0,0,344.08,84.424Z" transform="translate(-278.411 -67.962)" fill="#263238"/>
      <path id="Path_29426" data-name="Path 29426" d="M342.533,105.53a1.8,1.8,0,0,0-1.4,1.434l2.176-.589A1.833,1.833,0,0,0,342.533,105.53Z" transform="translate(-276.971 -78.966)" fill="#f28f8f"/>
      <path id="Path_29427" data-name="Path 29427" d="M346.5,89.408a4.354,4.354,0,0,1,.548-.307,1.265,1.265,0,0,0-1.331.2,1.3,1.3,0,0,0-.379,1.311,4.311,4.311,0,0,1,2.519-.732,1.454,1.454,0,0,0-1.357-.476Z" transform="translate(-279 -70.897)" fill="#263238"/>
      <path id="Path_29428" data-name="Path 29428" d="M329.572,90.088a4.316,4.316,0,0,0-.543-.307,1.265,1.265,0,0,1,1.331.2,1.29,1.29,0,0,1,.374,1.311,4.337,4.337,0,0,0-2.514-.737A1.459,1.459,0,0,1,329.572,90.088Z" transform="translate(-270.672 -71.229)" fill="#263238"/>
      <path id="Path_29429" data-name="Path 29429" d="M327.57,62.266l1.669-4.378a6.257,6.257,0,0,1,4.89-3.973c4.178-.625,9.037-.215,12.5,1.853a6.144,6.144,0,0,1,2.939,5.12,21.5,21.5,0,0,1-.671,6.487c-1.613-.84-4.772-1.992-4.772-1.992Z" transform="translate(-270.354 -53.647)" fill="#455a64"/>
      <path id="Path_29430" data-name="Path 29430" d="M338.4,73c-2.56,1.29-5.279,2.606-8.161,2.56-3.169-.031-6.205-1.7-9.359-1.408-.763.072-4.68,1.408-5.038-.476-.113-.62,1-1.567,1.229-1.725a18.364,18.364,0,0,1,4.772-2.079C327.091,68.069,333.327,70.772,338.4,73Z" transform="translate(-264.627 -61.278)" fill="#c8523b"/>
      <path id="Path_29431" data-name="Path 29431" d="M338.4,73c-2.56,1.29-5.279,2.606-8.161,2.56-3.169-.031-6.205-1.7-9.359-1.408-.763.072-4.68,1.408-5.038-.476-.113-.62,1-1.567,1.229-1.725a18.364,18.364,0,0,1,4.772-2.079C327.091,68.069,333.327,70.772,338.4,73Z" transform="translate(-264.627 -61.278)" opacity="0.3"/>
      <path id="Path_29432" data-name="Path 29432" d="M329.987,77.743c-1.669-.266-3.282-.809-4.926-1.208a11.95,11.95,0,0,0-5.028-.343,14.719,14.719,0,0,1-2.427.471,2.642,2.642,0,0,1-1.536-.4,1.085,1.085,0,0,0-.261.748c.358,1.884,4.275.548,5.038.476,3.154-.292,6.19,1.377,9.359,1.408a14.049,14.049,0,0,0,5.811-1.459A14.986,14.986,0,0,1,329.987,77.743Z" transform="translate(-264.615 -64.588)" fill="#fff" opacity="0.2"/>
    </g>
  </g>
</svg>
