<svg xmlns="http://www.w3.org/2000/svg" width="172" height="255.953" viewBox="0 0 172 255.953">
  <g id="Mobile_login-pana" data-name="Mobile login-pana" transform="translate(-122.46 -38.719)">
    <g id="freepik--Plant--inject-5" transform="translate(243.128 153.296)">
      <path id="Path_28321" data-name="Path 28321" d="M329.146,289.993c-9.545-6.666-11.708-19.041-11.331-30.168.062-1.853-.142-3.818.741-5.443s2.947-2.743,4.609-1.965c1.378.649,1.977,2.255,2.749,3.583a10.849,10.849,0,0,0,4.356,4.158,4.127,4.127,0,0,0,3.812.346c1.606-.883,1.792-3.089,1.779-4.943q0-5.171-.062-10.33a17.2,17.2,0,0,1,.556-5.486,5.75,5.75,0,0,1,3.6-3.874,3.517,3.517,0,0,1,4.325,2.329,17.776,17.776,0,0,1,.056,2.3,2,2,0,0,0,1.131,1.853c.723.235,1.477-.3,2.033-.846a24.41,24.41,0,0,0,4.405-6.654,33.97,33.97,0,0,1,4.115-6.87,10.013,10.013,0,0,1,6.8-3.8,5.952,5.952,0,0,1,6.129,4.084c.667,2.595-.846,5.245-2.471,7.352a41.314,41.314,0,0,1-8.581,8.186,3.361,3.361,0,0,0-1.44,1.538c-.4,1.236.766,2.471,1.983,2.86a21.775,21.775,0,0,0,4.325.488c1.452.173,3,.8,3.546,2.162.754,1.891-.828,3.868-2.379,5.165a35.45,35.45,0,0,1-10.453,6.036,11.95,11.95,0,0,0-3.886,1.884,3.413,3.413,0,0,0-1.094,3.917,3.476,3.476,0,0,0,3.787,1.452,24.623,24.623,0,0,0,4.053-1.545c2.539-.958,5.814-.785,7.414,1.409a5.844,5.844,0,0,1,.618,5.171,13.486,13.486,0,0,1-2.8,4.566,35.6,35.6,0,0,1-15.235,10.645c-5.888,2.039-11.343,2.595-17.194.451" transform="translate(-317.775 -224.174)" fill="#57b8ce"/>
      <path id="Path_28322" data-name="Path 28322" d="M372.994,226.66s-.056.062-.179.173l-.55.488c-.482.432-1.192,1.063-2.088,1.9a68.953,68.953,0,0,0-7.055,7.618c-1.378,1.711-2.8,3.651-4.325,5.758s-3.089,4.38-4.646,6.8a83.807,83.807,0,0,0-4.553,7.9c-.717,1.415-1.347,2.891-2,4.4l-1.915,4.6a169.811,169.811,0,0,0-6.586,17.774,82.787,82.787,0,0,0-3.089,15.155,60.263,60.263,0,0,0-.173,10.435c.1,1.236.192,2.181.278,2.823.037.309.062.556.087.735v.253a1.293,1.293,0,0,1-.056-.247c-.031-.179-.068-.42-.117-.729-.111-.618-.229-1.594-.34-2.83a57.416,57.416,0,0,1,.062-10.466,81.437,81.437,0,0,1,3.021-15.223,165.825,165.825,0,0,1,6.567-17.818l1.965-4.584c.649-1.5,1.285-2.99,2.008-4.411a82.734,82.734,0,0,1,4.59-7.914c1.582-2.471,3.176-4.708,4.677-6.8s2.953-4.04,4.325-5.746a65.675,65.675,0,0,1,7.148-7.562c.914-.822,1.643-1.439,2.138-1.853l.575-.463a1.35,1.35,0,0,1,.229-.161Z" transform="translate(-324.542 -225.124)" fill="#263238"/>
      <path id="Path_28323" data-name="Path 28323" d="M356.334,263.43a3.826,3.826,0,0,1-.179-.785c-.1-.513-.21-1.236-.34-2.175-.266-1.853-.537-4.393-.828-7.2s-.618-5.356-.89-7.191c-.142-.914-.266-1.65-.352-2.162a3.336,3.336,0,0,1-.105-.8,3.415,3.415,0,0,1,.229.772c.136.507.29,1.236.463,2.156.352,1.853.7,4.374.989,7.191s.537,5.288.729,7.21c.093.865.173,1.6.235,2.187A3.425,3.425,0,0,1,356.334,263.43Z" transform="translate(-331.482 -231.411)" fill="#263238"/>
      <path id="Path_28324" data-name="Path 28324" d="M381.827,268.794a4.946,4.946,0,0,1-.914.111c-.618.056-1.5.13-2.582.253-2.175.235-5.165.667-8.445,1.285s-6.228,1.316-8.347,1.853c-1.056.272-1.909.519-2.471.686a4.516,4.516,0,0,1-.927.222,5.38,5.38,0,0,1,.89-.352c.581-.2,1.421-.488,2.471-.791,2.107-.618,5.054-1.353,8.347-1.983a84.131,84.131,0,0,1,8.433-1.174c1.094-.093,1.977-.13,2.595-.142A4.75,4.75,0,0,1,381.827,268.794Z" transform="translate(-333.202 -241.211)" fill="#263238"/>
      <path id="Path_28325" data-name="Path 28325" d="M333.9,299.955a1.287,1.287,0,0,1-.161-.29l-.408-.859c-.352-.748-.828-1.853-1.4-3.206-1.149-2.718-2.613-6.524-4.17-10.75s-2.99-8.032-4.078-10.781c-.531-1.334-.97-2.428-1.3-3.243l-.346-.883a1.191,1.191,0,0,1-.1-.321,1.287,1.287,0,0,1,.161.29l.408.859c.346.748.828,1.853,1.4,3.207,1.149,2.718,2.613,6.524,4.17,10.75s2.99,8.032,4.078,10.781c.531,1.335.97,2.428,1.291,3.243.142.352.26.618.352.883A1.2,1.2,0,0,1,333.9,299.955Z" transform="translate(-319.371 -241.543)" fill="#263238"/>
      <path id="Path_28326" data-name="Path 28326" d="M372.854,302.25a1.309,1.309,0,0,1-.315.13l-.914.309-3.379,1.094c-2.854.927-6.8,2.249-11.121,3.707s-8.285,2.755-11.158,3.62c-1.433.439-2.6.772-3.41.995l-.933.241a1.6,1.6,0,0,1-.334.068,1.31,1.31,0,0,1,.315-.13l.914-.309,3.379-1.094c2.854-.927,6.8-2.249,11.121-3.707s8.279-2.755,11.151-3.62c1.439-.439,2.6-.772,3.417-.995l.933-.241A1.6,1.6,0,0,1,372.854,302.25Z" transform="translate(-326.762 -254.014)" fill="#263238"/>
    </g>
    <g id="freepik--Padlock--inject-5" transform="translate(240.129 38.719)">
      <path id="Path_28327" data-name="Path 28327" d="M349.136,51.669l-3.182,1.137-1.365-4.158a13.956,13.956,0,0,0-17.849-9.15c-7.346,2.589-11.257,11-8.748,18.664l1.365,4.158-3.194,1.143a5.079,5.079,0,0,0-2.978,6.351l8.853,27.054a4.776,4.776,0,0,0,6.092,3.157L361.1,88.231a5.1,5.1,0,0,0,3.009-6.413l-8.859-27.054a4.763,4.763,0,0,0-6.116-3.1ZM324,55.994A8.149,8.149,0,0,1,328.8,45.769a7.636,7.636,0,0,1,9.78,5.01l1.359,4.158-14.574,5.214ZM342.538,80l2.261,6.907a.562.562,0,0,1-.352.692l-3.169,1.131a.507.507,0,0,1-.618-.334l-2.28-6.876a6.178,6.178,0,0,1-5.56-4.325,6.493,6.493,0,0,1,3.824-8.143,6.086,6.086,0,0,1,7.791,3.991,6.6,6.6,0,0,1-1.891,6.975Z" transform="translate(-312.921 -38.719)" fill="#57b8ce"/>
      <path id="Path_28328" data-name="Path 28328" d="M349.707,61.4c0,.086-5.9,2.3-13.24,4.943s-13.326,4.757-13.357,4.7,5.9-2.3,13.246-4.943S349.676,61.318,349.707,61.4Z" transform="translate(-316.815 -47.386)" fill="#263238"/>
      <path id="Path_28329" data-name="Path 28329" d="M362.427,63.24a1.081,1.081,0,0,1,.068.167c.049.124.105.284.179.482.161.451.383,1.075.661,1.853l2.372,6.907c.989,2.928,2.169,6.4,3.478,10.256.618,1.934,1.347,3.948,2.026,6.067a9.267,9.267,0,0,1,.463,3.392,4.553,4.553,0,0,1-.5,1.711,4.72,4.72,0,0,1-1.168,1.378,11.121,11.121,0,0,1-3.138,1.6L363.687,98.2l-6.024,2.156-10.2,3.633-6.889,2.422-1.853.618-.494.161a.525.525,0,0,1-.167.043.324.324,0,0,0,.154-.074l.482-.192,1.853-.7,6.852-2.521,10.182-3.707,6.011-2.175,3.182-1.149a10.583,10.583,0,0,0,3.046-1.551,4.393,4.393,0,0,0,1.087-1.279,4.065,4.065,0,0,0,.463-1.588,8.889,8.889,0,0,0-.445-3.268c-.667-2.1-1.372-4.133-2.008-6.067-1.285-3.861-2.471-7.346-3.41-10.274s-1.73-5.282-2.274-6.938c-.259-.809-.457-1.439-.618-1.9l-.148-.494A.575.575,0,0,1,362.427,63.24Z" transform="translate(-322.529 -48.091)" fill="#263238"/>
      <path id="Path_28330" data-name="Path 28330" d="M341.2,48.714s-.327-.161-.933-.408a8.229,8.229,0,0,0-2.7-.544,9.267,9.267,0,0,0-3.991.754,8.9,8.9,0,0,0-3.775,3.157,8.352,8.352,0,0,0-1.452,4.689,14.451,14.451,0,0,0,.618,4.047c.321,1.124.655,2.02.877,2.644a6.9,6.9,0,0,1,.321.976,5.427,5.427,0,0,1-.439-.933c-.253-.618-.618-1.5-.976-2.626a14.048,14.048,0,0,1-.711-4.108,8.47,8.47,0,0,1,1.483-4.868,9.038,9.038,0,0,1,3.923-3.25,9.193,9.193,0,0,1,4.108-.7,7.778,7.778,0,0,1,2.737.649,5.1,5.1,0,0,1,.667.371.921.921,0,0,1,.241.154Z" transform="translate(-318.699 -42.085)" fill="#263238"/>
      <path id="Path_28331" data-name="Path 28331" d="M347.51,88.1a2.133,2.133,0,0,1,.309-.154,6.134,6.134,0,0,1,.958-.34,6.851,6.851,0,0,1,1.6-.272,5.424,5.424,0,0,1,2.169.327,6.7,6.7,0,0,1,3.75,4.325,6.227,6.227,0,0,1,0,3.546,8.031,8.031,0,0,1-1.989,3.33l.037-.167c.822,2.255,1.718,4.7,2.644,7.253l.056.154-.154.056-1.415.47-3.089,1.032-.154.049-.049-.154c-.846-2.558-1.773-4.942-2.471-7.284l.136.105a6.178,6.178,0,0,1-3.311-1.3,7.475,7.475,0,0,1-2.07-2.471,5.647,5.647,0,0,1-.655-2.78,6.71,6.71,0,0,1,2.589-5.1,3.929,3.929,0,0,1,1.069-.618,11.915,11.915,0,0,0-1.013.673,6.568,6.568,0,0,0-1.909,2.712,5.844,5.844,0,0,0,.191,4.986,7.254,7.254,0,0,0,2.02,2.372,5.882,5.882,0,0,0,3.157,1.236h.105l.031.093c.68,2.3,1.612,4.7,2.471,7.272l-.2-.1,3.089-1.032,1.409-.476-.1.21c-.921-2.552-1.81-5-2.626-7.259V98.7l.074-.074a7.87,7.87,0,0,0,1.952-3.194,5.975,5.975,0,0,0,0-3.392,6.532,6.532,0,0,0-3.571-4.207,5.307,5.307,0,0,0-2.094-.352,7.08,7.08,0,0,0-1.582.216C347.948,87.922,347.516,88.132,347.51,88.1Z" transform="translate(-324.725 -57.297)" fill="#263238"/>
    </g>
    <g id="freepik--Device--inject-5" transform="translate(168.728 66.033)">
      <path id="Path_28332" data-name="Path 28332" d="M272.439,264.808l-61.713-.284a13.45,13.45,0,0,1-13.376-13.505L198,96.312A13.437,13.437,0,0,1,211.51,82.93l61.707.284a13.45,13.45,0,0,1,13.382,13.5l-.655,154.7A13.45,13.45,0,0,1,272.439,264.808Z" transform="translate(-197.35 -82.93)" fill="#455a64"/>
      <path id="Path_28333" data-name="Path 28333" d="M275.666,91.87H263.705a2.972,2.972,0,0,0-2.916,3.027v2.169a2.965,2.965,0,0,1-2.916,3.021l-23.316-.105a2.978,2.978,0,0,1-2.9-3.052V94.761a2.978,2.978,0,0,0-2.891-3.052h-4.207l-10.472-.049a9.415,9.415,0,0,0-9.471,9.323L204,251.988a9.409,9.409,0,0,0,9.366,9.453l61.584.284a9.415,9.415,0,0,0,9.459-9.372l.618-151.006a9.422,9.422,0,0,0-9.36-9.477Z" transform="translate(-199.891 -86.266)" fill="#fff"/>
      <path id="Path_28334" data-name="Path 28334" d="M277.735,325.365l-45.792-.2c-.476,0-.859-.519-.853-1.149l.049-11.979c0-.618.389-1.149.865-1.149l45.792.21a1.038,1.038,0,0,1,.853,1.155l-.043,11.967C278.606,324.859,278.211,325.372,277.735,325.365Z" transform="translate(-210.245 -170.053)" fill="#57b8ce"/>
      <text id="SING_UP" data-name="SING UP" transform="translate(34.128 149.581)" fill="#e8e8e3" font-size="5" font-family="Montserrat"><tspan x="0" y="0">SING UP</tspan></text>
      <rect id="Rectangle_17614" data-name="Rectangle 17614" width="15.89" height="2.916" transform="translate(14.941 49.922) rotate(0.26)" fill="#57b8ce"/>
      <rect id="Rectangle_17615" data-name="Rectangle 17615" width="15.89" height="2.916" transform="translate(14.941 49.922) rotate(0.26)" opacity="0.1"/>
      <path id="Path_28335" data-name="Path 28335" d="M283.872,186.1a1.421,1.421,0,0,0,.365-.087.976.976,0,0,0,.618-.834v-8.2a1.2,1.2,0,0,0-.173-.809.927.927,0,0,0-.735-.377h-9.891l-51.674-.192a.822.822,0,0,0-.68.34,1.18,1.18,0,0,0-.161.809q0,.927,0,1.853v5.56a4.876,4.876,0,0,0,0,.865.834.834,0,0,0,.482.556.963.963,0,0,0,.383.068h3.145l13.722.074,23.23.142,15.662.124,4.257.049H262.5l-23.23-.074L225.55,185.9h-3.145a1.236,1.236,0,0,1-.507-.086,1.162,1.162,0,0,1-.667-.772,1.748,1.748,0,0,1-.037-.494V176.68a3.461,3.461,0,0,1,0-.494,1.05,1.05,0,0,1,.2-.5,1.137,1.137,0,0,1,.939-.476l51.674.284,8.927.062h.964a1.056,1.056,0,0,1,.865.451,1.316,1.316,0,0,1,.2.908v3.948c0,1.853-.043,3.274-.056,4.263a1,1,0,0,1-.649.859.742.742,0,0,1-.389.111Z" transform="translate(-206.46 -118.198)" fill="#e0e0e0"/>
      <rect id="Rectangle_17616" data-name="Rectangle 17616" width="29.062" height="2.725" transform="translate(19.715 60.496)" fill="#57b8ce"/>
      <rect id="Rectangle_17617" data-name="Rectangle 17617" width="29.062" height="2.725" transform="translate(19.715 60.496)" fill="#fff" opacity="0.2"/>
      <rect id="Rectangle_17618" data-name="Rectangle 17618" width="15.89" height="2.916" transform="translate(14.833 76.524) rotate(0.26)" fill="#57b8ce"/>
      <rect id="Rectangle_17619" data-name="Rectangle 17619" width="15.89" height="2.916" transform="translate(14.833 76.524) rotate(0.26)" opacity="0.1"/>
      <path id="Path_28336" data-name="Path 28336" d="M283.382,229.2a3.189,3.189,0,0,0,.371-.068,1.266,1.266,0,0,0,.778-.7,1.73,1.73,0,0,0,.111-.785V220.27a1.328,1.328,0,0,0-.179-.815,1.2,1.2,0,0,0-.673-.525,3.786,3.786,0,0,0-.933-.049h-8.89l-51.495-.192a1.143,1.143,0,0,0-1.131.995V227.1a3.548,3.548,0,0,0,.037.865,1.174,1.174,0,0,0,.451.618,1.285,1.285,0,0,0,.766.2h2.644l13.672.068,23.149.142,15.606.124,4.244.049h-19.85l-23.162-.025-13.672-.049h-2.687a1.551,1.551,0,0,1-.945-.253,1.483,1.483,0,0,1-.581-.809,3.893,3.893,0,0,1-.049-.951q0-.927,0-1.853v-5.56a1.464,1.464,0,0,1,1.452-1.279l51.495.284,8.89.068a3.826,3.826,0,0,1,.988.068,1.365,1.365,0,0,1,.76.618,1.489,1.489,0,0,1,.2.9v7.4a1.724,1.724,0,0,1-.13.809,1.31,1.31,0,0,1-.834.7,1.161,1.161,0,0,1-.4-.037Z" transform="translate(-206.371 -134.697)" fill="#e0e0e0"/>
      <rect id="Rectangle_17620" data-name="Rectangle 17620" width="15.89" height="2.916" transform="translate(14.713 104.282) rotate(0.26)" fill="#57b8ce"/>
      <rect id="Rectangle_17621" data-name="Rectangle 17621" width="15.89" height="2.916" transform="translate(14.713 104.282) rotate(0.26)" opacity="0.1"/>
      <path id="Path_28337" data-name="Path 28337" d="M283.216,274.058a2.959,2.959,0,0,0,.371-.068,1.273,1.273,0,0,0,.778-.7,1.742,1.742,0,0,0,.111-.785c0-.3,0-.618,0-.982v-6.394a1.328,1.328,0,0,0-.179-.815,1.236,1.236,0,0,0-.673-.519,3.776,3.776,0,0,0-.933-.056H273.8l-51.495-.191a1.143,1.143,0,0,0-1.131.995q0,.927,0,1.853v5.56a3.5,3.5,0,0,0,.037.859,1.131,1.131,0,0,0,.451.618,1.236,1.236,0,0,0,.766.2h2.687l13.672.074,23.149.142,15.606.124,4.244.049h-19.85l-23.149-.068-13.672-.056h-2.687a1.514,1.514,0,0,1-.945-.253,1.483,1.483,0,0,1-.581-.809,3.893,3.893,0,0,1-.049-.951v-7.445a1.458,1.458,0,0,1,1.446-1.279l51.495.284,8.89.068a3.825,3.825,0,0,1,.989.068,1.365,1.365,0,0,1,.76.618,1.489,1.489,0,0,1,.2.9v7.4a1.693,1.693,0,0,1-.13.809,1.31,1.31,0,0,1-.834.7A.976.976,0,0,1,283.216,274.058Z" transform="translate(-206.329 -151.811)" fill="#e0e0e0"/>
      <rect id="Rectangle_17622" data-name="Rectangle 17622" width="29.062" height="2.725" transform="translate(19.094 87.738) rotate(0.26)" fill="#57b8ce"/>
      <rect id="Rectangle_17623" data-name="Rectangle 17623" width="29.062" height="2.725" transform="translate(19.094 87.738) rotate(0.26)" fill="#fff" opacity="0.2"/>
      <path id="Path_28338" data-name="Path 28338" d="M230.937,271.8a1.273,1.273,0,1,1-1.236-1.365A1.31,1.31,0,0,1,230.937,271.8Z" transform="translate(-209.215 -154.59)" fill="#57b8ce"/>
      <path id="Path_28339" data-name="Path 28339" d="M237.307,271.828a1.273,1.273,0,1,1-.608-1.176,1.273,1.273,0,0,1,.608,1.176Z" transform="translate(-211.649 -154.604)" fill="#57b8ce"/>
      <path id="Path_28340" data-name="Path 28340" d="M243.687,271.855a1.273,1.273,0,1,1-1.236-1.365A1.316,1.316,0,0,1,243.687,271.855Z" transform="translate(-214.088 -154.613)" fill="#57b8ce"/>
      <path id="Path_28341" data-name="Path 28341" d="M250.057,271.885a1.273,1.273,0,1,1-1.236-1.365A1.316,1.316,0,0,1,250.057,271.885Z" transform="translate(-216.522 -154.624)" fill="#57b8ce"/>
      <path id="Path_28342" data-name="Path 28342" d="M256.427,271.909a1.273,1.273,0,1,1-1.236-1.359A1.316,1.316,0,0,1,256.427,271.909Z" transform="translate(-218.957 -154.635)" fill="#57b8ce"/>
      <path id="Path_28343" data-name="Path 28343" d="M262.807,271.939a1.273,1.273,0,1,1-1.266-1.359A1.316,1.316,0,0,1,262.807,271.939Z" transform="translate(-221.395 -154.647)" fill="#57b8ce"/>
      <path id="Path_28344" data-name="Path 28344" d="M269.177,271.968a1.273,1.273,0,1,1-.608-1.176A1.273,1.273,0,0,1,269.177,271.968Z" transform="translate(-223.83 -154.657)" fill="#57b8ce"/>
      <path id="Path_28345" data-name="Path 28345" d="M275.547,272a1.273,1.273,0,1,1-1.266-1.359A1.316,1.316,0,0,1,275.547,272Z" transform="translate(-226.264 -154.67)" fill="#57b8ce"/>
      <path id="Path_28346" data-name="Path 28346" d="M281.917,272.029a1.273,1.273,0,1,1-1.236-1.359A1.316,1.316,0,0,1,281.917,272.029Z" transform="translate(-228.699 -154.681)" fill="#57b8ce"/>
      <g id="Group_42534" data-name="Group 42534" transform="translate(19.18 115.84)" opacity="0.2">
        <path id="Path_28347" data-name="Path 28347" d="M230.937,271.8a1.273,1.273,0,1,1-1.236-1.365A1.31,1.31,0,0,1,230.937,271.8Z" transform="translate(-228.395 -270.429)" fill="#fff"/>
        <path id="Path_28348" data-name="Path 28348" d="M237.307,271.828a1.273,1.273,0,1,1-.608-1.176,1.273,1.273,0,0,1,.608,1.176Z" transform="translate(-230.83 -270.444)" fill="#fff"/>
        <path id="Path_28349" data-name="Path 28349" d="M243.687,271.855a1.273,1.273,0,1,1-1.236-1.365A1.316,1.316,0,0,1,243.687,271.855Z" transform="translate(-233.268 -270.452)" fill="#fff"/>
        <path id="Path_28350" data-name="Path 28350" d="M250.057,271.885a1.273,1.273,0,1,1-1.236-1.365A1.316,1.316,0,0,1,250.057,271.885Z" transform="translate(-235.703 -270.464)" fill="#fff"/>
        <path id="Path_28351" data-name="Path 28351" d="M256.427,271.909a1.273,1.273,0,1,1-1.236-1.359A1.316,1.316,0,0,1,256.427,271.909Z" transform="translate(-238.137 -270.475)" fill="#fff"/>
        <path id="Path_28352" data-name="Path 28352" d="M262.807,271.939a1.273,1.273,0,1,1-1.266-1.359A1.316,1.316,0,0,1,262.807,271.939Z" transform="translate(-240.576 -270.487)" fill="#fff"/>
        <path id="Path_28353" data-name="Path 28353" d="M269.177,271.968a1.273,1.273,0,1,1-.608-1.176A1.273,1.273,0,0,1,269.177,271.968Z" transform="translate(-243.01 -270.497)" fill="#fff"/>
        <path id="Path_28354" data-name="Path 28354" d="M275.547,272a1.273,1.273,0,1,1-1.266-1.359A1.316,1.316,0,0,1,275.547,272Z" transform="translate(-245.445 -270.51)" fill="#fff"/>
        <path id="Path_28355" data-name="Path 28355" d="M281.917,272.029a1.273,1.273,0,1,1-1.236-1.359A1.316,1.316,0,0,1,281.917,272.029Z" transform="translate(-247.879 -270.521)" fill="#fff"/>
      </g>
      <path id="Path_28356" data-name="Path 28356" d="M271.386,125.674a2.391,2.391,0,0,0,1.427-2.218,2.249,2.249,0,1,0-4.491,0,2.4,2.4,0,0,0,1.433,2.243c-3.46.519-3.305,4.275-3.305,4.275l8.18.037S274.821,126.186,271.386,125.674Z" transform="translate(-223.758 -97.514)" fill="#57b8ce"/>
      <path id="Path_28357" data-name="Path 28357" d="M271.386,125.674a2.391,2.391,0,0,0,1.427-2.218,2.249,2.249,0,1,0-4.491,0,2.4,2.4,0,0,0,1.433,2.243c-3.46.519-3.305,4.275-3.305,4.275l8.18.037S274.821,126.186,271.386,125.674Z" transform="translate(-223.758 -97.514)" opacity="0.1"/>
      <rect id="Rectangle_17624" data-name="Rectangle 17624" width="29.155" height="3.484" transform="translate(31.765 34.788) rotate(0.26)" fill="#57b8ce"/>
      <rect id="Rectangle_17625" data-name="Rectangle 17625" width="29.155" height="3.484" transform="translate(31.765 34.788) rotate(0.26)" fill="#fff" opacity="0.2"/>
    </g>
    <g id="freepik--Character--inject-5" transform="translate(122.46 122.683)">
      <path id="Path_28358" data-name="Path 28358" d="M165.241,445.03v-5.282l-9.471-.068-.08,7.988.587.043c2.613.167,13.3.414,15.05-.13C173.279,446.976,165.241,445.03,165.241,445.03Z" transform="translate(-135.16 -275.925)" fill="#57b8ce"/>
      <path id="Path_28359" data-name="Path 28359" d="M171.568,451.571c0,.086-3.546.161-7.914.161s-7.914-.074-7.914-.161,3.546-.161,7.914-.161S171.568,451.484,171.568,451.571Z" transform="translate(-135.179 -280.408)" fill="#263238"/>
      <path id="Path_28360" data-name="Path 28360" d="M171.4,449.477c-.08-.043,0-.321.192-.618s.451-.42.513-.358-.068.3-.253.55S171.481,449.52,171.4,449.477Z" transform="translate(-141.153 -279.291)" fill="#263238"/>
      <path id="Path_28361" data-name="Path 28361" d="M172.374,449.934c-.086,0-.043-.346.142-.673s.432-.525.5-.476-.043.327-.216.618S172.454,449.965,172.374,449.934Z" transform="translate(-141.52 -279.402)" fill="#263238"/>
      <path id="Path_28362" data-name="Path 28362" d="M158.67,450.483c-.037,0-.179-.111-.383-.346a6.125,6.125,0,0,0-.828-.828,2.181,2.181,0,0,0-1.026-.451c-.29-.037-.476,0-.494-.037s.161-.167.5-.192a1.909,1.909,0,0,1,1.236.42,3.485,3.485,0,0,1,.816.958C158.633,450.279,158.707,450.458,158.67,450.483Z" transform="translate(-135.255 -279.346)" fill="#263238"/>
      <path id="Path_28363" data-name="Path 28363" d="M170.9,448.46c.043.074-.117.26-.389.358s-.513.062-.525,0,.179-.192.414-.278S170.855,448.386,170.9,448.46Z" transform="translate(-140.625 -279.269)" fill="#263238"/>
      <path id="Path_28364" data-name="Path 28364" d="M170.527,447.554c0,.093-.247.167-.568.173s-.575-.068-.568-.154.259-.167.568-.173S170.514,447.468,170.527,447.554Z" transform="translate(-140.396 -278.876)" fill="#263238"/>
      <path id="Path_28365" data-name="Path 28365" d="M202.991,445.03v-5.282l-9.471-.068-.08,7.908.587.043c2.613.167,13.3.494,15.05-.049C211.029,446.976,202.991,445.03,202.991,445.03Z" transform="translate(-149.588 -275.925)" fill="#57b8ce"/>
      <path id="Path_28366" data-name="Path 28366" d="M209.322,451.591c0,.086-3.54.161-7.914.161s-7.908-.074-7.908-.161,3.54-.161,7.908-.161S209.322,451.5,209.322,451.591Z" transform="translate(-149.611 -280.416)" fill="#263238"/>
      <path id="Path_28367" data-name="Path 28367" d="M209.152,449.477c-.074-.043,0-.321.192-.618s.451-.42.513-.358-.068.3-.253.55S209.233,449.52,209.152,449.477Z" transform="translate(-155.582 -279.291)" fill="#263238"/>
      <path id="Path_28368" data-name="Path 28368" d="M210.125,449.934c-.08,0-.043-.346.148-.673s.432-.525.5-.476-.049.327-.222.618S210.212,449.965,210.125,449.934Z" transform="translate(-155.949 -279.402)" fill="#263238"/>
      <path id="Path_28369" data-name="Path 28369" d="M196.42,450.483c-.037,0-.173-.111-.383-.346a6.123,6.123,0,0,0-.828-.828,2.181,2.181,0,0,0-1.026-.451c-.284-.037-.476,0-.494-.037s.161-.167.5-.192a1.909,1.909,0,0,1,1.236.42,3.379,3.379,0,0,1,.815.958C196.383,450.279,196.457,450.458,196.42,450.483Z" transform="translate(-149.682 -279.346)" fill="#263238"/>
      <path id="Path_28370" data-name="Path 28370" d="M208.654,448.46c.043.074-.117.26-.389.358s-.513.062-.525,0,.179-.192.414-.278S208.6,448.386,208.654,448.46Z" transform="translate(-155.053 -279.269)" fill="#263238"/>
      <path id="Path_28371" data-name="Path 28371" d="M208.3,447.554c0,.093-.247.167-.568.173s-.568-.068-.562-.154.253-.167.562-.173S208.3,447.468,208.3,447.554Z" transform="translate(-154.835 -278.876)" fill="#263238"/>
      <path id="Path_28372" data-name="Path 28372" d="M210.758,189.288c-.247-.253-.859-.13-.859-.13a3.162,3.162,0,0,0,0-1.075c-.111-.346-.89-.278-.89-.278a3.591,3.591,0,0,1,0-.877.315.315,0,0,0-.179-.315,2.854,2.854,0,0,0-1.161-.21c-.476-.34,1.452-3.04,2.169-3.9s.587-1.538-.049-1.538c-.439,0-2.687,2.595-3.379,3.466s-2.527,3.293-2.589,1.359-.84-3.392-1.328-3.639-1.007.334-.741.871a6.914,6.914,0,0,1,.432,1.9,4.548,4.548,0,0,1-.068,1.557,18.672,18.672,0,0,1-.834,2.793h-.049S187.75,202.2,186.774,203.121c-.871.828-18.392-.982-21.908-1.353a23.534,23.534,0,0,0-3.608-.247c-1.526.068-1.8.284-3.318.3a75.138,75.138,0,0,0-11.454,1.007,9.5,9.5,0,0,0-7.451,6.462c-3.54,11.059-11.559,37.236-12.974,51.94a62.4,62.4,0,0,0-2.891,5.974c-.995,2.706-.754,2.8-.42,2.861.9.167,1.928-4.689,2.311-3.515s-1.946,5.789-1,5.925c1.236.173,2.218-4.943,2.335-5.35s.729-.278.618.105c-.179.544-1.915,6.308-.7,6.493.667.1.741-1.118.741-1.118s1.236-5.517,1.8-5.406-.037,3.367-.321,4.454.111,1.637.692,1.372c.4-.185,1.341-3.491,1.6-4.566s.908-4.053,1.779-2.329,2.193,2.725,2.737,2.749a.618.618,0,0,0,.3-1.106,7,7,0,0,1-1.192-1.545,4.553,4.553,0,0,1-.618-1.446,15.676,15.676,0,0,1-.432-3.126l-.1-.618c1.384-6.852,5.369-26.961,11.121-39.806l2.36,4.856,1.026,3.6-6.289,15.526,26.825-.352-4-15.408,4.862-16.063h0c5.258.117,18.757.315,21.006-.7,2.83-1.236,17.466-19.721,17.466-19.721h0a33.8,33.8,0,0,0,2.737-2.372S211.3,189.844,210.758,189.288Z" transform="translate(-122.46 -177.046)" fill="#ffbe9d"/>
      <path id="Path_28373" data-name="Path 28373" d="M146.223,245.672C147,243.015,151,229.88,151,229.88s1.965,10.707,1.446,12a22.855,22.855,0,0,1-1.687,3.188c-4.535,6.9-3.942,10.355-3.942,10.355l27.4-.834c.062-3.83-2.206-12.739-2.675-14.16s1.094-6.073,1.094-6.073,3.089-3.145,2.978-4.763a26.183,26.183,0,0,0-.538-4.325l16.681.618-.525-11.306-23.959-2.4c-.834,2.354-8.378,1.2-8.378,1.2-8.143.272-8.649,1.767-12.035,4.4S137.87,243,137.87,243Z" transform="translate(-128.35 -188.978)" fill="#57b8ce"/>
      <path id="Path_28374" data-name="Path 28374" d="M171.568,261.452a5.765,5.765,0,0,1-1.439.074c-.9,0-2.125-.062-3.478-.2s-2.576-.327-3.447-.5a5.946,5.946,0,0,1-1.4-.358,7.721,7.721,0,0,1,1.439.136c.877.111,2.094.266,3.441.4s2.57.229,3.454.29A7.619,7.619,0,0,1,171.568,261.452Z" transform="translate(-137.495 -207.434)" fill="#263238"/>
      <path id="Path_28375" data-name="Path 28375" d="M174.08,258.29a6.329,6.329,0,0,1-1.5.513,27.468,27.468,0,0,1-7.556.9,6.233,6.233,0,0,1-1.569-.148,10.564,10.564,0,0,1,1.569-.08c.97-.031,2.3-.1,3.775-.272s2.78-.42,3.707-.618A10.249,10.249,0,0,1,174.08,258.29Z" transform="translate(-138.13 -206.6)" fill="#263238"/>
      <path id="Path_28376" data-name="Path 28376" d="M194.156,241.47a6.432,6.432,0,0,1-.192,1.4c-.161.859-.408,2.033-.723,3.318s-.618,2.471-.89,3.274a6.176,6.176,0,0,1-.482,1.328,6.29,6.29,0,0,1,.259-1.384c.235-.964.5-2.076.8-3.293s.581-2.329.816-3.293a5.894,5.894,0,0,1,.414-1.347Z" transform="translate(-148.988 -200.172)" fill="#263238"/>
      <path id="Path_28377" data-name="Path 28377" d="M146.689,262.43a28.719,28.719,0,0,1-4.22-.982,29.322,29.322,0,0,1-4.139-1.3,29.7,29.7,0,0,1,4.22.982,29,29,0,0,1,4.139,1.3Z" transform="translate(-128.525 -207.311)" fill="#263238"/>
      <path id="Path_28378" data-name="Path 28378" d="M193.851,225.531a2.077,2.077,0,0,1-.7,0,7.323,7.323,0,0,1-1.884-.451,7.741,7.741,0,0,1-4.473-4.393,7.982,7.982,0,0,1-.55-3.478,5.406,5.406,0,0,1,.846-2.755,2.861,2.861,0,0,1,1.563-1.155,1.892,1.892,0,0,1,.525-.068h.185a2,2,0,0,0-.673.167,2.811,2.811,0,0,0-1.415,1.155,7.052,7.052,0,0,0-.179,5.993A7.55,7.55,0,0,0,189,223.337a8.111,8.111,0,0,0,2.342,1.507,11.9,11.9,0,0,0,2.508.686Z" transform="translate(-146.829 -189.379)" fill="#263238"/>
      <path id="Path_28379" data-name="Path 28379" d="M221.775,226.956a51.479,51.479,0,0,1-.148-5.7,50.969,50.969,0,0,1,.173-5.69,51.317,51.317,0,0,1,.148,5.69A49.431,49.431,0,0,1,221.775,226.956Z" transform="translate(-160.352 -190.273)" fill="#263238"/>
      <path id="Path_28380" data-name="Path 28380" d="M179.5,199.912c.068-1.378.21-2.935.21-2.935a4.127,4.127,0,0,0,3.614-3.9c.2-3.522,0-11.646,0-11.646l-6.178-3.163-6.858,5.394,1.056,17.608,6.289.4A1.816,1.816,0,0,0,179.5,199.912Z" transform="translate(-140.74 -176.018)" fill="#ffbe9d"/>
      <path id="Path_28381" data-name="Path 28381" d="M185.319,196.487a.286.286,0,0,1-.056.148.457.457,0,0,1-.389.173c-.4,0-.778-.457-.914-.989a1.613,1.613,0,0,1,0-.785.68.68,0,0,1,.371-.531.34.34,0,0,1,.259,0,.315.315,0,0,1,.142.142.174.174,0,0,1,0,.167.18.18,0,0,0-.062-.124.222.222,0,0,0-.29-.062.525.525,0,0,0-.253.439,1.582,1.582,0,0,0,0,.7c.124.482.457.871.754.908a.426.426,0,0,0,.327-.093C185.282,196.531,185.307,196.481,185.319,196.487Z" transform="translate(-145.946 -182.213)" fill="#eb996e"/>
      <path id="Path_28382" data-name="Path 28382" d="M175.452,178.137c-.476-1.619-2.2-2.422-3.769-2.867a11.873,11.873,0,0,0-7.309-.117c-2.335.859-5.14,2.366-5.14,4.943-1.378-.111-2.169,1.094-2.712,2.589a9.7,9.7,0,0,0-.618,2.842h0c-.173,3.373-1.118,8.032-3.305,10.5-1.236,1.378-2.947,2.329-3.651,4.047-.618,1.489-.3,3.256-.871,4.763-.513,1.328-1.643,2.274-2.471,3.429a9.193,9.193,0,0,0-.587,8.89,11.257,11.257,0,0,0,6.728,5.807,15.736,15.736,0,0,0,8.866.086,14.827,14.827,0,0,0,5.943-2.947A9.922,9.922,0,0,0,170,214.4c.439-2.521-.266-5.085-.791-7.593-1.643-7.927-1.174-8.34.9-15.7.049-.13.074-.266.111-.4s.056-.192.08-.29h0a4.658,4.658,0,0,0,.093-.883,1.7,1.7,0,0,1-1.785-.383,1.853,1.853,0,0,1-.42-1.853,2.694,2.694,0,0,1,1.594-1.5c.686-.284,1.421-.432,2.094-.748a7,7,0,0,0,3.089-3.565,4.893,4.893,0,0,0,.482-3.349Z" transform="translate(-130.747 -174.625)" fill="#263238"/>
      <path id="Path_28383" data-name="Path 28383" d="M185.939,198a3.02,3.02,0,0,1,.321.618c.185.389.432.939.7,1.575l.049.117h-.13l-.618.056c-.426,0-.785.08-1.2.074a.222.222,0,0,1-.161-.142.278.278,0,0,1,0-.173,2.48,2.48,0,0,1,.056-.247l.111-.439a4.183,4.183,0,0,1,.259-.853,4.17,4.17,0,0,1-.13.883l-.086.439c-.031.148-.086.377,0,.358.309,0,.748-.068,1.155-.093l.618-.056-.08.136c-.266-.618-.488-1.2-.618-1.6a2.41,2.41,0,0,1-.247-.655Z" transform="translate(-146.319 -183.558)" fill="#57b8ce"/>
      <path id="Path_28384" data-name="Path 28384" d="M151.532,281.654l27.4-.834,11.924,46.546-2.193,53.391H174.175l1.773-52.255-10.6-32.4,1.631,86.729-14.642.216-1.538-81.52c-.068-2.267-.809-7.377-.531-9.625Z" transform="translate(-133.065 -215.211)" fill="#263238"/>
      <path id="Path_28385" data-name="Path 28385" d="M175.094,305.5a5.49,5.49,0,0,1-1.341-.08c-.828-.1-1.958-.272-3.2-.519s-2.354-.531-3.157-.76a5.1,5.1,0,0,1-1.236-.445c0-.093,2.014.389,4.485.89S175.106,305.4,175.094,305.5Z" transform="translate(-139.162 -223.948)" fill="#455a64"/>
      <path id="Path_28386" data-name="Path 28386" d="M203.141,437.741c0,.086-3.281.161-7.327.161s-7.333-.074-7.333-.161,3.281-.161,7.333-.161S203.141,437.648,203.141,437.741Z" transform="translate(-147.692 -275.123)" fill="#455a64"/>
      <path id="Path_28387" data-name="Path 28387" d="M168.348,442.181c0,.093-3.188.161-7.117.161s-7.111-.068-7.111-.161,3.188-.161,7.111-.161S168.348,442.094,168.348,442.181Z" transform="translate(-134.56 -276.82)" fill="#455a64"/>
      <path id="Path_28388" data-name="Path 28388" d="M173.216,389.553c-.087,0-.47-18.948-.859-42.32s-.618-42.333-.537-42.333.476,18.942.859,42.326S173.309,389.553,173.216,389.553Z" transform="translate(-141.319 -224.414)" fill="#455a64"/>
      <path id="Path_28389" data-name="Path 28389" d="M202.949,378.345a1.577,1.577,0,0,1,0-.253v-.741c0-.667.049-1.625.087-2.842.086-2.471.21-6.061.364-10.46.334-8.847.8-21.043,1.316-34.5v-.321c-3.244-12.974-6.178-24.75-8.31-33.269l-2.471-10.077c-.284-1.18-.5-2.1-.655-2.743-.074-.3-.124-.538-.167-.717a1.069,1.069,0,0,1-.043-.247,1.364,1.364,0,0,1,.074.241c.049.173.111.408.2.7.167.618.408,1.557.717,2.731.618,2.385,1.489,5.82,2.576,10.052,2.15,8.513,5.115,20.258,8.4,33.251v.408c-.55,13.462-1.05,25.652-1.415,34.5-.192,4.405-.352,7.97-.463,10.453-.062,1.236-.111,2.175-.142,2.842,0,.315-.037.562-.043.741a1.182,1.182,0,0,1-.025.253Z" transform="translate(-149.446 -215.727)" fill="#455a64"/>
      <path id="Path_28390" data-name="Path 28390" d="M197.34,356.5a16.55,16.55,0,0,1-3.2.71c-1.334.229-2.471.389-2.984.414V357.5c.167.049.253.08.253.105s-.105,0-.278,0h-.371l.371-.111c.482-.142,1.619-.377,2.953-.618a16.682,16.682,0,0,1,3.256-.377Z" transform="translate(-148.563 -244.135)" fill="#455a64"/>
      <path id="Path_28391" data-name="Path 28391" d="M197.438,359.057a15.945,15.945,0,0,1-2.885-.13,16.293,16.293,0,0,1-2.873-.315A18.294,18.294,0,0,1,197.438,359.057Z" transform="translate(-148.915 -244.919)" fill="#455a64"/>
      <path id="Path_28392" data-name="Path 28392" d="M152.16,282.636a3.756,3.756,0,0,0,2.706,1.439,12.188,12.188,0,0,0,3.318-.062c7.074-.785,14.568-1.507,21.494-3.194-8.964.5-18.436.334-27.4.834l-.093.766" transform="translate(-133.811 -215.211)" opacity="0.2"/>
      <g id="Group_42535" data-name="Group 42535" transform="translate(27.585 80.059)" opacity="0.2">
        <path id="Path_28393" data-name="Path 28393" d="M167.11,304.21l5.054,19.609-.352-18.782Z" transform="translate(-167.11 -304.21)"/>
      </g>
    </g>
  </g>
</svg>
