<svg xmlns="http://www.w3.org/2000/svg" width="28" height="28" viewBox="0 0 28 28">
  <path id="monetization_on_FILL1_wght400_GRAD0_opsz48" d="M17.965,28.045a.883.883,0,0,0,.665-.3.967.967,0,0,0,.28-.682v-.84a5.507,5.507,0,0,0,3.308-1.418,3.991,3.991,0,0,0,1.208-2.993,4.124,4.124,0,0,0-1-2.9,8.14,8.14,0,0,0-3.448-1.89,9.423,9.423,0,0,1-3.028-1.453,2.367,2.367,0,0,1-.823-1.872,2.03,2.03,0,0,1,.788-1.7,3.421,3.421,0,0,1,2.152-.612,3.474,3.474,0,0,1,1.5.315,3.183,3.183,0,0,1,1.155.945,1.257,1.257,0,0,0,.595.385.828.828,0,0,0,.665-.07.893.893,0,0,0,.508-.56.722.722,0,0,0-.122-.7,4.508,4.508,0,0,0-1.453-1.33,4.8,4.8,0,0,0-1.942-.6v-.84a.956.956,0,0,0-.945-.945.967.967,0,0,0-.682.28.883.883,0,0,0-.3.665v.84a4.715,4.715,0,0,0-2.817,1.295A3.593,3.593,0,0,0,13.2,13.695a3.987,3.987,0,0,0,.893,2.73,8.429,8.429,0,0,0,3.308,1.925,12.175,12.175,0,0,1,3.29,1.645,2.3,2.3,0,0,1,.805,1.82,2.434,2.434,0,0,1-.945,1.943,3.488,3.488,0,0,1-2.31.787,4.135,4.135,0,0,1-2.117-.56A3.8,3.8,0,0,1,14.64,22.41a1.219,1.219,0,0,0-.472-.437.751.751,0,0,0-.613-.053,1.02,1.02,0,0,0-.613.543.77.77,0,0,0,.088.753,6.5,6.5,0,0,0,1.662,1.872,6.6,6.6,0,0,0,2.293,1.068V27.1a.883.883,0,0,0,.3.665.967.967,0,0,0,.683.28ZM18,32a14.2,14.2,0,0,1-5.53-1.068,13.55,13.55,0,0,1-7.4-7.4A14.2,14.2,0,0,1,4,18a14.109,14.109,0,0,1,1.067-5.5A13.664,13.664,0,0,1,8.025,8.06,13.957,13.957,0,0,1,18,4,13.888,13.888,0,0,1,32,18a13.957,13.957,0,0,1-4.06,9.975A13.664,13.664,0,0,1,23.5,30.932,14.109,14.109,0,0,1,18,32Z" transform="translate(-4 -4)" fill="#b9b9b9"/>
</svg>
