<svg id="noun_play_906231" xmlns="http://www.w3.org/2000/svg" width="27.44" height="27.44" viewBox="0 0 27.44 27.44">
  <path id="Path_17209" data-name="Path 17209" d="M14.62.9A13.72,13.72,0,1,0,28.34,14.62,13.726,13.726,0,0,0,14.62.9Zm0,25.121a11.4,11.4,0,1,1,11.4-11.4A11.413,11.413,0,0,1,14.62,26.021Z" transform="translate(-0.9 -0.9)" fill="#57b8ce"/>
  <path id="Path_17210" data-name="Path 17210" d="M39.987,42.165a1.1,1.1,0,0,0,.5.112.928.928,0,0,0,.587-.2l5.645-3.856a1.073,1.073,0,0,0,.447-.866,1.029,1.029,0,0,0-.475-.866l-5.645-3.744a1.086,1.086,0,0,0-1.09-.056,1.071,1.071,0,0,0-.559.922v7.6A1.073,1.073,0,0,0,39.987,42.165Z" transform="translate(-28.642 -23.722)" fill="#57b8ce"/>
</svg>
