<svg xmlns="http://www.w3.org/2000/svg" width="28" height="28" viewBox="0 0 28 28">
  <path id="schedule_FILL1_wght400_GRAD0_opsz48-2" d="M22.41,23.985a.936.936,0,0,0,.735.315,1,1,0,0,0,.77-.35,1.015,1.015,0,0,0,.35-.787,1.068,1.068,0,0,0-.315-.788l-4.795-4.8V11.56a.978.978,0,0,0-.3-.717,1.05,1.05,0,0,0-1.8.752V18a1.028,1.028,0,0,0,.07.385,1.393,1.393,0,0,0,.21.35ZM18,32a13.546,13.546,0,0,1-5.425-1.1A14.105,14.105,0,0,1,5.1,23.425a13.9,13.9,0,0,1,0-10.85A14.105,14.105,0,0,1,12.575,5.1a13.9,13.9,0,0,1,10.85,0A14.105,14.105,0,0,1,30.9,12.575a13.9,13.9,0,0,1,0,10.85A14.105,14.105,0,0,1,23.425,30.9,13.546,13.546,0,0,1,18,32Z" transform="translate(-4 -4)" fill="#b9b9b9"/>
</svg>
