<svg xmlns="http://www.w3.org/2000/svg" width="241.063" height="222.084" viewBox="0 0 241.063 222.084">
  <g id="Sign_up-cuate" data-name="Sign up-cuate" transform="translate(-41.059 -61.763)">
    <g id="freepik--Floor--inject-58" transform="translate(41.059 282.742)">
      <path id="Path_32539" data-name="Path 32539" d="M41.45,453.239l30.134-.145,30.134-.046,60.263-.1,60.263.1,30.134.046,30.134.145-30.134.139-30.134.052-60.263.1-60.263-.1-30.134-.052Z" transform="translate(-41.45 -452.95)" fill="#263238"/>
    </g>
    <g id="freepik--Device--inject-58" transform="translate(102.847 61.763)">
      <path id="Path_32540" data-name="Path 32540" d="M255.945,70.6H158.272a9.975,9.975,0,0,0-9.912,10.056V281.783a9.981,9.981,0,0,0,9.889,10.068h97.674a9.993,9.993,0,0,0,9.923-10.068V80.656A9.987,9.987,0,0,0,255.945,70.6Zm3.716,204.982c0,5.294-3.965,9.577-8.848,9.577H163.4c-4.907,0-8.866-4.283-8.866-9.577V88.291c0-10.785,3.959-11.31,8.866-11.31H180.91c1.017,0,1.849,1.156,1.849,2.589v.618c0,3.358,1.838,3.358,4.115,3.358h40.457c2.312,0,4.1,0,4.1-3.369V79.57c0-1.433.821-2.589,1.861-2.589H250.8c4.884,0,8.848,1.433,8.848,11.31Z" transform="translate(-148.359 -70.6)" fill="#263238"/>
      <path id="Path_32541" data-name="Path 32541" d="M250.987,84.764H239.942a.682.682,0,0,1-.682-.682h0a.682.682,0,0,1,.682-.682h11.045a.682.682,0,0,1,.682.682h0A.682.682,0,0,1,250.987,84.764Z" transform="translate(-186.724 -76.002)" fill="#fff"/>
      <path id="Path_32542" data-name="Path 32542" d="M264.208,92.95V280.241c0,5.294-3.965,9.577-8.854,9.577H167.916c-4.9,0-8.866-4.283-8.866-9.577V92.95c0-10.785,3.965-11.31,8.866-11.31h17.506c1.017,0,1.849,1.156,1.849,2.589v.618c0,3.358,1.838,3.358,4.115,3.358h40.457c2.277,0,4.1,0,4.1-3.369v-.607c0-1.433.821-2.589,1.855-2.589h17.512C260.214,81.64,264.208,83.073,264.208,92.95Z" transform="translate(-152.871 -75.259)" fill="#fff"/>
      <path id="Path_32543" data-name="Path 32543" d="M175.189,118.59l-3.109-2.907,3.109-2.913.48.514-2.555,2.4,2.555,2.393Z" transform="translate(-158.371 -88.398)" fill="#c7c7c7"/>
      <path id="Path_32544" data-name="Path 32544" d="M325.965,114.223a.607.607,0,1,1-.178-.435.613.613,0,0,1,.178.435Z" transform="translate(-222.801 -88.752)" fill="#c7c7c7"/>
      <path id="Path_32545" data-name="Path 32545" d="M325.965,117.983a.607.607,0,1,1-.178-.435A.613.613,0,0,1,325.965,117.983Z" transform="translate(-222.801 -90.339)" fill="#c7c7c7"/>
      <path id="Path_32546" data-name="Path 32546" d="M325.965,121.743a.607.607,0,1,1-.178-.435A.613.613,0,0,1,325.965,121.743Z" transform="translate(-222.801 -91.926)" fill="#c7c7c7"/>
      <path id="Path_32547" data-name="Path 32547" d="M235.64,119.417a.214.214,0,0,1,.295,0,1.271,1.271,0,0,0,.774.312.85.85,0,0,0,.5-.15.358.358,0,0,0,.173-.289.231.231,0,0,0-.035-.127.4.4,0,0,0-.121-.121,1.468,1.468,0,0,0-.578-.191h0a2.381,2.381,0,0,1-.52-.162.832.832,0,0,1-.376-.312.613.613,0,0,1-.092-.335.751.751,0,0,1,.324-.578,1.2,1.2,0,0,1,.7-.214,1.607,1.607,0,0,1,.884.324.208.208,0,0,1-.231.347,1.156,1.156,0,0,0-.653-.26.774.774,0,0,0-.451.139.329.329,0,0,0-.156.254.179.179,0,0,0,.029.116.382.382,0,0,0,.11.1,1.359,1.359,0,0,0,.5.179h0a2.41,2.41,0,0,1,.578.168.965.965,0,0,1,.4.335.641.641,0,0,1,.1.347.792.792,0,0,1-.347.63,1.266,1.266,0,0,1-.746.225,1.734,1.734,0,0,1-1.04-.4.214.214,0,0,1-.029-.335Z" transform="translate(-185.168 -90.289)" fill="#c7c7c7"/>
      <path id="Path_32548" data-name="Path 32548" d="M240.56,117.51a.22.22,0,0,1,.22-.22.231.231,0,0,1,.231.22V119.9a.231.231,0,0,1-.231.22.22.22,0,0,1-.22-.22Z" transform="translate(-187.273 -90.305)" fill="#c7c7c7"/>
      <path id="Path_32549" data-name="Path 32549" d="M242.43,118.612a1.474,1.474,0,0,1,1.491-1.462,1.514,1.514,0,0,1,.925.312.233.233,0,0,1-.283.37,1.046,1.046,0,0,0-1.37.075.954.954,0,0,0,0,1.4,1.017,1.017,0,0,0,.728.295,1.121,1.121,0,0,0,.578-.15v-.578h-.578a.231.231,0,0,1-.231-.231.225.225,0,0,1,.231-.225h.8a.225.225,0,0,1,.237.225v.965h0a.2.2,0,0,1-.075.1,1.5,1.5,0,0,1-.919.312,1.468,1.468,0,0,1-1.537-1.4Z" transform="translate(-188.062 -90.246)" fill="#c7c7c7"/>
      <path id="Path_32550" data-name="Path 32550" d="M248.789,119.926a.22.22,0,0,1-.439,0v-2.352h0a.214.214,0,0,1,.087-.185.225.225,0,0,1,.312.046l1.306,1.809v-1.664a.22.22,0,0,1,.439,0v2.352a.22.22,0,0,1-.22.22.208.208,0,0,1-.168-.081h0l-1.295-1.8Z" transform="translate(-190.56 -90.329)" fill="#c7c7c7"/>
      <path id="Path_32551" data-name="Path 32551" d="M257.026,120.13a1.156,1.156,0,0,1-1.156-1.156V117.53a.214.214,0,0,1,.22-.22.225.225,0,0,1,.225.22v1.445a.722.722,0,1,0,1.445,0V117.53a.22.22,0,0,1,.225-.22.214.214,0,0,1,.22.22v1.445a1.156,1.156,0,0,1-1.179,1.156Z" transform="translate(-193.734 -90.314)" fill="#c7c7c7"/>
      <path id="Path_32552" data-name="Path 32552" d="M262.482,119.024h-.5v.878a.225.225,0,0,1-.445,0V117.51a.22.22,0,0,1,.22-.22h.722a.867.867,0,1,1,0,1.734Zm-.5-.451h.5a.416.416,0,1,0,0-.832h-.5Z" transform="translate(-196.127 -90.305)" fill="#c7c7c7"/>
      <g id="freepik--u5Zjqx--inject-58" transform="translate(25.742 9.814)">
        <path id="Path_32553" data-name="Path 32553" d="M196.686,88.354l-.168.168-.1.092a2.312,2.312,0,0,0-3.26,0l-.092-.1-.168-.168h0l.214-.191a2.982,2.982,0,0,1,.5-.312,2.392,2.392,0,0,1,.659-.22.8.8,0,0,0,.324-.046h.514a2.757,2.757,0,0,1,.578.144,2.855,2.855,0,0,1,.4.191,2.589,2.589,0,0,1,.387.272l.179.162Z" transform="translate(-192.9 -87.58)" fill="#c7c7c7"/>
        <path id="Path_32554" data-name="Path 32554" d="M194.082,89.685l-.272-.266a1.936,1.936,0,0,1,2.728,0l-.272.266A1.549,1.549,0,0,0,194.082,89.685Z" transform="translate(-193.284 -88.119)" fill="#c7c7c7"/>
        <path id="Path_32555" data-name="Path 32555" d="M196.393,90.506l-.266.266a.78.78,0,0,0-1.121,0c-.087-.092-.179-.179-.266-.266a1.156,1.156,0,0,1,1.653,0Z" transform="translate(-193.677 -88.668)" fill="#c7c7c7"/>
        <path id="Path_32556" data-name="Path 32556" d="M196.24,91.457A.243.243,0,0,1,196,91.7a.241.241,0,1,1,.243-.243Z" transform="translate(-194.107 -89.116)" fill="#c7c7c7"/>
      </g>
      <path id="Path_32557" data-name="Path 32557" d="M170.91,89.289a.694.694,0,1,1,.2.494.7.7,0,0,1-.2-.494Z" transform="translate(-157.877 -78.193)" fill="#c7c7c7"/>
      <path id="Path_32558" data-name="Path 32558" d="M174.7,89.285a.7.7,0,1,1,.7.694.7.7,0,0,1-.7-.694Z" transform="translate(-159.476 -78.188)" fill="#c7c7c7"/>
      <path id="Path_32559" data-name="Path 32559" d="M178.5,89.285a.7.7,0,1,1,.7.694.7.7,0,0,1-.7-.694Z" transform="translate(-161.08 -78.188)" fill="#c7c7c7"/>
      <path id="Path_32560" data-name="Path 32560" d="M182.3,89.285a.7.7,0,1,1,.694.694A.7.7,0,0,1,182.3,89.285Z" transform="translate(-162.684 -78.188)" fill="#c7c7c7"/>
      <path id="Path_32561" data-name="Path 32561" d="M186.1,89.285a.7.7,0,1,1,.694.694A.7.7,0,0,1,186.1,89.285Z" transform="translate(-164.288 -78.188)" fill="#c7c7c7"/>
      <path id="Path_32562" data-name="Path 32562" d="M323.161,90.515H317.48V87.88h5.681Zm-5.381-.295h5.086V88.175h-5.086Z" transform="translate(-219.737 -77.893)" fill="#c7c7c7"/>
      <rect id="Rectangle_17976" data-name="Rectangle 17976" width="3.658" height="1.734" transform="translate(98.217 10.438)" fill="#c7c7c7"/>
      <rect id="Rectangle_17977" data-name="Rectangle 17977" width="0.503" height="1.404" transform="translate(103.425 10.6)" fill="#c7c7c7"/>
      <path id="Path_32563" data-name="Path 32563" d="M178.827,422.578h-.514v2.358h-.959v-1.2h-1.7v1.2h-.965v-2.358h-.509l2.323-2.4Z" transform="translate(-159.257 -218.14)" fill="#ebebeb"/>
      <rect id="Rectangle_17978" data-name="Rectangle 17978" width="5.6" height="0.798" transform="translate(97.183 202.04)" fill="#ebebeb"/>
      <rect id="Rectangle_17979" data-name="Rectangle 17979" width="5.6" height="0.803" transform="translate(97.183 204.017)" fill="#ebebeb"/>
      <rect id="Rectangle_17980" data-name="Rectangle 17980" width="5.6" height="0.803" transform="translate(97.183 205.999)" fill="#ebebeb"/>
      <path id="Path_32564" data-name="Path 32564" d="M250.714,424.246l-1.6,1.7-1.589-1.7.277-.266,1.312,1.4,1.312-1.4Z" transform="translate(-190.214 -219.744)" fill="#ebebeb"/>
      <path id="Path_32565" data-name="Path 32565" d="M248.17,426.2a2.89,2.89,0,1,1,2.89-2.89,2.89,2.89,0,0,1-2.89,2.89Zm0-5.4a2.508,2.508,0,1,0,1.777.733A2.514,2.514,0,0,0,248.17,420.8Z" transform="translate(-189.265 -218.241)" fill="#ebebeb"/>
      <path id="Path_32566" data-name="Path 32566" d="M191.671,211.323a1.121,1.121,0,0,1-1.121-1.121v-1.358a.22.22,0,0,1,.433,0v1.381a.694.694,0,0,0,1.381,0v-1.381a.214.214,0,0,1,.22-.214.208.208,0,0,1,.208.214v1.381A1.121,1.121,0,0,1,191.671,211.323Z" transform="translate(-166.166 -128.855)" fill="#263238"/>
      <path id="Path_32567" data-name="Path 32567" d="M195.749,211.317a.2.2,0,0,1,.289-.029.74.74,0,0,0,.428.168.514.514,0,0,0,.266-.075c.052-.046.069-.081.069-.116a.064.064,0,0,0,0-.035s0-.029-.052-.052a.965.965,0,0,0-.312-.1h0a1.611,1.611,0,0,1-.335-.1.665.665,0,0,1-.266-.225.439.439,0,0,1-.069-.243.578.578,0,0,1,.231-.428.838.838,0,0,1,.48-.144.971.971,0,0,1,.578.214.22.22,0,0,1,.064.289.2.2,0,0,1-.289.052.659.659,0,0,0-.353-.144.4.4,0,0,0-.237.075.121.121,0,0,0-.058.087.04.04,0,0,0,0,.029l.04.04a.8.8,0,0,0,.283.092h0a1.439,1.439,0,0,1,.358.11.624.624,0,0,1,.277.231.5.5,0,0,1,.069.254.578.578,0,0,1-.243.451.867.867,0,0,1-.5.156,1.156,1.156,0,0,1-.694-.266A.214.214,0,0,1,195.749,211.317Z" transform="translate(-168.342 -129.404)" fill="#263238"/>
      <path id="Path_32568" data-name="Path 32568" d="M199,210.9a.954.954,0,0,1,.942-.971.925.925,0,0,1,.936.9h0v.035a.179.179,0,0,1-.2.156h-1.237a.509.509,0,0,0,.133.26.578.578,0,0,0,.37.173.624.624,0,0,0,.4-.1.22.22,0,0,1,.295,0,.185.185,0,0,1,0,.254.994.994,0,0,1-.7.254A.959.959,0,0,1,199,210.9Zm.422-.191h1.1a.636.636,0,0,0-.578-.41.538.538,0,0,0-.514.41Z" transform="translate(-169.732 -129.404)" fill="#263238"/>
      <path id="Path_32569" data-name="Path 32569" d="M204.386,210.142a.208.208,0,0,1-.208.2.358.358,0,0,0-.231.075.578.578,0,0,0-.179.185,1.376,1.376,0,0,0-.162.329v.734a.208.208,0,1,1-.416,0v-1.526a.208.208,0,0,1,.416,0v.029a.532.532,0,0,1,.081-.081.838.838,0,0,1,.491-.15.2.2,0,0,1,.208.2Z" transform="translate(-171.501 -129.408)" fill="#263238"/>
      <path id="Path_32570" data-name="Path 32570" d="M207.757,210.739v.925a.2.2,0,0,1-.2.208.208.208,0,0,1-.208-.208v-.925a.4.4,0,0,0-.4-.393.387.387,0,0,0-.387.393v.925a.116.116,0,0,1,0,.04.22.22,0,0,1-.208.168.2.2,0,0,1-.2-.208v-1.526a.2.2,0,0,1,.2-.208.208.208,0,0,1,.191.121.763.763,0,0,1,.41-.121A.809.809,0,0,1,207.757,210.739Z" transform="translate(-172.75 -129.404)" fill="#263238"/>
      <path id="Path_32571" data-name="Path 32571" d="M211.739,210.9v.757a.2.2,0,1,1-.4.04.9.9,0,0,1-.52.168.913.913,0,0,1-.659-.283,1,1,0,0,1-.266-.682.965.965,0,0,1,.266-.682.878.878,0,0,1,1.156-.121.2.2,0,1,1,.4.04Zm-.41,0a.578.578,0,0,0-.15-.4.486.486,0,0,0-.364-.162.462.462,0,0,0-.358.162.6.6,0,0,0,0,.8.474.474,0,0,0,.358.15.5.5,0,0,0,.364-.15A.578.578,0,0,0,211.329,210.9Z" transform="translate(-174.328 -129.397)" fill="#263238"/>
      <path id="Path_32572" data-name="Path 32572" d="M216.037,210.725v.93a.208.208,0,0,1-.2.208.214.214,0,0,1-.214-.208v-.93a.393.393,0,0,0-.4-.387.4.4,0,0,0-.393.4v.959h0a.225.225,0,0,1-.2.127h-.04a.208.208,0,0,1-.162-.2V210.7h0v-.578a.208.208,0,0,1,.2-.214.2.2,0,0,1,.185.116.884.884,0,0,1,.416-.116.809.809,0,0,1,.613.272.792.792,0,0,1,.578-.272.815.815,0,0,1,.809.815v.919a.208.208,0,1,1-.416,0v-.919a.4.4,0,0,0-.393-.4A.4.4,0,0,0,216.037,210.725Z" transform="translate(-176.244 -129.396)" fill="#263238"/>
      <path id="Path_32573" data-name="Path 32573" d="M220.55,210.9a.965.965,0,0,1,.948-.971.925.925,0,0,1,.936.9h0v.035a.179.179,0,0,1-.2.156H221a.509.509,0,0,0,.133.26.578.578,0,0,0,.37.173.636.636,0,0,0,.4-.1.22.22,0,0,1,.295,0,.185.185,0,0,1,0,.254.994.994,0,0,1-.7.254A.971.971,0,0,1,220.55,210.9Zm.428-.191h1.1a.636.636,0,0,0-.578-.41A.538.538,0,0,0,220.978,210.71Z" transform="translate(-178.827 -129.404)" fill="#263238"/>
      <rect id="Rectangle_17981" data-name="Rectangle 17981" width="70.025" height="8.317" transform="translate(23.731 85.427)" fill="#ebebeb"/>
      <path id="Path_32574" data-name="Path 32574" d="M190.55,245.566v-2.312a.208.208,0,0,1,.214-.214h1.266a.214.214,0,0,1,.214.214.22.22,0,0,1-.214.22h-1.052v.705h.907a.217.217,0,0,1,0,.433h-.907v.717h1.052a.22.22,0,0,1,0,.433h-1.266a.214.214,0,0,1-.214-.2Z" transform="translate(-166.166 -143.378)" fill="#263238"/>
      <path id="Path_32575" data-name="Path 32575" d="M196.082,245.215v.93a.208.208,0,0,1-.2.208.214.214,0,0,1-.214-.208v-.93a.393.393,0,0,0-.4-.387.4.4,0,0,0-.393.4v.959h0a.225.225,0,0,1-.2.127h-.04a.208.208,0,0,1-.168-.2v-.919h0v-.578a.214.214,0,0,1,.208-.214.2.2,0,0,1,.185.116.885.885,0,0,1,.416-.116.821.821,0,0,1,.613.272.792.792,0,0,1,.607-.272.815.815,0,0,1,.809.815v.919a.208.208,0,1,1-.416,0v-.919a.4.4,0,0,0-.393-.4.4.4,0,0,0-.416.4Z" transform="translate(-167.82 -143.952)" fill="#263238"/>
      <path id="Path_32576" data-name="Path 32576" d="M202.329,245.4v.757a.208.208,0,0,1-.208.208.214.214,0,0,1-.2-.168.867.867,0,0,1-.514.168.9.9,0,0,1-.659-.283,1,1,0,0,1-.266-.682.977.977,0,0,1,.266-.682.89.89,0,0,1,.659-.295.872.872,0,0,1,.514.173.214.214,0,0,1,.2-.173.208.208,0,0,1,.208.214Zm-.41,0a.543.543,0,0,0-.156-.4.474.474,0,0,0-.358-.162.462.462,0,0,0-.358.162.543.543,0,0,0-.15.4.578.578,0,0,0,.15.4.474.474,0,0,0,.358.15.485.485,0,0,0,.358-.15.578.578,0,0,0,.173-.4Z" transform="translate(-170.357 -143.961)" fill="#263238"/>
      <path id="Path_32577" data-name="Path 32577" d="M205.42,243.39a.214.214,0,1,1-.422,0v-.081a.214.214,0,0,1,.422,0Zm0,.705v1.514a.214.214,0,0,1-.422,0V244.1a.214.214,0,1,1,.422,0Z" transform="translate(-172.262 -143.416)" fill="#263238"/>
      <path id="Path_32578" data-name="Path 32578" d="M207,243.08a.22.22,0,0,1,.214.214v2.312a.22.22,0,0,1-.214.214.214.214,0,0,1-.214-.214v-2.312a.214.214,0,0,1,.214-.214Z" transform="translate(-173.02 -143.395)" fill="#263238"/>
      <rect id="Rectangle_17982" data-name="Rectangle 17982" width="70.025" height="8.317" transform="translate(23.731 105.36)" fill="#ebebeb"/>
      <path id="Path_32579" data-name="Path 32579" d="M191.457,279.21h-.48v.844a.214.214,0,0,1-.214.214.22.22,0,0,1-.214-.214v-2.312a.214.214,0,0,1,.214-.214h.694a.832.832,0,1,1,0,1.659Zm-.48-.428h.48a.4.4,0,1,0,0-.8h-.48Z" transform="translate(-166.166 -157.933)" fill="#263238"/>
      <path id="Path_32580" data-name="Path 32580" d="M195.879,279.887v.763a.208.208,0,0,1-.208.2.214.214,0,0,1-.2-.168.884.884,0,0,1-.514.168.9.9,0,0,1-.659-.283.988.988,0,0,1-.266-.682.977.977,0,0,1,.266-.682.867.867,0,0,1,1.156-.121.207.207,0,0,1,.41.04Zm-.41,0a.578.578,0,0,0-.156-.4.485.485,0,0,0-.722,0,.623.623,0,0,0,0,.8.509.509,0,0,0,.722,0,.578.578,0,0,0,.156-.4Z" transform="translate(-167.635 -158.517)" fill="#263238"/>
      <path id="Path_32581" data-name="Path 32581" d="M198.349,280.3a.2.2,0,0,1,.289-.029.74.74,0,0,0,.428.168.514.514,0,0,0,.266-.075c.052-.046.069-.081.069-.116a.064.064,0,0,0,0-.035.1.1,0,0,0-.052-.046.758.758,0,0,0-.306-.11h0a1.424,1.424,0,0,1-.335-.1.578.578,0,0,1-.272-.225.492.492,0,0,1-.064-.243.578.578,0,0,1,.225-.428.856.856,0,0,1,.48-.144,1,1,0,0,1,.578.214.214.214,0,0,1,.058.289.2.2,0,0,1-.283.052.681.681,0,0,0-.358-.139.364.364,0,0,0-.231.069c-.052.035-.064.069-.064.087a.041.041,0,0,0,0,.029.11.11,0,0,0,.046.04.758.758,0,0,0,.283.092h0a1.439,1.439,0,0,1,.358.11.578.578,0,0,1,.277.231.5.5,0,0,1,.075.254.578.578,0,0,1-.243.451.9.9,0,0,1-.509.156,1.156,1.156,0,0,1-.688-.266.208.208,0,0,1-.029-.283Z" transform="translate(-169.439 -158.517)" fill="#263238"/>
      <path id="Path_32582" data-name="Path 32582" d="M201.587,280.3a.2.2,0,0,1,.289-.029.722.722,0,0,0,.428.168.514.514,0,0,0,.266-.075c.052-.046.069-.081.069-.116a.063.063,0,0,0,0-.035.139.139,0,0,0-.052-.046.792.792,0,0,0-.312-.11h0a1.569,1.569,0,0,1-.341-.1.619.619,0,0,1-.266-.225.439.439,0,0,1-.069-.243.578.578,0,0,1,.231-.428.838.838,0,0,1,.48-.144.971.971,0,0,1,.578.214.22.22,0,0,1,.064.289.2.2,0,0,1-.289.052.647.647,0,0,0-.353-.139.4.4,0,0,0-.237.069.122.122,0,0,0-.058.087.04.04,0,0,0,0,.029l.04.04a.8.8,0,0,0,.283.092h0a1.439,1.439,0,0,1,.358.11.624.624,0,0,1,.277.231.5.5,0,0,1,.069.254.578.578,0,0,1-.243.451.867.867,0,0,1-.5.156,1.156,1.156,0,0,1-.694-.266.214.214,0,0,1-.017-.283Z" transform="translate(-170.805 -158.517)" fill="#263238"/>
      <path id="Path_32583" data-name="Path 32583" d="M207.477,279.248l-.642,1.508v.029h-.225v-.029l-.283-.676-.272.676v.029h-.2a.058.058,0,0,1-.04,0h0v-.029l-.636-1.508a.2.2,0,0,1-.191-.26.185.185,0,0,1,.254.116l.462,1.046.272-.653a.2.2,0,0,1,.185-.121.2.2,0,0,1,.191.121l.277.653.457-1.046a.191.191,0,0,1,.26-.116.2.2,0,0,1,.127.26Z" transform="translate(-172.257 -158.543)" fill="#263238"/>
      <path id="Path_32584" data-name="Path 32584" d="M210.706,280.569a.954.954,0,0,1-.266-.682,1.006,1.006,0,0,1,.266-.682.919.919,0,0,1,.67-.295.873.873,0,0,1,.647.295.988.988,0,0,1,.272.682.936.936,0,0,1-.272.682.855.855,0,0,1-.647.295A.9.9,0,0,1,210.706,280.569Zm.156-.682a.642.642,0,0,0,.139.41.532.532,0,0,0,.376.144.5.5,0,0,0,.353-.144.61.61,0,0,0,0-.815.526.526,0,0,0-.353-.145.578.578,0,0,0-.376.145A.624.624,0,0,0,210.862,279.887Z" transform="translate(-174.56 -158.517)" fill="#263238"/>
      <path id="Path_32585" data-name="Path 32585" d="M215.846,279.122a.208.208,0,0,1-.2.208.41.41,0,0,0-.237.069.711.711,0,0,0-.179.191,1.046,1.046,0,0,0-.156.324v.74a.214.214,0,0,1-.422,0v-1.532a.214.214,0,0,1,.422,0v.029a.538.538,0,0,1,.081-.081.827.827,0,0,1,.491-.15.2.2,0,0,1,.2.2Z" transform="translate(-176.337 -158.521)" fill="#263238"/>
      <path id="Path_32586" data-name="Path 32586" d="M219.073,280.1a.207.207,0,0,1-.41.04.936.936,0,0,1-.532.168.971.971,0,1,1,0-1.942.9.9,0,0,1,.52.168V277.8a.214.214,0,0,1,.422,0v1.537h0Zm-.942-1.306a.514.514,0,0,0-.364.156.578.578,0,0,0-.156.393.532.532,0,0,0,.156.382.5.5,0,0,0,.364.162.48.48,0,0,0,.364-.162.532.532,0,0,0,.156-.381.578.578,0,0,0-.156-.393A.491.491,0,0,0,218.131,278.794Z" transform="translate(-177.397 -157.973)" fill="#263238"/>
      <rect id="Rectangle_17983" data-name="Rectangle 17983" width="70.025" height="8.317" transform="translate(23.731 125.294)" fill="#ebebeb"/>
      <path id="Path_32587" data-name="Path 32587" d="M196.74,317.845a.078.078,0,0,1,.156,0v2.109a.081.081,0,0,1-.081.081.075.075,0,0,1-.075-.081Z" transform="translate(-168.778 -174.918)" fill="#263238"/>
      <path id="Path_32588" data-name="Path 32588" d="M201.21,319.025v1.427a.075.075,0,1,1-.15,0v-.231a.751.751,0,0,1-.578.312.792.792,0,1,1,0-1.584.746.746,0,0,1,.578.306v-.231a.075.075,0,1,1,.15,0Zm-.15.717a.578.578,0,1,0-.578.636.618.618,0,0,0,.578-.636Z" transform="translate(-170.023 -175.416)" fill="#263238"/>
      <path id="Path_32589" data-name="Path 32589" d="M204.957,320.412a.751.751,0,0,1-.751.746.809.809,0,0,1-.329-.075.081.081,0,0,1-.029-.1.069.069,0,0,1,.1-.035.58.58,0,0,0,.832-.52v-.2a.711.711,0,0,1-.578.312.786.786,0,1,1,0-1.572.734.734,0,0,1,.578.306v-.231a.108.108,0,0,1,.2.017Zm-.156-.67a.578.578,0,1,0-.578.636A.613.613,0,0,0,204.8,319.742Z" transform="translate(-171.598 -175.422)" fill="#263238"/>
      <path id="Path_32590" data-name="Path 32590" d="M207.357,319.031a.081.081,0,0,1,.081-.081.075.075,0,0,1,.075.081v.306a.774.774,0,0,1,.636-.387.078.078,0,0,1,0,.156.578.578,0,0,0-.462.26,1.4,1.4,0,0,0-.191.37h0v.694a.075.075,0,0,1-.075.081.081.081,0,0,1-.081-.081Z" transform="translate(-173.252 -175.416)" fill="#263238"/>
      <path id="Path_32591" data-name="Path 32591" d="M209.35,319.737a.769.769,0,1,1,1.537-.058h0a.075.075,0,0,1-.081.069h-1.3a.624.624,0,0,0,.618.607.578.578,0,0,0,.509-.289.075.075,0,0,1,.1,0,.087.087,0,0,1,.029.11.769.769,0,0,1-.642.358A.786.786,0,0,1,209.35,319.737Zm.168-.127h1.2a.607.607,0,0,0-1.2,0Z" transform="translate(-174.1 -175.411)" fill="#263238"/>
      <path id="Path_32592" data-name="Path 32592" d="M212.76,319.781a.769.769,0,0,1,1.532-.058h0a.069.069,0,0,1-.075.069H212.9a.624.624,0,0,0,.613.607.578.578,0,0,0,.514-.289.075.075,0,0,1,.1,0,.081.081,0,0,1,0,.11.757.757,0,0,1-.642.358.78.78,0,0,1-.728-.8Zm.168-.127h1.2a.6.6,0,0,0-1.2,0Z" transform="translate(-175.539 -175.456)" fill="#263238"/>
      <path id="Path_32593" data-name="Path 32593" d="M218.477,318.544a.081.081,0,0,1-.075.075h-.208v1.156a.127.127,0,0,0,.116.121.081.081,0,1,1,0,.156.272.272,0,0,1-.277-.277v-1.156h-.2c-.075,0-.075-.035-.075-.075s0-.075.075-.075h.2v-.578a.081.081,0,1,1,.162,0v.578h.208a.081.081,0,0,1,.075.075Z" transform="translate(-177.65 -174.935)" fill="#263238"/>
      <path id="Path_32594" data-name="Path 32594" d="M220.792,319a.792.792,0,1,1-.792.792A.792.792,0,0,1,220.792,319Zm0,1.428a.642.642,0,1,0-.578-.636.618.618,0,0,0,.578.607Z" transform="translate(-178.595 -175.437)" fill="#263238"/>
      <path id="Path_32595" data-name="Path 32595" d="M226.556,319.025v1.428a.075.075,0,0,1-.075.081.081.081,0,0,1-.081-.081v-.231a.74.74,0,0,1-.578.312.792.792,0,1,1,0-1.584.734.734,0,0,1,.578.306v-.231a.078.078,0,0,1,.156,0Zm-.156.717a.578.578,0,1,0-.578.636.618.618,0,0,0,.578-.636Z" transform="translate(-180.718 -175.416)" fill="#263238"/>
      <path id="Path_32596" data-name="Path 32596" d="M229,317.845a.075.075,0,0,1,.081-.075.081.081,0,0,1,.081.075v2.109a.081.081,0,1,1-.162,0Z" transform="translate(-182.394 -174.918)" fill="#263238"/>
      <path id="Path_32597" data-name="Path 32597" d="M230.34,317.841a.081.081,0,1,1,.162,0v2.11a.081.081,0,0,1-.162,0Z" transform="translate(-182.959 -174.914)" fill="#263238"/>
      <path id="Path_32598" data-name="Path 32598" d="M233.172,320.216a.075.075,0,0,1,.11,0,.844.844,0,0,0,.486.185.492.492,0,0,0,.3-.1.225.225,0,0,0,0-.387.774.774,0,0,0-.341-.116h0a.9.9,0,0,1-.358-.121.329.329,0,0,1-.168-.283.4.4,0,0,1,.168-.312.681.681,0,0,1,.387-.1.855.855,0,0,1,.474.168.081.081,0,0,1,0,.11.075.075,0,0,1-.1,0,.734.734,0,0,0-.393-.156.5.5,0,0,0-.3.087.248.248,0,0,0-.1.185.185.185,0,0,0,.092.156.723.723,0,0,0,.324.11h0a1.064,1.064,0,0,1,.381.133.387.387,0,0,1,.179.324.4.4,0,0,1-.179.318.653.653,0,0,1-.393.127.982.982,0,0,1-.578-.225A.075.075,0,0,1,233.172,320.216Z" transform="translate(-184.144 -175.428)" fill="#263238"/>
      <path id="Path_32599" data-name="Path 32599" d="M236.647,318.544a.081.081,0,0,1-.075.075h-.208v1.156a.127.127,0,0,0,.116.121.081.081,0,1,1,0,.156.272.272,0,0,1-.277-.277v-1.156h-.2c-.075,0-.075-.035-.075-.075s0-.075.075-.075h.2v-.578a.081.081,0,1,1,.162,0v.578h.185a.081.081,0,0,1,.1.075Z" transform="translate(-185.318 -174.935)" fill="#263238"/>
      <path id="Path_32600" data-name="Path 32600" d="M239.466,319.025v1.428a.075.075,0,0,1-.075.081.081.081,0,0,1-.081-.081v-.231a.74.74,0,0,1-.578.312.792.792,0,1,1,0-1.584.734.734,0,0,1,.578.306v-.231a.078.078,0,0,1,.156,0Zm-.156.717a.578.578,0,1,0-.578.636.618.618,0,0,0,.578-.636Z" transform="translate(-186.167 -175.416)" fill="#263238"/>
      <path id="Path_32601" data-name="Path 32601" d="M242.177,318.544a.081.081,0,0,1-.075.075h-.208v1.156a.127.127,0,0,0,.121.121.081.081,0,1,1,0,.156.266.266,0,0,1-.277-.277v-1.156h-.2c-.075,0-.075-.035-.075-.075s0-.075.075-.075h.2v-.578a.081.081,0,0,1,.075-.081.087.087,0,0,1,.081.081v.578h.208a.081.081,0,0,1,.075.075Z" transform="translate(-187.652 -174.935)" fill="#263238"/>
      <path id="Path_32602" data-name="Path 32602" d="M243.56,319.737a.769.769,0,1,1,1.537-.058h0a.075.075,0,0,1-.081.069h-1.3a.624.624,0,0,0,.618.607.578.578,0,0,0,.509-.289.075.075,0,0,1,.1,0,.081.081,0,0,1,0,.11.751.751,0,0,1-.636.358.786.786,0,0,1-.751-.8Zm.168-.127h1.2a.607.607,0,0,0-1.2,0Z" transform="translate(-188.538 -175.411)" fill="#263238"/>
      <path id="Path_32603" data-name="Path 32603" d="M249.448,319.627a.491.491,0,0,0-.983,0v.873h0a.069.069,0,0,1-.04.04h-.092v-.861a.491.491,0,1,0-.977,0v.861a.075.075,0,0,1-.035.064h-.052a.1.1,0,0,1-.069-.058v-1.451a.081.081,0,0,1,.075-.075.075.075,0,0,1,.081.075v.15a.624.624,0,0,1,.486-.225.647.647,0,0,1,.578.335.67.67,0,0,1,.578-.335.642.642,0,0,1,.642.647v.861a.075.075,0,1,1-.15,0Z" transform="translate(-190.075 -175.445)" fill="#263238"/>
      <path id="Path_32604" data-name="Path 32604" d="M252.29,319.781a.769.769,0,0,1,1.532-.058h0a.069.069,0,0,1-.075.069h-1.3a.624.624,0,0,0,.613.607.578.578,0,0,0,.514-.289.075.075,0,0,1,.1,0,.081.081,0,0,1,0,.11.757.757,0,0,1-.642.358A.78.78,0,0,1,252.29,319.781Zm.168-.127h1.2a.6.6,0,0,0-1.2,0Z" transform="translate(-192.223 -175.456)" fill="#263238"/>
      <path id="Path_32605" data-name="Path 32605" d="M257.055,319.6a.485.485,0,0,0-.485-.491.5.5,0,0,0-.491.491v.907a.081.081,0,0,1-.058.029h0a.093.093,0,0,1-.052-.04h0v-1.445a.081.081,0,0,1,.017-.069.075.075,0,0,1,.075.081v.15a.642.642,0,0,1,1.156.416v.855a.075.075,0,0,1-.075.081.081.081,0,0,1-.081-.081Z" transform="translate(-193.775 -175.416)" fill="#263238"/>
      <path id="Path_32606" data-name="Path 32606" d="M259.757,318.544a.081.081,0,0,1-.081.075h-.2v1.156a.127.127,0,0,0,.116.121.081.081,0,1,1,0,.156.272.272,0,0,1-.277-.277v-1.156h-.2c-.075,0-.075-.035-.075-.075s0-.075.075-.075h.2v-.578a.081.081,0,1,1,.162,0v.578h.2A.081.081,0,0,1,259.757,318.544Z" transform="translate(-195.072 -174.935)" fill="#263238"/>
      <path id="Path_32607" data-name="Path 32607" d="M261.355,320.216a.075.075,0,0,1,.11,0,.844.844,0,0,0,.485.185.48.48,0,0,0,.3-.1.249.249,0,0,0,.121-.191.266.266,0,0,0-.116-.2.745.745,0,0,0-.335-.116h0a.843.843,0,0,1-.358-.121.324.324,0,0,1-.173-.283.387.387,0,0,1,.173-.312.682.682,0,0,1,.387-.1.89.89,0,0,1,.474.168.081.081,0,0,1,0,.11.075.075,0,0,1-.1,0,.7.7,0,0,0-.387-.156.48.48,0,0,0-.3.087.237.237,0,0,0-.1.185.185.185,0,0,0,.092.156.751.751,0,0,0,.324.11h0a1.093,1.093,0,0,1,.387.133.387.387,0,0,1,.179.324.393.393,0,0,1-.185.318.641.641,0,0,1-.393.127.965.965,0,0,1-.578-.225.069.069,0,0,1,0-.1Z" transform="translate(-196.041 -175.428)" fill="#263238"/>
      <path id="Path_32608" data-name="Path 32608" d="M266,318.125a.078.078,0,0,1,.156,0v.075a.081.081,0,1,1-.156,0Zm0,.52a.078.078,0,0,1,.156,0v1.428a.081.081,0,0,1-.081.081.075.075,0,0,1-.075-.081Z" transform="translate(-198.007 -175.036)" fill="#263238"/>
      <path id="Path_32609" data-name="Path 32609" d="M268.727,319.61a.486.486,0,0,0-.486-.491.5.5,0,0,0-.491.491v.907a.081.081,0,0,1-.058.029h0a.093.093,0,0,1-.052-.04h0v-1.445a.081.081,0,0,1,.081-.081.075.075,0,0,1,.075.081v.15a.636.636,0,0,1,.491-.231.647.647,0,0,1,.642.647v.855a.075.075,0,0,1-.075.081.081.081,0,0,1-.081-.081Z" transform="translate(-198.702 -175.429)" fill="#263238"/>
      <path id="Path_32610" data-name="Path 32610" d="M273.1,318.544a.081.081,0,0,1-.081.075h-.2v1.156a.127.127,0,0,0,.116.121.081.081,0,1,1,0,.156.272.272,0,0,1-.277-.277v-1.156h-.2c-.081,0-.081-.035-.081-.075s0-.075.081-.075h.2v-.578a.081.081,0,1,1,.162,0v.578h.2A.081.081,0,0,1,273.1,318.544Z" transform="translate(-200.702 -174.935)" fill="#263238"/>
      <path id="Path_32611" data-name="Path 32611" d="M274.49,319.781a.769.769,0,0,1,1.532-.058h0a.069.069,0,0,1-.075.069h-1.3a.613.613,0,0,0,.613.607.578.578,0,0,0,.509-.289.087.087,0,0,1,.133.11.769.769,0,0,1-.641.358.78.78,0,0,1-.769-.8Zm.162-.127h1.2a.607.607,0,0,0-1.2,0Z" transform="translate(-201.593 -175.456)" fill="#263238"/>
      <path id="Path_32612" data-name="Path 32612" d="M277.987,319.031a.081.081,0,0,1,.081-.081.075.075,0,0,1,.075.081v.306a.774.774,0,0,1,.636-.387.078.078,0,0,1,0,.156.578.578,0,0,0-.462.26,1.4,1.4,0,0,0-.191.37h0v.694a.075.075,0,0,1-.075.081.081.081,0,0,1-.081-.081Z" transform="translate(-203.061 -175.416)" fill="#263238"/>
      <path id="Path_32613" data-name="Path 32613" d="M282.721,319.627a.491.491,0,1,0-.977,0v.873h0a.069.069,0,0,1-.04.04h-.087v-.861a.491.491,0,1,0-.977,0v.861a.075.075,0,0,1-.035.064h-.052a.092.092,0,0,1-.064-.058V319.1a.075.075,0,0,1,.15,0v.15a.641.641,0,0,1,.491-.225.647.647,0,0,0,1.156,0,.647.647,0,0,1,.647.647v.861a.078.078,0,0,1-.156,0Z" transform="translate(-204.125 -175.445)" fill="#263238"/>
      <path id="Path_32614" data-name="Path 32614" d="M285.543,320.216a.075.075,0,0,1,.11,0,.844.844,0,0,0,.485.185.48.48,0,0,0,.3-.1.248.248,0,0,0,.121-.191.266.266,0,0,0-.116-.2.745.745,0,0,0-.335-.116h0a.843.843,0,0,1-.358-.121.324.324,0,0,1-.173-.283.387.387,0,0,1,.173-.312.682.682,0,0,1,.387-.1.855.855,0,0,1,.468.168.076.076,0,1,1-.1.11.7.7,0,0,0-.387-.156.48.48,0,0,0-.3.087.237.237,0,0,0-.1.185.185.185,0,0,0,.092.156.751.751,0,0,0,.324.11h0a1.092,1.092,0,0,1,.387.133.382.382,0,0,1,.173.324.387.387,0,0,1-.179.318.641.641,0,0,1-.393.127.965.965,0,0,1-.578-.225.069.069,0,0,1,.006-.1Z" transform="translate(-206.248 -175.428)" fill="#263238"/>
      <path id="Path_32615" data-name="Path 32615" d="M290.8,319a.792.792,0,1,1-.751.792A.775.775,0,0,1,290.8,319Zm0,1.428a.642.642,0,1,0-.578-.636.618.618,0,0,0,.578.607Z" transform="translate(-208.16 -175.436)" fill="#263238"/>
      <path id="Path_32616" data-name="Path 32616" d="M294.112,317.873a.075.075,0,0,1-.081.075c-.11,0-.168,0-.2.064a.381.381,0,0,0-.064.26v.168h.22a.081.081,0,0,1,.081.081.075.075,0,0,1-.081.075h-.22v1.381a.087.087,0,0,1-.081.081.081.081,0,0,1-.081-.081V318.6H293.4a.075.075,0,0,1-.081-.075.081.081,0,0,1,.081-.081h.208v-.168a.578.578,0,0,1,.1-.353.427.427,0,0,1,.318-.11.081.081,0,0,1,.081.064Z" transform="translate(-209.54 -174.934)" fill="#263238"/>
      <path id="Path_32617" data-name="Path 32617" d="M296.972,320.225a.075.075,0,0,1,.11,0,.861.861,0,0,0,.485.185.468.468,0,0,0,.3-.1.22.22,0,0,0,0-.387.722.722,0,0,0-.335-.116h0a.873.873,0,0,1-.358-.121A.335.335,0,0,1,297,319.4a.4.4,0,0,1,.173-.312.682.682,0,0,1,.376-.092.873.873,0,0,1,.474.168.078.078,0,0,1-.11.11.7.7,0,0,0-.387-.156.5.5,0,0,0-.3.087.249.249,0,0,0-.1.185.191.191,0,0,0,.087.156.78.78,0,0,0,.324.11h0a1.058,1.058,0,0,1,.387.133.387.387,0,0,1,.179.324.4.4,0,0,1-.179.318.659.659,0,0,1-.4.127.965.965,0,0,1-.578-.225.075.075,0,0,1,.023-.11Z" transform="translate(-211.065 -175.436)" fill="#263238"/>
      <path id="Path_32618" data-name="Path 32618" d="M299.74,319.781a.769.769,0,0,1,1.532-.058h0a.069.069,0,0,1-.075.069H299.89a.624.624,0,0,0,.613.607.578.578,0,0,0,.514-.289.075.075,0,0,1,.1,0,.081.081,0,0,1,0,.11.757.757,0,0,1-.642.358.78.78,0,0,1-.74-.8Zm.162-.127h1.2a.613.613,0,0,0-.578-.514.63.63,0,0,0-.636.514Z" transform="translate(-212.249 -175.456)" fill="#263238"/>
      <path id="Path_32619" data-name="Path 32619" d="M303.207,319.031a.087.087,0,0,1,.087-.081.075.075,0,0,1,.069.081v.347a.242.242,0,0,0,0-.04.774.774,0,0,1,.636-.387.078.078,0,0,1,0,.156.578.578,0,0,0-.462.26,1.4,1.4,0,0,0-.191.37h0v.694a.075.075,0,0,1-.069.081.087.087,0,0,1-.087-.081Z" transform="translate(-213.706 -175.416)" fill="#263238"/>
      <path id="Path_32620" data-name="Path 32620" d="M306.133,320.529v-.035l-.578-1.422a.075.075,0,0,1,.035-.1.081.081,0,0,1,.1.04l.526,1.248.526-1.248a.069.069,0,0,1,.1-.04.075.075,0,0,1,.04.1l-.578,1.4a.093.093,0,0,1,0,.04.064.064,0,0,1-.052,0h-.046Z" transform="translate(-214.701 -175.423)" fill="#263238"/>
      <path id="Path_32621" data-name="Path 32621" d="M308.94,318.125a.075.075,0,0,1,.081-.075.081.081,0,0,1,.081.075v.075a.081.081,0,1,1-.162,0Zm0,.52a.081.081,0,0,1,.162,0v1.428a.081.081,0,1,1-.162,0Z" transform="translate(-216.132 -175.036)" fill="#263238"/>
      <path id="Path_32622" data-name="Path 32622" d="M310.31,319.736a.8.8,0,0,1,.815-.786.821.821,0,0,1,.509.173.075.075,0,0,1,0,.1.081.081,0,0,1-.1,0,.647.647,0,1,0-.41,1.156.676.676,0,0,0,.41-.139.075.075,0,0,1,.1,0,.081.081,0,0,1,0,.116.821.821,0,0,1-.5.168.8.8,0,0,1-.821-.792Z" transform="translate(-216.71 -175.416)" fill="#263238"/>
      <path id="Path_32623" data-name="Path 32623" d="M313.42,319.737a.769.769,0,1,1,1.537-.058h0a.075.075,0,0,1-.081.069h-1.3a.624.624,0,0,0,.613.607.578.578,0,0,0,.514-.289.075.075,0,0,1,.1,0,.081.081,0,0,1,0,.11.757.757,0,0,1-.642.358A.786.786,0,0,1,313.42,319.737Zm.168-.127h1.2a.607.607,0,0,0-1.2,0Z" transform="translate(-218.023 -175.411)" fill="#263238"/>
      <path id="Path_32624" data-name="Path 32624" d="M187.572,320.137H183V315.56h4.577Zm-4-.578h3.421v-3.422h-3.416Z" transform="translate(-162.979 -173.985)" fill="#ebebeb"/>
      <path id="Path_32625" data-name="Path 32625" d="M302.768,223.724a.838.838,0,1,1-.245-.6.844.844,0,0,1,.245.6Z" transform="translate(-212.815 -134.87)" fill="#a6a6a6"/>
      <path id="Path_32626" data-name="Path 32626" d="M302.924,227.339H300a1.462,1.462,0,0,1,2.919,0Z" transform="translate(-212.359 -136.173)" fill="#a6a6a6"/>
      <path id="Path_32627" data-name="Path 32627" d="M299.637,258.359l-.5-.4h3.9l-.5.4c-.168.133-.335.266-.5.4l-.549.462h0l-.41.347-.41-.347h0l-.549-.462Z" transform="translate(-211.996 -149.675)" fill="#a6a6a6"/>
      <path id="Path_32628" data-name="Path 32628" d="M303.044,258v2.474h-3.9V258l.474.445.485.433.5.445h-.029a3.623,3.623,0,0,0-.318.2c-.133.081-.26.168-.393.26l-.376.272c-.127.1-.249.191-.37.295.139-.075.272-.156.4-.243s.26-.168.387-.26.26-.179.381-.272.2-.156.3-.243h0l.428.37h0l.428-.37h0c.1.087.2.162.295.243l.381.272c.127.092.26.179.387.26s.266.168.4.243c-.116-.1-.243-.2-.364-.295l-.381-.272c-.127-.092-.254-.179-.387-.26a3.711,3.711,0,0,0-.324-.2h-.029l.509-.445.48-.433Z" transform="translate(-211.988 -149.692)" fill="#a6a6a6"/>
      <path id="Path_32629" data-name="Path 32629" d="M301.108,292.93a2.849,2.849,0,0,0-1.948.965,2.462,2.462,0,0,0,3.9,0A2.855,2.855,0,0,0,301.108,292.93Zm0,1.647a.682.682,0,1,1,.488-.2.688.688,0,0,1-.488.2Z" transform="translate(-212.005 -164.434)" fill="#a6a6a6"/>
      <path id="Path_32630" data-name="Path 32630" d="M302.651,294.306a.439.439,0,1,1-.436-.389.439.439,0,0,1,.436.389Z" transform="translate(-213.108 -164.851)" fill="#a6a6a6"/>
      <rect id="Rectangle_17984" data-name="Rectangle 17984" width="33.458" height="10.091" transform="translate(42.017 155.983)" fill="#57b8ce"/>
      <path id="Path_32631" data-name="Path 32631" d="M231.662,348.556a.266.266,0,0,1,.376-.035,1.694,1.694,0,0,0,.988.4,1.1,1.1,0,0,0,.647-.191.468.468,0,0,0,.225-.376.312.312,0,0,0-.046-.162.578.578,0,0,0-.156-.156,2.1,2.1,0,0,0-.711-.243h0a2.8,2.8,0,0,1-.665-.2,1.156,1.156,0,0,1-.485-.4.832.832,0,0,1-.116-.428.948.948,0,0,1,.41-.751,1.514,1.514,0,0,1,.9-.277,2.029,2.029,0,0,1,1.156.416.266.266,0,0,1,.069.364.26.26,0,0,1-.364.081,1.491,1.491,0,0,0-.838-.329.982.982,0,0,0-.578.173.416.416,0,0,0-.2.324.266.266,0,0,0,.035.145.525.525,0,0,0,.139.139,1.855,1.855,0,0,0,.647.225h0a3.069,3.069,0,0,1,.717.22,1.156,1.156,0,0,1,.514.428.826.826,0,0,1,.127.439.994.994,0,0,1-.445.8,1.63,1.63,0,0,1-.959.295,2.237,2.237,0,0,1-1.324-.514.272.272,0,0,1-.064-.382Z" transform="translate(-183.495 -186.718)" fill="#fff"/>
      <path id="Path_32632" data-name="Path 32632" d="M237.93,346.193a.277.277,0,0,1,.283-.283.289.289,0,0,1,.289.283v3.057a.283.283,0,0,1-.289.283.277.277,0,0,1-.283-.283Z" transform="translate(-186.163 -186.794)" fill="#fff"/>
      <path id="Path_32633" data-name="Path 32633" d="M240.32,347.638a1.913,1.913,0,0,1,3.086-1.462.295.295,0,1,1-.358.468,1.341,1.341,0,0,0-.821-.283,1.266,1.266,0,0,0-.93.381,1.231,1.231,0,0,0,0,1.792,1.283,1.283,0,0,0,.93.376,1.41,1.41,0,0,0,.711-.2V348h-.74a.3.3,0,0,1-.295-.295.289.289,0,0,1,.295-.289h1.029a.289.289,0,0,1,.3.289v1.156a.381.381,0,0,1,0,.087.052.052,0,0,0,0,.029h0a.254.254,0,0,1-.1.121,1.907,1.907,0,0,1-3.1-1.462Z" transform="translate(-187.171 -186.737)" fill="#fff"/>
      <path id="Path_32634" data-name="Path 32634" d="M248.456,349.277a.289.289,0,0,1-.283.283.277.277,0,0,1-.283-.283v-3.011h0a.277.277,0,0,1,.116-.243.289.289,0,0,1,.393.064l1.67,2.312v-2.133a.283.283,0,0,1,.277-.277.289.289,0,0,1,.289.277v3.011a.289.289,0,0,1-.289.283.272.272,0,0,1-.208-.1l-.029-.029-1.653-2.312Z" transform="translate(-190.366 -186.821)" fill="#fff"/>
      <path id="Path_32635" data-name="Path 32635" d="M258.971,349.534a1.491,1.491,0,0,1-1.491-1.5v-1.844a.277.277,0,0,1,.283-.283.289.289,0,0,1,.289.283v1.844a.925.925,0,1,0,1.844,0v-1.844a.283.283,0,0,1,.289-.283.277.277,0,0,1,.283.283v1.844a1.491,1.491,0,0,1-1.5,1.5Z" transform="translate(-194.414 -186.794)" fill="#fff"/>
      <path id="Path_32636" data-name="Path 32636" d="M265.964,348.121h-.636v1.127a.289.289,0,1,1-.578,0v-3.057a.289.289,0,0,1,.283-.283h.931a1.11,1.11,0,1,1,0,2.214Zm-.636-.578h.636a.532.532,0,1,0,0-1.063h-.636Z" transform="translate(-197.482 -186.792)" fill="#fff"/>
      <circle id="Ellipse_6614" data-name="Ellipse 6614" cx="6.658" cy="6.658" r="6.658" transform="translate(66.985 35.937)" fill="#455a64"/>
      <circle id="Ellipse_6615" data-name="Ellipse 6615" cx="4.67" cy="4.67" r="4.67" transform="translate(38.18 62.592)" fill="#ebebeb"/>
      <path id="Path_32637" data-name="Path 32637" d="M246.354,167.227a17.749,17.749,0,0,1-5.2,2.173,18.015,18.015,0,1,1,5.2-2.173Z" transform="translate(-178.121 -97.306)" fill="#57b8ce"/>
      <path id="Path_32638" data-name="Path 32638" d="M251.5,157.485a5.479,5.479,0,1,1-1.609-3.884A5.485,5.485,0,0,1,251.5,157.485Z" transform="translate(-187.26 -104.955)" fill="#fff"/>
      <path id="Path_32639" data-name="Path 32639" d="M252.575,180.577v2.26a18.051,18.051,0,0,1-18.957-.006v-2.254a9.478,9.478,0,1,1,18.951,0Z" transform="translate(-184.341 -112.917)" fill="#fff"/>
    </g>
    <g id="freepik--Lines--inject-58" transform="translate(173.334 141.959)">
      <path id="Path_32640" data-name="Path 32640" d="M286.983,214.249a12.484,12.484,0,0,1-.214-2.445,12.059,12.059,0,0,1,.214-2.445,12.06,12.06,0,0,1,.22,2.445A12.491,12.491,0,0,1,286.983,214.249Z" transform="translate(-277.262 -209.36)" fill="#263238"/>
      <path id="Path_32641" data-name="Path 32641" d="M278.606,217.966a12.656,12.656,0,0,1-1.878-1.572,12.39,12.39,0,0,1-1.578-1.884,13.871,13.871,0,0,1,3.468,3.468Z" transform="translate(-272.358 -211.534)" fill="#263238"/>
      <path id="Path_32642" data-name="Path 32642" d="M275.2,226.474a12.426,12.426,0,0,1-2.439.214,12.053,12.053,0,0,1-2.445-.214A14.05,14.05,0,0,1,275.2,226.474Z" transform="translate(-270.32 -216.493)" fill="#263238"/>
      <path id="Path_32643" data-name="Path 32643" d="M278.918,232.64a14.159,14.159,0,0,1-3.468,3.468,12.033,12.033,0,0,1,1.572-1.884A12.716,12.716,0,0,1,278.918,232.64Z" transform="translate(-272.485 -219.185)" fill="#263238"/>
      <path id="Path_32644" data-name="Path 32644" d="M287.424,235a13.686,13.686,0,0,1,0,4.884A14.05,14.05,0,0,1,287.424,235Z" transform="translate(-277.448 -220.181)" fill="#263238"/>
      <path id="Path_32645" data-name="Path 32645" d="M293.59,232.33a13.744,13.744,0,0,1,3.468,3.468,11.984,11.984,0,0,1-1.878-1.572A12.632,12.632,0,0,1,293.59,232.33Z" transform="translate(-280.141 -219.054)" fill="#263238"/>
      <path id="Path_32646" data-name="Path 32646" d="M296,226.03a13.715,13.715,0,0,1,4.889,0A14.079,14.079,0,0,1,296,226.03Z" transform="translate(-281.158 -216.303)" fill="#263238"/>
      <path id="Path_32647" data-name="Path 32647" d="M293.272,217.656a12.714,12.714,0,0,1,1.572-1.884,12.355,12.355,0,0,1,1.884-1.572,14.16,14.16,0,0,1-3.468,3.468Z" transform="translate(-280.002 -211.403)" fill="#263238"/>
    </g>
    <g id="freepik--Character--inject-58" transform="translate(181.742 73.988)">
      <path id="Path_32648" data-name="Path 32648" d="M326.457,130.948s4.046,28.14,3.774,30.816-3.572,28.614-3.572,28.614-7.409-1.6-9.548-2.89c-1.537-.919-6.982-5.612-6.982-5.612s9.247-18.09,10.01-21.76,1.266-21.465,2.15-25.048a7.282,7.282,0,0,1,4.254-4.809" transform="translate(-295.53 -108.005)" fill="#57b8ce"/>
      <path id="Path_32649" data-name="Path 32649" d="M323.155,197.783a6.109,6.109,0,0,0,2.277,2.479c.5.341,1.474,1.069,1.78.127a1.694,1.694,0,0,0-.127-1.092,6.052,6.052,0,0,0-1.052-1.786c-.543-.665-1.445-1.537-2.393-1.376S322.871,197.124,323.155,197.783Z" transform="translate(-300.931 -135.799)" fill="#263238"/>
      <path id="Path_32650" data-name="Path 32650" d="M333.482,204.858a5.779,5.779,0,0,0,1.364,3.346c.4.416.861.549,1.219.26a2.088,2.088,0,0,0,.578-1.41,6.231,6.231,0,0,0-.636-3.468c-.341-.665-.942-1.589-1.826-1.387C333.071,202.488,333.372,204.043,333.482,204.858Z" transform="translate(-305.334 -138.354)" fill="#263238"/>
      <path id="Path_32651" data-name="Path 32651" d="M325.6,205.931c-.5.393,0,1.907.468,2.624.578.913,1.578,1.953,2.4,1.56.416-.2.474-1.329-.439-2.745C327.175,206.069,326.013,205.619,325.6,205.931Z" transform="translate(-301.969 -139.901)" fill="#263238"/>
      <path id="Path_32652" data-name="Path 32652" d="M320.87,218.337c.2.387.624,1.069,1.127,1.092s.578-.485.578-.855a5.634,5.634,0,0,0-.318-1.693c-.237-.74-.676-1.381-1.387-1.422C319.466,215.384,320.616,217.84,320.87,218.337Z" transform="translate(-299.774 -143.962)" fill="#263238"/>
      <path id="Path_32653" data-name="Path 32653" d="M381.768,358.4s12.6,22.309,12.605,22.309c2.023,4.491,3.716,8.467,4.4,10.605a.081.081,0,0,1,0,.035,3.468,3.468,0,0,1,.295,1.537v.04c-.93,1.508-36.365,18.731-37.8,18.916s-2.075-3.9-1.231-5.67S371.5,391.725,371.5,391.725L359.13,369.358Z" transform="translate(-316.21 -204.291)" fill="#eb9481"/>
      <path id="Path_32654" data-name="Path 32654" d="M362.627,424.149c1.433-.185,36.307-17.275,37.232-18.783v-.04a3.468,3.468,0,0,0-.295-1.537.035.035,0,0,0,0-.029c-.688-2.138-2.381-6.121-4.4-10.611,0,0-2.127-3.9-2.971-5.248l-22.54,11.651,2.624,4.624s-10.051,12.53-10.894,14.3S361.182,424.369,362.627,424.149Z" transform="translate(-317.003 -216.741)" fill="#ebebeb"/>
      <path id="Path_32655" data-name="Path 32655" d="M361.43,426.164c1.451-.22,36.758-18.408,37.659-19.957.353-.578-2-5.878-5.022-12.2,0-.064-.064-.133-.1-.2l-22.9,11.478.208.382s-10.4,13.01-11.218,14.813S359.985,426.389,361.43,426.164Z" transform="translate(-316.458 -219.236)" fill="#57b8ce"/>
      <path id="Path_32656" data-name="Path 32656" d="M362.1,433.674c5.872-3.213,29.88-15.6,35.931-18.344.046,0,.064,0,0,.035-5.78,3.312-29.857,15.518-35.9,18.4C362.009,433.83,361.974,433.738,362.1,433.674Z" transform="translate(-317.43 -228.318)" fill="#fff"/>
      <path id="Path_32657" data-name="Path 32657" d="M376.413,414.517c2.115-1.641,5.167-2.763,7.814-2.011.1.029.058.173-.029.185a37.12,37.12,0,0,0-7.623,2.115.168.168,0,0,1-.162-.289Z" transform="translate(-323.477 -227.026)" fill="#263238"/>
      <path id="Path_32658" data-name="Path 32658" d="M374.383,417.787c2.115-1.647,5.167-2.763,7.814-2.011.1.029.064.173,0,.185a37.317,37.317,0,0,0-7.623,2.115.173.173,0,0,1-.191-.289Z" transform="translate(-322.615 -228.405)" fill="#263238"/>
      <path id="Path_32659" data-name="Path 32659" d="M372.373,421.057c2.121-1.647,5.167-2.763,7.82-2.011.1,0,.058.173-.029.185a37.273,37.273,0,0,0-7.629,2.115.168.168,0,0,1-.162-.289Z" transform="translate(-321.772 -229.785)" fill="#263238"/>
      <path id="Path_32660" data-name="Path 32660" d="M412.058,405.113c1.9-2.6,5.941.347,4.046,2.953S410.157,407.714,412.058,405.113Z" transform="translate(-338.339 -223.58)" fill="#fff"/>
      <path id="Path_32661" data-name="Path 32661" d="M369.7,417.71l-2.537,15.853a62.672,62.672,0,0,1-5.745,2.687c-1.445.225-2.185-3.884-1.381-5.681C360.669,429.205,366.812,421.409,369.7,417.71Z" transform="translate(-316.454 -229.323)" opacity="0.1"/>
      <path id="Path_32662" data-name="Path 32662" d="M360.534,433.144c-.5.578.728,2.624,1.271,2.555s38.948-20.066,39.526-20.546-.867-2.711-1.693-2.439S360.534,433.144,360.534,433.144Z" transform="translate(-316.753 -227.204)" fill="#263238"/>
      <path id="Path_32663" data-name="Path 32663" d="M372.625,301.439,347.229,315s-32.053-45.658-32.689-57.68c-.89-16.576,13.264-69.2,13.264-69.2l22.575-.15s-9.178,54.114-8.427,63.343C342.34,256.145,372.625,301.439,372.625,301.439Z" transform="translate(-297.374 -132.361)" fill="#37474f"/>
      <path id="Path_32664" data-name="Path 32664" d="M367.284,389.644c1.306-.942,13.345-7.918,22.511-12.374.058,0,.1.058.046.092-2.78,1.838-20.748,11.68-22.488,12.38C367.3,389.765,367.226,389.684,367.284,389.644Z" transform="translate(-319.642 -212.255)" fill="#263238"/>
      <path id="Path_32665" data-name="Path 32665" d="M355.894,240.783c1.046-7.918,2.2-15.83,3.52-23.7s2.711-15.824,4.369-23.7q.3-1.439.618-2.89a.118.118,0,1,1,.231.046c-1.387,7.791-2.82,15.576-4.1,23.384s-2.474,15.6-3.549,23.476c-.266,1.942-.52,3.884-.774,5.826a51.793,51.793,0,0,0-.578,6.045,15.425,15.425,0,0,0,.965,5.67,32.8,32.8,0,0,0,2.6,5.1c4.086,6.907,22.372,37.1,22.846,37.977.035.058-.046.116-.081.058-4.392-6.808-18.009-28.562-22.147-35.584-1.873-3.167-4.011-6.357-4.624-10.068C354.571,248.608,355.386,244.591,355.894,240.783Z" transform="translate(-314.454 -133.389)" fill="#263238"/>
      <path id="Path_32666" data-name="Path 32666" d="M335.9,384.3s.254,25.753.254,25.771c-.133,4.924-.341,9.247-.659,11.467a.076.076,0,0,1,0,.035,3.433,3.433,0,0,1-.4,1.514h-.029c-1.491.954-40.89,1.011-42.266.578s-.173-4.416,1.358-5.635,16.6-7.993,16.6-7.993V384.3Z" transform="translate(-287.961 -215.222)" fill="#eb9481"/>
      <path id="Path_32667" data-name="Path 32667" d="M336.105,419.656s.052,5.271.052,5.288c-.133,4.924-.341,9.247-.659,11.467a.075.075,0,0,1,0,.035,6.357,6.357,0,0,1-.4,1.514h-.029c-1.491.954-40.89,1.011-42.266.578s-.173-4.416,1.358-5.635,16.6-7.993,16.6-7.993V419.54Z" transform="translate(-287.961 -230.095)" fill="#ebebeb"/>
      <path id="Path_32668" data-name="Path 32668" d="M292.734,441.639c1.393.439,41.1-.254,42.6-1.243.578-.37.809-6.161.9-13.166V427l-25.626.162v.439s-15.079,7.063-16.61,8.322S291.336,441.2,292.734,441.639Z" transform="translate(-287.919 -233.243)" fill="#57b8ce"/>
      <path id="Path_32669" data-name="Path 32669" d="M293.851,449.191c6.687-.283,33.7-.792,40.335-.578.058,0,.058.04,0,.046-6.623.422-33.637.711-40.335.624C293.706,449.3,293.706,449.2,293.851,449.191Z" transform="translate(-288.613 -242.343)" fill="#fff"/>
      <path id="Path_32670" data-name="Path 32670" d="M320.326,428.09c2.624-.543,5.855-.191,7.9,1.647.081.075,0,.185-.11.156a37.368,37.368,0,0,0-7.773-1.474.168.168,0,0,1-.017-.329Z" transform="translate(-299.778 -233.605)" fill="#263238"/>
      <path id="Path_32671" data-name="Path 32671" d="M317.074,430.13c2.624-.543,5.855-.191,7.895,1.647.081.075,0,.185-.1.156a37.433,37.433,0,0,0-7.779-1.474.168.168,0,0,1-.012-.329Z" transform="translate(-298.405 -234.466)" fill="#263238"/>
      <path id="Path_32672" data-name="Path 32672" d="M313.816,432.172c2.624-.537,5.855-.191,7.9,1.647.081.075,0,.185-.11.162a36.991,36.991,0,0,0-7.773-1.48.168.168,0,0,1-.017-.329Z" transform="translate(-297.031 -235.329)" fill="#263238"/>
      <path id="Path_32673" data-name="Path 32673" d="M291.766,449.122c-.705.289-.509,2.67,0,2.855s43.809-.769,44.543-.948.416-2.815-.439-2.936S291.766,449.122,291.766,449.122Z" transform="translate(-287.586 -242.142)" fill="#263238"/>
      <path id="Path_32674" data-name="Path 32674" d="M356.284,434.691c2.855-1.485,5.173,2.942,2.312,4.439S353.423,436.187,356.284,434.691Z" transform="translate(-314.457 -236.362)" fill="#fff"/>
      <path id="Path_32675" data-name="Path 32675" d="M330.543,188.039h0c.15.468,8.259,22.7,9.028,23.054.861.4-17.916,31.955-19.038,46.612-.711,9.38.688,62.419.688,62.419h27.464s-1.324-47.7-1.948-62.823c-.243-5.86,18.859-35.041,19.072-53.218.075-5.728-4.046-16.183-4.046-16.183Z" transform="translate(-299.835 -132.331)" fill="#37474f"/>
      <path id="Path_32676" data-name="Path 32676" d="M365.78,307.195c0-.243.191-.324.208-.075.618,8.184.763,16.316,1.156,24.511s.168,10.143.532,18.31c.208,4.624,0,9.247.116,13.871a.058.058,0,0,1-.11,0C366.826,355.685,365.786,311.824,365.78,307.195Z" transform="translate(-319.017 -182.584)" fill="#263238"/>
      <path id="Path_32677" data-name="Path 32677" d="M320.615,275.01a41.292,41.292,0,0,1,.578-6.022,30.17,30.17,0,0,1,1.7-5.652c1.514-3.826,3.312-7.56,5.028-11.3s3.508-7.565,5.34-11.311q1.543-3.156,3.1-6.305c1.058-2.121,2.2-4.207,3.3-6.305.04-.081.173,0,.133.064-1.763,3.78-3.5,7.571-5.259,11.351s-3.468,7.577-5.2,11.368-3.4,7.467-5.011,11.241a37.28,37.28,0,0,0-1.959,5.554,32.575,32.575,0,0,0-.844,6c-.266,4.687-.393,9.4-.855,14.073,0,.058-.1.052-.1,0C320.424,283.518,320.488,279.246,320.615,275.01Z" transform="translate(-299.9 -149.29)" fill="#263238"/>
      <path id="Path_32678" data-name="Path 32678" d="M325.306,407.089c1.6-.208,13.767-.63,23.945-.2a.052.052,0,0,1,0,.1c-3.317.295-22.066.422-23.933.208C325.254,407.2,325.23,407.095,325.306,407.089Z" transform="translate(-301.915 -224.677)" fill="#263238"/>
      <path id="Path_32679" data-name="Path 32679" d="M346.922,225.928a52.592,52.592,0,0,1,8.588,2.976.1.1,0,0,1-.064.179c-2.89-.9-5.814-1.734-8.64-2.809a.185.185,0,0,1,.116-.347Z" transform="translate(-310.967 -148.38)" fill="#263238"/>
      <path id="Path_32680" data-name="Path 32680" d="M342.28,193.093c0-.092.168-.133.173,0,.318,3.283.821,6.144,1.41,9.178.277,1.41,2.225,9.155,4.624,8.328.4-.139.578-.578.578-1.2a9.826,9.826,0,0,0-.578-2.375c-.439-1.618-.832-3.248-1.156-4.9a45.762,45.762,0,0,1-.85-9.311.081.081,0,1,1,.162,0,85.833,85.833,0,0,0,2.063,12.761c.52,2.011,1.867,4.982-.243,5.519s-4.08-4.468-4.491-5.855A47.393,47.393,0,0,1,342.28,193.093Z" transform="translate(-309.099 -134.374)" fill="#263238"/>
      <path id="Path_32681" data-name="Path 32681" d="M352.627,223.906a12.886,12.886,0,0,1,.722,1.572,3.652,3.652,0,0,1,.364,1.312c0,.087-.11.11-.168.058a4.907,4.907,0,0,1-.705-1.248c-.237-.485-.485-.965-.711-1.456a.277.277,0,0,1,.5-.237Z" transform="translate(-313.25 -147.474)" fill="#263238"/>
      <path id="Path_32682" data-name="Path 32682" d="M360.775,268.531c-.139-3.9-.578-8,.705-11.767a39.142,39.142,0,0,1,2.508-5.346q1.422-2.745,2.8-5.537c3.67-7.409,7.126-14.94,10.212-22.615a47.768,47.768,0,0,0,3.352-11.449,35.2,35.2,0,0,0-.769-12.461c-.231-1.017-.48-2.029-.757-3.034,0-.069.092-.116.116-.04A41.079,41.079,0,0,1,381.09,208.2a33.779,33.779,0,0,1-2.069,11.386c-1.318,3.838-2.965,7.56-4.589,11.276q-2.514,5.733-5.2,11.386c-1.8,3.745-3.716,7.427-5.612,11.126a20.331,20.331,0,0,0-2.109,5.612,29.1,29.1,0,0,0-.225,6.144c.324,8.64,1.069,37.388,1.156,46,0,1.092.029,2.185.04,3.283a.075.075,0,1,1-.15,0C361.786,305.827,361.087,277.143,360.775,268.531Z" transform="translate(-316.826 -135.853)" fill="#263238"/>
      <path id="Path_32683" data-name="Path 32683" d="M371.515,197.791c0-.058.1-.046.1,0,.324,2.381.509,4.843,1.659,7a9.751,9.751,0,0,0,4.889,4.15,37.118,37.118,0,0,0,3.566,1.318c.087,0,.069.162-.029.139a18.8,18.8,0,0,1-6.554-2.277,8.191,8.191,0,0,1-3.549-5.993A20.561,20.561,0,0,1,371.515,197.791Z" transform="translate(-321.405 -136.49)" fill="#263238"/>
      <path id="Path_32684" data-name="Path 32684" d="M366.425,163.972c-.052.11-36.18,9.952-36.584,9.692-.04,0-1.532-.832-1.855-3.624-.092-.769.936-4.046.965-6.514.081-8.559-.254-24.453,2.075-32.989.624-2.312,5.566-4.924,8.276-3.254C351.514,134.791,366.495,163.827,366.425,163.972Z" transform="translate(-303.063 -106.525)" fill="#ebebeb"/>
      <path id="Path_32685" data-name="Path 32685" d="M344.43,126.447s1.341,18.223,1.826,20.338c.335,1.48,4.427,16.356,6.531,27.106.9,4.624.48,11.854.48,11.854s12.582-4.086,16.437-6.71c2.231-1.52,7.207-8.091,7.207-8.091s-7.964-17.668-12.5-24.3-13.16-18.119-17.2-19.795A4.072,4.072,0,0,0,344.43,126.447Z" transform="translate(-310.006 -106.358)" fill="#57b8ce"/>
      <path id="Path_32686" data-name="Path 32686" d="M367.561,162.267a2.017,2.017,0,0,0-1.075,1.6,6.358,6.358,0,0,0-.272,2.861c.075.52.306,1.289.982,1.156s1.052-1.289,1.231-1.878S369.138,161.6,367.561,162.267Zm-5.358,4.427c-.74.613-.659,1.873-.5,2.711a5.937,5.937,0,0,0,.67,1.959,1.734,1.734,0,0,0,.751.809c.919.376.988-.832,1.058-1.439a6.1,6.1,0,0,0-.41-3.341C363.469,166.763,362.885,166.128,362.2,166.694Zm2.6-7.039c-.578-.069-.884.364-1.046.936a5.271,5.271,0,0,0-.225,2.058c.046.422.139,1.156.607,1.329s.844-.306,1.011-.682c.3-.688.9-3.479-.347-3.641ZM356.036,189.1c-.445.907-1.352.156-2.081-.728h0c0-1.046.029-2.312,0-3.676l.2.162a6.445,6.445,0,0,1,1.67,2.312,2.034,2.034,0,0,1,.214,1.93Zm4.155-.4-1.324.48a5.728,5.728,0,0,1-1.682-2.433c-.116-.393-.168-1.011.318-1.156s1.017.324,1.329.607a5.276,5.276,0,0,1,1.156,1.7,1.584,1.584,0,0,1,.2.8Zm-3.4-31.209c.549-.029,1.063.751,1.306,1.156a5.652,5.652,0,0,1,.717,2.2c.058.445.22,1.387-.2,1.734-.5.41-.988-.058-1.347-.7a5.086,5.086,0,0,1-1.069-3.208C356.2,158.262,356.25,157.522,356.788,157.487ZM360.9,173.67c-.728.537-.416,1.6-.133,2.283a6.254,6.254,0,0,0,2.214,2.722c.41.277,1.029.613,1.468.451a.914.914,0,0,0,.578-1.1,5.779,5.779,0,0,0-1.67-3.2c-.532-.59-1.514-1.832-2.456-1.133Zm4.577.2c.485,1.624,1.381,2.312,1.8,2.121.832-.376.688-1.8.376-2.844-.243-.821-1.069-2.185-1.7-2.058-.514.127-.942,1.306-.48,2.8Zm-16.714-28.32a5.925,5.925,0,0,1-.954,1.838,4.416,4.416,0,0,1-1.352,1.3c-.1-.954-.2-2.057-.3-3.225h0a9.514,9.514,0,0,1,.9-.774c.485-.376,1.41-1.156,1.774-.231a1.734,1.734,0,0,1-.069,1.115Zm2.7-.543c.89.156,1.439-.8,1.734-1.48a6.189,6.189,0,0,0,.439-3.468c-.081-.485-.266-1.156-.682-1.376a.925.925,0,0,0-1.2.329,5.808,5.808,0,0,0-1.156,3.421c-.069.826-.289,2.4.867,2.6Zm-3.017-3.468c-.774,1.358-1.913,1.873-2.346,1.572a.462.462,0,0,1-.168-.231h0c0-.225-.04-.457-.064-.688h0a4.93,4.93,0,0,1,.549-1.734c.543-.948,1.474-2.034,2.312-1.688.433.22.555,1.341-.283,2.809Zm24.378,31.851a1.71,1.71,0,0,0,.185,1.971,5.369,5.369,0,0,0,1.081,1.347c.277.243.728.491,1.023.116s.069-1.156-.1-1.566c-.214-.48-1.329-2.948-2.19-1.826ZM361.5,153.979a1.41,1.41,0,0,0-.387,1.572,4.358,4.358,0,0,0,.474,1.329c.15.266.433.578.763.37s.364-.884.341-1.243c-.023-.428-.225-2.624-1.191-1.988Z" transform="translate(-310.614 -111.513)" fill="#263238"/>
      <path id="Path_32687" data-name="Path 32687" d="M332.6,131.4c2.04-.485,3.757-5.849,3.861-8.727,0-.2-.763-1.156-1.959-3.046-.728-1.156-1.5-2.456-2.127-3.693l-6.831,5.78a22.027,22.027,0,0,1,3.15,4.387,3.026,3.026,0,0,1,.2.532.96.96,0,0,0,.035.092C329.274,127.79,330.626,131.864,332.6,131.4Z" transform="translate(-302.034 -101.957)" fill="#eb9481"/>
      <path id="Path_32688" data-name="Path 32688" d="M329.8,127.887c-.139.075-.277.139-.41.2-.22-.578-.381-1.052-.468-1.329a.905.905,0,0,0-.029-.092,3.254,3.254,0,0,0-.2-.538,22.1,22.1,0,0,0-3.15-4.381l6.831-5.78c.133.26.266.52.41.786C333.574,119.576,334.475,125.4,329.8,127.887Z" transform="translate(-302.034 -101.973)" fill="#263238"/>
      <path id="Path_32689" data-name="Path 32689" d="M322.808,99.973c2.242,2.312,4.849,10.981,3.8,13.778-1.526,4.017-6.045,6.635-9.97,4.34-3.8-2.225-6.993-13.611-5.629-16.333C313.017,97.742,319.5,96.546,322.808,99.973Z" transform="translate(-295.764 -94.374)" fill="#eb9481"/>
      <path id="Path_32690" data-name="Path 32690" d="M322.56,117.11s.052,0,.064.035c.191.578.509,1.214,1.1,1.214,0,0,.029,0,0,.035C323.063,118.538,322.652,117.694,322.56,117.11Z" transform="translate(-300.776 -102.455)" fill="#263238"/>
      <path id="Path_32691" data-name="Path 32691" d="M322.832,115.706c.9-.41,1.653,1.416.821,1.792S322.081,116.053,322.832,115.706Z" transform="translate(-300.759 -101.837)" fill="#263238"/>
      <path id="Path_32692" data-name="Path 32692" d="M316.991,119.48s-.029.046,0,.069c.249.578.445,1.237,0,1.636h0C317.569,120.867,317.291,119.971,316.991,119.48Z" transform="translate(-298.42 -103.455)" fill="#263238"/>
      <path id="Path_32693" data-name="Path 32693" d="M315.331,118.8c-.936.306-.254,2.162.613,1.873S316.106,118.548,315.331,118.8Z" transform="translate(-297.535 -103.159)" fill="#263238"/>
      <path id="Path_32694" data-name="Path 32694" d="M322.181,112.433a7.512,7.512,0,0,1-.809.064,1.283,1.283,0,0,1-.832-.087.416.416,0,0,1-.15-.491,1.04,1.04,0,0,1,.907-.52,1.52,1.52,0,0,1,1.069.243.445.445,0,0,1-.185.792Z" transform="translate(-299.848 -100.037)" fill="#263238"/>
      <path id="Path_32695" data-name="Path 32695" d="M312.869,115.485a6.751,6.751,0,0,0,.647-.485,1.374,1.374,0,0,0,.578-.624.416.416,0,0,0-.22-.457,1.017,1.017,0,0,0-1.023.214,1.514,1.514,0,0,0-.636.89.445.445,0,0,0,.653.462Z" transform="translate(-296.408 -101.084)" fill="#263238"/>
      <path id="Path_32696" data-name="Path 32696" d="M326.706,125.261c-.081.185-.144.428-.341.526a1.624,1.624,0,0,1-.665.11v.04a.832.832,0,0,0,.844,0,.659.659,0,0,0,.237-.688A.047.047,0,0,0,326.706,125.261Z" transform="translate(-302.101 -105.884)" fill="#263238"/>
      <path id="Path_32697" data-name="Path 32697" d="M321.553,119.071a2.1,2.1,0,0,1-.93,1.387,2.59,2.59,0,0,1-.676.318l-.139.035-.133.035a.156.156,0,0,1-.168-.081h0V120.7h0v-.046c-.191-.428-.422-1.11-.422-1.11-.127.144-.786.844-.867.613a31.247,31.247,0,0,1-1.659-6.126.058.058,0,0,1,.11,0c.711,1.826,1.1,3.768,1.786,5.612a3.826,3.826,0,0,1,.792-.653c.069,0,.422,1.324.526,1.508h0a2.89,2.89,0,0,0,1.734-1.439C321.507,118.99,321.571,119.013,321.553,119.071Z" transform="translate(-298.244 -101.138)" fill="#263238"/>
      <path id="Path_32698" data-name="Path 32698" d="M325.013,105.72c-1.665.306-3.034-3.728-3.034-3.728s-2.237-.092-4.075-3.56c0,0-.168,4.046-7.068,5.45a5.994,5.994,0,0,1-.653-3.618,25.112,25.112,0,0,0-.5,4.127s-3.4-4.993.665-8.49c1.618-1.387,4.52-2.167,9.554-1.451,0,0,0-2.89.578-2.687s.445,2.89.445,2.89,1.7-1.214,2.156-.919-1.283,1.329-1.283,1.329a3.965,3.965,0,0,1,3.832,3.468C326.21,101.8,325.84,105.57,325.013,105.72Z" transform="translate(-294.78 -91.752)" fill="#263238"/>
      <path id="Path_32699" data-name="Path 32699" d="M330.68,97.577a3.624,3.624,0,0,1,4.468,1.734,6.739,6.739,0,0,1,.543,3,12.767,12.767,0,0,1-.514,3.167c0,.058-.1,0-.087-.035a9.536,9.536,0,0,0,.289-2.89,9.055,9.055,0,0,0-.445-2.78,3.468,3.468,0,0,0-4.225-2.086C330.657,97.693,330.628,97.6,330.68,97.577Z" transform="translate(-304.191 -94.117)" fill="#263238"/>
      <path id="Path_32700" data-name="Path 32700" d="M314.27,95.143a13.968,13.968,0,0,1,3.641.127,10.161,10.161,0,0,1,3.312.988c.052,0,0,.11-.035.087a18.494,18.494,0,0,0-6.566-.734c-2.046.081-4.254.809-5.2,2.8,0,.035-.064,0-.052,0C310.138,96.357,312.259,95.369,314.27,95.143Z" transform="translate(-295.208 -93.156)" fill="#263238"/>
      <path id="Path_32701" data-name="Path 32701" d="M334.47,112.153s.578-3.468,2.046-3.4,1.953,4.5.821,5.687a1.572,1.572,0,0,1-2.254.162Z" transform="translate(-305.802 -98.926)" fill="#eb9481"/>
      <path id="Path_32702" data-name="Path 32702" d="M337.357,111s.04,0,.029.035a3.937,3.937,0,0,0-.757,3.115.861.861,0,0,1,1.058-.774c.035,0,.029.058,0,.064a.971.971,0,0,0-.809.763,4.744,4.744,0,0,0-.081.994.1.1,0,0,1-.2,0h0C335.97,113.936,336.1,111.74,337.357,111Z" transform="translate(-306.545 -99.876)" fill="#263238"/>
      <path id="Path_32703" data-name="Path 32703" d="M340.569,138.827c2.93,10.264,4.791,29.6,3.306,33.111-1.318,3.109-11.218,10.334-16.911,14.194-1.855,1.26-10.837-12.935-8.785-14.171,2.8-1.676,12.825-8.305,13.068-9.022s1.156-15.246,2.7-23.575C335.332,131.816,339.465,134.943,340.569,138.827Z" transform="translate(-298.799 -109.902)" fill="#eb9481"/>
      <path id="Path_32704" data-name="Path 32704" d="M285.3,215.7c1.4,1.433,4.624-2.312,4.624-2.312a3.71,3.71,0,0,0,.341,2.491c.774,1.312,3.167.676,3.167.676a4.589,4.589,0,0,0,.786,2.566c.867,1.156,3.375.884,3.375.884a3.994,3.994,0,0,0,2.11,1.821c2.439.8,5.277-1.942,7.369-3.294a30.054,30.054,0,0,0,6.479-6.08l-8.38-13.721s-11.929,2.971-13.934,5.15C289.522,205.712,283.164,213.514,285.3,215.7Z" transform="translate(-284.868 -136.902)" fill="#eb9481"/>
      <path id="Path_32705" data-name="Path 32705" d="M293.627,219.312a33.654,33.654,0,0,1,5.063-6.4c.04-.04.11,0,.069.064-1.861,1.936-3.248,4.416-5.028,6.421a.069.069,0,0,1-.1-.081Z" transform="translate(-288.563 -142.879)" fill="#263238"/>
      <path id="Path_32706" data-name="Path 32706" d="M299.564,225.334a6.849,6.849,0,0,1,1.243-1.376c.474-.457.959-.907,1.445-1.347q1.474-1.329,3.005-2.572c.046-.035.11,0,.064.064-.971.884-1.93,1.78-2.89,2.7-.468.462-.936.925-1.4,1.393a8.579,8.579,0,0,1-1.364,1.266.092.092,0,0,1-.1-.127Z" transform="translate(-291.067 -145.89)" fill="#263238"/>
      <path id="Path_32707" data-name="Path 32707" d="M307,231.986a4.989,4.989,0,0,1,1.185-1.156l1.358-1.156c.9-.8,1.8-1.6,2.67-2.416a.047.047,0,0,1,.069.064c-.884.844-1.734,1.7-2.641,2.537-.433.41-.873.815-1.318,1.219a4.623,4.623,0,0,1-1.289,1.006A.461.461,0,0,1,307,231.986Z" transform="translate(-294.209 -148.936)" fill="#263238"/>
      <path id="Path_32708" data-name="Path 32708" d="M354.544,161.357l-15.934.2s2.046-17.564,4.248-25.21c1.849-6.427,5.7-5.837,7.814,2.462C352.672,146.654,354.544,161.357,354.544,161.357Z" transform="translate(-307.55 -108.736)" fill="#57b8ce"/>
      <path id="Path_32709" data-name="Path 32709" d="M355.535,161.928l-.052-.087a5.086,5.086,0,0,1-1.069-3.208c0-.364.046-1.023.48-1.156C355.142,159.246,355.373,160.772,355.535,161.928Zm-12.4-14.651a6.109,6.109,0,0,1,2.138-2.6c.485-.376,1.41-1.156,1.774-.231a1.734,1.734,0,0,1-.069,1.1,5.924,5.924,0,0,1-.954,1.838c-.5.694-1.352,1.618-2.312,1.508s-.821-.948-.578-1.607Zm5.67-4.855A5.808,5.808,0,0,1,349.963,139c.376-.433.832-.578,1.2-.329a2.347,2.347,0,0,1,.682,1.376,6.19,6.19,0,0,1-.439,3.468c-.306.682-.855,1.636-1.734,1.48-1.15-.173-.93-1.745-.89-2.56Zm-4.491.705c-.526-.37-.1-1.907.318-2.647.543-.948,1.474-2.034,2.312-1.688.428.173.549,1.295-.289,2.763-.763,1.37-1.919,1.878-2.341,1.584Zm-.942,16.31c-.087.422-.324,1.191-.809,1.347s-.688-.318-.774-.682a5.315,5.315,0,0,1-.127-1.734,1.735,1.735,0,0,1,.971-1.734c1.341-.4.861,2.266.74,2.815Z" transform="translate(-308.829 -111.503)" fill="#263238"/>
      <path id="Path_32710" data-name="Path 32710" d="M342.282,177.156a24.656,24.656,0,0,1,3.052-.231c1.052-.058,2.1-.075,3.156-.1s5.236.046,6.282.064c.046,0,.04.081,0,.087-1.052.058-5.23.295-6.259.312s-2.057.046-3.086.029a26.848,26.848,0,0,1-3.133-.11S342.254,177.162,342.282,177.156Z" transform="translate(-309.095 -127.656)" fill="#263238"/>
      <path id="Path_32711" data-name="Path 32711" d="M360.63,148.75c.381,1.618.722,3.248,1.046,4.878s.618,3.271.913,4.907.543,3.277.786,4.924c.127.821.225,1.647.318,2.474s.185,1.659.208,2.5v.069h-.069l-1.607-.046,1.6-.087-.064.069c-.191-1.647-.48-3.283-.757-4.918l-.832-4.913c-.26-1.641-.578-3.277-.809-4.918S360.844,150.4,360.63,148.75Z" transform="translate(-316.843 -115.808)" fill="#263238"/>
      <path id="Path_32712" data-name="Path 32712" d="M361.809,150.27a5.628,5.628,0,0,1,.208,1.514,4.993,4.993,0,0,1-.208,1.514,13.437,13.437,0,0,1-.081-1.514A10.318,10.318,0,0,1,361.809,150.27Z" transform="translate(-317.306 -116.45)" fill="#263238"/>
    </g>
    <g id="freepik--Plant--inject-58" transform="translate(41.059 196.957)">
      <path id="Path_32713" data-name="Path 32713" d="M99.21,375.235s9.883-2.242,15.3-7.23,8.444-13.934,8.444-13.934a85.472,85.472,0,0,0-11.085,2.89,18.772,18.772,0,0,0-3.352,4.739,22.792,22.792,0,0,1,0-3.387,14.813,14.813,0,0,0-3.52,2.138C100.476,364.433,99.21,375.235,99.21,375.235Z" transform="translate(-65.827 -325.433)" fill="#57b8ce"/>
      <path id="Path_32714" data-name="Path 32714" d="M112.471,359.463c1.347-.931,2.716-1.832,4.046-2.768a.078.078,0,0,0-.081-.133c-2.543,1.52-5.057,3.144-7.513,4.849-.85.578-1.676,1.208-2.5,1.838l.173-.289c.295-.5.613-.983.925-1.474a20.532,20.532,0,0,1,2.1-2.8c.029-.035,0-.081-.052-.046-.769.884-1.537,1.763-2.237,2.7-.335.451-.647.913-.942,1.387-.15.243-.3.491-.445.746l-.144.254c-1.277,1.006-2.526,2.052-3.71,3.156-.734.682-1.439,1.393-2.121,2.121.381-1.2.711-2.4,1.156-3.583,0-.04-.052-.058-.064,0-.433,1.237-.9,2.479-1.237,3.745a32.741,32.741,0,0,0-2.162,2.549l.035-.162c.116-.462.231-.931.353-1.393.243-.89.5-1.78.809-2.659a15.425,15.425,0,0,1,2.653-5.011c.029-.035,0-.081-.052-.046a19.24,19.24,0,0,0-3.78,7.9c-.11.422-.208.844-.306,1.266-.046.225-.11.457-.144.688-.3.4-.578.809-.873,1.225a42.824,42.824,0,0,0-4.184,8.2A96.728,96.728,0,0,0,89,391.609c0,.064.081.087.1,0,1.93-5.78,3.907-11.646,7.213-16.818a38.146,38.146,0,0,1,2.26-3.156,18.644,18.644,0,0,0,4.872-.954,21.3,21.3,0,0,0,4.82-2.312,30.708,30.708,0,0,0,2.468-1.867.035.035,0,0,0-.046-.052,19.536,19.536,0,0,1-4.525,2.74,24.85,24.85,0,0,1-4.988,1.676c-.728.156-1.468.277-2.208.376a41.62,41.62,0,0,1,2.89-3.231c.335-.329.676-.647,1.023-.971a22.868,22.868,0,0,1,3.653-2.092c1.618-.786,3.213-1.612,4.814-2.427.907-.462,1.8-.93,2.716-1.376.035,0,0-.075-.035-.058-1.624.786-3.277,1.514-4.918,2.266-1.537.711-3.1,1.422-4.583,2.248l-.185.116c1.335-1.156,2.722-2.277,4.144-3.346Q110.442,360.856,112.471,359.463Z" transform="translate(-61.518 -326.479)" fill="#263238"/>
      <path id="Path_32715" data-name="Path 32715" d="M125.131,370.408c-.8.353-1.624.665-2.422,1.035s-1.589.832-2.37,1.289c-.035,0,0,.069.035.052.786-.376,1.584-.728,2.364-1.121s1.589-.832,2.41-1.191C125.189,370.454,125.171,370.39,125.131,370.408Z" transform="translate(-74.739 -332.327)" fill="#263238"/>
      <path id="Path_32716" data-name="Path 32716" d="M43.66,304.52a14.125,14.125,0,0,1,2.953,8.207c0,.884-.11,2.121-.214,3.572a23.466,23.466,0,0,1,6.45,5.514,11.634,11.634,0,0,0-6.514-1.56,19.212,19.212,0,0,0,.376,2.953,11.085,11.085,0,0,1,4.19.827,9.426,9.426,0,0,0-3.78.751c1.763,5.606,7,11.363,21.459,13.807a30.319,30.319,0,0,0-2.56-20.344C61.686,309.722,43.66,304.52,43.66,304.52Z" transform="translate(-42.383 -304.52)" fill="#57b8ce"/>
      <path id="Path_32717" data-name="Path 32717" d="M76.4,365.4c-.249-2.393-.578-4.785-.936-7.161a141.936,141.936,0,0,0-2.89-14.154,55.958,55.958,0,0,0-2.086-6.45,9.773,9.773,0,0,0,.058-1.156v-1.387c0-.925-.058-1.849-.133-2.774a33.145,33.145,0,0,0-.89-5.421c-.266-1.029-.578-2.046-.873-3.063a.035.035,0,0,0-.064,0,40.035,40.035,0,0,1,1.063,5.415,51.72,51.72,0,0,1,.491,5.427V336.8a46.428,46.428,0,0,0-2.433-5.04,61.211,61.211,0,0,0-4.965-7.4,3.422,3.422,0,0,0-.121-.8l-.208-.971c-.15-.659-.318-1.318-.5-1.971-.358-1.312-.832-2.578-1.243-3.872,0-.04-.075,0-.064,0,.381,1.277.636,2.607.931,3.913.144.642.283,1.289.428,1.936.069.318.139.642.2.965v.075c-.578-.74-1.156-1.468-1.792-2.185-2.763-3.237-5.78-6.225-8.837-9.189-.376-.364-.757-.717-1.156-1.081-.029-.029-.075,0-.046.052,2.89,3.04,5.78,6.109,8.5,9.328.647.763,1.277,1.537,1.9,2.312l-.983-.653c-.844-.549-1.693-1.087-2.572-1.578s-1.734-.971-2.664-1.416-1.919-.832-2.815-1.358c-.035,0-.069.046-.029.064a20.62,20.62,0,0,1,2.635,1.462c.884.52,1.734,1.046,2.624,1.6s1.7,1.069,2.549,1.618c.705.457,1.4.954,2.127,1.376a67.945,67.945,0,0,1,4.624,6.745,50.16,50.16,0,0,1,2.4,4.543l-.52-.225-1.324-.578-2.56-1.115c-1.618-.705-3.265-1.352-4.861-2.127a21.5,21.5,0,0,1-2.595-1.445c-.035,0-.064.035,0,.064a59.211,59.211,0,0,0,9.571,4.936l1.422.624c.387.173.78.37,1.156.52a51.216,51.216,0,0,1,2.445,6.7,136.289,136.289,0,0,1,3.144,13.992c.832,4.722,1.393,9.478,1.826,14.252.052.578.1,1.191.173,1.786a.191.191,0,0,0,.376,0A64.407,64.407,0,0,0,76.4,365.4Z" transform="translate(-45.199 -307.327)" fill="#263238"/>
      <path id="Path_32718" data-name="Path 32718" d="M79.4,332.689c-.266-1.474-.659-2.89-1.052-4.352,0-.04-.075,0-.064,0,.364,1.41.624,2.849.89,4.288s.509,2.924.717,4.4h.04A39.344,39.344,0,0,0,79.4,332.689Z" transform="translate(-56.997 -314.564)" fill="#263238"/>
      <path id="Path_32719" data-name="Path 32719" d="M64.72,340.34a26.225,26.225,0,0,0-3.144-1.769c-.532-.272-1.063-.532-1.6-.792s-1.156-.485-1.67-.763a.036.036,0,1,0-.035.064c.532.26,1.035.578,1.555.867s1.063.578,1.6.878a34.357,34.357,0,0,0,3.208,1.659.083.083,0,1,0,.081-.144Z" transform="translate(-48.543 -318.233)" fill="#263238"/>
      <path id="Path_32720" data-name="Path 32720" d="M99.52,342.783s9.143-2.185,13.345-8.317c4.005-5.86,5.306-15.847,5.4-16.726-.162.8-2.052,9.536-8.276,13.6C105.224,334.454,100.618,337.015,99.52,342.783Z" transform="translate(-65.958 -310.099)" fill="#263238" opacity="0.1"/>
      <path id="Path_32721" data-name="Path 32721" d="M111.659,333.724a11.7,11.7,0,0,0-3.369,5.554h0a13.628,13.628,0,0,1,3.387-5.514C111.735,333.747,111.688,333.695,111.659,333.724Z" transform="translate(-69.66 -316.842)" fill="#263238"/>
      <path id="Path_32722" data-name="Path 32722" d="M99.392,342.736s9.143-2.185,13.345-8.317c4.005-5.86,5.306-15.847,5.4-16.726a.26.26,0,0,0,0-.064s-4.381,6.236-8.993,7.825S98.069,332.547,99.392,342.736Z" transform="translate(-65.83 -310.053)" fill="#57b8ce"/>
      <path id="Path_32723" data-name="Path 32723" d="M113.81,323.569a37.762,37.762,0,0,1-2.826,4.837,19.4,19.4,0,0,1-3.762,3.866c-1.243.988-2.555,1.884-3.814,2.849a.322.322,0,0,0,0-.046q.353-.52.746-1.023c.526-.67,1.1-1.3,1.676-1.925a45.236,45.236,0,0,0,3.312-3.774,13.669,13.669,0,0,0,1.468-2.364c0-.04-.046-.058-.064,0-1.485,3.092-4.444,5.069-6.56,7.681a12.851,12.851,0,0,0-.844,1.156,4.444,4.444,0,0,0-.526.93,19.158,19.158,0,0,0-3.121,3.15,13.05,13.05,0,0,1,.364-1.774,9.079,9.079,0,0,1,.971-2.312c0-.035-.035-.069-.058-.035a10.928,10.928,0,0,0-1.063,2.312,8.276,8.276,0,0,0-.335,1.977h0a18.026,18.026,0,0,0-1.231,1.919c.035-.2.075-.387.11-.578.185-.913.387-1.821.618-2.722a16.217,16.217,0,0,1,2.2-5.15.035.035,0,1,0-.058-.035,19.338,19.338,0,0,0-2.433,5.04c-.295.9-.526,1.809-.734,2.728-.1.451-.191.9-.277,1.358-.04.231-.092.468-.133.711a33.389,33.389,0,0,0-2.11,6.2,91.047,91.047,0,0,0-1.948,11.559,95.8,95.8,0,0,0-.607,12.253c0,.514.04,1.029.064,1.537a.107.107,0,1,0,.214,0c.092-2.029.144-4.046.266-6.092s.295-4.046.509-6.074a109.02,109.02,0,0,1,1.907-11.825,30.437,30.437,0,0,1,3.531-9.634,18.038,18.038,0,0,1,3.3-3.924c1.283-1.156,2.682-2.161,4.046-3.225a22.276,22.276,0,0,0,3.7-3.56,28.864,28.864,0,0,0,2.89-4.722c.214-.416.439-.826.659-1.237C113.885,323.569,113.827,323.535,113.81,323.569Z" transform="translate(-63.106 -312.554)" fill="#263238"/>
      <path id="Path_32724" data-name="Path 32724" d="M124.96,325.886a31.551,31.551,0,0,1-2.04,3.566s0,.052.04.029a25.24,25.24,0,0,0,2.063-3.572C125.041,325.869,124.978,325.852,124.96,325.886Z" transform="translate(-75.834 -313.53)" fill="#263238"/>
      <path id="Path_32725" data-name="Path 32725" d="M41.45,354.07s-.144,13,7.629,16.761,11.935.624,17.217,1.884h0c-.208-.312-3.976-5.727-9.97-7.219C50.154,363.941,43.322,359.485,41.45,354.07Z" transform="translate(-41.45 -325.433)" fill="#57b8ce"/>
      <path id="Path_32726" data-name="Path 32726" d="M41.45,354.07s-.144,13,7.629,16.761,11.935.624,17.217,1.884h0a29.335,29.335,0,0,0-8.837-2.607C52.552,369.5,43.189,366.305,41.45,354.07Z" transform="translate(-41.45 -325.433)" opacity="0.1"/>
      <path id="Path_32727" data-name="Path 32727" d="M69.3,378.761a12.893,12.893,0,0,0-3.075-2.092c-.168-.081-.335-.144-.509-.22a3.161,3.161,0,0,0-.26-.295c-.231-.243-.474-.48-.728-.7a11.564,11.564,0,0,0-1.584-1.15c-1.283-.757-2.693-1.283-4.011-1.988-.04,0-.075.04-.035.058.653.341,1.283.711,1.913,1.081s1.248.705,1.844,1.092A12.972,12.972,0,0,1,64.4,375.7c.139.121.272.248.4.381a20.731,20.731,0,0,0-2.618-.682c-1.422-.283-2.89-.491-4.283-.792a21.208,21.208,0,0,1-2.057-.578c-.647-.52-1.289-1.035-1.9-1.6a15.269,15.269,0,0,1-2.017-2.173c0-.035-.087,0-.058.035a23.832,23.832,0,0,0,3.185,3.514c-.335-.127-.665-.26-.994-.41a16.078,16.078,0,0,1-6.623-5.508c0-.035-.081,0-.058.035a18.327,18.327,0,0,0,5.358,5.144,16.35,16.35,0,0,0,3.387,1.6,31.575,31.575,0,0,0,4.207.994,30.212,30.212,0,0,1,4.115.954,12.448,12.448,0,0,1,3.468,1.821,16.183,16.183,0,0,1,4.624,5.779,28.955,28.955,0,0,1,2.566,9.5c0,.139.231.139.22,0C74.974,388.239,73.518,382.552,69.3,378.761Z" transform="translate(-43.95 -331.259)" fill="#263238"/>
      <path id="Path_32728" data-name="Path 32728" d="M67.14,377.162a4.439,4.439,0,0,0-1.572-1.451,5.733,5.733,0,0,1-1.9-1.572c-.029-.035-.087,0-.058.035a6.3,6.3,0,0,0,1.676,1.5,5.861,5.861,0,0,1,1.826,1.514C67.111,377.22,67.157,377.191,67.14,377.162Z" transform="translate(-50.801 -333.897)" fill="#263238"/>
      <path id="Path_32729" data-name="Path 32729" d="M76.85,403.31l.353,7.143,1.087,21.835h16.3l1.087-21.835.353-7.143Z" transform="translate(-56.39 -346.214)" fill="#455a64"/>
      <path id="Path_32730" data-name="Path 32730" d="M76.85,403.31l.353,7.143H95.674l.353-7.143Z" transform="translate(-56.39 -346.214)" fill="#263238"/>
      <rect id="Rectangle_17985" data-name="Rectangle 17985" width="21.459" height="6.82" transform="translate(40.78 60.928) rotate(180)" fill="#455a64"/>
    </g>
  </g>
</svg>
