<svg xmlns="http://www.w3.org/2000/svg" width="105.1" height="214.179" viewBox="0 0 105.1 214.179">
  <g id="Successful_purchase-pana" data-name="Successful purchase-pana" transform="translate(-112.438 -94.25)">
    <g id="freepik--Device--inject-215" transform="translate(112.438 94.25)">
      <path id="Path_32298" data-name="Path 32298" d="M255.986,308.429l-72.671-.335A15.83,15.83,0,0,1,167.56,292.2l.768-182.189A15.836,15.836,0,0,1,184.233,94.25l72.671.335a15.825,15.825,0,0,1,15.755,15.894l-.768,182.183A15.836,15.836,0,0,1,255.986,308.429Z" transform="translate(-167.56 -94.25)" fill="#263238"/>
      <path id="Path_32299" data-name="Path 32299" d="M259.248,103.452l-14.092-.069a3.506,3.506,0,0,0-3.436,3.563V109.5a3.5,3.5,0,0,1-3.436,3.563l-27.462-.127a3.506,3.506,0,0,1-3.407-3.592v-2.558a3.506,3.506,0,0,0-3.407-3.592h-4.955l-12.33-.052a11.089,11.089,0,0,0-11.141,11.037l-.751,177.829A11.089,11.089,0,0,0,185.9,303.117l72.527.335a11.083,11.083,0,0,0,11.135-11.037l.745-177.805a11.083,11.083,0,0,0-11.06-11.158Z" transform="translate(-170.631 -98.006)" fill="#fafafa"/>
      <path id="Path_32300" data-name="Path 32300" d="M191.422,134.366a.3.3,0,0,1-.208-.092l-1.1-1.155a.266.266,0,0,1-.081-.2.283.283,0,0,1,.087-.2l1.109-1.057a.283.283,0,0,1,.4,0,.289.289,0,0,1,0,.41l-.9.855.907.947a.289.289,0,0,1,0,.41A.3.3,0,0,1,191.422,134.366Z" transform="translate(-177.052 -110.017)" fill="#263238"/>
      <path id="Path_32301" data-name="Path 32301" d="M242.93,410.108h1.825a2.247,2.247,0,1,1,0,4.487H242.93Zm1.8,4.077a1.837,1.837,0,1,0,0-3.667H243.4v3.667Z" transform="translate(-199.401 -227.688)" fill="#fafafa"/>
      <path id="Path_32302" data-name="Path 32302" d="M251.4,412.221a2.356,2.356,0,1,1,2.362,2.281,2.252,2.252,0,0,1-2.362-2.281Zm4.239,0a1.889,1.889,0,1,0-1.877,1.86,1.814,1.814,0,0,0,1.877-1.86Z" transform="translate(-202.979 -227.555)" fill="#fafafa"/>
      <path id="Path_32303" data-name="Path 32303" d="M265.134,410.11V414.6h-.387l-2.888-3.638V414.6h-.479V410.11h.393l2.888,3.639V410.11Z" transform="translate(-207.196 -227.69)" fill="#fafafa"/>
      <path id="Path_32304" data-name="Path 32304" d="M273.581,414.187v.41H270.41V410.11h3.073v.41h-2.6v1.594h2.31v.4h-2.31v1.669Z" transform="translate(-211.01 -227.69)" fill="#fafafa"/>
      <path id="Path_32326" data-name="Path 32326" d="M209.7,262.965H207.26V261.81h6.249v1.155h-2.443v6.209H209.7Z" transform="translate(-184.332 -165.038)" fill="#57b8ce"/>
      <path id="Path_32327" data-name="Path 32327" d="M225.167,265.641v3.223h-1.311v-3.049c0-1-.5-1.484-1.334-1.484a1.5,1.5,0,0,0-1.571,1.692v2.841H219.64V261.05h1.311v2.859a2.512,2.512,0,0,1,1.871-.716A2.169,2.169,0,0,1,225.167,265.641Z" transform="translate(-189.562 -164.717)" fill="#57b8ce"/>
      <path id="Path_32328" data-name="Path 32328" d="M236.51,267.126v3.292h-1.236v-.687a1.992,1.992,0,0,1-1.767.756c-1.282,0-2.1-.7-2.1-1.681s.635-1.669,2.339-1.669h1.467v-.087c0-.768-.462-1.219-1.4-1.219a2.773,2.773,0,0,0-1.733.578l-.514-.953a3.933,3.933,0,0,1,2.374-.7C235.574,264.735,236.51,265.5,236.51,267.126Zm-1.294,1.53v-.647h-1.357c-.9,0-1.155.335-1.155.745s.4.78,1.074.78A1.427,1.427,0,0,0,235.216,268.657Z" transform="translate(-194.534 -166.283)" fill="#57b8ce"/>
      <path id="Path_32329" data-name="Path 32329" d="M248.683,267.2v3.223h-1.317v-3.049c0-1-.491-1.484-1.334-1.484a1.5,1.5,0,0,0-1.565,1.692v2.842H243.15V264.8H244.4v.728a2.449,2.449,0,0,1,1.935-.791A2.184,2.184,0,0,1,248.683,267.2Z" transform="translate(-199.494 -166.273)" fill="#57b8ce"/>
      <path id="Path_32330" data-name="Path 32330" d="M257.913,266.444l-.976.93v1.484H255.62V261.05h1.317v4.707l2.72-2.524h1.577l-2.345,2.356,2.564,3.263h-1.571Z" transform="translate(-204.762 -164.717)" fill="#57b8ce"/>
      <path id="Path_32331" data-name="Path 32331" d="M276.715,264.83l-2.628,6.07a2.175,2.175,0,0,1-2.166,1.658,2.311,2.311,0,0,1-1.5-.514l.526-.965a1.4,1.4,0,0,0,.964.387c.462,0,.739-.219.988-.78l.1-.219-2.449-5.637h1.363l1.767,4.153,1.779-4.153Z" transform="translate(-211.015 -166.314)" fill="#57b8ce"/>
      <path id="Path_32332" data-name="Path 32332" d="M281.659,267.425a2.992,2.992,0,1,1,2.986,2.888,2.83,2.83,0,0,1-2.986-2.888Zm4.661,0a1.669,1.669,0,1,0-1.675,1.733,1.64,1.64,0,0,0,1.675-1.733Z" transform="translate(-215.762 -166.103)" fill="#57b8ce"/>
      <path id="Path_32333" data-name="Path 32333" d="M299.611,264.83v5.619h-1.253v-.716a2.31,2.31,0,0,1-1.808.785,2.218,2.218,0,0,1-2.42-2.478V264.83h1.317v3.032c0,1.016.479,1.5,1.311,1.5a1.525,1.525,0,0,0,1.536-1.692V264.83Z" transform="translate(-221.031 -166.314)" fill="#57b8ce"/>
      <path id="Path_32334" data-name="Path 32334" d="M306.18,268.423a.82.82,0,1,1,.25.59A.814.814,0,0,1,306.18,268.423Zm.075-6.613h1.554l-.26,4.921H306.5Z" transform="translate(-226.122 -165.038)" fill="#57b8ce"/>
      <circle id="Ellipse_6612" data-name="Ellipse 6612" cx="15.12" cy="15.12" r="15.12" transform="translate(38.279 55.519)" fill="#c8523b"/>
      <path id="Path_32335" data-name="Path 32335" d="M262.766,205.506c.191.156-2.634,3.956-6.307,8.484l-2.229,2.7-.306.37-.323-.335c-2.888-2.963-4.834-5.157-4.7-5.3s2.339,1.819,5.3,4.69l-.624.064,2.183-2.732C259.433,208.9,262.569,205.35,262.766,205.506Z" transform="translate(-201.922 -141.25)" fill="#fff"/>
      <path id="Path_32336" data-name="Path 32336" d="M295.372,204.949c-.451-1.588-2.512-1.432-2.512-1.432l.052,1.1c1.2-.208,1.935,1.19,1.935,1.19Z" transform="translate(-220.495 -140.41)" fill="#57b8ce"/>
      <path id="Path_32337" data-name="Path 32337" d="M219.532,210.725c-.445-1.588-2.512-1.438-2.512-1.438l.058,1.109c1.2-.208,1.935,1.19,1.935,1.19Z" transform="translate(-188.455 -142.848)" fill="#e0e0e0"/>
      <path id="Path_32338" data-name="Path 32338" d="M262.646,171.635c2.4.728,3.887-2.033,3.887-2.033l-1.455-.832c-.716,1.692-3.107,1.5-3.107,1.5Z" transform="translate(-207.445 -125.732)" fill="#e0e0e0"/>
      <path id="Path_32339" data-name="Path 32339" d="M239.217,178.88c-1.115.121-1.247,1.519-1.247,1.519l.745.087c0-.82,1.022-1.155,1.022-1.155Z" transform="translate(-197.306 -130.003)" fill="#57b8ce"/>
      <path id="Path_32340" data-name="Path 32340" d="M318.627,195.438c.162-1.109-1.155-1.588-1.155-1.588l-.271.7c.8.2.872,1.276.872,1.276Z" transform="translate(-230.778 -136.327)" fill="#e0e0e0"/>
      <path id="Path_32341" data-name="Path 32341" d="M250.346,152.448c.162-1.109-1.155-1.588-1.155-1.588l-.271.7c.8.2.872,1.271.872,1.271Z" transform="translate(-201.932 -118.166)" fill="#57b8ce"/>
      <path id="Path_32342" data-name="Path 32342" d="M203.7,184.048c-.2,1.733,2.1,2.16,2.1,2.16l.416-1.155c-1.38-.127-1.577-1.733-1.577-1.733Z" transform="translate(-182.823 -131.879)" fill="#57b8ce"/>
      <path id="Path_32343" data-name="Path 32343" d="M292.149,172.572c1.12.064,1.479-1.294,1.479-1.294l-.722-.208c-.133.809-1.2.976-1.2.976Z" transform="translate(-220.009 -126.704)" fill="#57b8ce"/>
      <path id="Path_32344" data-name="Path 32344" d="M301.708,181.5a2.591,2.591,0,0,1-.924.087,2.562,2.562,0,0,1-.924-.087A4.667,4.667,0,0,1,301.708,181.5Z" transform="translate(-223.452 -131.072)" fill="#e0e0e0"/>
      <path id="Path_32345" data-name="Path 32345" d="M304.692,177.22a5.094,5.094,0,0,1,0,1.871A4.784,4.784,0,0,1,304.692,177.22Z" transform="translate(-225.455 -129.302)" fill="#e0e0e0"/>
      <path id="Path_32346" data-name="Path 32346" d="M306.56,181.389a2.591,2.591,0,0,1,.924-.087,2.563,2.563,0,0,1,.924.087A4.665,4.665,0,0,1,306.56,181.389Z" transform="translate(-226.283 -131.022)" fill="#e0e0e0"/>
      <path id="Path_32347" data-name="Path 32347" d="M304.8,184.447a4.811,4.811,0,0,1,0-1.877A5.128,5.128,0,0,1,304.8,184.447Z" transform="translate(-225.501 -131.562)" fill="#e0e0e0"/>
      <path id="Path_32348" data-name="Path 32348" d="M306.964,183.423c-.035.029-.214-.121-.4-.335s-.295-.422-.26-.451.219.116.4.335S307,183.359,306.964,183.423Z" transform="translate(-226.172 -131.589)" fill="#e0e0e0"/>
      <path id="Path_32349" data-name="Path 32349" d="M306.8,179c.035.04-.087.219-.277.41s-.37.318-.4.283.087-.219.277-.41A1.075,1.075,0,0,1,306.8,179Z" transform="translate(-226.092 -130.054)" fill="#e0e0e0"/>
      <path id="Path_32350" data-name="Path 32350" d="M303.159,179.872c-.035.04-.208-.052-.387-.2s-.295-.3-.266-.335.2.052.381.2S303.188,179.837,303.159,179.872Z" transform="translate(-224.568 -130.192)" fill="#e0e0e0"/>
      <path id="Path_32351" data-name="Path 32351" d="M303.033,182.446c.04.029-.069.208-.243.4s-.341.312-.375.277.069-.214.242-.4S303,182.411,303.033,182.446Z" transform="translate(-224.529 -131.507)" fill="#e0e0e0"/>
      <path id="Path_32352" data-name="Path 32352" d="M214.588,172.579a4.666,4.666,0,0,1-1.848,0,2.593,2.593,0,0,1,.924-.087A2.565,2.565,0,0,1,214.588,172.579Z" transform="translate(-186.647 -127.3)" fill="#57b8ce"/>
      <path id="Path_32353" data-name="Path 32353" d="M217.572,168.3a4.812,4.812,0,0,1,0,1.877,4.809,4.809,0,0,1,0-1.877Z" transform="translate(-188.649 -125.533)" fill="#57b8ce"/>
      <path id="Path_32354" data-name="Path 32354" d="M219.45,172.482a4.667,4.667,0,0,1,1.848,0A4.665,4.665,0,0,1,219.45,172.482Z" transform="translate(-189.482 -127.261)" fill="#57b8ce"/>
      <path id="Path_32355" data-name="Path 32355" d="M217.682,175.531a4.78,4.78,0,0,1,0-1.871A4.784,4.784,0,0,1,217.682,175.531Z" transform="translate(-188.696 -127.798)" fill="#57b8ce"/>
      <path id="Path_32356" data-name="Path 32356" d="M219.853,174.422c-.04.035-.219-.115-.4-.335s-.3-.416-.26-.451.214.121.4.335S219.887,174.422,219.853,174.422Z" transform="translate(-189.37 -127.786)" fill="#57b8ce"/>
      <path id="Path_32357" data-name="Path 32357" d="M219.687,170.091c.035.035-.092.219-.277.41s-.37.312-.4.277.087-.214.277-.4S219.653,170.033,219.687,170.091Z" transform="translate(-189.291 -126.285)" fill="#57b8ce"/>
      <path id="Path_32358" data-name="Path 32358" d="M216.043,170.956c-.029.035-.2-.052-.381-.2s-.3-.3-.266-.341.2.052.381.2S216.077,170.915,216.043,170.956Z" transform="translate(-187.766 -126.422)" fill="#57b8ce"/>
      <path id="Path_32359" data-name="Path 32359" d="M215.918,173.526c.035.035-.075.214-.243.4s-.341.312-.381.277.075-.214.243-.4S215.877,173.491,215.918,173.526Z" transform="translate(-187.722 -127.739)" fill="#57b8ce"/>
      <path id="Path_32360" data-name="Path 32360" d="M320.651,130.926a55.5,55.5,0,0,1-8.161,0,55.516,55.516,0,0,1,8.161,0Z" transform="translate(-228.788 -109.672)" fill="#263238"/>
      <path id="Path_32361" data-name="Path 32361" d="M320.651,133.877a55.516,55.516,0,0,1-8.161,0,55.516,55.516,0,0,1,8.161,0Z" transform="translate(-228.788 -110.92)" fill="#263238"/>
      <path id="Path_32362" data-name="Path 32362" d="M320.651,136.807a55.516,55.516,0,0,1-8.161,0,55.5,55.5,0,0,1,8.161,0Z" transform="translate(-228.788 -112.158)" fill="#263238"/>
      <rect id="Rectangle_17918" data-name="Rectangle 17918" width="19.018" height="24.008" transform="translate(63.151 164.421) rotate(-179.55)" fill="#ebebeb"/>
      <path id="Path_32363" data-name="Path 32363" d="M261.894,338.593l-.341,23.24-3-.023.647-23.24Z" transform="translate(-206 -197.467)" fill="#fafafa"/>
      <path id="Path_32364" data-name="Path 32364" d="M225.249,338.3l10.91.087,19.018.15-19.036,2.5-.162,20.595-10.91-.087Z" transform="translate(-191.856 -197.353)" fill="#e0e0e0"/>
      <path id="Path_32365" data-name="Path 32365" d="M232.983,338.363l-.433,23.246-3.24-.029.531-23.24Z" transform="translate(-193.647 -197.37)" fill="#fafafa"/>
      <path id="Path_32366" data-name="Path 32366" d="M244,320.621c0,.15-.318.3-.9.445a14.961,14.961,0,0,1-4.314.312,7.086,7.086,0,0,1-1.011-.11,8.213,8.213,0,0,1-1.109-.237,3.363,3.363,0,0,1-.687-.295,2.2,2.2,0,0,1-.722-.681,2.027,2.027,0,0,1-.312-1.045,3.468,3.468,0,0,1,.092-.809,14.047,14.047,0,0,1,.728-2.408,6.488,6.488,0,0,1,.7-1.224,5.194,5.194,0,0,1,.468-.578,3.576,3.576,0,0,1,.635-.514,2.567,2.567,0,0,1,.861-.347,2.276,2.276,0,0,1,.988.029,3.21,3.21,0,0,1,1.3.716,10.671,10.671,0,0,1,2.5,3.067,7.507,7.507,0,0,1,.837,2.5c.075.624,0,.976-.139,1-.306.075-.751-1.155-1.964-2.691a12.378,12.378,0,0,0-2.443-2.31,1.431,1.431,0,0,0-.578-.283.205.205,0,0,0-.1,0,.761.761,0,0,0-.162.087,1.89,1.89,0,0,0-.243.214c-.087.1-.185.219-.271.341a4.716,4.716,0,0,0-.456.832,16.164,16.164,0,0,0-.653,2.039,1.442,1.442,0,0,0-.058.3h-.058c-.069,0-.087.035-.04,0l.069-.052a.207.207,0,0,0,.052.052,1.44,1.44,0,0,0,.271.139,7.48,7.48,0,0,0,.849.254c.294.081.578.144.872.2.578.115,1.115.2,1.617.266,1.011.133,1.854.225,2.437.335S243.99,320.476,244,320.621Z" transform="translate(-196.026 -186.702)" fill="#e0e0e0"/>
      <path id="Path_32367" data-name="Path 32367" d="M249.837,320.092c-.052-.3,1.369-.745,3.586-1.4a30.506,30.506,0,0,0,3.742-1.34,3.8,3.8,0,0,0,.814-.45c.087-.075.127-.139.116-.133s0,.087-.029.046a2.315,2.315,0,0,0-.133-.335l-.277-.578a9.251,9.251,0,0,0-.578-1.034,4.283,4.283,0,0,0-.676-.809,3.688,3.688,0,0,0-.381-.306,1.7,1.7,0,0,0-.347-.185.86.86,0,0,0-.578-.052,1.838,1.838,0,0,0-.67.387,14.6,14.6,0,0,0-2.6,2.824c-1.276,1.813-1.611,3.228-1.929,3.182-.139,0-.242-.4-.191-1.1a7.936,7.936,0,0,1,.82-2.83,12.459,12.459,0,0,1,2.6-3.546,3.749,3.749,0,0,1,1.351-.849,2.888,2.888,0,0,1,1.883,0,3.881,3.881,0,0,1,.791.393,4.785,4.785,0,0,1,.641.485,6.057,6.057,0,0,1,1.04,1.213,9.953,9.953,0,0,1,.71,1.288l.277.612a3.415,3.415,0,0,1,.283.872,1.963,1.963,0,0,1-.214,1.259,2.356,2.356,0,0,1-.7.78,5.307,5.307,0,0,1-1.3.647,19.594,19.594,0,0,1-4.164,1C251.35,320.456,249.872,320.369,249.837,320.092Z" transform="translate(-202.26 -186)" fill="#ebebeb"/>
      <rect id="Rectangle_17919" data-name="Rectangle 17919" width="27.953" height="7.947" transform="translate(57.895 141.131) rotate(-179.55)" fill="#e0e0e0"/>
      <rect id="Rectangle_17920" data-name="Rectangle 17920" width="25.267" height="7.947" transform="translate(65.485 141.188) rotate(-179.55)" fill="#ebebeb"/>
      <path id="Path_32368" data-name="Path 32368" d="M265.334,324.853l-.179,7.981-2.945-.058.208-7.947Z" transform="translate(-207.546 -191.662)" fill="#fafafa"/>
      <path id="Path_32369" data-name="Path 32369" d="M228.789,324.609l-.289,7.912-3.24-.029.173-7.953Z" transform="translate(-191.936 -191.539)" fill="#fafafa"/>
      <rect id="Rectangle_17921" data-name="Rectangle 17921" width="10.777" height="13.601" transform="translate(75.513 163.919) rotate(-179.55)" fill="#ebebeb"/>
      <path id="Path_32370" data-name="Path 32370" d="M289.794,355.211l-.191,13.174-1.7-.012.364-13.173Z" transform="translate(-218.399 -204.492)" fill="#fafafa"/>
      <path id="Path_32371" data-name="Path 32371" d="M269.028,355.05l6.185.046,10.777.087L275.2,356.6l-.092,11.666-6.18-.046Z" transform="translate(-210.385 -204.429)" fill="#e0e0e0"/>
      <path id="Path_32372" data-name="Path 32372" d="M273.409,355.087l-.243,13.168-1.837-.012.3-13.173Z" transform="translate(-211.399 -204.437)" fill="#fafafa"/>
      <path id="Path_32373" data-name="Path 32373" d="M279.543,344.957c0,.2-.7.445-1.941.578a7.046,7.046,0,0,1-2.258-.185,1.524,1.524,0,0,1-.872-.578,1.317,1.317,0,0,1-.2-.664,2.257,2.257,0,0,1,.052-.5,8.141,8.141,0,0,1,.422-1.392,4.11,4.11,0,0,1,.41-.722,2.561,2.561,0,0,1,.693-.67,1.514,1.514,0,0,1,1.155-.2,2.039,2.039,0,0,1,.791.439,5.964,5.964,0,0,1,1.421,1.79c.578,1.155.5,2.016.306,2.044s-.5-.629-1.2-1.467a7.289,7.289,0,0,0-1.38-1.276.706.706,0,0,0-.26-.133h0l-.04.029a1.251,1.251,0,0,0-.248.277,2.306,2.306,0,0,0-.242.445,8.668,8.668,0,0,0-.364,1.155l-.035.133h-.179a.412.412,0,0,0,.1-.093l.035-.035h0a.571.571,0,0,0,.127.069,10.062,10.062,0,0,0,1.854.433C278.786,344.61,279.543,344.743,279.543,344.957Z" transform="translate(-212.641 -198.321)" fill="#e0e0e0"/>
      <path id="Path_32374" data-name="Path 32374" d="M282.88,344.6c-.04-.231.762-.537,2-.947a20.284,20.284,0,0,0,2.079-.791,1.923,1.923,0,0,0,.41-.237c.035-.029.035-.052,0,0a.347.347,0,0,0-.04.162l-.214-.45a5.526,5.526,0,0,0-.318-.578,1.943,1.943,0,0,0-.347-.416,1.154,1.154,0,0,0-.341-.243.278.278,0,0,0-.179,0,.711.711,0,0,0-.312.173,8.778,8.778,0,0,0-1.473,1.525c-.745.976-.988,1.761-1.224,1.733s-.381-.959.219-2.31a6.931,6.931,0,0,1,1.479-2.085,2.351,2.351,0,0,1,.832-.531,1.819,1.819,0,0,1,1.2,0,2.193,2.193,0,0,1,.5.237,3.367,3.367,0,0,1,.393.3,3.669,3.669,0,0,1,.624.722,7.225,7.225,0,0,1,.416.757l.156.352a2.158,2.158,0,0,1,.179.578,1.317,1.317,0,0,1-.15.849,1.606,1.606,0,0,1-.456.508,3.146,3.146,0,0,1-.785.387,10.535,10.535,0,0,1-2.408.531C283.763,344.919,282.926,344.815,282.88,344.6Z" transform="translate(-216.209 -197.861)" fill="#e0e0e0"/>
      <rect id="Rectangle_17922" data-name="Rectangle 17922" width="15.842" height="4.505" transform="translate(72.53 150.728) rotate(-179.55)" fill="#e0e0e0"/>
      <rect id="Rectangle_17923" data-name="Rectangle 17923" width="14.317" height="4.505" transform="translate(76.838 150.757) rotate(-179.55)" fill="#ebebeb"/>
      <path id="Path_32375" data-name="Path 32375" d="M291.743,347.432l-.1,4.522-1.675-.035.121-4.5Z" transform="translate(-219.274 -201.205)" fill="#fafafa"/>
      <path id="Path_32376" data-name="Path 32376" d="M271.038,347.29l-.162,4.482-1.837-.011.1-4.511Z" transform="translate(-210.432 -201.134)" fill="#fafafa"/>
    </g>
  </g>
</svg>
