<svg id="Layer_1" data-name="Layer 1" xmlns="http://www.w3.org/2000/svg" viewBox="0 0 792 612"><defs><style>.cls-1{fill:#001854;}.cls-2{fill:#f15a29;}</style></defs><path class="cls-1" d="M245.07,294a15.62,15.62,0,0,0-3.61-3.93,7.47,7.47,0,0,0-4.58-1.6H217.6a8.17,8.17,0,0,0-5,1.6A14.59,14.59,0,0,0,209,294a18.75,18.75,0,0,0-2.19,5,18.31,18.31,0,0,0-.73,4.85,17.38,17.38,0,0,0,.91,5.44,18.47,18.47,0,0,0,2.61,5.12,14.6,14.6,0,0,0,4.11,3.84,10.12,10.12,0,0,0,5.44,1.51h15.54a11.2,11.2,0,0,0,5.67-1.47,14.06,14.06,0,0,0,4.29-3.74,17.9,17.9,0,0,0,2.7-5.12,17.33,17.33,0,0,0,1-5.58,15.72,15.72,0,0,0-.87-4.85A21.88,21.88,0,0,0,245.07,294Z"/><path class="cls-1" d="M158.14,261V319.7h27.37a31.51,31.51,0,0,0,4.42,6.23,33,33,0,0,0,9.53,7.24v.5H133.28a8.3,8.3,0,0,0,1.32-2.6,10.17,10.17,0,0,0,.41-2.78V248.88L117.78,261V347.7H521V288.87H500.24c-.05,0-.7.13-1.91.32s-2.63.55-4.2,1V275h77.51v15.18c-.61-.12-1.28-.24-2-.41s-1.45-.26-2.15-.36l-1.83-.26a6,6,0,0,1-1-.25H544.67v74.25l12.82-15.42H674.22V261Zm107.31,59.83A31.59,31.59,0,0,1,252,331.48a13.49,13.49,0,0,1-1.74.62c-.8.25-1.62.49-2.46.73a22.9,22.9,0,0,1-2.37.6,9.58,9.58,0,0,1-1.56.24H212.2a26,26,0,0,1-11.44-2.55,29.85,29.85,0,0,1-9-6.84,31.95,31.95,0,0,1-8.13-21.14,26.49,26.49,0,0,1,2.29-10.84,30.24,30.24,0,0,1,6.23-9.15,29.64,29.64,0,0,1,9.12-6.3,26.58,26.58,0,0,1,11-2.34h31.63a14.88,14.88,0,0,1,3.83.51q1.92.51,3.84,1.23a29.22,29.22,0,0,1,3.67,1.69c1.16.65,2.24,1.28,3.28,1.88a53.76,53.76,0,0,1,5.07,5.22,29.39,29.39,0,0,1,3.77,5.62,27.68,27.68,0,0,1,2.27,6.35,31.75,31.75,0,0,1,.79,7.31A27.89,27.89,0,0,1,265.45,320.78ZM346,306.06a10.82,10.82,0,0,0-.48,3.28v24.33H295.94a16.94,16.94,0,0,1-9.66-3,32,32,0,0,1-7.72-7.56,38.51,38.51,0,0,1-5.12-9.63,28.56,28.56,0,0,1-1.83-9.44,29,29,0,0,1,1.88-10,32.8,32.8,0,0,1,5.26-9.41,27.69,27.69,0,0,1,8.09-7,20.2,20.2,0,0,1,10.28-2.7H413.44V289.7h-.65a12.28,12.28,0,0,1-1.55-.25,4.67,4.67,0,0,1-1.64-.48h-104a8.72,8.72,0,0,0-4.93,1.45,13.79,13.79,0,0,0-3.74,3.72,17.66,17.66,0,0,0-2.39,4.87,16.91,16.91,0,0,0-.82,5,17.92,17.92,0,0,0,.82,5.22,17.65,17.65,0,0,0,2.42,5,14.6,14.6,0,0,0,3.93,3.79,9.85,9.85,0,0,0,5.36,1.5h15.45V309.44c-.2-1.11-.39-2.2-.61-3.28a32.75,32.75,0,0,0-.87-3.48h26.89C346.7,304,346.31,305.07,346,306.06Zm69.35,27.61H349.5a5.11,5.11,0,0,0,1.18-2.1,6.89,6.89,0,0,0,.46-2.19v-32.9h52.93c1.36-.27,2.44-.46,3.26-.65a15.68,15.68,0,0,1,1.91-.37c.46-.07.87-.12,1.23-.19v17.84a4,4,0,0,0-1.69-.7c-1-.27-1.93-.48-2.77-.63s-1.36-.24-1.48-.24H374.36v8.16H405c.6,0,1.4-.05,2.39-.15s1.93-.21,2.92-.36,1.91-.34,2.83-.55a22,22,0,0,0,2.19-.61Zm79.85-18a85.11,85.11,0,0,1,.7,11v6.95h-77.8V318a14.83,14.83,0,0,1,3.14.92,9.68,9.68,0,0,0,3.43.72h46.08a19.58,19.58,0,0,0-.1-2.24,3.86,3.86,0,0,0-.46-1.59,6.15,6.15,0,0,0-1.08-1.48,25.5,25.5,0,0,0-2-1.73,2.54,2.54,0,0,0-.77-.44,2.78,2.78,0,0,0-.8-.29H439.63a18.53,18.53,0,0,1-7-1.54,28.91,28.91,0,0,1-7-4.18,23.54,23.54,0,0,1-5.38-6,12.58,12.58,0,0,1-2.15-6.92V275h71.76v16.17a5,5,0,0,1-1-.36c-.43-.17-.89-.36-1.38-.53a11.43,11.43,0,0,0-1.44-.46,5.62,5.62,0,0,0-1.11-.19H443c.05,2.63.58,4.49,1.55,5.57a4.21,4.21,0,0,0,3.21,1.65H474.1a19.34,19.34,0,0,1,5.21.77,29,29,0,0,1,5.17,2,22.23,22.23,0,0,1,4.34,2.87,11.2,11.2,0,0,1,2.75,3.28A24.34,24.34,0,0,1,495.17,315.69Zm163.19-40a7.9,7.9,0,0,1-1.06,2.48,4.47,4.47,0,0,0-.77,1.64l-27.33,26.7v19a13.28,13.28,0,0,0,.63,4.22,31.46,31.46,0,0,1,1.11,3.93H603.79a17.16,17.16,0,0,1,.36-1.83c.19-.8.36-1.59.55-2.44s.34-1.57.51-2.22a7.64,7.64,0,0,0,.22-1.38V306.33l-26-26.51a4.18,4.18,0,0,0-.78-1.64,8.29,8.29,0,0,1-1-2.48l-.39-.73h29.09a5.27,5.27,0,0,0-.46,1c-.2.46-.36.91-.56,1.42s-.34.94-.46,1.4a4.48,4.48,0,0,0-.17,1.06l12.8,12.07,12.69-12.07a4,4,0,0,0-.21-1.06c-.15-.46-.32-.92-.51-1.4s-.36-1-.56-1.42-.28-.78-.36-1h30.17Z"/><path class="cls-2" d="M199.46,333.17v.5H133.28a8.3,8.3,0,0,0,1.32-2.6,10.17,10.17,0,0,0,.41-2.78V248.88L158.14,261V319.7h27.37a31.51,31.51,0,0,0,4.42,6.23A33,33,0,0,0,199.46,333.17Z"/></svg>