<svg id="freepik--question-mark--inject-82" xmlns="http://www.w3.org/2000/svg" width="37.345" height="50.498" viewBox="0 0 37.345 50.498">
  <path id="Path_27807" data-name="Path 27807" d="M437.27,41.84a28.321,28.321,0,0,1,1.48-3.33,21,21,0,0,1,2.11-3.23,20.747,20.747,0,0,1,2.9-3,22.62,22.62,0,0,1,3.84-2.61,19.25,19.25,0,0,1,5.85-2.13,13.83,13.83,0,0,1,5.45.06,11.8,11.8,0,0,1,4.7,2.2,13.31,13.31,0,0,1,3.58,4.28,13.91,13.91,0,0,1,1.69,4.9,14.359,14.359,0,0,1-.08,4.31,15.89,15.89,0,0,1-1.15,3.77c-.53,1.17-1,2.28-1.49,3.31a22.224,22.224,0,0,0-1.09,2.9,4,4,0,0,0,0,2.53L467,61.24l-5.77,3.14-3.61-5.24a5.09,5.09,0,0,1-1.07-3.06,9.75,9.75,0,0,1,.56-3.19,27.573,27.573,0,0,1,1.41-3.29A25.005,25.005,0,0,0,460,46.16a11.94,11.94,0,0,0,.64-3.58,7.41,7.41,0,0,0-1-3.73,5.81,5.81,0,0,0-1.66-2,5.69,5.69,0,0,0-2.19-1,6.62,6.62,0,0,0-2.55,0,9.26,9.26,0,0,0-2.68,1,13,13,0,0,0-3.06,2.22,14.2,14.2,0,0,0-1.76,2.2c-.43.7-.79,1.3-1.07,1.82a2.46,2.46,0,0,1-.92,1.06,2.12,2.12,0,0,1-2.33-.05ZM463.6,74.77a6.19,6.19,0,0,1-.71-2.23,5.651,5.651,0,0,1,.19-2.22,5.769,5.769,0,0,1,1-2,5.63,5.63,0,0,1,1.82-1.52,5.72,5.72,0,0,1,2.25-.7,6.2,6.2,0,0,1,2.24.2,5.7,5.7,0,0,1,2,1,6,6,0,0,1,2.2,4,5.911,5.911,0,0,1-.22,2.23,5.76,5.76,0,0,1-1.06,2,5.66,5.66,0,0,1-1.81,1.5,6.11,6.11,0,0,1-2.26.73,5.84,5.84,0,0,1-2.22-.18,5.55,5.55,0,0,1-2-1A6.049,6.049,0,0,1,463.6,74.77Z" transform="translate(-437.27 -27.298)" fill="#e0e0e0"/>
</svg>
