<svg xmlns="http://www.w3.org/2000/svg" width="65.032" height="65.032" viewBox="0 0 65.032 65.032">
  <g id="Group_15164" data-name="Group 15164" transform="translate(-1005 -1151)">
    <g id="Group_4641" data-name="Group 4641" transform="translate(12)">
      <path id="Path_8574" data-name="Path 8574" d="M61.387,1H5.645A4.65,4.65,0,0,0,1,5.645V61.387a4.65,4.65,0,0,0,4.645,4.645H61.387a4.65,4.65,0,0,0,4.645-4.645V5.645A4.65,4.65,0,0,0,61.387,1ZM5.645,4.1H61.387a1.549,1.549,0,0,1,1.548,1.548v7.742H4.1V5.645A1.549,1.549,0,0,1,5.645,4.1ZM61.387,62.936H5.645A1.549,1.549,0,0,1,4.1,61.387v-44.9H62.936v44.9a1.549,1.549,0,0,1-1.548,1.548Z" transform="translate(992 1150)" fill="#021955"/>
      <g id="Component_14_7" data-name="Component 14 – 7" transform="translate(1018 1178)">
        <path id="Union_1" data-name="Union 1" d="M-4613,16V9h-7V7h7V0h2V7h7V9h-7v7Z" transform="translate(4620)" fill="#021955"/>
      </g>
    </g>
  </g>
</svg>
