<svg xmlns="http://www.w3.org/2000/svg" width="36.763" height="29.928" viewBox="0 0 36.763 29.928">
  <g id="noun_news_1401378" transform="translate(0.999 -4.021)">
    <g id="Group_18689" data-name="Group 18689" transform="translate(-0.999 4.021)">
      <path id="Path_21999" data-name="Path 21999" d="M24.579,29.033V18.664s0,0,0-.007V4.7a.681.681,0,0,0-.681-.681H-.318A.681.681,0,0,0-1,4.7V29.033a4.918,4.918,0,0,0,4.913,4.912H26.959A6.265,6.265,0,0,1,24.579,29.033Zm-22-20.758a.674.674,0,0,1,.681-.681h7.959a.678.678,0,0,1,.681.681v7.959a.683.683,0,0,1-.681.681H3.255a.678.678,0,0,1-.681-.681Zm18.2,21.574H3.252a.681.681,0,0,1,0-1.362H20.774a.681.681,0,1,1,0,1.362Zm0-4.638H3.252a.681.681,0,1,1,0-1.362H20.774a.681.681,0,1,1,0,1.362Zm0-4.638H3.252a.681.681,0,1,1,0-1.362H20.774a.681.681,0,1,1,0,1.362Zm.4-5.359H14.427a.681.681,0,0,1,0-1.362h6.744a.681.681,0,0,1,0,1.362Zm0-4.562H14.427a.681.681,0,0,1,0-1.362h6.744a.681.681,0,0,1,0,1.362Z" transform="translate(0.999 -4.021)" fill="#202020"/>
      <path id="Path_22000" data-name="Path 22000" d="M47.712,24.529H39.25a.678.678,0,0,0-.681.681V35.579a4.912,4.912,0,1,0,9.824,0V25.21A.678.678,0,0,0,47.712,24.529Z" transform="translate(-11.63 -10.567)" fill="#202020"/>
    </g>
  </g>
</svg>
