<svg xmlns="http://www.w3.org/2000/svg" width="32.699" height="31.46" viewBox="0 0 32.699 31.46">
  <g id="noun_Work_2788760" transform="translate(-2.5 -4.3)">
    <path id="Path_20649" data-name="Path 20649" d="M30.208,10.5H25.6V8.43a4.143,4.143,0,0,0-4.13-4.13H16.234A4.143,4.143,0,0,0,12.1,8.43V10.5H7.491A5,5,0,0,0,2.5,15.487V30.769A5,5,0,0,0,7.491,35.76H30.208A5,5,0,0,0,35.2,30.769V15.487A5,5,0,0,0,30.208,10.5ZM15.2,8.43A1.059,1.059,0,0,1,16.234,7.4h5.232A1.059,1.059,0,0,1,22.5,8.43V10.5H15.2Zm-7.71,5.163H30.208A1.91,1.91,0,0,1,32.1,15.487v3.58a40.838,40.838,0,0,1-8.639,1.755,3.579,3.579,0,0,0-3.511-2.857H17.817a3.585,3.585,0,0,0-3.511,2.857,37.612,37.612,0,0,1-8.674-1.755v-3.58A1.838,1.838,0,0,1,7.491,13.593Zm12.942,7.951v2.134a.529.529,0,0,1-.516.516H17.783a.529.529,0,0,1-.516-.516V21.545a.529.529,0,0,1,.516-.516h2.134A.555.555,0,0,1,20.433,21.545Zm9.775,11.118H7.491A1.91,1.91,0,0,1,5.6,30.769V22.336A44.362,44.362,0,0,0,14.2,23.92a3.634,3.634,0,0,0,3.58,3.373h2.134A3.608,3.608,0,0,0,23.5,23.92a44.005,44.005,0,0,0,8.571-1.583v8.433A1.859,1.859,0,0,1,30.208,32.662Z" fill="#202020"/>
  </g>
</svg>
