<svg id="noun_play_906231" xmlns="http://www.w3.org/2000/svg" width="36.198" height="36.198" viewBox="0 0 36.198 36.198">
  <path id="Path_17209" data-name="Path 17209" d="M19,.9A18.1,18.1,0,1,0,37.1,19,18.107,18.107,0,0,0,19,.9Zm0,33.139A15.04,15.04,0,1,1,34.039,19,15.055,15.055,0,0,1,19,34.039Z" transform="translate(-0.9 -0.9)" fill="#c8523b"/>
  <path id="Path_17210" data-name="Path 17210" d="M40.174,45.226a1.446,1.446,0,0,0,.664.147,1.224,1.224,0,0,0,.774-.258l7.446-5.087a1.415,1.415,0,0,0,.59-1.143,1.358,1.358,0,0,0-.627-1.143L41.575,32.8a1.432,1.432,0,0,0-1.438-.074,1.413,1.413,0,0,0-.737,1.216V43.973A1.416,1.416,0,0,0,40.174,45.226Z" transform="translate(-25.208 -20.897)" fill="#c8523b"/>
</svg>
